<?xml version="1.0" encoding="utf-8"?>
<!-- Generator: Adobe Illustrator 19.2.1, SVG Export Plug-In . SVG Version: 6.00 Build 0)  -->
<svg version="1.1"
	 id="Layer_1" xmlns:cc="http://creativecommons.org/ns#" xmlns:dc="http://purl.org/dc/elements/1.1/" xmlns:inkscape="http://www.inkscape.org/namespaces/inkscape" xmlns:rdf="http://www.w3.org/1999/02/22-rdf-syntax-ns#" xmlns:sodipodi="http://sodipodi.sourceforge.net/DTD/sodipodi-0.dtd" xmlns:svg="http://www.w3.org/2000/svg"
	 xmlns="http://www.w3.org/2000/svg" xmlns:xlink="http://www.w3.org/1999/xlink" x="0px" y="0px" viewBox="0 0 213 213"
	 style="enable-background:new 0 0 213 213;" xml:space="preserve">
<g transform="translate(0,-952.36218)">
	<g transform="matrix(0.13794725,0,0,0.13794725,-5.2935097,924.95886)">
		<path d="M1278.3,1517.7c-2.9,0-4.8-0.3-5.2-2.1c-0.1-0.5-0.1-1.8,1.7-2.5l0,0c1.9-0.8,4.9-0.8,6.8,0c1.9,0.8,1.8,2,1.7,2.5
			C1283.1,1517.4,1281.3,1517.7,1278.3,1517.7z M1275.6,1514.8l0.6,1.7c0,0,0.1,0,0.1-0.1L1275.6,1514.8z M1280.7,1513.9
			L1280.7,1513.9L1280.7,1513.9z M1141.5,1499.9c-0.2,0-0.3,0-0.5,0c-4.8,0-6.7-0.2-6.9-2.2c-0.2-1.9,1.9-2.3,2.8-2.4h0
			c3-0.6,7.2-0.5,9.6,0.1c1.9,0.5,2.2,1.6,2.1,2.4C1148.3,1499.5,1146.9,1499.9,1141.5,1499.9z M978.7,1408.2c-0.5,0-1.7,0-5.3-4.5
			l0,0c-2.2-2.8-3-3.9-1.8-5.1c1.3-1.3,2.3-0.4,5.1,1.8c3.7,2.9,5,4.7,4.4,6.3C981.1,1407.1,980.5,1408.2,978.7,1408.2z
			 M1244.7,1401.4c-0.2,0-0.4,0-0.7,0c-1.3,0-3.7-0.1-4.1-2.1c-0.2-1.2,0.5-2.1,2.1-2.8l0,0c2-0.8,4.7-0.9,6.2,0.6
			c0.8,0.8,0.8,1.9,0.5,2.5C1248.3,1400.9,1246.9,1401.4,1244.7,1401.4z M1243,1400.2L1243,1400.2L1243,1400.2z M1029.6,1392.7
			c-1.3,0-2.9-1-4.9-2.3c-0.9-0.6-3-1.9-2.4-3.8c0.2-0.6,0.8-1.7,2.7-1.7c0,0,0,0,0.1,0c2.1,0,4.4,1.3,5.5,3
			c0.7,1.2,1.8,2.9,0.5,4.2C1030.6,1392.5,1030.1,1392.7,1029.6,1392.7z M1199.7,1283c-0.3,0-0.5,0-0.8-0.1
			c-0.5-0.2-1.6-0.7-1.6-2.5c0-0.5,0-1.7,4.5-5.3c2.8-2.2,3.9-3,5.1-1.8c1.3,1.3,0.4,2.3-1.8,5.1
			C1202.8,1281.6,1201.2,1283,1199.7,1283z M1199.2,1280.3l0.6,0l0,0H1199.2z M958.5,1273.2c-0.1,0-0.3,0-0.4,0
			c-1.9-0.4-2.1-2.8-2.1-5.2c0-2.9,0.3-4.8,2.1-5.2c0.5-0.1,1.8-0.1,2.5,1.7c0.8,2,0.8,4.9,0,6.9
			C960.1,1272.9,959.2,1273.2,958.5,1273.2z M961.1,1253.6c-0.2,0-0.4,0-0.5-0.1c-1.8-0.4-3-2.7-3.5-4c-0.7-1.9-1.4-3.8,0.1-4.8
			c1.5-1,2.9,0.4,4.1,1.6c1.4,1.4,2.3,3.1,2.3,4.5c0,1-0.4,1.7-0.8,2C962.3,1253.3,961.7,1253.6,961.1,1253.6z M734.4,1251.8
			c-0.3,0-0.6-0.1-0.9-0.2c-1.3-0.6-1.8-2.1-1.7-4.8v0c0.1-1.3,0.2-3.7,2.1-4.1c1.1-0.2,2.1,0.5,2.8,2.1c0.8,2,0.8,4.7-0.6,6.2
			C735.6,1251.6,735,1251.8,734.4,1251.8z M984.9,1227.7c-0.3,0-0.6-0.1-0.9-0.2c-1.3-0.6-1.8-2.1-1.7-4.8v0
			c0.1-1.3,0.2-3.7,2.1-4.1c1.2-0.2,2.1,0.5,2.8,2.1c0.8,2,0.8,4.8-0.6,6.2C986,1227.5,985.4,1227.7,984.9,1227.7z M918.5,1188.5
			c-0.3,0-0.5,0-0.8-0.1c-0.5-0.2-1.6-0.7-1.6-2.5c0-0.5,0-1.7,4.5-5.3c2.8-2.2,3.9-3,5.1-1.8c1.3,1.3,0.4,2.3-1.8,5.1
			C921.6,1187.1,920,1188.5,918.5,1188.5z M918,1185.9l0.6,0l0,0H918z M275.5,1172.4c-1.7,0-3.1-0.6-3.7-1.7
			c-0.5-0.9-0.4-1.9,0.1-2.9c1.2-1.9,3.7-2.4,5.7-1.2c1.2,0.8,3.2,2,2.7,3.9C279.8,1172.4,277.2,1172.4,275.5,1172.4z M901.4,1172.1
			c-0.1,0-0.3,0-0.4,0c-1.9-0.4-2-2.8-2-5.2c0-2.4,0.2-4.8,2-5.2c0.5-0.1,1.8-0.1,2.6,1.7c0.8,2,0.8,4.9,0,6.9
			C903,1171.9,902,1172.1,901.4,1172.1z M902.8,1169.3C902.8,1169.3,902.8,1169.3,902.8,1169.3S902.8,1169.3,902.8,1169.3z
			 M902.8,1164.5C902.8,1164.5,902.8,1164.5,902.8,1164.5C902.8,1164.5,902.8,1164.5,902.8,1164.5z M762.5,1168.8
			c-0.3,0-0.5,0-0.8-0.1c-0.5-0.2-1.6-0.7-1.6-2.5c0-0.6,0-1.7,4.5-5.3c2.8-2.2,3.9-3,5.1-1.8c1.3,1.3,0.4,2.3-1.8,5.1
			C765.6,1167.4,764,1168.8,762.5,1168.8z M762,1166.1l0.6,0l0,0H762z M773.5,1157.8c-0.3,0-0.5,0-0.8-0.1c-0.5-0.2-1.6-0.7-1.6-2.5
			c0-0.5,0-1.7,4.5-5.3c2.8-2.2,3.9-3,5.1-1.8c1.3,1.3,0.4,2.3-1.8,5.1C776.6,1156.4,775,1157.8,773.5,1157.8z M773,1155.1l0.6,0
			l0,0H773z M1229.2,1151c-0.2,0-0.4,0-0.6,0c-1.3-0.1-3.7-0.2-4.1-2.1c-0.2-1.2,0.5-2.1,2.1-2.8l0,0c2-0.8,4.7-0.8,6.2,0.6
			c0.8,0.8,0.8,1.9,0.6,2.5C1232.9,1150.4,1231.5,1151,1229.2,1151z M1227.6,1149.7L1227.6,1149.7L1227.6,1149.7z M594.3,1096.1
			c-0.2,0-0.4,0-0.6,0c-1.3-0.1-3.7-0.2-4.1-2.1c-0.2-1.2,0.5-2.1,2.1-2.8c2-0.8,4.7-0.8,6.2,0.6c0.8,0.8,0.8,1.9,0.6,2.5
			C598,1095.5,596.6,1096.1,594.3,1096.1z M1187,1052.3c-1.8,0-3.2-2.3-3.7-3.2l0,0c-1.1-1.7-1.6-4.2-0.1-5.6
			c0.6-0.6,1.4-0.8,2.2-0.6c1.7,0.4,2.7,2.4,3.2,3.6c0.4,1.1,1.7,4.5-0.5,5.6C1187.7,1052.2,1187.3,1052.3,1187,1052.3z
			 M369.6,1048.8c-0.5,0-1-0.1-1.4-0.3c-0.8-0.4-1.2-1.2-1.2-2.1c0-3,5-5.2,5.6-5.4c2.5-1,4.3-1,5.4,0.1l0.6,0.6l0,1
			c-0.1,0.5-0.2,1.8-4.5,4.5C372.8,1048,371.1,1048.8,369.6,1048.8z M1291,942.3c-1.3,0-2.9-1-4.9-2.3l0,0c-0.9-0.6-3-1.9-2.4-3.8
			c0.2-0.6,0.8-1.7,2.7-1.7c2,0,4.5,1.3,5.5,3c0.7,1.2,1.8,2.9,0.5,4.2C1292,942.1,1291.5,942.3,1291,942.3z M1300.3,915.7
			c-2.4,0-4.8-0.2-5.2-2.1c-0.1-0.5-0.1-1.8,1.7-2.5l0,0c2-0.8,4.9-0.8,6.9,0c1.9,0.8,1.8,2,1.7,2.5
			C1305.1,915.6,1302.7,915.7,1300.3,915.7z M1297.5,912.8l0.6,1.7c0,0,0.1,0,0.1-0.1L1297.5,912.8z M365.9,900.6
			c-0.2,0-0.4,0-0.7,0c-1.3-0.1-3.7-0.2-4.1-2.1c-0.2-1.2,0.5-2.1,2.1-2.7l0,0h0l0,0c2-0.8,4.7-0.9,6.2,0.6c0.9,0.8,0.8,1.9,0.6,2.5
			C369.5,900,368.2,900.6,365.9,900.6z M81.8,898.4c-0.1,0-0.3,0-0.4,0c-1-0.2-2.1-1-2.1-3.8c0-1.8,1.3-3.9,3-4.9
			c1.6-1,2.8-0.4,3.1,0c1,0.8,1.1,2.3,0.4,4.3C84.6,897,83.3,898.4,81.8,898.4z M1245.2,891.9c-0.7,0-1.9,0-12.1-10.4
			c-9.8-10-9.5-10.7-9-11.8l0.5-1.1l1.3,0c0.7,0,1.9,0,12.1,10.4c9.8,10,9.5,10.7,9,11.8l-0.5,1.1L1245.2,891.9z M1143.6,885.2
			c-0.2,0-0.4,0-0.6,0c-1.3-0.1-3.7-0.2-4.1-2.1c-0.2-1.2,0.5-2.1,2.1-2.8l0,0c2-0.8,4.7-0.8,6.2,0.6c0.8,0.8,0.8,1.9,0.6,2.5
			C1147.2,884.6,1145.9,885.2,1143.6,885.2z M1149.2,870c-0.3,0-0.5,0-0.8-0.1c-0.5-0.2-1.6-0.7-1.6-2.5c0-0.5,0-1.7,4.5-5.3
			c2.8-2.2,3.9-3,5.2-1.8c1.3,1.3,0.4,2.3-1.8,5.1C1152.3,868.6,1150.6,870,1149.2,870z M1148.7,867.3l0.6,0l0,0H1148.7z
			 M375.6,867.8c-1.8,0-4-1.4-5.1-3.2l0,0c-1.9-3.1-1.2-4.6-0.3-5.3c1-0.8,2.9-1,6.1,2.4c1.6,1.8,2.2,3.4,1.7,4.7
			C377.5,867.2,376.7,867.8,375.6,867.8z M337.2,854.6c-0.4,0-0.8,0-1.1-0.1c-1.2-0.4-2-1.3-2-2.6c0-0.5,0-2.1,4.6-3.9
			c2-0.8,3.5-0.7,4.3,0.4c0.3,0.4,1,1.5,0,3.2C341.7,853.3,339.2,854.6,337.2,854.6z M367,832.1c-0.7,0-1.3-0.2-1.7-0.9
			c-1-1.5,0.4-2.9,1.6-4.1l0,0c1.4-1.4,3.1-2.3,4.5-2.3c1,0,1.7,0.4,2,0.8c0.6,0.6,0.8,1.4,0.7,2.2c-0.4,1.8-2.7,3-4,3.5
			C369,831.7,367.9,832.1,367,832.1z M1323.2,825.6c-0.3,0-0.6-0.1-0.9-0.2c-1.3-0.6-1.8-2.1-1.7-4.8l0,0c0.1-1.3,0.2-3.7,2.1-4.1
			c1.2-0.2,2.1,0.5,2.7,2.1c0.8,2,0.8,4.7-0.6,6.2C1324.3,825.4,1323.7,825.6,1323.2,825.6z M1319.2,775.5c-0.5,0-1.7,0-5.3-4.5
			c-2.2-2.8-3-3.9-1.8-5.1c1.3-1.3,2.3-0.4,5.1,1.8c3.7,2.9,5,4.7,4.4,6.3C1321.6,774.4,1321,775.5,1319.2,775.5z M1308.7,722.7
			c-1.5,0-3.4-1.7-8.8-7.7v0l-6.5-7.1l2.6-2.6l7.1,6.4c7.7,7,7.7,7.8,7.7,8.5c0,1.6-1,2.2-1.4,2.3
			C1309.2,722.7,1308.9,722.7,1308.7,722.7z M1268.7,718.4c-0.5,0-1.7,0-5.3-4.5c-2.2-2.8-3-3.9-1.8-5.1c1.3-1.3,2.3-0.4,5.1,1.8
			c3.7,2.9,5,4.7,4.4,6.3C1271.1,717.3,1270.5,718.4,1268.7,718.4z M1273.1,707.4c-0.5,0-1.7,0-5.3-4.5h0c-2.2-2.8-3-3.9-1.8-5.2
			c1.3-1.3,2.3-0.4,5.1,1.8c3.7,2.9,5,4.7,4.4,6.3C1275.5,706.3,1274.9,707.4,1273.1,707.4z M1420.7,703c-1.5,0-3.4-1.7-8.8-7.7
			l-6.5-7.1l2.6-2.6l7.1,6.4c7.7,7,7.7,7.7,7.7,8.5c0,1.6-1,2.2-1.4,2.3C1421.2,702.9,1421,703,1420.7,703z M1433,698.2
			c-0.3,0-0.6-0.1-0.9-0.2c-1.3-0.6-1.8-2.1-1.7-4.8v0c0.1-1.3,0.2-3.7,2.1-4.1c1.1-0.2,2.1,0.5,2.8,2.1c0.8,2,0.8,4.7-0.6,6.2
			C1434.2,698,1433.6,698.2,1433,698.2z M1247.6,681c-2.2,0-4-1.9-4-4.1c0-1.2,0.5-2.3,1.5-2.8c1-0.6,2.3-0.5,3.5,0.3
			c0.7,0.4,3.1,2,3.1,3.9C1251.6,679.9,1249.9,681,1247.6,681z M1258.1,672.2c-1.5,0-3.2-1.6-7.7-6.7l-5.3-6l2.6-2.6l6,5.3
			c6.7,5.9,6.7,6.7,6.7,7.4c0,1.6-1,2.2-1.4,2.4C1258.6,672.2,1258.4,672.2,1258.1,672.2z M1376.4,663.4c-0.6,0-1.6,0-6.3-5.6
			l-4.2-4.9l2.5-2.5l4.9,4.2c4.8,4.1,6.1,5.7,5.5,7.4C1378.7,662.4,1378.1,663.4,1376.4,663.4z M1184.4,660.9c-0.5,0-1-0.2-1.4-0.6
			c-0.8-0.8-0.7-1.7-0.4-2.6c-1.5,0.4-2.8,0.2-3.8-0.4c-0.8-0.5-1.2-1.4-1.2-2.3c0-1.7,1.2-3.1,3.1-3.6c2.5-0.7,6.3,0.1,7.9,2.6
			c0.6,1,0.7,2.3,0.3,3.5c-0.4,1.1-1.2,2-2.2,2.6C1186.2,660.4,1185.3,660.9,1184.4,660.9z M1183.9,655.4L1183.9,655.4L1183.9,655.4
			z M1180.1,621.5c-0.3,0-0.7-0.1-1.1-0.3c-1.5-1-0.8-2.8-0.1-4.8l0,0c0.5-1.3,1.6-3.6,3.5-4c0.8-0.2,1.6,0.1,2.2,0.7
			c0.4,0.4,0.8,1,0.8,2c0,1.4-0.9,3.1-2.3,4.5C1182.3,620.5,1181.2,621.5,1180.1,621.5z M1358.3,590.6c-0.3,0-0.6-0.1-0.9-0.2
			c-1.3-0.6-1.8-2.1-1.7-4.8v0c0.1-1.3,0.2-3.7,2.1-4.1c1.1-0.2,2.1,0.5,2.8,2.1c0.8,2,0.8,4.7-0.6,6.2
			C1359.5,590.4,1358.9,590.6,1358.3,590.6z M1365.7,575.6c-1.5,0-3.2-1.5-6.6-5.6l-4.2-4.9l2.5-2.6l4.9,4.2
			c5.6,4.7,5.6,5.7,5.6,6.3c0,1.7-1,2.3-1.5,2.4C1366.3,575.5,1366,575.6,1365.7,575.6z M1308.3,568.8c-0.2,0-0.4,0-0.6,0
			c-1.3,0-3.7-0.2-4.1-2.1c-0.2-1.2,0.5-2.1,2.1-2.7l0,0c2-0.8,4.7-0.8,6.2,0.6c0.4,0.4,0.7,0.9,0.7,1.4c0.1-0.6,0.5-1.4,1.8-1.9
			l0,0c1.9-0.8,4.9-0.8,6.8,0c1.9,0.8,1.8,2,1.7,2.5c-0.3,1.7-2.2,2.1-5.2,2.1c-2.9,0-4.8-0.3-5.2-2.1c0,0,0-0.1,0-0.1
			c0,0.2-0.1,0.4-0.2,0.6C1312,568.3,1310.6,568.8,1308.3,568.8z M1306.7,567.5L1306.7,567.5L1306.7,567.5z M1315.1,565.7l0.6,1.7
			c0,0,0.1,0,0.1-0.1L1315.1,565.7z M467.2,495.3c-0.1,0-0.2,0-0.3,0c-2-0.2-3.9-3.1-4.9-4.8c-2.3-3.8-2.9-4.8-1.5-6
			c1.4-1.1,2.2-0.3,5.4,2.7c1.1,1,3.6,3.6,3.6,5.7l0,0.8l-0.7,0.9C468.3,495.1,467.7,495.3,467.2,495.3z M491.8,487.5
			c-1.3,0-3.4-1-7.4-3.3l0,0c-4.2-2.4-4.8-3.7-4.5-5c0.2-0.7,0.8-1.5,2.2-1.6c2.3-0.1,5.8,2.1,7.7,3.5c2.6,1.9,4.8,3.6,3.6,5.5
			C492.9,487.1,492.5,487.5,491.8,487.5z M1305.6,481.1c-1.8,0-3.1-0.7-3.8-1.8c-0.5-1-0.5-2.1,0.2-3.2l0,0c0.6-1,1.7-1.8,2.8-2
			c1.1-0.3,2.2-0.1,3.1,0.5c0.8,0.5,3.3,2.1,2.7,4.3C1310,481.1,1306.7,481.1,1305.6,481.1z M1303.6,477.1l1.5,1c0,0,0,0,0,0
			L1303.6,477.1z M1307.6,477.3L1307.6,477.3L1307.6,477.3z M456.7,480.8c-2.9,0-4.8-0.3-5.2-2.1c-0.1-0.5-0.1-1.8,1.7-2.5l0,0
			c2-0.8,4.9-0.8,6.8,0c1.9,0.8,1.8,2,1.7,2.6C461.5,480.4,459.6,480.8,456.7,480.8z M453.9,477.8l0.6,1.7c0,0,0.1,0,0.1-0.1
			L453.9,477.8l0.7,1.7L453.9,477.8z M454.3,476.9L454.3,476.9L454.3,476.9z M1247.6,471.7c-6.1,0-7.7-0.3-7.9-2.2
			c-0.2-1.8,1.9-2.2,2.6-2.4c3-0.6,7.6-0.6,10.6,0c0.8,0.1,2.8,0.5,2.6,2.4C1255.3,471.5,1253.6,471.7,1247.6,471.7z M1221.2,471.7
			c-6.1,0-7.7-0.3-7.9-2.2c-0.2-1.8,1.9-2.2,2.6-2.4c3-0.6,7.6-0.6,10.6,0c0.8,0.1,2.8,0.5,2.6,2.4
			C1228.9,471.5,1227.2,471.7,1221.2,471.7z M1130.5,456.3c-0.2,0-0.3,0-0.5,0c-6.5,0-8.1-0.2-8.3-2.2c-0.1-1.9,1.9-2.2,3.1-2.4l0,0
			c3.6-0.5,8.7-0.5,11.6,0c0.7,0.1,2.7,0.5,2.5,2.3C1138.8,455.9,1137.4,456.3,1130.5,456.3z M454.3,450.3c-1.2,0-2.7-0.8-4.6-2h0
			c-1.6-1-1.9-2.2-1.9-3c0-2,2-3.5,4.1-4.8c3.5-2.2,4.8-2.9,5.9-1.6c1.2,1.3,0.1,2.7-1.5,4.5c-1,1.2-1.3,2.3-1.2,2.6
			c1.3,1.1,1.6,2.4,0.7,3.4C455.5,450,455,450.3,454.3,450.3z M451.4,445l-0.7,1.8l0.9-1.4c0,0,0,0,0,0c-0.1,0.1-0.2,0.2-0.2,0.2
			C451.5,445.4,451.5,445.1,451.4,445z M983.2,432.6c-0.2,0-0.4,0-0.6,0c-1.3-0.1-3.7-0.2-4.1-2.1c-0.2-1.2,0.5-2.1,2.1-2.7l0,0
			c2-0.8,4.7-0.8,6.2,0.6c0.8,0.9,0.8,1.9,0.6,2.5C986.9,432,985.5,432.6,983.2,432.6z M501,423.5c-0.7,0-1.3-0.2-1.7-0.9
			c-1-1.5,0.4-2.9,1.6-4.1l0,0c1.4-1.4,3.1-2.3,4.5-2.3c0,0,0,0,0,0c1,0,1.6,0.4,2,0.8c0.6,0.6,0.8,1.4,0.7,2.2
			c-0.4,1.8-2.7,3-4,3.5C503,423,501.9,423.5,501,423.5z"/>
		<path d="M1148,1511.3c-0.2,0-0.4,0-0.6,0c-1.3-0.1-3.7-0.2-4.1-2.1c-0.2-1.2,0.5-2.1,2.1-2.8l0,0c2-0.8,4.7-0.8,6.2,0.6
			c0.9,0.9,0.8,1.9,0.6,2.5C1151.6,1510.7,1150.3,1511.3,1148,1511.3z M1231,1475.3c-0.2,0-0.3,0-0.4,0c-1.7-0.3-2.1-2.2-2.1-5.2
			s0.3-4.8,2.1-5.2c0.5-0.1,1.8-0.1,2.6,1.7c0.8,1.9,0.8,4.9,0,6.8C1232.5,1475,1231.6,1475.3,1231,1475.3z M1222.1,1412.2
			c-0.3,0-0.6-0.1-0.9-0.2c-1.3-0.6-1.8-2.1-1.7-4.8l0,0c0.1-1.3,0.2-3.7,2.1-4.1c1.2-0.2,2.1,0.5,2.7,2.1c0.8,2,0.8,4.7-0.6,6.2
			C1223.3,1412,1222.7,1412.2,1222.1,1412.2z M1251.2,1401.4c-0.2,0-0.4,0-0.7,0c-1.3,0-3.7-0.1-4.1-2.1c-0.2-1.2,0.5-2.1,2.1-2.8
			l0,0c2-0.8,4.7-0.8,6.2,0.6c0.9,0.9,0.8,1.9,0.6,2.5C1254.9,1400.9,1253.5,1401.4,1251.2,1401.4z M1214.2,1390.6
			c-1.5,0-3.2-1.6-7.7-6.7l-5.3-6l2.6-2.6l6,5.3c6.7,5.9,6.7,6.7,6.7,7.4c0,1.6-1,2.2-1.4,2.4
			C1214.7,1390.6,1214.4,1390.6,1214.2,1390.6z M1016.4,1326.9c-1.4,0-3.1-1.4-5.6-4.6h0c-2.2-2.8-3-3.9-1.8-5.2
			c1.3-1.3,2.3-0.4,5.1,1.8c4.5,3.5,4.5,4.8,4.5,5.3c0,1.8-1.1,2.4-1.6,2.5C1016.9,1326.9,1016.6,1326.9,1016.4,1326.9z
			 M1276.9,1271.9c-0.1,0-0.3,0-0.4,0c-1-0.2-2.1-1-2.1-3.8c0-1.8,1.3-3.9,3-5c1.6-1,2.7-0.4,3.2,0c1,0.8,1.1,2.3,0.4,4.3
			C1279.7,1270.4,1278.4,1271.9,1276.9,1271.9z M1278,1269L1278,1269L1278,1269z M1275.3,1243.4c-0.5,0-1.7,0-5.3-4.5l0,0
			c-2.2-2.8-3-3.9-1.8-5.1c1.3-1.3,2.3-0.4,5.1,1.8c3.7,2.9,5,4.7,4.4,6.3C1277.6,1242.3,1277.1,1243.4,1275.3,1243.4z
			 M734.4,1199.1c-0.3,0-0.6-0.1-0.9-0.2c-1.3-0.6-1.8-2.1-1.7-4.8v0c0.1-1.3,0.2-3.7,2.1-4.1c1.1-0.2,2.1,0.5,2.8,2.1
			c0.8,2,0.8,4.7-0.6,6.2C735.6,1198.9,735,1199.1,734.4,1199.1z M170.6,1023.8c-1.4,0-3.1-1.4-5.6-4.6l0,0c-2.2-2.8-3-3.9-1.8-5.1
			c1.3-1.3,2.3-0.4,5.1,1.8c4.5,3.6,4.5,4.8,4.5,5.3c0,1.8-1.1,2.4-1.6,2.5C171.1,1023.7,170.8,1023.8,170.6,1023.8z M1200.2,994.2
			c-0.1,0-0.3,0-0.4,0c-1.7-0.3-2.1-2.2-2.1-5.2c0-2.9,0.3-4.8,2.1-5.2c0.5-0.1,1.8-0.1,2.5,1.7c0.8,2,0.8,4.9,0,6.9
			C1201.8,993.9,1200.8,994.2,1200.2,994.2z M1145.3,927c-1.8,0-3.2-2.3-3.7-3.2l0,0c-1.1-1.7-1.6-4.2-0.1-5.6
			c0.6-0.6,1.3-0.8,2.1-0.6c1.7,0.4,2.7,2.4,3.2,3.6c0.4,1.1,1.7,4.5-0.5,5.6C1145.9,927,1145.6,927,1145.3,927z M1145.9,923.5
			L1145.9,923.5L1145.9,923.5z M170.1,916.1c-1.8,0-3.4-2.3-3.9-3.1l0,0c-0.7-1.2-0.8-2.5-0.3-3.5c0.5-0.9,1.5-1.5,2.8-1.5
			c2.3,0,4.1,1.8,4.1,4C172.9,914.4,171.7,916.1,170.1,916.1z M169.2,910.9l-1.4,1.2l1.4-0.9C169.2,911.1,169.2,911,169.2,910.9z
			 M1327.4,894.1c-0.1,0-0.3,0-0.4,0c-1-0.2-2.1-1-2.1-3.8c0-1.8,1.3-3.9,3-5c1.6-1,2.8-0.4,3.2,0c1,0.8,1.1,2.3,0.4,4.3
			C1330.9,890.7,1329.6,894.1,1327.4,894.1z M1340.5,839.1c-1.5,0-2.6-1.7-3.3-2.8v0c-0.6-1-0.8-2.2-0.5-3.3c0.2-1,0.9-1.9,1.7-2.4
			c0.9-0.6,2-0.6,2.9-0.1c1.1,0.6,1.7,2,1.7,3.7c0,1.7,0,4.3-1.9,4.8C1341,839.1,1340.7,839.1,1340.5,839.1z M888.4,689.8
			c-1.7,0-3.1-2.1-3.5-2.7v0c-0.6-0.9-0.6-2-0.1-2.9c1.2-2.2,6.1-2.2,7.3,0c0.5,0.9,0.5,1.9-0.1,2.9
			C891.5,687.8,890.1,689.8,888.4,689.8z M1367.6,654.7c-0.6,0-1.6,0-6.3-5.6l-4.2-4.9l2.6-2.5l4.9,4.2c4.9,4.1,6.1,5.7,5.4,7.4
			C1369.9,653.6,1369.3,654.7,1367.6,654.7z M1266.6,597.4c-0.2,0-0.4,0-0.6,0c-1.3-0.1-3.7-0.2-4.1-2.1c-0.2-1.2,0.5-2.1,2.1-2.8
			l0,0c2-0.8,4.7-0.8,6.2,0.6c0.8,0.8,0.8,1.9,0.6,2.5C1270.3,596.8,1268.9,597.4,1266.6,597.4z M1283.7,472.3
			c-1.7,0-3.1-0.7-3.8-1.8c-0.5-1-0.5-2.1,0.2-3.2l0,0c1.3-2.1,3.9-2.8,5.9-1.6c0.8,0.5,3.3,2.1,2.7,4.3
			C1288.1,472.3,1284.8,472.3,1283.7,472.3z M1281.6,468.3l1.5,1c0,0,0,0,0,0L1281.6,468.3l1.5,0.9L1281.6,468.3z M1283.2,469.2
			L1283.2,469.2z M1285.6,468.5L1285.6,468.5L1285.6,468.5z M1234.4,472c-2.9,0-4.8-0.3-5.2-2.1c-0.1-0.5-0.1-1.8,1.7-2.5h0
			c2-0.8,4.9-0.8,6.8,0c1.9,0.8,1.8,2,1.7,2.5C1239.2,471.6,1237.3,472,1234.4,472z M1231.6,469.1l0.6,1.7c0,0,0.1,0,0.1-0.1
			L1231.6,469.1l0.7,1.7L1231.6,469.1z M1232.3,470.7L1232.3,470.7L1232.3,470.7z M444.4,467.5c-0.3,0-0.6-0.1-0.9-0.2
			c-1.3-0.6-1.8-2.1-1.7-4.8l0,0c0.1-1.3,0.2-3.7,2.1-4.1c1.2-0.2,2.1,0.5,2.7,2.1c0.8,2,0.9,4.7-0.6,6.2
			C445.6,467.3,445,467.5,444.4,467.5z M1144.3,456.6c-2.9,0-4.8-0.3-5.2-2.1c-0.1-0.5-0.1-1.8,1.7-2.5l0,0c1.9-0.8,4.9-0.8,6.8,0
			c1.9,0.8,1.8,2,1.7,2.5C1149.1,456.2,1147.2,456.6,1144.3,456.6z M1141.6,453.7l0.6,1.7c0,0,0.1,0,0.1-0.1L1141.6,453.7z
			 M804.4,432.8c-2.2,0-5-2.4-6.7-4.5v0c-2.1-2.7-3-3.8-1.8-5.1c1.3-1.3,2.3-0.5,5.6,1.9c2.4,1.8,4.8,3.5,5.3,3.8l1.1,0.8l-0.2,1.6
			C807.2,432.8,805.2,432.8,804.4,432.8z M805.1,429.1L805.1,429.1L805.1,429.1z M974.4,426c-0.2,0-0.4,0-0.6,0
			c-1.3-0.1-3.7-0.2-4.1-2.1c-0.2-1.2,0.5-2.1,2.1-2.7l0,0c2-0.8,4.7-0.8,6.2,0.6c0.9,0.9,0.8,1.9,0.6,2.5
			C978.1,425.5,976.7,426,974.4,426z M678,395c-0.2,0-0.4,0-0.6,0c-3,0-5.3-0.2-5.5-2.2c-0.1-1.2,0.7-2.1,2.4-2.5l0,0
			c2.5-0.7,5.9-0.6,7.7,0.2c1.8,0.7,1.7,2.1,1.6,2.5C683.4,394.5,681.9,395,678,395z"/>
		<path d="M1240.2,1528.9c-0.2,0-0.4,0-0.6,0c-1.3-0.1-3.7-0.2-4.1-2.1c-0.2-1.2,0.5-2.1,2.1-2.8l0,0c2-0.8,4.7-0.8,6.2,0.6
			c0.8,0.8,0.8,1.9,0.6,2.5C1243.9,1528.3,1242.5,1528.9,1240.2,1528.9z M1238.6,1527.6L1238.6,1527.6L1238.6,1527.6z M1231,1466.5
			c-0.2,0-0.3,0-0.4,0c-1.7-0.3-2.1-2.2-2.1-5.2c0-2.9,0.3-4.8,2.1-5.2c0.5-0.1,1.8-0.1,2.5,1.7c0.8,2,0.8,4.9,0,6.9
			C1232.5,1466.2,1231.6,1466.5,1231,1466.5z M1232.3,1463.7L1232.3,1463.7L1232.3,1463.7z M1232.3,1458.9L1232.3,1458.9
			L1232.3,1458.9z M1198,1407.8c-0.3,0-0.6-0.1-0.9-0.2c-1.3-0.6-1.8-2.1-1.7-4.8v0c0.1-1.3,0.2-3.7,2.1-4.1
			c1.2-0.2,2.1,0.5,2.8,2.1c0.8,2,0.8,4.8-0.6,6.2C1199.1,1407.6,1198.5,1407.8,1198,1407.8z M941.5,1355.5c-0.7,0-1.5,0-7.4-6.7
			l-5.3-6l2.6-2.6l6,5.3c6,5.3,7.1,6.8,6.5,8.5C943.7,1354.5,943.1,1355.5,941.5,1355.5z M1290.4,1333.5c-1.7,0-3.1-2.1-3.5-2.7
			c-0.6-0.9-0.6-2-0.1-2.9c1.2-2.2,6.1-2.2,7.3,0c0.5,0.9,0.4,1.9-0.1,2.9C1293.5,1331.4,1292.1,1333.5,1290.4,1333.5z M1289.9,1330
			L1289.9,1330L1289.9,1330z M943.7,1333.3c-0.2,0-0.4,0-0.7,0c-1.3-0.1-3.7-0.2-4.1-2.1c-0.2-1.2,0.5-2.1,2.1-2.8l0,0
			c2-0.8,4.7-0.8,6.2,0.6c0.9,0.8,0.8,1.9,0.6,2.5C947.3,1332.8,945.9,1333.3,943.7,1333.3z M1248.5,1311.5c-1.8,0-3.2-2.3-3.7-3.2
			l0,0c-1.1-1.7-1.6-4.2-0.1-5.6c0.6-0.6,1.4-0.8,2.1-0.6c1.7,0.4,2.7,2.4,3.2,3.6c0.4,1.1,1.7,4.5-0.5,5.6
			C1249.2,1311.4,1248.8,1311.5,1248.5,1311.5z M1262.3,1304.9c-0.8,0-2.8,0-3.3-1.6l-0.4-1.3l1.3-1c0.5-0.3,2.9-2.1,5.3-3.8
			c3.4-2.5,4.4-3.2,5.6-1.9c1.3,1.3,0.4,2.4-1.8,5.1C1267.3,1302.6,1264.5,1304.9,1262.3,1304.9z M600.9,1111.6
			c-0.6,0-1.6,0-6.3-5.6l-4.2-4.9l2.5-2.5l4.9,4.2c4.9,4.1,6.1,5.7,5.4,7.4C603.2,1110.6,602.6,1111.6,600.9,1111.6z M415.4,1065.5
			c-0.3,0-0.5,0-0.8-0.1c-0.5-0.2-1.6-0.7-1.6-2.5c0-0.6,0-1.7,4.5-5.3c2.8-2.2,3.9-3,5.2-1.8c1.3,1.3,0.4,2.3-1.8,5.1
			C418.5,1064.1,416.9,1065.5,415.4,1065.5z M414.9,1062.8l0.6,0l0,0H414.9z M502.8,1060.7c-2.9,0-4.8-0.3-5.2-2.1
			c-0.1-0.5-0.1-1.8,1.7-2.5l0,0c2-0.8,4.9-0.8,6.8,0c1.9,0.8,1.8,2,1.7,2.5C507.6,1060.4,505.7,1060.7,502.8,1060.7z M500.1,1057.8
			l0.6,1.7c0,0,0.1,0,0.1-0.1L500.1,1057.8l0.7,1.7L500.1,1057.8z M365.3,849.8c-0.3,0-0.6-0.1-0.9-0.2c-1.3-0.6-1.8-2.1-1.7-4.8
			l0,0c0.1-1.3,0.2-3.7,2.1-4.1c1.2-0.2,2.1,0.5,2.7,2.1c0.8,2,0.9,4.7-0.6,6.2C366.5,849.6,365.9,849.8,365.3,849.8z M1425.9,662.9
			c-0.7,0-1.3-0.2-1.7-0.9c-1-1.5,0.4-2.9,1.6-4.1l0,0c2.4-2.4,5-3,6.5-1.5c0.6,0.6,0.8,1.4,0.7,2.3c-0.4,1.8-2.7,3-4,3.5
			C1427.9,662.5,1426.8,662.9,1425.9,662.9z M1347.1,621.6c-1.5,0-2.6-1.7-3.3-2.8v0c-1.2-2-0.7-4.5,1.2-5.7c0.9-0.6,2-0.6,2.9-0.1
			c1.1,0.6,1.7,2,1.7,3.7c0,1.7,0,4.3-1.9,4.8C1347.5,621.6,1347.3,621.6,1347.1,621.6z M1238.2,599.1c-0.2,0-0.3,0-0.5,0
			c-6.5,0-8.1-0.2-8.3-2.2c-0.1-1.9,1.9-2.2,3.1-2.4l0,0c3.6-0.5,8.7-0.5,11.6,0c0.7,0.1,2.7,0.5,2.5,2.3
			C1246.4,598.7,1245.1,599.1,1238.2,599.1z M1157.5,456.3c-6.1,0-7.7-0.3-7.9-2.2c-0.2-1.8,1.9-2.2,2.6-2.4c3-0.6,7.6-0.6,10.6,0
			c0.8,0.1,2.8,0.5,2.6,2.4C1165.2,456.1,1163.5,456.3,1157.5,456.3z M995.1,450.3c-2.2,0-4.2-2.5-5-4.8l0,0
			c-0.7-1.7-1.3-3.5,0.1-4.5c1.5-1.1,3,0.2,4.7,1.6c2.9,2.4,4.4,4.1,3.7,5.9C998,450.3,995.9,450.3,995.1,450.3z M480.3,428
			c-0.2,0-0.4,0-0.6,0c-3,0-5.3-0.2-5.5-2.2c-0.1-1.2,0.7-2.1,2.4-2.5c2.5-0.7,5.9-0.6,7.7,0.2c1.8,0.7,1.7,2.1,1.6,2.5
			C485.6,427.4,484.2,428,480.3,428z M476.9,424.1L476.9,424.1L476.9,424.1z M513.1,426c-0.2,0-0.4,0-0.6,0
			c-1.3-0.1-3.7-0.2-4.1-2.1c-0.2-1.2,0.5-2.1,2.1-2.7l0,0c2-0.8,4.7-0.9,6.2,0.6c0.8,0.9,0.8,1.9,0.6,2.5
			C516.7,425.5,515.4,426,513.1,426z M576.8,399.7c-0.2,0-0.4,0-0.6,0c-1.3-0.1-3.7-0.2-4.1-2.1c-0.2-1.2,0.5-2.1,2.1-2.8
			c2-0.8,4.7-0.9,6.2,0.6c0.8,0.9,0.8,1.9,0.6,2.5C580.4,399.1,579.1,399.7,576.8,399.7z M609.7,397.5c-0.2,0-0.4,0-0.6,0
			c-1.3-0.1-3.7-0.2-4.1-2.1c-0.2-1.2,0.5-2.1,2.1-2.7l0,0c2-0.8,4.7-0.9,6.2,0.6c0.9,0.9,0.8,1.9,0.6,2.5
			C613.4,396.9,612,397.5,609.7,397.5z M691.2,394.9c-0.2,0-0.4,0-0.6,0c-4.8,0-6.7-0.2-6.9-2.2c-0.2-1.9,1.9-2.3,2.8-2.4
			c3-0.6,7.2-0.6,9.6,0.1c2,0.5,2.2,1.6,2.1,2.4C698,394.4,696.6,394.9,691.2,394.9z M572.4,375.5c-0.2,0-0.4,0-0.6,0
			c-1.3-0.1-3.7-0.2-4.1-2.1c-0.2-1.2,0.5-2.1,2.1-2.7l0,0c2-0.8,4.7-0.8,6.2,0.6c0.8,0.9,0.8,1.9,0.6,2.5
			C576,374.9,574.7,375.5,572.4,375.5z"/>
		<path d="M1232.2,1528.7c-2.4,0-4.8-0.2-5.2-2.1c-0.1-0.5-0.1-1.8,1.7-2.5c1.9-0.8,4.9-0.8,6.8,0c1.9,0.8,1.8,2,1.7,2.5
			C1237,1528.5,1234.6,1528.7,1232.2,1528.7z M1229.4,1525.8l0.6,1.7c0,0,0.1,0,0.1-0.1L1229.4,1525.8z M654.2,1375.3
			c-0.6,0-1.2-0.1-1.7-0.2c-1.6-0.4-2.1-1.6-2.1-2.5c0-0.7,0-2.2,5.8-3.7c2.6-0.7,4.3-0.4,5.1,0.7c0.6,0.8,0.6,1.9,0,2.8
			C660.1,1374.3,656.7,1375.3,654.2,1375.3z M760.8,1311.1c-0.3,0-0.6-0.1-0.9-0.2c-1.3-0.6-1.8-2.1-1.7-4.8v0
			c0.1-1.3,0.2-3.7,2.1-4.1c1.1-0.2,2.1,0.5,2.8,2.1c0.8,2,0.8,4.7-0.6,6.2C761.9,1310.9,761.3,1311.1,760.8,1311.1z M1265.3,1267.6
			c-1.7,0-3.9-1.3-4.9-3l0,0c-1-1.6-0.4-2.8,0-3.2c0.8-1,2.3-1.1,4.3-0.4c3.3,1.3,4.8,2.7,4.5,4.4
			C1268.8,1266.4,1268,1267.6,1265.3,1267.6z M1263.3,1262.6l-1.5,1L1263.3,1262.6C1263.4,1262.6,1263.3,1262.6,1263.3,1262.6z
			 M1224.7,1218.4c-0.2,0-0.4,0-0.5-0.1c-1.8-0.4-3-2.7-3.5-4l0,0c-0.7-1.9-1.4-3.8,0.1-4.8c1.5-1,2.9,0.4,4.1,1.6
			c2.4,2.4,3,5,1.5,6.5C1226,1218.2,1225.4,1218.4,1224.7,1218.4z M1213.3,1174.9c-0.3,0-0.6-0.1-0.9-0.2c-1.3-0.6-1.8-2.1-1.7-4.8
			v0c0.1-1.3,0.2-3.7,2.1-4.1c1.1-0.2,2.1,0.5,2.8,2.1c0.8,2,0.8,4.7-0.6,6.2C1214.5,1174.7,1213.9,1174.9,1213.3,1174.9z
			 M1057.9,1173.1c-0.7,0-1.5,0-7.4-6.7l-5.3-6l2.6-2.6l6,5.3c6,5.3,7.1,6.8,6.5,8.5C1060.1,1172.1,1059.5,1173.1,1057.9,1173.1z
			 M806.9,1117.8c-0.3,0-0.6-0.1-0.9-0.2c-1.3-0.6-1.8-2.1-1.7-4.8v0c0.1-1.3,0.2-3.7,2.1-4.1c1.1-0.2,2.1,0.5,2.8,2.1
			c0.8,2,0.8,4.7-0.6,6.2C808.1,1117.6,807.5,1117.8,806.9,1117.8z M533.6,1058.5c-2.9,0-4.8-0.3-5.2-2.1c-0.1-0.5-0.1-1.8,1.7-2.5
			c1.9-0.8,4.9-0.8,6.8,0c1.9,0.8,1.8,2,1.7,2.6C538.4,1058.2,536.5,1058.5,533.6,1058.5z M530.8,1055.6l0.6,1.7c0,0,0.1,0,0.1-0.1
			L530.8,1055.6z M337.5,1004c-1.4,0-3.1-1.4-5.6-4.6l0,0c-2.2-2.8-3-3.9-1.8-5.1c1.3-1.3,2.3-0.4,5.1,1.8c4.5,3.6,4.5,4.8,4.5,5.3
			c0,1.8-1.1,2.4-1.6,2.5C338,1003.9,337.8,1004,337.5,1004z M210.6,840.9c-4.4,0-6.3-0.3-6.5-2.1c-0.1-0.8,0.2-1.9,2.2-2.4l0,0
			c2.4-0.6,6.2-0.6,8.6,0c2,0.5,2.3,1.6,2.2,2.4C216.9,840.6,215,840.9,210.6,840.9z M206.7,837L206.7,837L206.7,837z M358.7,832.2
			c-0.3,0-0.6-0.1-0.9-0.2c-1.3-0.6-1.8-2.1-1.7-4.8l0,0c0.1-1.3,0.2-3.7,2.1-4.1c1.2-0.2,2.1,0.5,2.7,2.1c0.8,2,0.8,4.7-0.6,6.2
			C359.9,832,359.3,832.2,358.7,832.2z M1332,805.9c-0.3,0-0.6-0.1-0.9-0.2c-1.3-0.6-1.8-2.1-1.7-4.8v0c0.1-1.3,0.2-3.7,2.1-4.1
			c1.1-0.2,2.1,0.5,2.8,2.1c0.8,2,0.8,4.7-0.6,6.2C1333.1,805.7,1332.5,805.9,1332,805.9z M1274.9,768.5c-0.3,0-0.6-0.1-0.9-0.2
			c-1.3-0.6-1.8-2.1-1.7-4.8l0,0c0-1.3,0.1-3.7,2.1-4.1c1.1-0.2,2.1,0.5,2.8,2.1c0.8,2,0.9,4.7-0.6,6.2
			C1276,768.3,1275.4,768.5,1274.9,768.5z M1281.9,698.6c-0.5,0-1.7,0-5.3-4.5l0,0c-2.2-2.8-3-3.9-1.8-5.1c1.3-1.3,2.3-0.4,5.1,1.8
			c3.7,2.9,5,4.7,4.4,6.3C1284.2,697.5,1283.7,698.6,1281.9,698.6z M1340,582.2c-1.8,0-3.9-1.3-4.9-3l0,0c-1-1.6-0.4-2.8,0-3.2
			c0.8-1,2.3-1.1,4.3-0.4c3.3,1.3,4.8,2.7,4.5,4.4C1343.5,581,1342.7,582.2,1340,582.2z M1340.8,578.5L1340.8,578.5L1340.8,578.5z
			 M1473.1,522.7c-0.2,0-0.4,0-0.6,0c-1.3-0.1-3.7-0.2-4.1-2.1c-0.2-1.2,0.5-2.1,2.1-2.8v0c2-0.8,4.7-0.8,6.2,0.6
			c0.8,0.8,0.8,1.9,0.6,2.5C1476.8,522.1,1475.4,522.7,1473.1,522.7z M461.1,454.7c-2.2,0-4-1.9-4-4.1c0-1.2,0.5-2.3,1.5-2.8
			c1-0.6,2.3-0.5,3.5,0.3c0.7,0.4,3.1,2,3.1,3.9C465.1,453.6,463.4,454.7,461.1,454.7z M983.9,449.7c-6.1,0-7.7-0.3-7.9-2.2
			c-0.2-1.8,1.9-2.2,2.6-2.4c3-0.6,7.6-0.6,10.6,0c0.8,0.1,2.8,0.5,2.6,2.4C991.7,449.5,990,449.7,983.9,449.7z M832.3,434.5
			c-4.4,0-6.3-0.3-6.5-2.1c-0.1-0.8,0.2-1.9,2.2-2.4l0,0c2.4-0.6,6.2-0.6,8.6,0c2,0.5,2.3,1.6,2.2,2.4
			C838.6,434.2,836.8,434.5,832.3,434.5z M704.2,432.6c-0.2,0-0.4,0-0.6,0c-1.3-0.1-3.7-0.2-4.1-2.1c-0.2-1.2,0.5-2.1,2.1-2.7l0,0
			c2-0.8,4.7-0.8,6.2,0.6c0.8,0.9,0.8,1.9,0.6,2.5C707.8,432,706.5,432.6,704.2,432.6z M488.9,428.2c-0.2,0-0.4,0-0.6,0
			c-1.3-0.1-3.7-0.2-4.1-2.1c-0.2-1.2,0.5-2.1,2.1-2.7l0,0c2-0.8,4.8-0.9,6.2,0.6c0.8,0.8,0.8,1.9,0.6,2.5
			C492.6,427.7,491.2,428.2,488.9,428.2z M792.1,428.2c-0.2,0-0.4,0-0.6,0c-1.3-0.1-3.7-0.2-4.1-2.1c-0.2-1.2,0.5-2.1,2.1-2.7l0,0
			c2-0.8,4.8-0.9,6.2,0.6c0.8,0.8,0.8,1.9,0.6,2.5C795.7,427.7,794.4,428.2,792.1,428.2z M583.4,399.7c-0.2,0-0.4,0-0.6,0
			c-1.3-0.1-3.7-0.2-4.1-2.1c-0.2-1.2,0.5-2.1,2.1-2.7l0,0c2-0.8,4.7-0.9,6.2,0.6c0.8,0.9,0.8,1.9,0.6,2.5
			C587,399.1,585.7,399.7,583.4,399.7z"/>
		<path d="M1134.8,1522.3c-0.2,0-0.4,0-0.6,0c-1.3-0.1-3.7-0.2-4.1-2.1c-0.2-1.2,0.5-2.1,2.1-2.8l0,0c2-0.8,4.7-0.8,6.2,0.6
			c0.9,0.9,0.8,1.9,0.6,2.5C1138.4,1521.7,1137.1,1522.3,1134.8,1522.3z M1317.1,1410.2c-0.2,0-0.4,0-0.6,0
			c-1.3-0.1-3.7-0.2-4.1-2.1c-0.2-1.2,0.5-2.1,2.1-2.8l0,0c2-0.8,4.7-0.8,6.2,0.6c0.8,0.8,0.8,1.9,0.6,2.5
			C1320.8,1409.7,1319.4,1410.2,1317.1,1410.2z M1267.3,1401.3c-2.4,0-4.8-0.2-5.2-2c-0.1-0.5-0.1-1.8,1.7-2.6l0,0
			c2-0.8,4.9-0.8,6.8,0c1.9,0.8,1.8,2,1.7,2.6C1272.1,1401.1,1269.7,1401.3,1267.3,1401.3z M1264.6,1398.3l0.6,1.7
			c0,0,0.1,0,0.1-0.1L1264.6,1398.3l0.7,1.6L1264.6,1398.3z M1278.7,1390.6h-1.2l-0.6-1.2c-0.3-0.7-0.8-1.7,3.3-6.3l0,0
			c3-3.3,5.2-5,6.4-5h1.2l0.6,1.1c0.3,0.7,0.8,1.7-3.3,6.3C1282.1,1388.9,1280,1390.6,1278.7,1390.6z M1278.3,1387.1L1278.3,1387.1
			L1278.3,1387.1z M994.2,1375.1c-0.2,0-0.4,0-0.6,0c-1.3-0.1-3.7-0.2-4.1-2.1c-0.2-1.2,0.5-2.1,2.1-2.8c2-0.8,4.7-0.8,6.2,0.6
			c0.8,0.8,0.8,1.8,0.6,2.5C997.8,1374.5,996.5,1375.1,994.2,1375.1z M1263.8,1273.6c-0.7,0-1.1-0.2-1.4-0.4c-0.8-0.5-1.2-1.5-1-2.6
			v0c0-0.2,0-0.3,0.1-0.5c-0.7,0.8-1.7,1.6-3,1.3c-0.6-0.2-1.7-0.8-1.7-2.7c0-2.7,1.2-4.7,3.2-5.5c2.1-0.8,4.6,0.1,6.4,2.3
			c0.9,1.1,2.1,2.7,1.8,4.5c-0.2,1.1-0.9,2-2,2.7C1265.2,1273.4,1264.4,1273.6,1263.8,1273.6z M1088.1,1238.6
			c-0.3,0-0.6-0.1-0.9-0.2c-1.3-0.6-1.8-2.1-1.7-4.8l0,0c0-1.3,0.1-3.7,2.1-4.1c1.1-0.2,2.1,0.5,2.8,2.1c0.8,2,0.8,4.7-0.6,6.2
			C1089.3,1238.4,1088.7,1238.6,1088.1,1238.6z M1089.3,1232.4L1089.3,1232.4L1089.3,1232.4z M1258,1225.9c-1.4,0-3-1.2-5.3-3.9l0,0
			c-1.1-1.3-2.4-1.6-2.7-1.5c-1.8,1.1-2.8,0.7-3.4,0.1c-1.3-1.3-0.2-3.2,0.3-3.8c0.8-1.3,1.7-2,2.9-2.1c1.8-0.2,3.6,0.9,5.7,2.8
			c4.8,4.3,4.8,5.3,4.8,5.9c0,1.8-1.2,2.3-1.5,2.4C1258.6,1225.8,1258.3,1225.9,1258,1225.9z M736.6,1223.3c-0.3,0-0.6-0.1-0.9-0.2
			c-1.3-0.6-1.8-2.1-1.7-4.8l0,0c0.1-1.3,0.2-3.7,2.1-4.1c1.1-0.2,2.1,0.5,2.7,2.1c0.8,2,0.9,4.7-0.6,6.2
			C737.7,1223.1,737.2,1223.3,736.6,1223.3z M1213.5,1166.9c-0.1,0-0.2,0-0.3,0c-1.8-0.2-2.1-2.1-2.1-6.5s0.3-6.3,2.1-6.5
			c0.8-0.1,1.9,0.2,2.4,2.2c0.6,2.4,0.6,6.2,0,8.6C1215.2,1166.5,1214.3,1166.9,1213.5,1166.9z M1215,1156.5L1215,1156.5
			L1215,1156.5z M790.6,1135.8c-2.2,0-4-1.9-4-4.1c0-1.2,0.5-2.3,1.5-2.8c1-0.6,2.3-0.5,3.5,0.3c0.7,0.4,3.1,2,3.1,3.9
			C794.6,1134.6,793,1135.8,790.6,1135.8z M1362.8,927.1c-1.6,0-2.8-1.6-2.8-4c0-2.2,1.9-4,4.1-4c1.2,0,2.3,0.5,2.8,1.5
			c0.6,1,0.5,2.3-0.3,3.5C1366.2,924.7,1364.6,927.1,1362.8,927.1z M150.6,909.3c-0.2,0-0.4,0-0.6,0c-1.3-0.1-3.7-0.2-4.1-2.1
			c-0.2-1.2,0.5-2.1,2.1-2.8l0,0h0l0,0c2-0.8,4.7-0.8,6.2,0.6c0.8,0.8,0.8,1.9,0.5,2.5C154.2,908.8,152.9,909.3,150.6,909.3z
			 M149,908.1L149,908.1L149,908.1z M107.4,838.9c-2.9,0-4.8-0.3-5.2-2.1c-0.1-0.5-0.1-1.8,1.7-2.5c1.9-0.8,4.9-0.8,6.8,0
			c1.9,0.8,1.8,2,1.7,2.5C112.2,838.5,110.3,838.9,107.4,838.9z M104.6,835.9l0.6,1.7c0,0,0.1,0,0.1-0.1L104.6,835.9z M109.8,835
			L109.8,835L109.8,835z M327.5,794.7c-0.7,0-1.3-0.2-1.7-0.9c-1-1.5,0.4-2.9,1.6-4.1h0c0.9-0.9,1.9-1.6,2.9-2
			c2-0.8,3.2,0.1,3.6,0.5c0.6,0.6,0.8,1.4,0.7,2.2c-0.4,1.8-2.7,3-4,3.5C329.4,794.3,328.4,794.7,327.5,794.7z M1274.9,761.9
			c-0.3,0-0.6-0.1-0.9-0.2c-1.3-0.6-1.8-2.1-1.7-4.8l0,0c0-1.3,0.1-3.7,2.1-4.1c1.1-0.2,2.1,0.5,2.8,2.1c0.8,2,0.9,4.7-0.6,6.2
			C1276,761.7,1275.4,761.9,1274.9,761.9z M1290.7,707.4c-0.6,0-1.6,0-6.3-5.6v0l-4.2-4.9l2.5-2.5l4.9,4.2c4.8,4.1,6.1,5.8,5.4,7.4
			C1293,706.3,1292.4,707.4,1290.7,707.4z M1204,665.1c-0.7,0-1.3-0.2-1.7-0.9c-1-1.5,0.4-2.9,1.6-4.1l0,0c1.4-1.4,3.1-2.3,4.5-2.3
			l0,0c1,0,1.7,0.4,2,0.8c0.6,0.6,0.8,1.4,0.7,2.2c-0.4,1.8-2.7,3-4,3.5C1206,664.7,1204.9,665.1,1204,665.1z M1389.1,608.1
			c-0.3,0-0.6-0.1-0.9-0.2c-1.3-0.6-1.8-2.1-1.7-4.8l0,0c0.1-1.3,0.2-3.7,2.1-4.1c1.2-0.2,2.1,0.5,2.8,2.1c0.8,2,0.9,4.7-0.6,6.2
			C1390.2,607.9,1389.6,608.1,1389.1,608.1z M1286.4,604c-0.2,0-0.4,0-0.6,0c-1.3-0.1-3.7-0.2-4.1-2.1c-0.2-1.2,0.5-2.1,2.1-2.8l0,0
			c2-0.8,4.7-0.8,6.2,0.6c0.8,0.8,0.8,1.9,0.6,2.5C1290,603.4,1288.7,604,1286.4,604z M1297.4,601.8c-0.2,0-0.4,0-0.7,0
			c-1.3-0.1-3.7-0.2-4.1-2.1c-0.2-1.2,0.5-2.1,2.1-2.8l0,0c2-0.8,4.7-0.9,6.2,0.6c0.9,0.9,0.8,1.9,0.6,2.5
			C1301,601.2,1299.6,601.8,1297.4,601.8z M1480.4,522.5c-2.9,0-4.8-0.3-5.2-2.1c-0.1-0.5-0.1-1.8,1.7-2.5h0c2-0.8,4.9-0.8,6.8,0
			c1.9,0.8,1.8,2,1.7,2.5C1485.3,522.2,1483.4,522.5,1480.4,522.5z M1477.7,519.6l0.6,1.7c0,0,0.1,0,0.1-0.1L1477.7,519.6l0.7,1.7
			L1477.7,519.6z M1478,518.7L1478,518.7L1478,518.7z M1482.8,518.7L1482.8,518.7L1482.8,518.7z M1292.6,470.1
			c-1.8,0-3.2-2.2-3.5-2.7l0,0c-0.6-0.9-0.6-2-0.1-2.9c1.2-2.2,6.1-2.2,7.3,0c0.5,0.9,0.4,1.9-0.1,2.9
			C1295.7,468.1,1294.3,470.1,1292.6,470.1z M457.8,445.9c-0.2,0-0.5,0-0.7-0.1c-2.3-0.7-2.3-4-2.3-5.1c0-1.7,0.7-3.1,1.8-3.8
			c1-0.5,2.1-0.5,3.2,0.2c2.1,1.3,2.8,3.9,1.6,5.9C461,443.8,459.7,445.9,457.8,445.9z M458.7,442.7L458.7,442.7L458.7,442.7z
			 M457.4,442.3L457.4,442.3L457.4,442.3z M773.6,427.7c-10.6,0-11-0.4-11.1-2.2c-0.1-1.9,1.8-2.1,3.1-2.3c4-0.5,11.1-0.5,15.8,0
			c1.9,0.2,3.8,0.4,3.7,2.3c-0.1,2-1.1,2.2-11,2.2C773.9,427.7,773.7,427.7,773.6,427.7z"/>
		<path d="M1251,1526.8c-1.8,0-3.4-2.3-3.9-3.1l0,0c-0.7-1.2-0.8-2.5-0.3-3.5c0.5-0.9,1.6-1.5,2.8-1.5c2.3,0,4.1,1.8,4.1,4
			C1253.8,1525.2,1252.6,1526.8,1251,1526.8z M1250.1,1521.7l-1.4,1.2l1.4-0.9C1250.1,1521.8,1250.1,1521.7,1250.1,1521.7z
			 M1217.8,1526.8c-1.6,0-2.8-1.6-2.8-4c0-2.2,1.9-4,4.1-4c1.2,0,2.3,0.5,2.8,1.5c0.6,1,0.5,2.3-0.3,3.5
			C1221.2,1524.5,1219.6,1526.8,1217.8,1526.8z M1047.6,1500.5c-2.2,0-4-1.9-4-4.1c0-1.2,0.5-2.3,1.5-2.8c1-0.6,2.3-0.5,3.5,0.3
			c0.7,0.4,3.1,2,3.1,3.9C1051.6,1499.3,1050,1500.5,1047.6,1500.5z M1032.1,1480.7c-0.7,0-1.9,0-12.1-10.4c-9.8-10-9.5-10.7-9-11.8
			l0.5-1.1l1.3,0c0.6,0,1.9,0,12.1,10.4c9.8,10,9.5,10.7,9,11.8l-0.5,1.1L1032.1,1480.7z M1220,1466.4c-0.2,0-0.3,0-0.4,0
			c-1.6-0.3-2.1-1.9-2-6.2l0,0c0-3.1,0.2-5.3,2.2-5.5c1.3-0.2,2.1,0.7,2.5,2.4c0.7,2.5,0.6,5.9-0.2,7.7
			C1221.5,1466.2,1220.6,1466.4,1220,1466.4z M1221.5,1457.4L1221.5,1457.4L1221.5,1457.4z M1336.9,1445.4c-0.2,0-0.4,0-0.7,0
			c-1.3-0.1-3.7-0.2-4.1-2.1c-0.2-1.2,0.5-2.1,2.1-2.7l0,0c2-0.8,4.7-0.9,6.2,0.6c0.9,0.8,0.8,1.9,0.6,2.5
			C1340.6,1444.8,1339.2,1445.4,1336.9,1445.4z M1105.7,1431.4c-0.1,0-0.3,0-0.4,0c-1.9-0.4-2.1-2.8-2.1-5.2c0-2.4,0.2-4.8,2.1-5.2
			c0.5-0.1,1.8-0.1,2.5,1.7c0.8,2,0.8,4.9,0,6.9C1107.3,1431.1,1106.3,1431.4,1105.7,1431.4z M1107.1,1423.8L1107.1,1423.8
			C1107.1,1423.8,1107.1,1423.8,1107.1,1423.8z M1268.9,1418.1c-1.6-0.1-3.6-1.9-4.6-3c-1.7-1.8-2.2-3.4-1.7-4.7
			c0.4-0.9,1.3-1.4,2.3-1.4c2.6,0,5.3,2.9,6.1,4.9c0.8,2.1-0.1,3.3-0.5,3.7l-0.5,0.5L1268.9,1418.1z M1275.4,1401.4
			c-0.2,0-0.4,0-0.7,0c-1.3,0-3.7-0.1-4.1-2.1c-0.2-1.2,0.5-2.1,2.1-2.8l0,0c2-0.8,4.7-0.9,6.2,0.6c0.8,0.8,0.8,1.9,0.5,2.5
			C1279,1400.9,1277.7,1401.4,1275.4,1401.4z M1273.8,1400.2L1273.8,1400.2L1273.8,1400.2z M1092.5,1396.8c-0.3,0-0.6-0.1-0.9-0.2
			c-1.3-0.6-1.8-2.1-1.7-4.8v0c0.1-1.3,0.2-3.7,2.1-4.1c1.1-0.2,2.1,0.5,2.8,2.1c0.8,2,0.8,4.7-0.6,6.2
			C1093.6,1396.6,1093,1396.8,1092.5,1396.8z M1207.8,1395.1c-0.6,0-1.2-0.1-1.7-0.2c-1.6-0.4-2.1-1.6-2.1-2.5c0-0.7,0-2.2,5.8-3.7
			c2.6-0.7,4.3-0.4,5.2,0.7c0.6,0.8,0.6,1.9,0,2.8C1213.7,1394.1,1210.3,1395.1,1207.8,1395.1z M1202.4,1379.2
			c-0.3,0-0.6-0.1-0.9-0.2c-1.3-0.6-1.8-2.1-1.7-4.8l0,0c0.1-1.3,0.2-3.7,2.1-4.1c1.2-0.2,2.1,0.5,2.7,2.1c0.8,2,0.9,4.7-0.6,6.2
			C1203.5,1379,1202.9,1379.2,1202.4,1379.2z M1024.5,1358.8c-0.2,0-0.3,0-0.4,0c-1.6-0.3-2.1-1.9-2-6.2c0-3,0.2-5.3,2.2-5.5
			c1.1-0.2,2.1,0.7,2.5,2.4c0.7,2.6,0.6,5.9-0.2,7.7C1026,1358.6,1025.1,1358.8,1024.5,1358.8z M1025.9,1349.7L1025.9,1349.7
			L1025.9,1349.7z M1272.7,1312.7c-0.1,0-0.3,0-0.4,0c-1.9-0.4-2.1-2.8-2.1-5.2c0-2.4,0.2-4.8,2.1-5.2c0.5-0.1,1.8-0.1,2.5,1.7
			c0.8,2,0.8,4.9,0,6.9C1274.2,1312.5,1273.3,1312.7,1272.7,1312.7z M1274.1,1309.9L1274.1,1309.9L1274.1,1309.9z M1274.1,1305.1
			L1274.1,1305.1L1274.1,1305.1z M1037.7,1281.9c-0.2,0-0.3,0-0.4,0c-1.6-0.3-2.1-1.9-2-6.2c0-3,0.2-5.3,2.2-5.5
			c1.1-0.2,2.1,0.7,2.5,2.4c0.7,2.6,0.6,5.9-0.2,7.7C1039.2,1281.7,1038.3,1281.9,1037.7,1281.9z M1053.5,1271.9
			c-0.2,0-0.4,0-0.6-0.1c-1.9-0.6-1.9-3.1-1.9-4.8c0-1.7,0.6-3.1,1.7-3.7c0.9-0.5,1.9-0.4,2.9,0.1c0.9,0.5,1.5,1.4,1.7,2.4
			c0.3,1.1,0.1,2.3-0.5,3.3C1056.1,1270.2,1055,1271.9,1053.5,1271.9z M969.5,1271.6c-0.3,0-0.6-0.1-0.9-0.2
			c-1.3-0.6-1.8-2.1-1.7-4.8l0,0c0.1-1.3,0.2-3.7,2.1-4.1c1.2-0.2,2.1,0.5,2.7,2.1c0.8,2,0.9,4.7-0.6,6.2
			C970.6,1271.4,970,1271.6,969.5,1271.6z M1022,1260.9c-1.5,0-2.6-1.7-3.3-2.8v0c-1.2-2-0.7-4.5,1.2-5.7c0.9-0.6,2-0.6,2.9-0.1
			c1.1,0.6,1.7,2,1.7,3.7c0,1.7,0,4.3-1.9,4.8C1022.4,1260.9,1022.2,1260.9,1022,1260.9z M1268.7,1255.8c-0.2,0-0.4,0-0.5-0.1
			c-1.8-0.4-3-2.7-3.5-4l0,0c-0.7-1.9-1.4-3.8,0.1-4.8c1.5-1,2.9,0.4,4.1,1.6c1.4,1.4,2.3,3.1,2.3,4.5c0,1-0.4,1.7-0.8,2
			C1269.9,1255.5,1269.3,1255.8,1268.7,1255.8z M1042.7,1155.6c-1.4,0-3.1-1.4-5.6-4.6l0,0c-2.2-2.8-3-3.9-1.8-5.1
			c1.3-1.3,2.3-0.4,5.1,1.8c4.5,3.5,4.5,4.8,4.5,5.3c0,1.8-1.1,2.4-1.6,2.5C1043.2,1155.5,1043,1155.6,1042.7,1155.6z M784.5,1142.4
			c-0.3,0-0.5,0-0.8-0.1c-0.5-0.2-1.6-0.7-1.6-2.5c0-0.5,0-1.7,4.5-5.3c2.8-2.2,3.9-3,5.1-1.8c1.3,1.3,0.4,2.3-1.8,5.1
			C787.6,1141,786,1142.4,784.5,1142.4z M784,1139.7l0.6,0l0,0H784z M1121,1100.6c-1.7,0-2.7-1.8-2.7-5.1c0-2.9,1.7-5.1,3.9-5.1
			c1,0,1.9,0.5,2.4,1.3c0.8,1.1,0.8,2.8,0.1,4.5C1123.1,1100.6,1121.5,1100.6,1121,1100.6z M860.1,1098.4c-0.5,0-1.7,0-5.3-4.5l0,0
			c-2.2-2.8-3-3.9-1.8-5.1c1.3-1.3,2.3-0.4,5.1,1.8c3.7,2.9,5,4.7,4.4,6.3C862.4,1097.3,861.9,1098.4,860.1,1098.4z M513.8,1058.5
			c-2.9,0-4.8-0.3-5.2-2.1c-0.1-0.5-0.1-1.8,1.7-2.5c2-0.8,4.9-0.8,6.9,0c1.9,0.8,1.8,2,1.7,2.5
			C518.6,1058.2,516.7,1058.5,513.8,1058.5z M511,1055.6l0.6,1.7c0,0,0.1,0,0.1-0.1L511,1055.6z M1184.6,1043.4c-0.1,0-0.3,0-0.4,0
			c-1-0.2-2.1-1-2.1-3.8c0-1.8,1.3-3.9,3-4.9c1.7-1,2.8-0.4,3.2,0c1,0.8,1.1,2.3,0.4,4.3C1187.4,1042,1186.1,1043.4,1184.6,1043.4z
			 M1185.7,1040.5L1185.7,1040.5L1185.7,1040.5z M1185.5,1036.7L1185.5,1036.7C1185.5,1036.7,1185.5,1036.7,1185.5,1036.7z
			 M1299.3,968.3c-0.1,0-0.1,0-0.2,0c-1.9-0.2-2.2-1.8-2.2-7.9c0-6.1,0.3-7.7,2.2-7.9c1.9-0.1,2.2,1.9,2.4,2.6c0.6,3,0.6,7.6,0,10.6
			C1301.3,966.4,1300.9,968.3,1299.3,968.3z M1275.3,955.6c-0.5,0-1.7,0-5.3-4.5l0,0c-2.2-2.8-3-3.9-1.8-5.1
			c1.3-1.3,2.3-0.4,5.1,1.8c3.7,2.9,5,4.7,4.4,6.3C1277.6,954.5,1277.1,955.6,1275.3,955.6z M1312.2,955.2c-0.3,0-0.6-0.1-0.9-0.2
			c-1.3-0.6-1.8-2.1-1.7-4.8v0c0.1-1.3,0.2-3.7,2.1-4.1c1.1-0.2,2.1,0.5,2.8,2.1c0.8,2,0.8,4.7-0.6,6.2
			C1313.3,955,1312.7,955.2,1312.2,955.2z M1313.4,949L1313.4,949L1313.4,949z M1283.1,931.5h-1.2l-0.6-1.2
			c-0.3-0.7-0.8-1.7,3.3-6.3l0,0c3-3.3,5.2-5,6.4-5h1.2l0.6,1.1c0.3,0.7,0.8,1.7-3.3,6.3C1286.5,929.8,1284.4,931.5,1283.1,931.5z
			 M1291.5,922.6L1291.5,922.6L1291.5,922.6z M1335,898.4c-1.3,0-2.9-1-4.9-2.3l0,0c-0.9-0.6-3-1.9-2.4-3.8c0.2-0.6,0.8-1.7,2.7-1.7
			c0,0,0,0,0.1,0c2.1,0,4.4,1.3,5.5,3c0.7,1.2,1.8,2.9,0.5,4.2C1336,898.2,1335.5,898.4,1335,898.4z M1331,892.2L1331,892.2
			L1331,892.2z M1187,875.5c-0.1,0-0.3,0-0.4,0c-1.7-0.3-2.1-2.2-2.1-5.2c0-2.9,0.3-4.8,2.1-5.2c0.5-0.1,1.8-0.1,2.5,1.7
			c0.8,1.9,0.8,4.9,0,6.8C1188.6,875.3,1187.6,875.5,1187,875.5z M1188.4,872.7L1188.4,872.7L1188.4,872.7z M1188.4,867.9
			L1188.4,867.9L1188.4,867.9z M1144.7,872.2h-1.2l-0.6-1.2c-0.3-0.7-0.8-1.7,3.3-6.3l0,0c3-3.3,5.2-5,6.4-5h1.2l0.6,1.1
			c0.3,0.7,0.8,1.7-3.3,6.3C1148.1,870.5,1146,872.2,1144.7,872.2z M157.2,828.1c-0.2,0-0.4,0-0.7,0c-1.3-0.1-3.7-0.2-4.1-2.1
			c-0.2-1.2,0.5-2.1,2.1-2.7l0,0c2-0.8,4.7-0.9,6.2,0.6c0.9,0.9,0.8,1.9,0.6,2.5C160.8,827.5,159.5,828.1,157.2,828.1z
			 M1325.1,819.2c-0.3,0-0.7-0.1-1-0.3c-1.5-1-0.8-2.8-0.1-4.8c0.5-1.3,1.6-3.6,3.5-4c0.8-0.2,1.7,0.1,2.2,0.7c0.4,0.3,0.8,1,0.8,2
			c0,1.4-0.9,3.1-2.3,4.5C1327.3,818.2,1326.2,819.2,1325.1,819.2z M1256.8,815c-0.3,0-0.5,0-0.8-0.1c-0.5-0.2-1.6-0.7-1.6-2.5
			c0-0.5,0-1.7,4.5-5.3c2.8-2.2,3.9-3,5.1-1.8c1.3,1.3,0.4,2.3-1.8,5.1C1259.9,813.7,1258.3,815,1256.8,815z M1256.3,812.4l0.6,0
			l0,0H1256.3z M1366.7,801.9c-0.3,0-0.5,0-0.8-0.1c-0.5-0.2-1.6-0.7-1.6-2.5c0-0.5,0-1.7,4.5-5.3c2.8-2.2,3.9-3,5.1-1.8
			c1.3,1.3,0.4,2.3-1.8,5.1C1369.8,800.5,1368.1,801.9,1366.7,801.9z M1366.2,799.2l0.6,0l0,0H1366.2z M624.6,768.9
			c-1.6,0-2.8-1.6-2.8-4c0-2.2,1.9-4,4.1-4c1.2,0,2.3,0.5,2.8,1.5c0.6,1,0.5,2.3-0.3,3.5C628,766.6,626.4,768.9,624.6,768.9z
			 M1274.9,755.3c-0.3,0-0.6-0.1-0.9-0.2c-1.3-0.6-1.8-2.1-1.7-4.8l0,0c0-1.3,0.1-3.7,2.1-4.1c1.1-0.2,2.1,0.5,2.8,2.1
			c0.8,2,0.9,4.7-0.6,6.2C1276,755.1,1275.4,755.3,1274.9,755.3z M1297.6,714c-1.4,0-3.1-1.4-5.6-4.6h0c-2.2-2.8-3-3.9-1.8-5.2
			c1.3-1.3,2.3-0.4,5.2,1.8c4.5,3.6,4.5,4.7,4.5,5.3c0,1.8-1.1,2.4-1.6,2.5C1298.1,714,1297.8,714,1297.6,714z M1297.9,710.4
			L1297.9,710.4L1297.9,710.4z M1426.3,683.1c-0.1,0-0.3,0-0.4,0c-1-0.2-2.1-1-2.1-3.8c0-1.8,1.3-3.9,3-4.9c1.6-1,2.8-0.4,3.2,0
			c1,0.8,1.1,2.3,0.4,4.3C1429.8,679.8,1428.5,683.1,1426.3,683.1z M1427.4,680.2L1427.4,680.2L1427.4,680.2z M904,671.3
			c-0.3,0-0.7-0.1-1-0.3c-1.6-0.9-1.2-3-0.5-5.7l0,0c0.5-2,1.4-4.4,3.4-4.5c0.6-0.1,1.8,0.1,2.4,2c0.8,2.2,0,5.3-1.8,7.1
			C906.1,670.4,905.2,671.3,904,671.3z M894.9,664.6c-0.2,0-0.3,0-0.4,0c-1.6-0.3-2.1-1.9-2-6.2c0-3,0.2-5.3,2.1-5.5
			c1.2-0.2,2.1,0.7,2.5,2.4c0.7,2.5,0.6,5.9-0.2,7.7C896.4,664.3,895.5,664.6,894.9,664.6z M1279.8,604c-0.2,0-0.4,0-0.6,0
			c-1.3-0.1-3.7-0.2-4.1-2.1c-0.2-1.2,0.5-2.1,2.1-2.8l0,0c2-0.8,4.7-0.8,6.2,0.6c0.8,0.8,0.8,1.9,0.6,2.5
			C1283.4,603.4,1282.1,604,1279.8,604z M466.8,492.1c-0.5,0-1.7,0-5.3-4.5l0,0c-2.2-2.8-3-3.9-1.8-5.2c1.3-1.3,2.3-0.4,5.1,1.8
			c3.7,2.9,5,4.7,4.4,6.3C469.2,491,468.6,492.1,466.8,492.1z M1319.3,470c-0.2,0-0.4,0-0.6,0c-1.3-0.1-3.7-0.2-4.1-2.1
			c-0.2-1.2,0.5-2.1,2.1-2.7l0,0c2-0.8,4.7-0.8,6.2,0.6c0.8,0.9,0.8,1.9,0.6,2.5C1323,469.4,1321.6,470,1319.3,470z M937.1,452.4
			c-0.2,0-0.4,0-0.6-0.1c-1.9-0.6-1.9-3.1-1.9-4.8c0-1.7,0.6-3.1,1.7-3.7c0.9-0.5,1.9-0.5,2.9,0.1c1.9,1.2,2.4,3.7,1.2,5.7
			C939.7,450.7,938.6,452.4,937.1,452.4z M990.5,441.2c-2.9,0-4.8-0.3-5.2-2.1c-0.1-0.5-0.1-1.8,1.7-2.5c1.9-0.8,4.9-0.8,6.8,0
			c1.9,0.8,1.8,2,1.7,2.5C995.4,440.9,993.5,441.2,990.5,441.2z M987.8,438.3l0.6,1.7c0,0,0.1,0,0.1-0.1L987.8,438.3z M992.9,437.4
			L992.9,437.4L992.9,437.4z M988.1,437.4L988.1,437.4L988.1,437.4z M442.5,440.8c-1.7,0-3.1-0.6-3.7-1.7c-0.5-0.9-0.4-1.9,0.1-2.9
			c1.2-1.9,3.7-2.4,5.7-1.2c1.2,0.8,3.2,2,2.7,3.9C446.7,440.8,444.2,440.8,442.5,440.8z M630.2,386.3c-2.9,0-4.8-0.3-5.2-2.1
			c-0.1-0.5-0.1-1.8,1.7-2.5l0,0c2-0.8,4.9-0.8,6.8,0c1.9,0.8,1.8,2,1.7,2.5C635.1,385.9,633.2,386.3,630.2,386.3z M627.5,383.4
			l0.6,1.7c0,0,0.1,0,0.1-0.1L627.5,383.4z M627.8,382.5L627.8,382.5L627.8,382.5z"/>
		<path d="M1263.7,1548.8c-1,0-1.6-0.3-2.2-0.7c-2.1-1.7-0.9-5.1,0.2-7.4l0,0c3.7-8.1,25.5-20.9,38.9-22.8c10.1-1.4,11.4-0.4,11.8,0
			l0.6,0.5l0.1,1c0,1,0,2.3-15.8,10.6c-8.1,4.3-18,10.1-22.1,13.1C1269,1547.5,1265.7,1548.8,1263.7,1548.8z M1263.4,1541.4l1.6,0.8
			c-0.8,1.6-0.9,2.6-1,3c0.8-0.1,3.3-0.9,9.1-5.1c4.2-3,14.3-9,22.5-13.4c4.4-2.3,8-4.4,10.5-5.9c-1.4,0.1-3.1,0.3-5,0.6
			c-12,1.7-32.9,13.7-36.1,20.7L1263.4,1541.4z M1190.6,1528.9c-0.8,0-1.8,0-2.8,0c-4.8-0.1-10.9-0.6-12.9-1.4l0,0
			c-1.3-0.5-2.1-1.3-2.5-2.4c-0.6-1.8,0.2-3.8,1.2-5.6c1.1-2.1,2.2-3.6,3.9-3.9c1.7-0.3,3.1,0.7,4.3,1.6c1.6,1.3,2.9,1.7,7.9-0.4
			c5.7-2.4,9.4-2.4,17.8,0c6.4,1.8,8.8,3.1,9.1,5.1c0.1,0.6,0,1.8-1.5,2.8c-5.2,3.3-12.1,2.6-17.3-1.6c0.4,1.5,0.6,3-0.3,4.2
			C1196.5,1528.6,1194.4,1528.9,1190.6,1528.9z M1175.8,1523.8c0,0,0.1,0.1,0.5,0.2l0,0c1,0.4,5.9,1,11.6,1.1c2.3,0,6.2,0.1,6.9-0.3
			c-0.1,0-0.3-0.8-0.7-2.1c-0.5-1.5-0.8-2.6-0.9-3.5c-0.6,0.2-1.3,0.5-2,0.7c-5,2.1-8.2,2.7-11.6-0.1c-1-0.8-1.3-0.9-1.3-0.9
			c0,0-0.4,0.3-1.4,2.1C1175.7,1523.2,1175.8,1523.8,1175.8,1523.8L1175.8,1523.8z M1198.4,1518.6c0.4,0.4,0.9,0.8,1.4,1.2
			c3.7,3.3,8.6,4.2,12.5,2.3c-0.9-0.4-2.6-1.1-5.6-1.9C1203.1,1519.2,1200.5,1518.7,1198.4,1518.6z M1235,1526.8c-0.3,0-0.5,0-0.8,0
			c-12.9-0.1-15-0.2-15.7-2.4c-0.6-1.8,1.2-3.2,2.6-4.2c3.6-2.7,8-3.3,15.6-2.2c12.5,1.8,13.4,3.5,13.3,5.3
			C1250,1525.1,1248.7,1526.8,1235,1526.8z M1223.5,1522.9c2.7,0.2,7.4,0.2,10.7,0.2c4.3,0,7.1-0.1,9.1-0.3
			c-1.6-0.4-3.8-0.8-7.1-1.3C1229.7,1520.6,1226.2,1521,1223.5,1522.9z M1152.9,1525.1c-1.9,0-4.2-0.8-7.1-1.8l0,0
			c-4-1.5-10.8-2.8-14.9-2.9c-4.4-0.1-14-1.9-21.3-3.9c-7-2-16.5-3.8-20.8-4c-6-0.3-28.3-4.2-29.7-9c-0.5-0.5-2.3-1.7-5.3-2.7
			c-3.3-1.2-5.4-2-6.2-3.9c-0.8-1.8,0-3.7,1.3-6.5c2.9-6.2,5.2-6.6,14.3-5.8c9.9,0.9,22.2,3.9,23.9,9.2c0.5,0.4,4.5,1.9,10.3,2.4
			c8.5,0.8,10.8,0,12.4-1.9c1.1-1.3,2.4-2.6,4.1-2.9c1.8-0.3,3.4,0.7,4.5,1.6c1.1,0.9,8.3,2.6,17.3,3.2c9.5,0.7,14.7,1.9,15.6,3.7
			l0.5,0.9l-0.5,1.2c-1.2,1.9-5,2.8-8.1,2.8c-1.7,0-3.5,0.5-3.5,1.5c0,1.2,3.7,1.5,6.7,1.5c6.5,0,10.4,1.5,11.5,4.5
			c0.3,0.9,2.5,2.1,5,2.1c3.2,0,7.1,1.1,8.3,3.1c1.1,1.7,0.8,3.6-0.7,4.9c-2.3,2-7.5,2.4-10.6-0.3c-1-0.8-1.4-0.9-1.5-1
			c0,0-0.2,0.2-0.7,1C1156.3,1524.3,1154.9,1525.1,1152.9,1525.1z M1147.1,1519.9c6.3,2.3,6.6,1.8,7.3,0.5c0.7-1.1,1.6-2.5,3.2-2.8
			c1.7-0.3,3.2,0.7,4.4,1.8c1.2,1,3.2,1.2,4.6,0.9c0.9-0.2,1.4-0.6,1.5-0.7c-0.5-0.6-2.6-1.5-5.4-1.5c-3.8,0-7.4-1.9-8.4-4.5
			c-0.4-1-2.7-2.1-8.1-2.1c-3.6,0-10.4,0-10.4-5.1c0-2.4,1.9-5.1,7.2-5.1c0.7,0,1.3,0,1.8-0.1c-2.2-0.4-5.5-0.9-9.5-1.2
			c-6.4-0.5-16.8-1.9-19.4-4c-0.7-0.6-1.3-1-1.6-0.8c-0.2,0-0.8,0.3-1.9,1.6c-3,3.6-7.6,3.9-15.5,3.2c-2-0.2-12.2-1.4-13.4-4.9
			c-0.7-2-7.8-5.6-20.8-6.8c-8.6-0.8-8.8-0.4-10.7,3.7c-0.4,0.8-1.4,3.1-1.2,3.6c0.2,0.5,3,1.5,4,1.8c2.1,0.8,6.9,2.7,7.6,5.1
			c2.2,1.9,17.2,6,26.4,6.4c4.7,0.2,14.4,2.1,21.7,4.2c7,2,16.3,3.7,20.4,3.8C1135.5,1516.9,1142.7,1518.3,1147.1,1519.9
			L1147.1,1519.9z M1059,1503C1059,1503,1059,1503,1059,1503C1059,1503,1059,1503,1059,1503z M1062.6,1503L1062.6,1503L1062.6,1503z
			 M1253.2,1524.5c-1.1,0-1.9-0.3-2.4-1.1c-0.9-1.6,0.4-3.2,1.7-4.7l0,0c2.6-3.2,7.4-4.2,18.7-4.2c14.4,0,14.4,1.8,14.5,3.2
			c0.1,2-1.7,3.1-11.7,3.8c-4.9,0.4-11.9,1.3-15.7,2.1C1256.1,1524.1,1254.4,1524.5,1253.2,1524.5z M1271.3,1518
			c-8.9,0-13.4,0.7-15.4,2.4c0.7-0.1,1.4-0.3,1.8-0.4c3.4-0.7,9.3-1.6,14.1-2C1271.5,1518,1271.4,1518,1271.3,1518z M1043.5,1484.7
			c-7,0-10.9-3.6-26.9-20.6c-9.5-10.1-20.4-23.1-22.2-27.4c-1.5-3.6-4.5-10.8-6.6-15.9c-2-4.9-6.4-12.1-9.7-15.7
			c-3.6-4-7.6-11-9.1-15.5c-1.3-4.1-5.1-10.4-8.3-13.8c-6.3-6.7-37.7-40.1-37.7-45.2c0-3.7,1.7-5.1,2.8-5.6c2.1-1,5-0.4,8,2
			c2,1.5,6.7,2.8,10.2,2.9c7.3,0.1,17.7,6.7,17.7,12.8c0.4,0.6,4.6,4.7,11,9.5c6.7,5.1,13.4,11.6,15.2,14.9c1.5,2.9,3.9,4.6,6.5,4.6
			c3.3,0,8,2.2,10.8,4.9c2.3,2.3,4.5,3.7,5,3.9h0c2.1,0,8.4,5.8,11.1,8.3c7.7,7.3,8.8,9.7,8.2,18.5c-0.6,7.5-0.1,7.6,2.3,7.9
			c3.6,0.5,6.7,3.9,8.7,9.4c2.1,5.8,5.9,9.4,8.6,10c0.6,0.1,1,0.1,1.5,0c-3.2-0.3-4.1-2.2-4.3-3c-0.6-2.3,1.2-4.9,4.9-6.9
			c1.6-0.9,3.3-1.6,5-0.9c1.8,0.7,2.8,2.5,4.1,5.7c1.2,3.2,4,8.2,6,10.9c2.8,3.9,3.7,5.1,2.7,6.6c-1,1.5-2.5,1.1-5.7,0.2
			c-1.6-0.4-2.9-0.3-3.8,0.5c-1.5,1.1-3.2,4.3-3.2,13.3c0,4.9-0.6,11.8-1.3,15.5c-1.3,6.4-3.2,8-10.4,8.2
			C1044,1484.7,1043.7,1484.7,1043.5,1484.7z M927.7,1328.1c-0.2,0-0.4,0-0.5,0.1c-0.5,0.2-0.8,1.1-0.8,2.4
			c0.6,2.1,12.6,17.2,36.7,42.7c3.6,3.8,7.7,10.6,9.1,15.2c1.3,4.1,5.1,10.6,8.3,14.2c3.5,4,8.2,11.5,10.4,16.8
			c2.1,5.1,5.1,12.2,6.6,15.9c1.3,3,10.3,14.3,21.5,26.3c17.1,18.2,19.5,19.7,25,19.4c5.7-0.2,6-0.8,6.9-5.3
			c0.7-3.5,1.3-10.2,1.3-14.8c0-8.4,1.5-13.7,4.6-16.1c1.9-1.5,4.2-1.8,6.9-1.1c0,0,0,0,0.1,0c-0.3-0.4-0.6-0.8-0.9-1.2
			c-2.2-3-5.1-8.3-6.4-11.7c-1.1-2.9-1.7-3.5-1.9-3.6c-0.1,0-0.5-0.1-2.1,0.8c-2.6,1.4-3.1,2.6-3.1,2.8c0,0,0.5,0.3,1.8,0.3
			c1.1,0,3.3,0,4,1.7c0.7,1.7-0.8,3.1-1.4,3.8c-1.6,1.5-3.7,2.1-5.9,1.6c-4.4-1-8.9-5.9-11.2-12.3c-1.5-4.1-3.7-6.7-5.8-7.1
			c-5.9-0.8-5.9-4.6-5.4-11.8c0.6-7.6,0-9-7-15.6c-4.5-4.3-8.2-7.1-9.1-7.4c0,0,0,0,0,0c-2.1,0-6.6-4.4-7.1-4.9
			c-2.1-2.1-5.9-3.9-8.2-3.9c-3.9,0-7.5-2.4-9.7-6.5c-1.3-2.5-7.3-8.6-14.1-13.8c-3.7-2.8-12.4-9.7-12.4-12.4c0-3.4-8-9.1-14.1-9.2
			c-4.3,0-9.8-1.6-12.4-3.6C929.8,1328.6,928.5,1328.1,927.7,1328.1z M1052.6,1434.7L1052.6,1434.7L1052.6,1434.7z M1221.3,1482.8
			c-1.1,0-2-0.2-2.8-1c-1.8-1.7-1.4-4.8-0.4-14.1l0,0c1.4-12,1.1-12.1-1.6-12.8c-2.6-0.7-4.6-3-5.5-6.5c-1-3.7-0.7-8.7,2.2-11.6
			c0.9-0.9,3.3-5.9,8.2-28.7c2-9.2,6.1-19,11.8-19c1,0,2-0.7,2.1-1.2c1.1-3.4,5.6-3.1,14.5-1.2c18.2,3.9,25.7,3.2,32.1-3
			c2.8-2.7,6-5.2,8.1-3.5c1.4,1.1,2.1,3.4-2.9,11.8l-4.3,7.3h-26.7c-16.9,0-24.5,0.3-25.3,2.3c-2,5.3-1.3,9.4,2.7,14.5
			c3.2,4.2,3.2,4.2,8,1.4c6.9-4,22-7.5,26.1-5.2c0.9,0.5,1.5,1.4,1.5,2.4c0,2.3-2,4.2-4.5,4.3c-0.8,0.1-4.7,2.3-9.2,6.1l-6.5,5.6
			l3.1,6.5c1.9,4,3.9,9.5,3.9,11.9c0,1,2,4.4,4.9,7.1c5.3,4.9,6,7.3,4.3,15.2c-0.7,3.5-2.7,9.6-5.6,10.6c-1.9,0.6-3.8,0-5.1-1.6
			c-2.3-2.9-2.3-8.2,0-11.8c0.4-0.6,0.7-1.2,1-1.6c-0.4,0.2-0.8,0.5-1.3,0.8c-4.3,2.8-6.7,4.3-8.7,3.2c-1.8-0.9-1.9-3.2-1.9-6.4
			c0-2.3-1.2-5.4-2.6-6.6c-2.3-1.9-4-6.4-4-10.5c0-2.7-0.6-4.5-1.4-4.5c-1,0-3.3,2.4-4.3,24.6c-0.5,10.5-0.9,13.6-7.4,14.5
			C1223,1482.7,1222.1,1482.8,1221.3,1482.8z M1221.7,1468.1L1221.7,1468.1c-0.6,5.5-1.2,10.3-0.7,11.1c0.2,0,1.5-0.2,2.3-0.3
			c3.3-0.5,3.8-0.5,4.2-11.1c0.9-21,3-28.1,7.9-28.1c1.5,0,5,0.8,5,8.1c0,3.1,1.4,6.6,2.6,7.7c2.2,1.8,4,5.9,4,9.4
			c0,1.4,0,2.4,0.1,3c1.2-0.5,3.7-2.1,4.8-2.8c3.6-2.4,5.9-3.4,7.4-2c1.5,1.5,0.5,3.8-2,7.7c-1.7,2.7-1.2,6.3-0.2,7.6
			c0.5,0.6,0.8,0.5,1.1,0.4c0.6-0.4,2.3-3.5,3.2-7.9c1.4-6.7,1.1-7.8-3.2-11.8c-3-2.8-6.1-7.1-6.1-9.8c0-1.4-1.5-6.1-3.5-10.3
			l-4.3-9l8.6-7.4c2.8-2.4,8.8-6.9,11.4-7c0.2,0,0.5-0.1,0.6-0.2c-3.3-0.6-15.1,1.5-21.7,5.4c-6.7,3.9-8.1,3.7-12.7-2.4
			c-4.4-5.7-5.6-10.8-3.7-16.7c-0.7,2-1.4,4.4-2,7.2c-5.2,24.1-7.6,28.9-9.2,30.4c-1.6,1.6-2.2,5-1.3,8.1c0.6,2.1,1.7,3.6,2.9,3.9
			C1223.4,1453,1223,1456.5,1221.7,1468.1L1221.7,1468.1z M1240.1,1389c-0.9,0-1.2,0.1-1.4,0.2c-0.6,2-3,3.6-5.5,3.6
			c-1.3,0-3.4,2.2-5.4,6.8c2-3.5,7.9-3.8,28.3-3.8h24.6l3.2-5.5c1.8-3,2.6-4.9,3-6.1c-0.6,0.4-1.5,1.1-2.6,2.2
			c-7.5,7.2-15.8,8.1-35.4,3.9C1244.1,1389.2,1241.5,1389,1240.1,1389z M1158.6,1464l-1.1-7.1c-0.3-2-2-3.4-3.4-4.2
			c-4.6-2.8-12-3.4-18-1.4c-4.7,1.6-7,2.1-8.8,1.1c-1.3-0.7-1.7-2-1.9-3c-0.1-0.5-1.9-1.7-5.2-1.7c-12.5,0-15-2.6-15-15.4
			c0-9.2-0.9-9.8-2.9-10.3c-6.4-1.7-10.3-12-10.3-27.6c0-10.1,2.5-17.6,6.5-19.6c1.8-0.9,3.8-0.6,5.5,0.8c1.3,1,4.9,2.6,8.1,3.4
			c2.1,0.5,3.6,0.4,4.4-0.3c1.2-0.9,1.8-3.4,1.8-7.4c0-5.1,9.4-10.8,15.8-10.8c2.9-0.3,14.8-12.6,15-15.5c0-3.7,9.3-8,11.1-8.9
			c4.4-1.9,6.9-3.5,7.8-4.2c0.1-1.6,1.4-4.7,6.7-11.6c4.3-5.6,7.8-11.5,8.5-13.5c0.8-2.7,1.9-5.2,4.2-5.3c2.6,0,4.6,3,7.6,9.2
			c2.4,4.9,6.9,9.7,11.9,12.5c7.1,4,9.4,6.2,9.1,8.7c-0.3,2.4-3,3.6-7,4.6c-0.9,0.2-1.7,0.4-2.2,0.6c0.1,0.1,0.3,0.2,0.5,0.3
			c1.3,0.9,3,2.2,2.9,4c-0.1,2-2.1,3.2-5.3,5.1c-4.2,2.4-4.9,3.7-4.4,9.2c1.1,14.1,3.2,20.7,8,25.2c4.1,3.9,6,6.2,5.4,8.5
			c-0.6,2.4-3.6,3.3-6.9,4.2c-6.3,1.6-7.9,3.2-8,12.7c0,6.3-1.9,10.4-7,15.3c-5,4.8-6.1,7.8-7.4,20.2c-1.7,16.8-4.2,16.8-5.3,16.8
			c-1.6,0-3-1.1-3.6-2.7c-1.1,0.2-3.2,0.9-6.2,2.4L1158.6,1464z M1161.1,1456.3l0.3,2.2l6.4-3.3c3.5-1.8,8.2-3.7,10.2-2.5l0.9,0.5
			l0.1,0.4c0.6-2.2,1.4-6.3,2-12.1c1.3-13.3,2.7-16.9,8.5-22.4c4.4-4.2,5.8-7.4,5.9-12.7c0-10.6,2.3-14.1,10.7-16.2
			c3.5-0.9,4.2-1.4,4.3-1.6c-0.1-0.3-0.8-1.6-4.4-4.9c-5.6-5.2-8-12.5-9.2-27.6c-0.5-6.9,0.7-9.5,6.2-12.6c0.7-0.4,2.5-1.5,3.3-2.1
			c-0.2-0.2-0.6-0.5-1.2-0.9c-1.4-1-3.1-2.3-2.8-4.1c0.4-1.8,2.4-2.4,5.8-3.3c3.7-0.9,4.3-1.6,4.3-1.7c-0.2-0.1-1.1-1.4-7.3-4.9
			c-5.6-3.1-10.7-8.5-13.4-14.1c-2.3-4.8-3.5-6.4-4-6.9c-0.2,0.4-0.6,1.1-1.1,2.6c-0.9,3-5.4,9.8-9.1,14.6c-3.4,4.4-5.3,7.7-5.8,9
			l0.1,0.1l-0.1,1.1c-0.1,0.6-0.5,2.4-10.1,6.7c-5.4,2.4-8.7,5-9,5.8c0,4.4-14.1,18.8-18.6,18.8c-5.2,0-12.1,4.9-12.1,7.2
			c0,5.3-1,8.5-3.2,10.2c-1.8,1.4-4.2,1.7-7.5,0.9c-3.5-0.8-7.6-2.6-9.5-4.1c-1-0.8-1.5-0.5-1.7-0.4c-2.2,1-4.4,7.1-4.4,16.3
			c0,15.3,3.8,23.1,7.6,24.1c5.1,1.3,5.6,5.2,5.6,13.8c0,10.8,1,11.8,11.4,11.8c4.6,0,8.1,1.8,8.7,4.5c0.1,0.5,0.2,0.6,0.2,0.6
			c0.4,0.2,2.4-0.3,5.8-1.4c6.9-2.4,15.5-1.7,21,1.7C1158.9,1451.3,1160.7,1453.7,1161.1,1456.3L1161.1,1456.3z M1325.9,1456.4
			c-0.4,0-0.8,0-1.2-0.1c-2.3-0.5-4-2.4-4.8-5.3l0,0c-0.5-2-0.3-3.7,0.8-5.1c2.2-2.8,7.4-3.9,19.3-3.9c7.4,0,12.2,1.4,15.1,4.6
			c3.6,4,4.7,6.7,3.5,8.4c-1.5,2.1-4.7,0.8-5.7,0.3c-9.6-4-19.1-4.2-20.7-2.4C1330.3,1455.2,1328,1456.4,1325.9,1456.4z
			 M1323.4,1450.1c0.4,1.5,1.1,2.5,2,2.7c1.1,0.2,2.6-0.6,3.9-2.2c3.4-4.2,15.6-2.5,24.9,1.3c0.2,0.1,0.5,0.2,0.6,0.2
			c-0.4-0.7-1.2-1.7-2.5-3.2c-2.1-2.3-5.9-3.4-12.2-3.4c-0.1,0-0.1,0-0.2,0c-3.6,0-14.6,0-16.5,2.5
			C1323.3,1448.4,1323.1,1448.9,1323.4,1450.1L1323.4,1450.1z M1318.5,1416.9c-1.9,0-3.6-0.6-4.9-1.9l0,0c-1.8-1.8-2.4-3.8-1.7-5.6
			c0.7-1.7,2.5-2.7,4.9-2.7c0.4,0,0.5-0.1,0.5-0.1c0.4-0.5,0.3-3.3-0.3-8.4c-1-7.5-0.3-13.5,2.1-19.1l6.6-15.1l0.4,14.3
			c0.1,2.7,0.4,3.4,0.5,3.6c0-0.1,0.4,0,1.7-0.4c2.7-0.9,5.1-0.3,6.2,1.6c1.4,2.3,0.4,5.7-2.5,8.6c-1,1-1.4,1.4,0.7,3.9
			c1.9,2.3,3,3.7,1.9,5.1c-1,1.4-2.8,0.8-5.1-0.1c-1.6-0.6-2.8-0.5-3.5,0.2c-0.7,0.8-1,2.6,0.4,5.3c1.4,2.7,2.6,6-1.3,8.5
			C1322.9,1416.2,1320.6,1416.9,1318.5,1416.9z M1322.5,1380.4l-0.1,0.3c-2.2,5-2.7,10.3-1.8,17.2c0.8,6.4,1,9.5-0.6,11.2
			c-1.1,1.3-2.7,1.3-3.2,1.3c-1,0-1.5,0.3-1.5,0.4c-0.1,0.2,0.1,0.8,0.9,1.6l0,0c1.3,1.3,4.1,1.1,6.9-0.7c1-0.7,1.6-1,0.1-3.7
			c-1.9-3.6-1.9-7.2,0-9.4c1.3-1.5,3.4-2.2,5.7-1.7c-1.6-2.3-2.4-4.8,0.4-7.7c2-2,2.3-3.7,2-4.2c-0.1-0.2-0.8-0.4-2,0
			c-1.7,0.6-3.5,0.9-5-0.1C1323.2,1384.1,1322.7,1382.7,1322.5,1380.4z M1049.1,1392.7l-12.4-0.1c-3.5,0-8.9-2.7-12.3-6.1
			c-3-3-9.4-8.2-14.3-11.7c-12.4-8.7-25.6-34.5-25.7-50.1c0-2.9-1.6-5.8-3-6.6c-2.7-1.6-3.6-2.7-3.3-4.1l0.3-1.2
			c-0.4-1-1.3-2.6-2.8-4.8c-7.1-10.1-9.4-11.9-12.3-11.9c-3.1,0-5.3-2.7-5.5-6.7c-1.1-31-0.3-34.5,1-35.8l0.5-0.6l0.4,0
			c0.2-0.4,0.4-1.3,0.4-2.7c0-1.7-0.8-2.6-1.1-2.6c-1,0-1.9-0.4-2.6-1.1c-1.4-1.4-2-4.2-1.9-8.4c0.1-3.1,0.5-8.2,2.8-9.3
			c0-1.9-1.8-7.2-4.4-10.4c-1.9-2.3-4.5-9.4-5.9-15c-2.8-10.8-9.9-28-12.6-32.2c-1.5,1.3-4.4,4.1-8,7.9c-7.5,8.1-9.8,9.6-17.2,8
			c-8.4-1.9-8.4-3.6-8.4-16.9c0-11.9-4.7-23.4-7.7-25.1c-0.4-0.2-0.5-0.1-0.6-0.1c-0.9,0.5-1.8,0.5-2.6,0.1
			c-1.5-0.8-2.3-3.3-2.3-7.2c0-5.1-1.3-5.9-2.9-6.3c-6.7-1.7-20.5-20.3-22.3-28.4c-1-4.6-4.5-9.1-6.3-10.4
			c-0.3,7.5-10.8,12.3-28.2,13c-18.2,0.7-20.1,3.6-20.1,10.1c0,5.4-4.4,11.6-8.7,14.5c-2.6,1.8-5.1,2.4-7.2,1.6
			c-0.8-0.3-2.2,1-3.7,4.4c-1.7,3.8-8.8,12.8-16.3,20.6c-7.4,7.7-12.1,13.5-12.6,14.6c0.1,2.3-5.7,6.1-6.8,6.8
			c-3.4,2.1-6.5,4.9-7.2,6.1c-1.3,2.1-4.3,3.7-7,3.7c-1.9,1.1-2,17.1-2.1,34.1c-0.2,33.5-0.4,36.8-5.5,41.9c-3.4,3.4-4.3,6.2-4,7.6
			c0.1,0.4,0.3,1.1,1.4,1.5c1.9,0.8,1.8,2.1,1.7,2.5c-0.3,1.8-2.4,2.2-5.6,2.3c-3.6,0.1-5.7,1.6-7.7,5.5c-1.7,3.4-5,7.5-7.5,8.4
			c-1.4,0.5-3,0.4-4.7-0.5c-5.5-2.8-12.1-12.6-14.5-21.8c-1.3-4.9-6.8-17.6-12-27.8c-2.3-4.6-9.9-19.5-9.9-21.5
			c-0.2-0.9-3.7-9.4-9.5-22.1c-10.5-23.1-21.3-59.3-21.3-71.8c0-4-1.3-11.1-2.9-15.6c-0.9-2.7-2-6.7-2.2-9.7c0,0.5-0.1,1-0.1,1.5
			c0,7.5-9.2,17.4-16.1,17.4c-3.6,0-27-19.6-27-24c0-2.6,3.5-3.8,7-3.8c2.6,0,5.5-1.3,6.4-2.5l0,0c-0.6,0-1.4,0-2.6,0
			c-4.1,0-9.7-1.6-12.8-3.9c-2.7-2-8-5.6-11.7-8c-4.1-2.6-8.4-7.2-10-10.6c-1.2-2.6-2.7-4.2-3.3-4.4c0,0,0,0,0,0
			c-2.1,0-3.8-2.2-3.8-5.1c0-0.9-0.6-1.7-1.1-1.7c-4.9-0.4-33.3,0.5-45.3,1.6c-12,1-38.8-1.9-56.2-6.2c-7.4-1.8-10.1-4.1-13-11.2
			c-3.2-7.8-5.1-8.8-5.8-8.9c0,0-0.1,0-0.1,0c-0.8,0-1.7,1.1-2.2,1.7c-2.9,3.9-8.1,4.5-18.6,4.5c-3.6,0-15.4-0.2-17.4-3.3
			c-0.7-0.9-6.1-5.1-13.5-9.9c-9.1-5.8-15.2-12-21.1-21.5c-5.6-9-9.3-12.8-13.2-13.5c-3.9-0.7-8.7,1.5-17.1,8c0.1,0,0.2,0.1,0.2,0.2
			c2.1,1.4,5.1,7.1,6.6,10.7c1.8,4.3,7.7,11.9,13,16.7c1.1,1,10.6,9.7,10.6,13.1c0,0.6,0.8,1.8,2.1,2.3c2.6,1,4.5,3.5,4.4,5.8
			c0,0.2,0,0.6-0.1,0.9c0.6-2.1,2-5.4,4.8-5.2c4.6,0.4,5.6,10.9,5.9,15.3c0.6,11.1,1,11.2,5.1,12.2c2.2,0.6,3.9,0.4,4.5,0.2
			c1.4-2.9,8.3-2.3,10.4-2.1c6.4,0.7,7.4,0.4,20.2-12.9l16.5-17.2l1.4,14.8c1.2,12.6,6.6,18.9,19.2,22.4c7.2,2,11.7,5.1,14.6,9.9
			c2,3.3,4.3,5.3,5,5.4c0,0,0,0,0,0c1.7,0,3.1,0.8,3.9,2.2c1.7,3.2-0.3,9.4-5.2,16.6c-3.2,4.6-4.9,9.5-4.7,10.7
			c0.2,1.2,0.3,3-0.9,4.2c-1.3,1.4-3.5,1.3-5.5,1c-1.9-0.2-2.2-0.1-2.3,0c-0.6,0.5-0.6,4.8-0.6,6.4c0,7.6-1,10.4-7.1,13.3
			c-2.9,1.4-6.3,4.6-7.3,6.8c-1.4,3.2-5.1,6.3-8.4,7.1c-2.2,0.6-5,3.2-5.9,5.6c-1.7,4.6-4.6,6.6-9.4,6.6c-10.3,0-25.6,8.6-27.5,14
			c-1.9,5.4-5.8,8.2-18.2,13.2c-8.7,3.5-16.4,7.3-17.8,8.6c-3.7,3.3-17.7,8.9-32.6,13c-4.6,1.3-10.9,4.1-13.9,6.3
			c-5.1,3.7-12.8,4.5-17.9,3.3c-3.3-0.8-5.6-2.3-6.7-4.4c-1.1-2.2-3.8-11.3-5.7-19c-3-11.7-5.4-16.4-11.8-22.7
			c-6.7-6.6-9-8.8-8.5-11.2c0.4-1.8,2.2-2.5,4-3.2c2.9-1.1,7.1,1.1,9.7,3.9c0.1,0.1,0.3,0.3,0.4,0.4c-1.7-3.8-6.1-10.4-13.5-19.2
			c-3.1-3.7-7.6-10.3-7.6-13.3c-0.2-1.1-4.2-6.9-11.5-14.2c-4.4-4.3-12.6-13.4-12.6-17c0-1.7-0.9-3.3-1.3-3.6
			c-2.1-1.3-3.1-5.5-3.1-8.8c0-8.9-7.1-23.1-11.7-25.5c-3.2-1.7-6.4-5.9-7.3-9.5c-1.9-7.6-24.2-40.6-27.7-42.3
			c-1.1-0.4-3.8,0-5.6,1.1c-4.9,3.1-7.4,0.8-11.8-5c-9.1-12.1-15-24.9-15-32.6c0-9.5,5.3-11.4,13.8-11.4c5.6,0,7.4-2,13.9-23.1
			c3.7-11.9,5.8-23.9,6-34.6l0.3-14.7l-7.4,0.3c-5.1,0.2-10.6,2-12.2,3.5c-6.1,5.5-18.8,5.1-26.2-0.7c-4.7-3.7-10.4-4.5-12.4-3.5
			c-0.6,0.3-0.6,0.6-0.6,0.9c0,2.2-1,4-2.9,5.1c-3.7,2.2-10,1.4-16.6-2.2c-4.9-2.6-7.7-3-8.3-2.7c-2.2,2.2-6.4,1.9-8.6,0.2
			c-1.4-1.1-1.9-2.8-1.2-4.3c-2.3-1.3-4.5-5.8-5.4-7.9c-1.7-4-4.6-8-6-9.1c-1.4-1.1-2.9-2.5-2.8-4.3c0-1.2,0.7-2.2,2-3
			c0.6-0.4,1.2-2.8,0.5-6c-0.6-3-1.7-4.3-2.1-4.4c-2.1,0-4.1-1.9-5.3-5c-1.1-2.6-1.6-6,0.3-7.9c1.6-1.6,9.1-1.9,11.4-2
			c14.5-0.4,18.5-2.6,19.7-3.9c0.4-0.5,0.4-0.8,0.4-1.1c-0.1-1-0.1-2.4,1-3.6c1.7-1.8,5-2.1,12.4-2.1c8.2,0,12.9-1.2,17-4.2
			c9.2-6.8,32-9.7,39.3-5c2.1,1.3,3.8,1.9,4.5,1.9c1.8-1.3,4.7,0,6.9,1.9c7.6,6.5,32.8,9.4,47.4,5.3c4.2-1.2,9.3-3.4,9.9-7.3
			c0.7-4.5-4.5-10.6-14.2-16.8c-12.3-7.9-13.5-10.9-12.8-13c0.5-1.6,2-2.4,4.7-2.4c3.9,0,22.2,7.5,31.1,12.4c2.9,1.6,9.7,3,14.8,3
			c8.6,0,12.5,1.6,21.5,9.1c13,10.7,42.6,26,51.2,26.4c4.1,0.2,6,0.3,6.1,2.2c0.1,1.9-1.8,2.2-3.8,2.6c-2.5,0.5-3.5,1.1-3.5,5.6
			c0,3.9-1.3,9-2.9,11.7c-1.4,2.3-0.7,7.6,1.8,12c1.7,3.1,3.8,5,5.4,5c3,0,8.7,3,12.5,5.8c7.1,5.3,14.4,6.3,27,3.8
			c3.6-0.7,5.3-1.5,6.1-2.7c1.4-2.1,0.8-6.8-0.9-14.8c-1.7-8.1-3.3-11.6-5.5-12.2c-3.1-0.8-5.5-3.5-5.5-6c0-1.2-1.2-3.6-2.8-5.2
			c-2.1-2.1-3.8-6.3-3.8-9.4c0-2.4-1.4-7.1-3.1-10.3c-2-3.7-3.5-9.3-3.5-12.5c0-2.9-0.7-4.5-7.7-7.4c-2.3-1-9.9-4.4-9.9-7.7
			c-0.2-0.7-2.5-4.1-6.4-8.1c-6.2-6.3-5.4-8.1-5.1-8.8c0.3-0.8,1.1-1.3,2.1-1.3c0.4-0.2,2-1.9,3-4.5c2.4-6.2,4.8-6.8,13.3-6.1
			c6.1,0.5,7.2-0.3,7.3-0.4c-0.3-1.2-0.5-4.8-0.7-7.7c-0.2-3.4-1.7-6.3-3.9-8c-1.1-0.8-2.9-1.6-5.2-1c-3.9,1-8.3-1.8-10.5-3.5
			c-4.4-3.4-9.2-9.5-9.2-14.7c0-2.2-2.5-8.3-6.2-13.4c-3.8-5.3-7.4-12.6-8.2-16.7c-1.2-6.3-0.7-8.8,5.1-10.3c3-0.8,8.4-1.5,12-1.5
			c3.3,0,9.3-1.2,13.1-2.6c6.3-2.3,11.9-2.1,29.7,1.1c11.9,2.1,26.3,5.4,32.2,7.2c8.1,2.6,10.5,2.4,11.9,1.1
			c2.3-1.9,5.5-2.5,7.4-1.3c0.4,0.3,2.2,0.2,4.8-1.1c2.4-1.2,3.5-2.5,3.6-3c-0.2-0.3-2.6-2.7-6.8-5.2c-3-1.7-8.6-5.9-8.6-9.1
			c0-0.7-1.8-3.2-4.9-5.3c-5.9-3.9-6.4-6.3-5.2-13.9c1.1-7-0.1-12.2-3.3-14c-3-1.7-7.6-0.3-12.5,3.9c-3.5,2.9-6.6,4.8-9.8,4.4
			c-4-0.5-7.4-4.2-12.4-10.9c-4.3-5.8-5.8-8.2-5.5-10.5c0.3-1.7,1.6-2.8,3-3.9c2.4-1.7,6.1-3.1,8.4-3.1c3.3,0,5-2,5.8-3.7
			c1.8-3.7,1.5-10.4-3.2-16.4c-3.7-4.7-5.8-12.2-7.9-28.6c-2-15.2-5.3-27.8-11.6-43.5c-9-22.5-9-23.5-9-23.8c0-1.2,0-2,14.9-9.1
			c7.5-3.6,17.4-9.7,22-13.7l7.2-6.2l-3.8-4.8c-5.9-7.4-4.6-8.6-3.9-9.4c0.6-0.6,1.6-1.6,10.2,1.9c3.7,1.5,13.4,5.5,15,4.8
			c-0.2-1.9-5.9-5-18.9-11.1c-2.4-1.1-4.5-4.1-5.1-6.8c-0.3-1.6-2.3-4.7-4.6-6.5c-2.4-2-3.9-3.2-3.8-5c0.1-1.9,1.7-3,5.3-5.3
			c3.4-2.2,4.9-4.8,4.9-8.4c0-5.7,1.7-10.1,4.8-12.5c2.2-1.7,4.9-2.2,7.9-1.4c1.2,0.3,4.2,1.3,5.1,3.4c0.2,0.4,0.2,0.8,0.2,1.2
			c0.9,0.5,3.1,1.4,6.7,2.1c8.7,1.7,10.8,2.9,11.5,10.5c0.3,3.6,2,6.9,4,7.9c3.1,1.7,7.7,8.3,10.4,13.8c2.8,5.6,8.1,12.4,11.5,14.8
			c9.3,6.6,8.8,8.7,1.6,20.1l-4.2,6.6l3,0.8c3,0.8,5.4,0.2,7.2-1.7c1.4-1.4,4.1-3.7,6.2-4c0.5-0.6,1.4-2.5,2.1-5.4
			c0.9-4.3,0.5-6.7-1.9-9.3c-2-2.2-3.4-3.7-2.9-5.5c0.2-1.1,1-1.8,2.2-2.4c-0.1,0-0.2,0-0.2,0c-11.3-0.2-18.1-5.9-18.1-15.4
			c0-2.7-1.1-4.9-7-8l-10.3-5.6l8.4-6.8c1.9-1.5,4-3.3,4.3-3.9c-0.2-0.1-1.4-1.1-2.4-1.9c-2-1.6-3.7-3.1-2.8-4.8
			c0.6-1.1,1.7-1.4,3.3-0.9c2.6,0.8,6.7,5.2,9.4,9.2c1.6,2.3,3.3,4.3,5,5.8c-0.3-0.4-0.4-0.8-0.4-1.3c0-1.8,1.8-2.5,4.4-3.5
			c1.8-0.6,2.5-1.5,2.6-1.8c-1-1.3-0.4-2.5,0-3.1c1.3-1.8,4.1-2.7,26.2,2.9c8.4,2.1,15.7,3.7,18.6,4.2c-1.6-0.9-4-2-7.2-2.8
			c-4.8-1.3-11.7-4.7-15.3-7.5l-9.7-7.6l18.6-2.2c7.9-1,18.2-1.6,22.7-1.6c2.8,0,4.5-0.1,5.3-0.3c-0.8-0.6-2.5-1.8-6.1-3.4
			c-4.9-2.3-6.2-3.4-5.7-5.1c0.6-1.8,2.6-1.4,3.3-1.3c1.9,0.3,3.3,0,3.6-0.2c0.7-2.2,10.4-4.9,16.1-6.2c8-1.9,20-4.9,27-6.7
			c7.1-1.9,19.2-3.2,26.9-3c7.4,0.2,17.6-0.4,22.7-1.2c1.6-0.3,6.3-1.1,6.9-2c0,0,0.1-0.3-0.2-1.4c-0.9-2.8,0-4.7,1-5.7
			c3-3.5,10.8-4.3,23.1-2.4c7.2,1.1,15.7,2.1,18.9,2.2c4.3,0.1,7.8,2.2,8.3,4.9c0.4,1.8,15.5,2.2,22,2.3c11.4,0.2,25,0.9,28,1.5
			c7.1,1.5,19.1,9,20.8,12.9c0.6,1.3,0.2,2.2-0.1,2.7c-1.3,2-5.8,5.1-28.4,17.1c-1.6,0.8-2.3,1.4-2.7,1.8c1.5,0.4,5.7,0.4,11.4-1.8
			c2-0.8,3-1.7,3.3-2.1c-0.5-1-0.5-2,0-2.8c0.6-1.1,1.9-1.8,3.6-1.8c1.2,0,5-1.3,8.8-3.4c7.2-4.1,8.4-3.5,16.1,2.3
			c6.6,5,7.9,5.5,30.1,5.5c22.4,0,23.4,1.8,23.9,2.7l0.2,0.3c4.9,1.8,31.4,3.9,38.1,3.1c-2-0.9-3.4-2.9-3.4-4.8c0-0.8,0.3-1.5,0.9-2
			c1.1-1,3.5-1.7,12.7-0.4c6.2,0.9,14.1,1.7,16.7,1.5c11.4-0.3,24.2,4.7,39.5,15.1c12.9,8.8,25.2,14.8,30.9,15.2
			c0.1-0.5,0.2-1.5-0.1-3c-0.4-2.2-0.8-4.2,0.5-5.5c1.5-1.5,3.9-1.2,9.5-0.2c4.7,0.8,19.2,0.9,31.6,0.2l16.2-1l-1.6-0.8
			c-4.7-2.3-6.7-3.4-6.3-5.4c0.4-1.8,2.6-1.9,4.1-1.9c2.2,0,3.8-1,3.9-1.4c1.1-3.3,6-3.5,29-1c26.5,2.9,34.9,3.6,49.6,4.3
			c4.3,0.2,10.2,1.8,12.6,4.2c4.8,4.9,21.5,7.4,59.5,9.1c36.8,1.6,40.6,2.5,58,12.6c5.8,3.4,62.1,4.5,67,1.4
			c0.8-1.5,3.5-2.8,5.9-2.8c1.7,0,3,0.6,3.7,1.8c0.4,0.8,0.5,1.7,0.1,2.6c0.1,0,0.1,0,0.2,0c2.6,0,4.7,1.2,5.1,3
			c2.6,1.7,15.8,4.8,22.1,5.4c-1.1-0.8-2.7-1.7-4.6-2.7c-10-5.1-10-6.7-10-7.5v-0.8l0.7-0.6c2.8-2.5,48.4,1.5,63.6,3.5
			c19.1,2.4,87.9,19,108.2,26.1c6.9,2.4,16.3,4.4,20.5,4.4c12.4,0,42.7,8.1,47.9,13.8c2.3,2.5,3.7,4.1,3,5.8
			c-0.7,1.6-2.6,1.6-3.6,1.6c-1.2,0-1.5,0.2-1.5,0.3c0,0.3,0.8,2.5,5.3,6.5c3.7,3.2,5.3,4.9,4.6,6.8c-0.6,1.7-2.7,1.7-3.6,1.8
			c-1.7,0.1-3.5-0.6-4.6-1.6c-0.5-0.5-0.8-1.1-1-1.7c-5.5,1.9-25.5-3.3-36.7-8c-5.4-2.2-14.7-4.1-20.2-4.2c-6.2,0-13.6-1.6-17-3.5
			c-1-0.6-2.2-1.1-3.5-1.6c4.2,2.6,6.3,5.9,5.9,9.2c-0.5,3.5-3.7,6.1-8.8,7.1c-0.2,0-0.4,0.1-0.6,0.1c1,0.2,1.9,0.3,2.2,0.2
			c2.6-0.7,9.2,2.7,9.9,3.1c3.6,2,11.9,6.4,18.5,9.8c11.9,6.3,13.7,8.5,13,10.8c-0.7,2.4-3.7,3-12.2,2.5c-9.6-0.6-11.9,0.1-19.3,5.6
			c-4.6,3.4-10.4,10.2-12.6,14.8c-2.6,5.4-5.6,10.2-9.9,8.4c-12.1-5.1-23.3-5.6-27.1-3.1c-1,0.7-1.2,1.4-1.2,1.9c0,1.2,0,3-1.5,3.8
			c-1.6,0.8-3.5-0.4-6.3-2.4c-3.6-2.5-5-2.9-5.4-2.9c0,0.1,0,0.4,0,1c0,1.6-0.7,2.5-1.3,3c-1.3,1-3.2,1.3-6.1,0.8
			c-2.7-0.5-4.6,0.3-5.2,1.3c-0.5,0.9,0.3,1.8,0.8,2.3c1.7,1.7,3,5.3,3,8.4c0,5.9,4.3,10.8,10,11.4c4,0.4,10.4,4.7,14.3,8.5
			c4,4,9.6,9,12.5,11.1c4.4,3.2,5.3,3.9,4.5,5.5c-0.8,1.6-2.1,1.2-5.7,0.3c-1.8-0.5-2.5-0.4-2.7-0.3c0.2,0.2,0.6,2.7,7.7,9.9
			l11.1,11.4h-10.2c-2.1,0-3.6,0.5-4,1.4c-0.5,1.2,0.3,4,4.1,8.1c2.9,3.1,4.2,4.8,3.5,6.5c-0.7,1.6-2.7,1.6-3.6,1.6
			c-0.9,0-2.5,0.1-3,1c-0.2,0.4-0.8,2.2,2,7c3,5.1,3.6,13.9,1.2,18.1c-1.3,2.2-3,2.5-3.9,2.5c-3.7,0-52.7-45.1-64.4-56.7
			c-7.4-7.4-12.3-14.6-13.4-19.6c-0.9-4.3-2.5-8.2-3.2-9.1c-0.7-0.9-1-2-0.8-3.1c0.4-1.8,2-3.4,4.9-5c2.7-1.5,4.6-3.9,4.6-4.9
			c0.5-13,2.7-24,5.9-29.4c2.8-4.8,2.8-4.8-2-10c-2.5-2.7-6.2-7.7-6.2-10.4c0-0.5-0.9-0.8-1.2-0.9c-1.8-0.5-4.7,0-5.6,1.5
			c-0.2,0.3,0.2,1.7,2.3,3.1c2.2,1.4,3.7,2.5,3.9,4.3c0.2,2.1-1.3,3.8-5.2,7.9c-6.2,6.6-7.4,7.2-14.8,3.5c-3.5-1.8-7.8-5-8.8-7.5
			c-0.8-2.1-9.7-2.1-12.7-2.1c-6.5,0-11.4,0.7-12.8,1.2c-0.4,1.3-1.4,6-2.2,11.8l-1.3,9.6l22.6,8.9l-24.6,2.4
			c-14.3,1.4-18.5,1.3-21.4-2.3c-1.5-1.9-9.1-4.1-15.9-4.6c-4.7-0.3-6.6,0.3-6.9,0.6c-0.7,1.1-2,3.3-32.2,3.7
			c-26.3,0.4-28.5,0.9-30.1,3.9c-1.3,2.3-3.4,5.3-4.9,6.4c-0.2,0.2-0.3,0.8,0,1.4c1.6,2.6-0.5,8.1-1.9,10.7
			c-1.9,3.6-3.2,8.1-3.2,9.8c0,3-3,8.8-5.8,12.6c-1.3,1.8-5.4,7.3-4.7,9.2c0.4,0.9,2.5,1.8,6.3,2.4c4.9,0.9,11.1,3.7,14.1,6.4
			c0.6,0.5,1.3,1.2,1.9,1.7c0,0,0,0,0-0.1c0-5.3-1.9-7.5-7.3-8.5c-3.2-0.6-4.8-0.9-4.7-2.8c0.1-1.9,1.5-1.9,6.6-2.2
			c2.1-0.1,6.1,0,8,1.8c0.7,0.6,1,1.4,1,2.3c0.1,2.2,6.7,12.6,9.4,15c0.4-0.5,0.9-1.5,1.3-2.8c1.1-3.4,4.2-5.6,7.9-5.6c0,0,0,0,0,0
			c8.7,0,28.6,10.7,36.8,19.6c1.5,1.6,2.8,2.9,3.8,3.8c-0.3-0.5-0.7-1-1.2-1.6c-2.5-3.2-4.7-8.1-3.6-11.2c0.5-1.3,0.1-3.6-0.9-4.7
			c-1.5-1.8-2-3.4-1.4-4.6c0.4-0.9,1.2-1.4,2.3-1.4c2.4,0,9.9,7.6,14.2,12.1c5.9,6.2,20.9,21.3,33.5,33.6
			c18.6,18.2,20.6,20.6,19.4,23c-0.9,1.9-3.4,1.5-5,1.2c-2.2-0.3-3.9-0.2-4.6,0c0.5,5.9,7.4,17,13.8,22c4.4,3.4,10.1,8,12.7,10.2
			l15.8,13.3l-17.8-8.6c-4.8-2.3-6.1-2-6.3-1.9c-0.1,0-0.6,0.4-0.6,2.8c0,1.5,0,4.4-2.2,4.9c-2.3,0.6-4.1-1.4-11.2-14.4
			c-3.3-6-8.7-14.8-12.2-19.6c-3.5-4.8-10.2-14.2-15-20.9c-14.8-20.7-21.6-23.6-22.5-23.3c0,0-0.7,0.9,0.1,4.8
			c0.7,3.6,2.9,8.5,4.9,10.7c2.2,2.5,6.3,8.9,9.1,14.1c4.5,8.5,5,12,3.9,27.4c-2.4,32.5-9.2,54.6-19.2,62.2
			c-3.5,2.7-7.4,3.6-11.4,2.8c-3.5-0.7-7.8-2.4-9-4.3c-0.2-0.2-1.2-0.4-2.7-0.1c-1.7,0.4-2.6,1.1-2.7,1.3c0,2-3.9,6.4-5.1,7.7
			c-3.2,3.5-3.9,5.3-2.7,12.4c1.4,8.9,0.7,10.8-7.1,18.7l-6.6,6.8l12.8,10.1c14.4,11.3,27,26.5,32.3,38.8c1.9,4.4,2,8.5,0.4,11.7
			c-1.7,3.3-5.1,5.5-10,6.6c-3.6,0.8-6.3,2.2-6.7,2.7c-1.2,2-4.9,2.9-7.9,2.9c-2.8,0-5.6-1.7-7.8-4.8c-2.7-3.6-4.6-9.6-3-14.6
			c0.6-2-0.6-4.6-3.7-7.5c-4-3.7-5.8-7.8-4.8-10.8c0.6-2-0.4-3.8-1.3-4.9c-2.6-3-7.3-4.6-11.6-3.8c-2.4,0.4-5.3-0.6-8-2.8
			c-2.8-2.4-4.5-5.4-4.5-8.1c0-6.5-1-10.2-3.2-12.3c-2.5-2.4-7-3.4-15.4-3.2c-6.1,0.1-10.2,1.8-16.5,6.9c-6.1,4.9-8.1,5.8-9.7,4.7
			c-1-0.7-1.2-1.9-0.5-3.6c0.7-1.7,0.2-4.1-0.6-5.1c-2.8-3.4-1.6-6.7-0.2-9.3c1.4-2.5,1.6-4.9,0.7-6.4c-0.9-1.4-2.7-2.2-5.3-2.2
			c-3.2,0-6.1,1.4-11.5,8.5c-4,5.1-6.5,9.2-6.7,10.1c0,3-5.9,3.4-8.4,3.4c-4.8,0-4.8,0.9-4.8,2.3c0,2.7,1.2,6.6,11.6,8.7
			c6.7,1.3,9.4,5,10.4,7.8c1.2,3.2,3,5.3,4.9,5.5c1.6,0.3,3.4-0.8,5-3c4.5-6,6.1-5.6,18.5-2.6c13.4,3.3,15,6.4,15,8.4
			c0,3.3-4.7,4.5-6.2,4.9c-5.1,1.3-19.6,17.9-19.6,22.5c0.2,0.8,3,3.8,7.8,6.9c4.9,3.1,12.1,10.2,15.9,15.8
			c3.6,5.2,9.8,12.2,13.5,15.3c5.7,4.7,6.4,5.6,5.4,7.1c-0.2,0.3-1.1,1.3-2.8,0.5c-0.4-0.2-0.7-0.3-0.9-0.4c0.5,1.1,1.9,3.1,4.6,5
			l9.1,6.5l-8.1,4.9c-2.7,1.7-3.9,2.8-4.4,3.3c0.4,0.1,1,0.2,2,0.2c2.6,0,5.9,1,7.2,3.1c0.6,0.9,1.1,1.3,1.4,1.3
			c0.4,0,1.1-0.7,1.6-2.5c0.6-1.9,1.9-1.8,2.3-1.7c1.7,0.3,2.2,0.4,1.1,15c-1.3,17.4-4.1,19.1-5.2,19.7c-1,0.6-2.1,2.9-2.1,5.1
			c0,3.1-1.7,7.9-3.8,11c-1.8,2.6-2.8,6.8-2.3,10.2c0.3,2.2,0.7,6.2-0.6,7.7l-0.5,0.6l-0.6,0.1c-0.6,0.5-2.3,2.7-4.3,6.3
			c-2.2,4.1-8,10.5-12.8,14.3c-5,3.9-8.7,8.2-9.2,9.6c-1,2.8-4.4,5.1-7.7,5.1c-2,0-8.1,1.9-13.8,4.6c-6.3,3-9.5,3.9-11.5,3.1
			c-0.8-0.4-1.5-1-1.8-1.9c-0.3-1-0.7-1.3-0.8-1.3c0,0.1-0.6,0.9-0.6,2.6c0,3.5-2.2,6.2-5.1,6.2c-0.9,0-1.4,0.4-1.5,0.6
			c0,0.9-0.4,1.8-1.2,2.4c-1.2,0.9-3.1,1-5.2,0.4c-4.3-1.3-17.3,4-18.7,7.7c-0.7,1.8-1.2,5-1.2,7.1c0,3.6-1.5,6-3.7,6
			c-3.9,0-8.8-11.6-8.8-15.9c-0.6-1.5-10.3-3.9-16.4-1.7c-6.3,2.4-21.7,18.3-23.1,24c-2.2,8.6,0.3,13.9,22.5,36.6
			c24.8,25.5,30.4,37,29.9,61.8c-0.3,12.5-1.1,14.7-8.2,20.6c-4.2,3.6-10.3,7-13.9,7.8c-3,0.7-5.1,2.5-5.7,4.9
			c-0.9,3.6-6.8,10-11.9,14.2l-13.3,10.9l0.9-14.4c0.5-8.4-0.2-9.8-3.7-12.2c-2.6-1.9-3.4-2-3.6-2c0,0-0.2,0.1-0.8,1
			c-0.8,1.2-1.8,2.9-3.5,2.4c-1.7-0.5-1.7-2.5-1.8-4.2c0-1.3-0.5-2-0.6-2.1c-0.8,0-2.1-0.4-2.8-1.2c-0.6-0.7-0.8-1.6-0.7-2.4
			c0-0.1,0-0.2,0.1-0.4c-0.6,0.6-1.5,1.2-2.5,1.1c-1.9-0.2-2.9-2.1-4.3-5.9c-3-8.1-11.2-15.4-19.8-17.8c-5.9-1.6-8.9-3.5-8.9-9.2
			c0-3.6-1.1-3.6-2.4-3.6c-1.4,0-5,0-5,11c0,3.4-1.5,13.3-3.4,22.2c-2.3,11.1-2.6,16.4-1.2,19.2c0.7,1.4,1.5,2.1,1.9,2.4l0.3-0.2
			l1,0.3c2.5,0.8,6.2,9.6,8.2,14.7c3.9,10.1,7,14.9,11,17c3.5,1.9,11.6,8.6,17.9,15c11.3,11.3,11.9,12.6,13,27.5
			c0.8,10.3,2.8,17.5,6.9,24.6c4.4,7.8,4.8,10.3,3.9,11.9c-0.1,0.1-0.2,0.3-0.3,0.4c0.3,0.2,0.8,0.5,1.3,0.8L1049.1,1392.7z
			 M982.3,1314.4c0.2,0.2,0.5,0.4,0.9,0.6c2.7,1.6,4.8,5.8,4.8,9.7c0.1,14.8,12.5,39,24.2,47.2c5.1,3.6,11.7,9,14.8,12.1
			c2.2,2.2,5.3,3.9,7.7,4.7c-2.4-1.6-3.3-2.9-3-4.2c0.1-0.3,0.4-1.3,1.7-1.6c-0.2-0.9-1-3.1-3.8-7.9c-4.4-7.7-6.5-15.2-7.3-26.1
			c-1.1-14-1.3-14.5-12-25.2c-6.1-6.1-13.9-12.7-17.1-14.4c-4.9-2.6-8.3-7.8-12.7-18.9c-2.6-6.7-4.9-11.1-5.9-12.4
			c-0.3,0-0.6,0-1-0.1c-1.5-0.4-3.1-2-4.4-4.3c-2-3.7-1.7-9.3,0.8-21.6c1.8-8.6,3.3-18.4,3.3-21.5c0-3.6,0-14.6,8.6-14.6
			c6,0,6,5.4,6,7.2c0,3,0.5,4.1,6.2,5.7c9.8,2.7,18.7,10.8,22.2,20c0.6,1.5,1,2.4,1.3,3c0,0,0,0,0,0c1.6-2.5,3.1-2.6,4-2.2
			c1.6,0.6,2.2,2.5,1.7,5.8c2,0.2,3.4,1.7,3.9,4c0.5-0.5,1.2-0.9,1.9-1.1c1.8-0.4,3.6,0.6,6.4,2.6c5.1,3.6,5.8,6.7,5.2,15.4
			l-0.4,6.1l6.9-5.6c1.9-1.6,3.7-3.3,5.3-4.9c-1.5-0.8-2.5-2.6-2.5-4.9c0-1.8,0.7-3.1,1.8-3.8c1-0.5,2.1-0.5,3.2,0.2
			c0.9,0.6,1.8,1.5,2.3,2.5c0.3-0.6,0.6-1.1,0.7-1.4c0.9-3.7,4.2-6.6,8.5-7.6c2.9-0.7,8.6-3.9,12.3-7c6.2-5.2,6.6-6.4,6.9-17.9
			c0.5-23.5-4.9-34.5-28.9-59.1c-21.2-21.8-26.2-28.8-23.4-40c1.7-6.8,17.8-23.7,25.3-26.5c5.9-2.2,15.5-0.9,19.2,1.6
			c1.7,1.2,2.1,2.5,2.1,3.4c0,3.2,3.1,9.8,4.9,11.9c0.1-0.4,0.3-1.1,0.3-1.9c0-2.5,0.7-6.2,1.5-8.4c2.1-5.4,17.1-11.8,23.2-9.9
			c0.8,0.3,1.4,0.3,1.7,0.2c0.3-2.1,2.4-3.7,5.1-3.7c0.7,0,1.5-1.1,1.5-2.6c0-3.8,1.9-5.8,3.7-6.1c1.6-0.3,3.6,0.6,4.7,3.8
			c0-0.2,1.5,0,8.2-3.2c5.1-2.4,12.2-5,15.3-5c1.8,0,3.8-1.2,4.3-2.6c1-2.8,6.1-7.9,10.4-11.3c4.4-3.5,9.8-9.5,11.9-13.2
			c2.3-4.3,4.3-6.9,5.8-7.7c0.1-0.7,0.2-2.3-0.1-4.7c-0.6-4.2,0.6-9.5,2.9-12.8c1.7-2.4,3.2-6.6,3.2-8.9c0-3.4,1.7-6.9,3.9-8.2
			c0,0,2.3-1.7,3.4-16.8c0.2-3.1,0.4-5.5,0.5-7.4c-0.5,0.2-0.9,0.4-1.4,0.5c-1.8,0.2-3.7-0.8-5-2.9c-0.3-0.5-2.1-1.3-4.1-1.3
			c-1.2,0-5,0-5.8-2.6c-0.6-2.2,1.3-4.6,6.3-7.6l3.4-2l-4.6-3.3c-4.2-3-7.5-7.7-5.9-10.4c0.2-0.3,0.4-0.6,0.7-0.8
			c-0.4-0.3-0.8-0.7-1.2-1c-4.1-3.3-10.4-10.5-14.2-16c-3.5-5.1-10.3-11.9-14.8-14.7c-0.4-0.2-9.5-6-9.5-9.9
			c0-6.1,15.6-24.4,22.3-26c3-0.8,3.5-1.5,3.5-1.5c-0.3-0.3-2.9-2.5-12.3-4.7c-11.6-2.8-11.6-2.8-14.7,1.3c-2.5,3.3-5.4,4.8-8.4,4.4
			c-3.2-0.5-6-3.2-7.7-7.8c-1.1-2.9-3.7-4.7-7.8-5.5c-9.7-1.9-14.5-5.9-14.5-12.2c0-5.2,4-5.9,8.4-5.9c2.5,0,4.3-0.4,4.9-0.7
			c0.9-2.8,5.7-9.3,7.3-11.4c5.6-7.2,9.4-9.9,14.4-9.9c3.9,0,6.9,1.4,8.4,4c1.6,2.7,1.4,6.2-0.6,10c-1.5,2.8-1.2,4-0.2,5.2
			c1.3,1.6,1.9,4.2,1.7,6.5c0.9-0.7,2.2-1.6,4-3.1c6.9-5.6,11.8-7.6,18.8-7.7c9.5-0.2,14.7,1.1,18,4.3c2.9,2.9,4.2,7.3,4.2,14.9
			c0,1.6,1.3,3.7,3.2,5.4c1.7,1.5,3.7,2.3,5,2c5.5-0.9,11.5,1.1,14.9,5c2.2,2.6,3,5.5,2.1,8.4c-0.4,1.3,0.6,4,3.9,7.1
			c4.2,4,5.8,7.7,4.7,11.2c-1,3.3,0,8,2.5,11.4c1.5,2.1,3.3,3.3,4.9,3.3c2.5,0,4.5-0.8,4.8-1.2c1.3-2.1,6.4-3.7,9-4.3
			c3.8-0.8,6.4-2.5,7.5-4.7c1.1-2.2,1-5.2-0.5-8.6c-5-11.8-17.3-26.5-31.2-37.4l-16-12.6l9.4-9.6c7-7.1,7.3-8,6.1-15.6
			c-1.3-7.9-0.5-11,3.7-15.5c2.6-2.8,4-5,4.2-5.5c0-1.8,1.8-3.5,4.8-4.4c2.5-0.7,5.9-0.7,7.3,1.5c0.4,0.5,3.1,2,6.7,2.7
			c3,0.6,5.8-0.1,8.5-2.1c9-6.9,15.5-28.6,17.8-59.6c1.1-14.7,0.7-17.6-3.5-25.4c-2.6-4.9-6.6-11.1-8.6-13.4
			c-2.4-2.7-4.9-8.2-5.7-12.4c-0.4-1.8-1.5-7.3,2-8.8c6.3-2.6,19.5,14.3,26.9,24.6c4.7,6.6,11.5,16,15,20.9
			c3.5,4.9,9.1,13.9,12.4,20c3.4,6.2,5.4,9.5,6.6,11.1c0-1.9,0.3-4.5,2.3-5.8c1-0.6,2.2-0.8,3.5-0.6c-2.6-2.1-5.6-4.4-8.1-6.4
			c-7.5-5.8-15.2-18.7-15.2-25.5c0-0.8,0.3-1.5,0.9-2c2-1.7,6.5-1.2,7.9-1c0.1,0,0.2,0,0.2,0c-2.6-3.4-10.5-11.1-17.7-18.1
			c-12.6-12.3-27.7-27.5-33.6-33.7c-3.2-3.4-6-6.1-8.2-8c0.6,1.8,0.6,3.8,0,5.5c-0.4,1.1,0.5,4.5,3,7.6c4.1,5.2,5,7.9,3.3,9.3
			c-0.8,0.7-2.9,2.4-11.4-6.9c-7.5-8.2-26.4-18.4-34.2-18.4c0,0,0,0,0,0c-2.1,0-3.8,1.2-4.4,3.1c-0.4,1.3-2,5.6-4.6,5.6c0,0,0,0,0,0
			c-2.2,0-6.5-5.6-9.6-10.9c0,0.4,0,0.8,0,1.2c0,2.2,0,4-1.5,4.7c-1.7,0.8-3-0.4-6.4-3.6c-2.5-2.3-8.1-4.8-12.3-5.5
			c-4.6-0.8-7.9-1.9-9-4.7c-1.2-3.1,0.9-7,5.1-12.6c3.2-4.3,5.1-9,5.1-10.4c0-2.8,1.8-8,3.6-11.5c1.8-3.4,2.2-6.5,2-7.2
			c-1.3-2.1-0.9-4.8,1-6.1c0.7-0.5,2.4-2.7,3.8-5.2c2.8-5,6.4-5.4,33.2-5.8c25.4-0.4,29-2,29.5-2.3c0.7-1.1,2.5-1.9,5.7-2.1
			c6.7-0.4,19.6,2,22.7,6c1.5,1.9,4.3,2.3,18.2,0.9l9.7-1l-11.3-4.5l1.6-12.4c0.5-4,1.8-11.9,2.8-13.5c1.4-2.3,10.5-2.6,15.8-2.6
			c9.3,0,14.6,0.7,16.1,4.4c0.4,1.1,3.3,3.8,7,5.6c5.4,2.7,5.4,2.7,10.5-2.8c2-2.2,4.1-4.4,4.2-5.1c-0.2-0.2-1.4-1-2.3-1.6
			c-3.5-2.3-4.9-5.6-3.4-8c1.9-3,6.5-3.9,9.7-3.1c2.4,0.7,3.8,2.3,3.8,4.4c0,0.8,1.9,4.3,5.3,7.9c5.8,6.3,6.4,7.6,2.4,14.3
			c-2.9,4.9-4.9,15.5-5.4,27.7c-0.1,2.9-3.4,6.3-6.5,7.9c-2.9,1.5-3,2.5-3,2.5c1.5,1.8,3.1,6.8,3.9,10.6c0.9,4.3,5.6,11,12.4,17.8
			c17.4,17.4,56.8,52.5,62,55.6c0.2-0.1,0.4-0.5,0.5-0.6c1.6-2.8,1.4-10.2-1.2-14.4c-2.7-4.6-3.4-8.2-2-10.6
			c0.7-1.2,2.2-2.6,5.4-2.8c-0.4-0.5-1-1.2-1.8-2.1c-4.4-4.7-6.1-8.9-4.8-12c0.7-1.6,2.5-3.6,7.3-3.6h1.6l-5.1-5.2
			c-9.2-9.4-9.1-12.7-8.1-14.5c0.7-1.2,2-1.6,3.3-1.7c-3.2-2.5-7.9-6.8-11.4-10.3c-4.1-4.1-9.7-7.2-12.1-7.5
			c-7.6-0.8-13.3-7.3-13.3-15c0-2.2-1-4.9-1.9-5.8c-2-2-2.5-4.5-1.4-6.5c1.4-2.7,5.1-3.9,9-3.1c2.5,0.5,3.1,0,3.1,0c0-1,0-3.5,2-4.5
			c1.9-1,4.5-0.1,9.2,3.2c0.4,0.3,1.3,0.9,2,1.4c0-1.9,1-3.6,2.8-4.7c5.4-3.6,18.2-2.4,30.5,2.8c1,0.5,2.9-1.9,5.2-6.6
			c2.4-5.1,8.6-12.4,13.7-16.2c8-6,11.3-6.9,21.6-6.3c4.6,0.3,6.8,0.1,7.8,0c-1.1-1-3.8-2.9-10.6-6.5c-6.6-3.4-14.9-7.9-18.5-9.8
			c-3.7-2-6.8-3-7.3-2.8c-1.6,0.5-4.5-0.2-6.6-1.1c-0.8-0.4-2.8-1.2-2.5-3c0.2-2,2.5-2.6,6-3.3c3.5-0.7,5.7-2.2,6-4
			c0.3-2.1-1.9-4.6-5.8-6.5c-4.3-2.2-6.2-3.3-5.8-5.2c0.4-1.8,2.6-1.9,3.7-1.9c0,0,0.1,0,0.1,0c2.8,0,7.4,1.4,10.7,3.3
			c2.7,1.6,9.7,2.9,15.2,3c6,0,15.7,2,21.5,4.4c13.7,5.6,31.4,9.2,33.8,8c0.7-0.4,1.4-0.8,2.2-0.7c-4.1-3.9-5.7-6.9-4.8-9.2
			c0.4-1,1.4-2.3,4-2.5c-0.3-0.4-0.7-0.8-1.2-1.4c-3.8-4-31.4-12.3-44.6-12.6c0.8,0.8,0.8,1.8,0.5,2.5c-0.6,1.3-2.1,1.8-4.8,1.7
			c-1.3-0.1-3.7-0.2-4.1-2.1c-0.2-1.2,0.5-2.1,2-2.7c-4.9-0.8-11-2.3-16.1-4.1c-20.2-7-88.5-23.5-107.5-25.9
			c-20.2-2.6-47.7-4.4-57.5-4.3c1.3,0.8,3.1,1.8,5.3,3c3.8,2,8.5,4.7,8.8,6.9l0.1,0.9l-0.7,0.9c-2.9,2.9-23.7-2.8-27.5-4.4
			c-1.6-0.7-3.3-1.5-3.3-3.2c0,0.2-0.6-0.1-1.6-0.1c-1.8,0-3.1-0.7-3.8-1.8c-0.4-0.8-0.5-1.7-0.1-2.6c-1.5-0.2-2.9,0.8-3.2,1.3
			c-3.4,5.5-65.6,3.1-71.7-0.5c-16.6-9.7-20.3-10.5-56.3-12.1c-40-1.8-56.2-4.4-61.9-10.1c-1.4-1.3-5.9-3-10.2-3.2
			c-14.8-0.7-23.2-1.4-49.8-4.3c-7.6-0.8-23.6-2.5-25.3-1.2c-0.5,1.7-2.6,2.9-4.8,3.4c0.4,0.2,0.9,0.4,1.4,0.7l13.8,6.8l-29.9,1.8
			c-12.8,0.8-27.4,0.7-32.5-0.2c-2.1-0.4-5-0.9-6.2-0.8c0,0.6,0.2,1.8,0.3,2.2c0.5,2.7,0.2,5-0.8,6.3c-0.6,0.7-1.3,1-2.1,1
			c-6.3,0-19.1-6.1-33.5-15.9c-14.7-10-27.1-14.8-37.4-14.5c-3.2,0.1-10.9-0.6-17.3-1.6c-5.8-0.8-8.2-0.7-9.2-0.6
			c0.3,0.4,0.7,0.8,1.3,1c1.4,0.5,2.4,1.5,2.7,2.7c0.3,1,0,2.1-0.8,2.9c-3.1,3.3-41.3-0.4-44.5-2.8c-0.4-0.3-0.6-0.6-0.7-0.9
			c-2-0.5-8.6-1.1-20.6-1.1c-22.6,0-24.7-0.4-32.3-6.3c-0.3-0.3-0.6-0.5-0.9-0.7c0.5,0.9,0.5,1.9,0,2.8c-0.7,1.3-2.4,2-4.7,2
			c-2.7,0-6.1-1.1-7.3-3.1c-0.5-0.8-0.6-1.6-0.3-2.4c-3.2,1.7-7.3,3.2-9.5,3.3c0.2,0.6,0.2,1.3,0,2c-0.6,1.7-2.7,3.4-5.6,4.5
			c-6.8,2.6-14.8,3.4-16.4-0.1c-1-2.1,0.6-4.3,4.7-6.5c7.9-4.2,24.1-12.7,26.7-15.4c-1.5-2.4-11.5-9.1-18.1-10.5
			c-2.1-0.5-13.6-1.1-27.3-1.4c-19.3-0.4-24.6-1.1-25.4-5.2c-0.1-0.6-1.9-1.9-4.9-2c-3.3-0.1-12-1.1-19.3-2.2
			c-15.4-2.3-19.1,0.3-19.8,1.2c-0.3,0.4-0.7,1-0.3,2.3c0.4,1.3,0.7,2.9-0.2,4.4c-1.2,2-4,2.8-9.4,3.7c-5.3,0.9-15.8,1.5-23.4,1.3
			c-7.4-0.2-19,1.1-25.9,2.9c-6.9,1.8-19.1,4.8-27,6.7c-7.4,1.7-12.7,3.7-13.8,4.5c-0.4,0.9-1.3,1.5-2.3,1.8
			c6.5,3.1,8.8,5.1,8.2,7.4c-0.5,2.2-3.3,3-9.6,2.9c-4.7-0.1-14.5,0.6-22.2,1.5l-9.9,1.2l2.8,2.2c3.3,2.6,9.7,5.7,14,6.9
			c1.3,0.3,12.3,3.4,11.7,7.7c-0.1,1.1-1,2.4-4.2,2.4c-2.1,0-12.3-2.3-20.7-4.5c-14.6-3.7-20-4.3-21.9-4.2c0.2,0.7,0.2,1.4,0,2
			c-0.6,1.6-2.3,3.1-4.7,4c-0.1,0-0.2,0.1-0.4,0.1c1,0.4,2.1,0.8,3,1.2c4.7,1.8,6.3,3.1,6.2,4.8c0,0.7-0.4,1.8-2.3,2.3
			c-6.7,1.7-14.1-2.4-19.8-10.8c-0.5-0.7-0.9-1.3-1.4-1.9c-0.8,1.3-2.4,2.7-5.1,4.9l-4.2,3.4l5.5,3c5.3,2.9,8.9,5.9,8.9,11.2
			c0,7.3,5.3,11.6,14.5,11.7c6.2,0.1,8.1,0.1,8.5,2.1c0.3,1.9-1.5,2.6-4.1,3.6c-0.8,0.3-2,0.8-2.7,1.2c0.4,0.6,1.3,1.6,1.9,2.2
			c3.2,3.5,3.9,7.1,2.7,12.6c-0.5,2.5-2.1,8.2-5.1,8.2c-0.4,0.1-2.3,1.2-4.1,3c-2.7,2.7-6.5,3.7-10.7,2.6l-7.9-2l6.8-10.8
			c6.4-10.1,6.4-10.1-0.7-15.2c-3.9-2.8-9.5-10-12.6-16.1c-3.1-6-7.2-11.3-8.9-12.2c-3.1-1.7-5.4-5.9-5.9-10.8
			c-0.5-5.3-0.6-5.7-8.6-7.3c-3.2-0.6-8.6-2-9.6-4.3l-0.4-0.9l0.2-0.6c-0.4-0.3-1.2-0.8-2.4-1.1c-1.8-0.5-3.4-0.2-4.7,0.8
			c-2.2,1.7-3.4,5.2-3.4,9.6c0,4.8-2.2,8.5-6.6,11.4c-1.4,0.9-2.9,1.9-3.5,2.4c0.5,0.5,1.5,1.3,2.3,2c2.8,2.2,5.3,6,5.8,8.6
			c0.3,1.6,1.8,3.7,3.1,4.3c16.9,8,20.8,10.3,20.8,14.2c0,1.5-0.5,2.5-1.5,3.2c-2.2,1.5-6,0.6-18.4-4.5c-1.9-0.8-3.4-1.3-4.7-1.7
			c0.6,0.9,1.4,2.1,2.6,3.6l5.9,7.5l-9.8,8.5c-4.8,4.2-15,10.5-22.8,14.2c-6.3,3-10.9,5.4-12.6,6.5c0.9,2.4,4.2,11,8.5,21.7
			c6.4,15.9,9.8,28.8,11.8,44.4c2,15.5,4,22.7,7.2,26.9c5,6.3,6.4,14.4,3.6,20.2c-1.8,3.6-5.1,5.7-9.1,5.7c-1.4,0-4.3,1-6.3,2.4
			c-0.4,0.3-1.5,1.1-1.5,1.5c-0.2,1.1,2.7,5,4.8,7.8c4,5.4,7.2,9.1,9.9,9.5c1.7,0.2,3.8-0.8,7-3.6c6.2-5.2,12.2-6.8,16.6-4.3
			c4.6,2.6,6.5,9.1,5.1,17.7c-1.1,7-0.6,7.6,3.6,10.3c3.2,2.1,6.5,5.6,6.5,8.3c0.2,0.8,2.6,3.5,6.8,6c1.4,0.8,8.6,5.2,8.6,8.3
			c0,2.7-3,4.8-4.8,5.8c-2.9,1.6-6.7,2.8-9.1,1.3c-0.4-0.2-1.9-0.1-3.2,1c-3.2,2.7-7.5,2-15.3-0.5c-5.8-1.8-20-5-31.8-7.1
			c-17-3-22.2-3.3-27.8-1.3c-4.2,1.5-10.6,2.8-14.3,2.8c-3.4,0-8.4,0.6-11.1,1.3c-3.3,0.9-3.5,0.9-2.5,6.1
			c0.7,3.5,4.2,10.5,7.6,15.3c3.4,4.7,6.9,11.8,6.9,15.5c0,3.3,3.4,8.4,7.8,11.8c2.9,2.2,5.7,3.3,7.4,2.9c2.8-0.7,5.8-0.2,8.2,1.6
			c3.1,2.3,5.2,6.3,5.4,10.7c0.2,2.9,0.4,6.5,0.5,8c0.1,1-0.2,1.8-0.9,2.5c-1.4,1.5-4.4,1.9-10.1,1.5c-8-0.6-8.2-0.1-9.7,3.8
			c-0.9,2.5-2.6,5.1-4.5,6.3c0.6,0.9,1.8,2.5,3.8,4.5c0.8,0.8,7.4,7.6,7.4,10.6c0.3,0.3,3,2.4,7.7,4.4c6.7,2.8,9.9,5.1,9.9,10.8
			c0,2.1,0.8,5.5,2,8.4c0.1-0.8,0.3-1.7,0.6-2.5c0.8-2.1,2.3-3.5,4.4-3.8c3.6-0.6,8.4,2.4,12.8,7.8l0,0c3.6,4.6,5.1,6.6,4.7,8.7
			c-0.3,1.7-1.7,2.7-3.1,3.6c-3.7,2.3-9.1,1.5-13.5-2.2c-0.7-0.6-1.3-1.2-1.9-1.9c0.5,1.8,0.7,3.4,0.7,4.6c0,2.2,1.3,5.3,2.8,6.8
			c1.9,1.9,3.8,5.2,3.8,7.8c0,0.7,1.1,2.1,2.8,2.5c4.4,1.1,6.3,6.4,8.1,15c1.9,9.3,2.5,14.3,0.4,17.5c-1.6,2.4-4.5,3.4-8.4,4.2
			c-13.5,2.7-21.9,1.5-29.9-4.4c-4.3-3.2-8.9-5.1-10.4-5.1c-3,0-6.2-2.5-8.6-6.9c-2.6-4.7-4.3-11.6-1.7-15.7
			c1.3-2.1,2.4-6.5,2.4-9.8c0-3.1,0.4-5.6,2.1-7.2c-11.4-2.4-37.9-16.2-50.8-26.9c-8.5-7-11.4-8.2-19.2-8.2
			c-5.8,0-13.1-1.5-16.6-3.4c-9.5-5.2-26.6-12-29.4-12c-0.4,0-0.7,0-0.9,0c0.7,1,3.1,3.6,11,8.6c11.3,7.2,16.7,14.3,15.8,20.4
			c-0.5,3.2-3.1,7.7-12.5,10.3c-15.7,4.4-42.3,1.2-50.7-6.1c-1.2-1-2.2-1.4-2.6-1.5c-2.3,1.6-6.9-1.1-8.3-2
			c-6.2-3.9-27.3-1-35.2,4.9c-4.8,3.5-10.1,4.9-19.1,4.9c-2.7,0-8.9,0-9.7,1c-0.1,0.1-0.1,0.4-0.1,0.9c0.1,1.4-0.3,2.7-1.3,3.9
			c-2.8,3.1-9.8,4.7-22.3,5.1c-5.2,0.2-8.6,0.8-9.2,1.1c0,0-0.2,1.3,0.5,3.3c0.8,2.1,1.9,3.2,2.2,3.2c2.2,0,4.1,2,5.2,5.6
			c1.1,3.5,1.5,9.4-1.6,11.5c-0.2,0.1-0.3,0.2-0.4,0.3c0.1,0.1,0.5,0.5,1.4,1.2c2.4,1.9,5.5,6.8,7.1,10.5c1.5,3.4,3,5.6,3.7,6.1
			c0.9,0.1,1.6,0.6,2,1.3c0.5,1,0.4,2.2-0.3,3.4c0,0,0.7,0.4,1.6,0.6c1,0.1,1.9-0.1,2.4-0.5c2.6-2.6,8.9,0.2,12.5,2.1
			c6.1,3.3,11,3.4,13,2.3c0.8-0.4,1.1-1.1,1.1-2c0-1.8,1-3.3,2.7-4.1c3.8-1.8,11.1-0.1,16.3,4c6.1,4.8,16.8,5.2,21.6,0.9
			c2.8-2.5,9.6-4.3,14.5-4.5l11.3-0.5l-0.4,18.5c-0.2,11-2.4,23.4-6.2,35.6c-6.4,20.8-8.8,25.6-17.4,25.6c-8.6,0-10.2,2-10.2,7.8
			c0,6.9,5.7,19.1,14.2,30.5c4.3,5.8,4.8,5.5,7,4.1c2.7-1.7,6.5-2.3,8.9-1.4c5.2,2,28.1,37.5,29.9,44.8c0.6,2.6,3.2,5.9,5.5,7.2
			c6.3,3.3,13.6,18.9,13.6,28.7c0,3,0.9,5.3,1.4,5.7c2,1.2,3,4.3,3,6.7c0.2,1.2,4.2,7.1,11.5,14.4c0.5,0.5,12.6,12.5,12.6,16.7
			c0,1,2.4,5.7,6.8,11c4.6,5.5,15.2,18.7,15.2,24.4c0,1.1-0.6,2-1.5,2.4c-0.6,0.2-2.3,0.9-6.1-3.2c-2.3-2.5-5-3.3-5.7-3
			c-0.4,0.1-1.1,0.4-1.6,0.7c0.8,1.3,4.1,4.6,7.3,7.8c6.9,6.8,9.6,12,12.8,24.4c2.3,9,4.6,16.7,5.4,18.2c0.6,1.1,2.1,2.1,4.3,2.6
			c4.8,1.2,11.3,0,14.9-2.7c3.3-2.4,10.1-5.5,15.1-6.9c15.6-4.3,28.3-9.7,31.1-12.2c2.2-2,11.3-6.3,18.9-9.3
			c12.3-4.9,14.8-7.2,16.1-11c2.6-7.4,19.6-16.5,30.9-16.5c3.3,0,4.9-1.1,6.1-4.3c1.3-3.5,5-7,8.4-7.8c2.3-0.6,5.1-2.9,6-5.1
			c1.3-3,5.3-6.8,9-8.6c4.2-2,5-3,5-10c0-5.1,0.2-7.7,1.8-9.1c1.4-1.2,3.3-1.1,5.2-0.8c1.7,0.2,2.2,0.1,2.4,0c0,0,0-0.3-0.1-1.1
			c-0.5-3,2.3-9.1,5.2-13.4c4.8-7.1,5.6-11.7,5-12.9c-0.1-0.1-0.2-0.3-0.7-0.3c-3,0-6.6-4.7-8.1-7.2c-2.3-3.9-6.2-6.4-12.4-8.2
			c-14.2-4-20.5-11.4-21.9-25.6l-0.7-7l-11,11.5c-12.8,13.3-14.9,15-23.2,14c-3.6-0.4-6.1,0-6.8,0.3c-1.1,2.2-5,2.4-8.5,1.5
			c-6.8-1.7-7.3-4.6-7.8-15.6c-0.4-7-1.7-10.6-2.5-11.7c-0.3,0.4-0.8,1.4-1.3,3.5c-0.7,2.7-1.9,6.4-4.8,6.8
			c-2.9,0.4-4.9-2.9-6.2-5.3c-2-3.7-2.1-7.1-0.3-8.5c-1.2-1.2-2-2.7-2-4.2c-0.2-0.8-3.6-5.2-9.4-10.5c-5.7-5.2-11.9-13.2-13.9-18
			c-2.1-5-4.5-8.5-5.2-9c-0.9-0.5-2.4-1.7-2.5-3.3c0-0.8,0.3-1.5,0.9-2c8.5-6.6,15-10.6,21-9.5c5.9,1,10.3,6.6,15.6,15.2
			c5.6,9.1,11.2,14.8,19.9,20.4c5.2,3.3,13.3,8.9,14.6,11c0.6,0.5,5.7,1.6,14.3,1.6c11.3,0,14.1-1,15.7-3.1c1.8-2.4,3.7-3.4,5.6-3.2
			c3,0.4,5.6,3.7,8.7,11.1c2.5,6,4.3,7.6,10.5,9.1c16.9,4.1,43.6,7.1,55.1,6.1c12.4-1.1,40.7-2,45.9-1.6c2.5,0.2,4.4,2.6,4.4,5.3
			c0,0.9,0.4,1.4,0.5,1.5c0,0,0,0,0,0c2.6,0,5.2,4.1,6.3,6.5c1.2,2.7,5.2,6.8,8.6,9c3.8,2.4,9.2,6.1,11.9,8.1
			c2.5,1.8,7.3,3.4,10.6,3.2c3.6-0.1,5.9,0,6.8,1.7c0.8,1.7-0.5,3.3-1.3,4.2c-1.8,2.1-5.8,3.8-9.2,3.8c-1.6,0-2.7,0.3-3.2,0.5
			c2.2,3.7,20.2,19.4,23.3,20c4.9,0,12.4-8.2,12.4-13.7c0-4.1,1.3-8.2,4.2-8.2c1.1,0,2.1,0.5,2.8,1.4c0.7,1,0.9,2.4,0.4,3.8
			c-0.2,0.8,0.2,5,2,10.1c1.7,4.9,3.1,12.4,3.1,16.8c0,12.1,10.6,47.6,21,70.3c1.6,3.6,9.8,21.6,9.8,23.6c0.2,0.9,3.7,8.5,9.5,19.9
			c5.4,10.6,10.9,23.3,12.3,28.5c2.4,8.9,8.6,17.4,12.7,19.5c0.7,0.4,1.4,0.5,1.7,0.4c1.1-0.4,3.8-3.2,5.6-6.7
			c2.6-5,5.8-7.3,10.6-7.5c-0.4-0.6-0.7-1.2-0.8-2c-0.6-3.1,1.2-7,5-10.9c3.8-3.8,4.2-5.4,4.4-39.4c0.2-33.4,0.4-37.7,5.8-37.7
			c1.6,0,3.4-1,4-2c1.3-2,5.2-5.2,8.3-7.2c3.2-2,5-4,5.3-4.5c0-2,8.4-11.1,13.5-16.4c6.9-7.2,14.1-16.1,15.6-19.5
			c3.2-7.3,6.9-6.8,8.3-6.3c0.8,0.3,2.3-0.1,3.8-1.2c3.4-2.4,7.1-7.6,7.1-11.5c0-10.9,7.3-13,23.6-13.7c14.8-0.6,24.8-4.5,24.8-9.7
			c0-3.2,2-3.6,2.6-3.7c3.9-0.3,9.5,7.6,10.9,13.6c1.7,7.7,15.2,24.5,19.7,25.6c5,1.3,5.6,5.7,5.6,9.8c0,1.8,0.2,3,0.4,3.6
			c1-0.3,2.2-0.2,3.3,0.4c5,2.8,9.5,16.2,9.5,28.3c0,12.1,0,12.1,5.6,13.3c5.3,1.2,6.3,1,13.7-7c9-9.6,10.3-9.6,10.9-9.6
			c4.5,0,14.7,31.1,15.8,35.4c1.6,6.2,4.1,12.2,5.2,13.6c2.9,3.6,6.3,11.6,4.8,14.6c-0.3,0.7-0.9,1.2-1.5,1.4
			c-0.3,0.8-0.8,2.9-0.9,6c-0.1,5,0.9,5.8,1,5.8c0,0,0,0,0,0c2.6,0,4.7,2.7,4.7,6.2c0,3.1-0.9,5.3-2.4,6c-0.5,2-0.9,9.6,0,33
			c0.1,1.5,0.7,3.2,1.8,3.2c5,0,8.2,3.3,15.3,13.4C982.3,1311.4,982.5,1313.5,982.3,1314.4z M980.5,1316l-0.2,0
			C980.4,1316,980.4,1316,980.5,1316z M980.2,1312.4c-0.1,0-0.2,0-0.3,0L980.2,1312.4z M975.8,1277.4
			C975.8,1277.4,975.8,1277.4,975.8,1277.4C975.8,1277.4,975.8,1277.4,975.8,1277.4z M1053.8,1266.7
			C1053.8,1266.7,1053.8,1266.7,1053.8,1266.7c0,1,0.4,1.6,0.5,1.7c0.1,0,0.2-0.2,0.2-0.3
			C1054.6,1267.8,1054.3,1267.2,1053.8,1266.7z M960.4,1256.6C960.4,1256.6,960.3,1256.6,960.4,1256.6
			C960.3,1256.6,960.4,1256.6,960.4,1256.6z M960.3,1253c-0.1,0-0.2,0-0.3,0L960.3,1253z M1021.3,1252.7L1021.3,1252.7
			L1021.3,1252.7z M958.3,1232.5C958.3,1232.5,958.3,1232.5,958.3,1232.5C958.3,1232.5,958.3,1232.5,958.3,1232.5z M394,1071.6
			L394,1071.6L394,1071.6z M1184.2,1054.4l-0.4,0.1C1184,1054.5,1184.1,1054.5,1184.2,1054.4z M1184.4,1054.4L1184.4,1054.4
			L1184.4,1054.4z M364.9,1046.7c0.1,0.7,0.4,1.6,1,2.7c1.6,3,2.5,3.4,2.6,3.4c0,0,0.8-0.6,1.7-4c0-0.1,0-0.2,0.1-0.3
			c-0.2,0.5-0.6,1-1.4,1.2c-1.8,0.5-2.9-1.4-3.7-2.6C365.1,1047,365,1046.8,364.9,1046.7z M1183.8,1050.9
			C1183.8,1050.9,1183.8,1050.9,1183.8,1050.9C1183.8,1050.9,1183.8,1050.9,1183.8,1050.9z M1183.8,1050.9L1183.8,1050.9
			L1183.8,1050.9z M88.3,892.7C88.3,892.7,88.3,892.7,88.3,892.7C88.3,892.7,88.3,892.7,88.3,892.7z M1144.4,868.3L1144.4,868.3
			L1144.4,868.3z M1113.9,861.9C1113.9,861.9,1113.9,861.9,1113.9,861.9C1113.9,861.9,1113.9,861.9,1113.9,861.9z M1113.9,861.9
			C1113.9,861.9,1113.9,861.9,1113.9,861.9S1113.9,861.9,1113.9,861.9z M1113.9,861.9C1113.9,861.9,1113.9,861.9,1113.9,861.9
			C1113.9,861.9,1113.9,861.9,1113.9,861.9z M369.7,828.3c-0.1,0-0.3,0-0.4,0c-0.4,0.1-1.1,0.3-1.5,1.5c-1.3,3.5,1.2,7.7,4.2,10.1
			c2.5,2,6.4,3.7,9.3,1.9c1.2-0.7,1.4-1,1.5-1.1c0-0.8-2.6-4.1-4-5.8l0,0C375,830.2,371.6,828.3,369.7,828.3z M173.7,828.6
			C173.7,828.6,173.6,828.6,173.7,828.6C173.6,828.6,173.7,828.6,173.7,828.6z M1188.6,653.3
			C1188.6,653.3,1188.6,653.3,1188.6,653.3C1188.6,653.3,1188.6,653.3,1188.6,653.3C1188.6,653.3,1188.6,653.3,1188.6,653.3z
			 M1534.9,531.3c0,0.2,0,0.4,0,0.6c0,0,0.4,0.2,0.9,0.3C1535.6,532,1535.3,531.7,1534.9,531.3z M453.3,448.1
			c2.1,1.5,4.3,2.4,6.4,2.6c-0.4-0.2-0.8-0.3-1.3-0.5C456,449.3,454.4,448.7,453.3,448.1z M505.5,444.4L505.5,444.4L505.5,444.4z
			 M401.2,430.1c-0.1,0.1-0.1,0.2-0.1,0.3L401.2,430.1z M739.6,423.1C739.6,423.1,739.6,423.1,739.6,423.1l1.5-0.9L739.6,423.1z
			 M734.8,421.8c0.9,0.5,2.8,0.9,4,0.7C737.8,422.1,736,421.7,734.8,421.8z M735.4,418.2c1.1,0,2.4,0.2,3.6,0.6
			C737.6,417.9,736.6,417.8,735.4,418.2C735.4,418.2,735.4,418.2,735.4,418.2z M653.1,1363.9c-0.3,0-0.6-0.1-0.9-0.2
			c-1.3-0.6-1.8-2.1-1.7-4.8v0c0.1-1.3,0.2-3.7,2.1-4.1c1.2-0.2,2.1,0.5,2.8,2.1c0.8,2,0.8,4.7-0.6,6.2
			C654.3,1363.7,653.7,1363.9,653.1,1363.9z M1289.8,1330.4c-0.1,0-0.2,0-0.4,0c-0.3,0-1.6-0.3-1.7-2.1c-0.3-0.8-2.9-3.3-7-5.7
			c-6.5-3.8-8.6-6.8-8.6-12.3c0-3.1-1.2-7.3-2.7-9.3c-0.5-0.7-1.5-2.1-1.9-2.3c-0.2,0.2-1.5,1.5-2.2,2.2c-2.5,2.4-5.5,4.5-9.2,1.5
			c-0.7-0.6-1-0.6-1-0.6c0,0-0.5,0.2-1.7,2.4c-1.3,2.5-3.2,5.3-5.5,4.4c-1.4-0.5-2.9-2.1-1.1-10c1.2-5.4,3.6-8.2,7.2-8.2
			c1.6,0,3.2-1.1,3.6-2.1c1.2-3,4.6-4.4,7.6-4.4c0,0,0.1,0,0.2,0c3.1,0,5.6,1.5,6.4,3.8c0.4-0.2,1.2-0.7,2.6-2
			c2.3-2,3.2-4.4,2.8-5.5c-0.4-1-1.2-3.1,0.3-4.3c1.4-1.2,3.2,0,3.7,0.3c1,0.6,3,0.8,4.2,0.3c1-0.4,1.5-0.6-0.1-4.6
			c-0.9-2.3-2.2-7.2-0.8-9.3c0.9-1.5,3.1-2.4,6.4-0.8c3,1.5,6.9,5.3,5.6,8.7c-0.3,0.7,0.1,4,1.8,7.3c4.7,9.2,6.6,20.5,4.9,29.4
			c-0.9,4.7-1.4,7-3.3,7.4c-1.8,0.4-3.1-1.3-4.2-2.8c-1.4-1.9-2.5-2.1-2.8-2c-0.3,0.2-0.8,1.6,0.4,4.3c1.7,3.7,1.7,7.7,0.1,11.8
			C1292.1,1329.1,1291.1,1330.4,1289.8,1330.4z M1291.2,1328l-1.8,0.1L1291.2,1328C1291.2,1328,1291.2,1328,1291.2,1328z
			 M1267.7,1295c0.1,0,0.2,0,0.2,0c1.8,0.1,3,1.7,4.4,3.7c1.9,2.6,3.4,7.6,3.4,11.5c0,3.7,0.9,5.8,6.8,9.2c0.6,0.4,5,3,7.3,5.7
			c0.1-0.2,0.2-0.4,0.3-0.7c1.3-3.2,1.3-6.1,0-8.9c-2.1-4.5-0.9-7.7,1.1-8.9c1.7-1,4.7-0.8,7.5,3c0.1,0.1,0.2,0.3,0.3,0.4
			c0.3-1.2,0.6-2.8,0.7-3.5c1.5-8.2-0.2-18.6-4.5-27.1c-1.7-3.3-2.9-7.9-2-10.3c0.1-0.2-0.1-1.1-1.3-2.3c-1.7-1.7-3.8-2.5-4.3-2.3
			c-0.1,0.4,0.1,3.1,1.2,6.1c1.4,3.8,2.5,7.6-2,9.3c-1.7,0.7-4,0.7-5.9,0.1c0.4,2.6-1.1,5.9-4,8.4c-2.4,2.1-4.3,3.4-6.1,2.9
			c-0.7-0.2-1.7-0.8-2.3-2.4c-0.4-1.1-1.9-1.4-3.1-1.5c0,0-0.1,0-0.1,0c-2,0-3.7,0.9-4.2,2.1c-1,2.5-4,4.5-6.9,4.5
			c-1.7,0-2.9,1.8-3.7,5.3c-0.4,1.8-0.6,3.1-0.7,4.1c0.2-0.3,0.4-0.6,0.6-1c1.1-2,2.3-3.9,4.2-4.2c1.7-0.3,3.1,0.6,4,1.4
			c1,0.8,1.6,1.4,4.3-1.3C1264.6,1296.4,1266,1295,1267.7,1295z M1278.7,1278.9L1278.7,1278.9L1278.7,1278.9z M744.8,1322.4
			c-0.9,0-1.8-0.1-2.6-0.2c-2.3-0.5-4.1-1.6-5.2-3.2l0,0c-3.2-5-3.4-47.2-0.3-51.3c0.6-0.8,1.5-1.1,2.4-0.8
			c6.9,2.2,20.8,26.9,21.9,36.6c1,8.7,0.5,11.4-4.8,15.1C752.8,1321,748.5,1322.4,744.8,1322.4z M739.3,1271
			c-1.8,7.7-1.3,42.6,0.8,46l0,0c0.6,1,1.9,1.4,2.8,1.6c3.2,0.6,7.8-0.5,11.2-3c3.7-2.6,4.2-3.6,3.3-11.7
			C756.5,1295.2,744.7,1275.2,739.3,1271z M1191.2,1288.1c-0.3,0-0.6-0.1-0.9-0.2c-0.5-0.2-1.6-0.8-1.6-2.5v0
			c-0.1-4.2,9.8-14.8,13.9-16.6c1.8-0.8,2.9-0.1,3.3,0.3c0.8,0.8,2.3,2.3-6.4,12.2C1195,1286.6,1192.8,1288.1,1191.2,1288.1z
			 M1192.3,1285.4l-1.8,0L1192.3,1285.4C1192.3,1285.4,1192.3,1285.4,1192.3,1285.4z M1199.8,1275.5c-2,1.9-4.1,4.3-5.6,6.3
			c0.7-0.7,1.6-1.6,2.6-2.8C1198,1277.8,1199,1276.6,1199.8,1275.5z M1259.9,1282l-6.7-6.3c-5.1-4.8-5.8-6.4-1.3-11.4
			c2.1-2.3,2.1-3.1,2.1-3.2c0,0-0.1-0.7-5.1-0.7c-6.4,0-7.3-3-7.9-10.8l-1-11.8l9.7,3c6.9,2.2,8.4,5.6,8.4,8.1
			c0,1.1,0.2,1.4,0.2,1.4c0.1,0,0.8,0.1,3.7-0.5c3.2-0.8,5.4-1.3,6.2,0.5c0.5,1.1-0.1,2-0.9,2.7c2.3,0.6,4.1,2.5,4.1,4.7
			c0,1,1.2,3.1,2.6,4.4c3.1,2.6,4.3,4.9,3.6,7c-0.5,1.3-1.8,2.8-5.9,2.8c-3.5,0-6.2-2.1-6.2-4.9c0-1.5-1.1-2.3-2.1-2.5
			c-0.1,0-0.3,0-0.5,0c0.4,0.1,0.7,0.2,0.9,0.3c2.5,1.4,1.8,6.2-0.2,10L1259.9,1282z M1244.1,1242.9l0.5,6.4c0.6,7.4,1,7.4,4.3,7.4
			c3.5,0,7.3,0.3,8.4,2.9c1.1,2.4-0.9,5-2.7,7c-2.6,2.9-2.6,2.9,1.1,6.3h0l3.3,3l1.5-2.9c0.7-1.3,1.1-2.6,1.3-3.5
			c-0.8,1.1-2.1,2.8-3.8,2c-1.6-0.8-1.6-2.8,0.1-7.3c0.9-2.4,3.3-3.8,6-3.3c2.5,0.5,5,2.7,5,6.1c0,0.4,1,1.3,2.6,1.3
			c2,0,2.5-0.5,2.5-0.5c0-0.1-0.5-1.2-2.5-2.9c-2.3-1.9-4-5-4-7.2c0-0.6-0.9-1.2-2.1-1.3c-1.9,0-3.8,0-4.3-1.7
			c-0.1-0.4-0.1-0.8,0-1.1c-2.4,0.5-4.1,0.4-5.3-0.5c-1.3-1-1.5-2.7-1.5-4.2c0-2.4-3.7-3.9-5.9-4.6L1244.1,1242.9z M1206.2,1268.5
			c-0.5,0-0.8-0.2-1.1-0.3l-1-0.6v-1.4c0.2-1.6,2.7-7.6,4-10.5c2.6-5.9,3.4-7.6,5.4-7.6c0,0,0,0,0,0c1.8,0,2.6,1.7,4,4.7
			c2.7,5.8,1.5,7.8-4.4,12.2C1209.2,1267.9,1207.3,1268.5,1206.2,1268.5z M1213.6,1252.7c-0.6,1.1-1.3,2.8-2.1,4.5
			c-1.1,2.4-2,4.6-2.6,6.3c0.6-0.4,1.4-0.9,2.2-1.5c5.1-3.8,5-4.1,3.3-7.7C1214.1,1253.8,1213.8,1253.2,1213.6,1252.7z
			 M1280.8,1265.4c-2.4,0-4.3-2.3-4.3-5.3c0-1.3-1.2-3.9-2.8-5.5c-1.9-1.9-3.8-5.2-3.8-7.6c0-1.4,0.6-2.6,1.6-3.3
			c1.1-0.8,2.6-0.8,4.2-0.2c0.1,0.1,0.3,0.1,0.4,0.1c-0.4-0.8-1.4-2.2-3.4-4c-2.8-2.5-4.3-4.5-4.7-6.1c0,3.9-0.3,6-2,6.9
			c-1.8,1.1-4-0.2-6.8-1.8l0,0c-3.6-2.1-5.6-6.2-4.3-8.9c0.6-1.3,2.2-2.4,4.6-1.8c-1.2-2.1-4.8-6.3-7.9-9.1l-1.6-1.5
			c0.6,2.4,0.8,4.3-0.7,5.2c-1.5,0.9-3-0.5-3.5-1.1c-0.8-0.8-2.5-1.1-3.5-0.8c-0.6,0.2-2.6,1-3.9-0.3c-1.4-1.4-0.5-3.5-0.2-4.4
			c0.2-0.5,0.2-0.8,0.3-1c0,0-0.5-0.1-1.7-0.1c-2.1,0-3.6,0.4-4,1.2c-0.2,0.4-0.6,1.9,1.9,5.8c2.5,3.8,3.2,7.8,1.8,10.4
			c-0.9,1.6-2.4,2.5-4.4,2.5c-2.3,0-6.2-5.2-9-9.5c-5-7.5-4-8.8-3.3-9.6c0.2-0.3,1.2-1.2,2.8-0.6c0.7,0.3,1.5,0.2,1.9-0.1
			c-0.7-0.2-1.3-0.5-1.8-1.1c-1.1-1.4-1.3-3.8-0.5-7.9c0.1-0.7,0.3-1.3,0.4-1.9c-0.9,0.7-2.1,1.2-3.4,0.9c-2.3-0.5-3.7-3.1-6.4-8.9
			c-1.6-3.6-6.7-15.5-3.4-18.5c0.3-0.3,1.1-0.8,2.3-0.6c0.3-1.4,0.8-4.9,0.8-13.4v-19.1l9,1.8c3.9,0.8,8,1.3,9.3,1.3
			c4.1,0,5.9,5.2,8.7,24.1c0.8,5.3,1,9.8-3.5,11.5c-1.9,0.7-2.5,3.2-2.5,5.2c0,3,1.4,6.5,3.9,7.5c2.7,1,4.6,1.8,4.7,3.6
			c0,1.8-1.8,2.5-3.5,3.2c-1.2,0.5-2,1-2.3,1.3c0.7,0.3,2.2,0.7,5.1,0.7c4,0,8.9,0.9,10.7,2.7c0.6,0.6,4.1,2,8.7,2.5
			c2,0.2,6.8,1,8.1,3.1c0.4,0.7,0.4,1.5,0.1,2.2c-0.8,1.7-3.2,2.5-5.7,2.5c3.1,2.8,4.5,6.9,4.5,13.1c0,0.4,0,0.8,0,1.2
			c0-0.1,0.1-0.2,0.1-0.4c0.9-2.4,4.1-2.7,6.7-2.7c7.2,0,9.3,3.1,13,13.7c1.4,4.1,1.9,6.3,1,8c-0.8,1.4-2.2,2-3.7,2.3
			c-1.2,0.3-2.2,0.6-1.4,4.7c0.4,2.2,0.6,5.1-0.8,6.8C1282.5,1265,1281.7,1265.4,1280.8,1265.4z M1273.6,1246.7c-0.1,0-0.1,0-0.1,0
			c0,1.4,1.2,3.8,2.8,5.4c2.2,2.2,3.8,5.6,3.8,8c0,0.6,0.2,1.1,0.4,1.4c0.1-0.6,0.2-1.6-0.2-3.3c-0.7-3.5-0.8-7.6,4-8.9
			c1.2-0.3,1.4-0.5,1.4-0.5c0.2-0.4-0.2-2.1-1.3-5.1c-3.8-10.8-5.2-11.2-9.6-11.2c-2.5,0-3.2,0.4-3.4,0.5c0.1,0,0.5,1.2,3.6,4
			c1.5,1.4,6.3,6.1,4.5,9.1c-0.5,0.8-1.9,2.1-5.2,0.8C1274,1246.8,1273.7,1246.7,1273.6,1246.7z M1261.1,1235.5
			c0.8,0.5,2.2,1.3,3,1.6c0.3-1.2,0.3-4.2,0.3-6.4c0-5.5-1.1-8.7-3.7-10.7c-3.4-2.7-4.5-3.5-3.8-5.1c0.7-1.6,2-1.4,5.4-0.9
			c0.6,0.1,1.1,0.1,1.6,0.1c-0.8-0.2-1.9-0.4-3.2-0.6c-4.1-0.4-9.1-1.8-10.9-3.5c-0.3-0.3-1.8-0.9-3.8-1.2l8.2,7.4
			c3.5,3.2,7.3,7.6,8.6,10.2c1,1.9,2.1,3.9,0.8,5.3c-1.2,1.3-3.1,0.6-4.4,0.1c-0.8-0.3-1.1-0.2-1.1-0.2
			C1258,1231.8,1258.6,1234,1261.1,1235.5L1261.1,1235.5z M1223.7,1218.7c0.5,1,1.3,2.4,2.6,4.5c3,4.5,5.5,7.2,6.3,7.9
			c0.5-0.1,0.8-0.3,0.9-0.6c0.6-1.1,0.3-3.6-1.7-6.7c-2.7-4-3.3-7.1-2.1-9.5c1.1-2,3.5-3.1,7.2-3.1c1.7,0,3.7,0.2,4.8,1.7
			c1,1.5,0.5,3.3,0.2,4.1c1.5-0.3,3.1-0.2,4.6,0.5l-2.3-9.1c-0.8-0.1-1.6-0.1-2.5-0.1c-5.4,0-8.4-1.3-8.9-3.7
			c-0.3-1.4,0.3-3.4,4.4-5.1c-0.2-0.1-0.4-0.2-0.7-0.3c-4.3-1.7-6.3-6.8-6.3-10.9c0-4.2,1.8-7.4,4.8-8.6c1.1-0.4,2.2-0.8,1.2-7.6
			c-2.5-16.8-4.1-20.6-5.1-21c-1.9,0-6.5-0.7-10-1.4l-4.7-0.9v14.7c0,15.7-1.6,16.5-2.6,17.1c-0.5,0.3-1.1,0.3-1.7,0.2
			c0,2,1.1,6.8,4.2,13.6c0.7,1.6,2.9,6.5,3.9,6.9c0,0,0.2-0.1,0.9-0.7c1.2-1,2.8-2.3,4.4-1.4c1.6,1,1.3,3.1,0.5,7.3
			c-0.8,4-0.3,4.8-0.3,4.9c1.1-0.2,2.1,0.4,2.7,1.4c0.6,1,0.5,2.3-0.3,3.5C1227.2,1217.8,1225.5,1218.6,1223.7,1218.7z
			 M1248.9,1219.3L1248.9,1219.3L1248.9,1219.3z M176.9,1016.3c-0.5,0-1-0.1-1.4-0.4c-1.2-0.6-1.8-2-1.8-3.8c0-2.9,1.8-5.2,4-5.2
			c2.2,0,4,1.7,4,3.9c0,1.8-1.3,3.9-3.1,5C178,1016.1,177.4,1016.3,176.9,1016.3z M177.7,1010.6c0,0-0.4,0.6-0.4,1.6c0,0,0,0,0,0
			c0.5-0.5,0.8-1.1,0.8-1.4C178,1010.7,177.9,1010.6,177.7,1010.6z M1293.9,976.4c-1,0-2.1-0.2-3.1-0.4l0,0
			c-2.9-0.7-6.6-5.7-8.7-10.4c-2-4.5-6-10.3-8.6-12.8l-6.4-6l6.6-8.1c0.6-0.7,1.3-1.6,2-2.4l-0.2-0.1l0.3,0c3-3.6,6.9-8.1,9.7-11.1
			c3.6-4,6.4-7.8,6.7-8.7c0.4-1.1,1.3-3.7,19.6-4.4c5.8-0.2,13.6-0.5,14.6-1.4l0,0c0,0,0-0.2-0.2-1c-0.9-3.3,0.2-7.6,2.7-10.8
			c1.9-2.5,4.2-3.8,6.5-3.9c1.1,0,4.5-1.4,7.4-3.7c3.6-2.7,4.7-5.2,5.7-17.7c1-12.7,0.5-14.4-2-16.3c-3.2-2.3-4.8-6.7-4.9-13.7
			c-0.2-8,0.3-11.1,6.3-11.9c4.5-0.7,6.5,1.2,6.9,2.9c0.2,1-0.1,2.3-1.2,3.4c2.6,1.2,5.3,3.4,7.5,5.4c5.3,4.8,13.6,14.6,13.6,20.4
			c0,2.3,0.9,6,2,8.1c1,1.9,2.1,3.9,0.8,5.3c-1.2,1.3-3.1,0.6-4.2,0.2c-0.6-0.2-0.9-0.2-0.9-0.2c0,0.3,0.3,2.7,3,6.3
			c2,2.7,3.6,7.3,3.6,10.5c0,2.6,1.4,7.4,3,10.5c3.1,5.9,3.4,11.8,0.8,15.1c-1.7,2.1-4.3,2.9-7.4,2.1c-2.1-0.5-2.8-0.4-2.9-0.3
			c0,0,0,0.2,0,0.6c0,4.1-2.3,4.8-3.1,5c-2.1,0.4-4.4-1.3-5.7-4.4c-0.1,0.2-0.2,0.4-0.3,0.7c-1.1,2.8-2.8,4.6-5,5.5
			c-2.9,1.1-6.4,0.4-10.9-2c-1-0.5-1.8-0.8-2.4-0.9c0.2,0.1,0.4,0.3,0.7,0.4c1.3,0.7,3,1.9,3.4,3.8c0.2,1.3-0.2,2.5-1.3,3.8
			c-1.2,1.4-3.6,4.5-5.2,6.8c-1.1,1.6-2.3,3.2-4.2,3.4c-2.5,0.2-4.5-1.9-10.6-8.4c-0.7-0.7-1.3-1.4-1.9-2c0.3,1.2,0.2,2.8,0,4.5
			c-0.3,2.4-0.8,4.8-2.4,6.1c-1.5,1.2-3.5,1.1-5.1,0.9c-2.3-0.3-3.5,0.4-4.2,2.6c-0.7,2.1-1.9,5-4.4,5.5c-2.6,0.5-4.9-1.9-6.4-3.7
			c-1.8-2.2-2.5-2.4-2.6-2.4c0,0.3-0.8,2.2-0.8,12.1c0,10.3-0.4,14.3-2.8,16.2C1296.2,976.2,1295,976.4,1293.9,976.4z M1291.6,972.4
			c1.1,0.3,2.7,0.6,3.2,0.1c1.3-1,1.4-7.2,1.4-13.4c0-6.7,0.3-10.7,1.2-13c-2.3,0.5-5-0.9-10.1-3.7l-8.3-4.6
			c-0.9,1.1-1.7,2.1-2.4,2.9l-4.5,5.5l3.9,3.7c3,2.8,7.2,9.1,9.4,14C1287.7,969.1,1290.7,972.2,1291.6,972.4L1291.6,972.4z
			 M1300.8,943.5c1.9,0,3.7,1.8,5.3,3.7c2.2,2.7,3,2.4,3,2.5c0,0,0.8-0.2,1.6-3.1c1.2-3.9,4-5.6,8.2-5.1c1.2,0.2,2,0.1,2.3-0.1
			c0.5-0.4,0.8-1.6,1.1-3.7c0.3-2.9,0-3.6-0.1-3.7c-0.1-0.1-0.4-0.3-1.8-0.3c-4.1,0-7.3-1.8-7.8-4.5c-0.1-0.8-0.3-3.3,3.4-4.8
			c3.2-1.2,7.6,1.5,14.4,8.7c3.2,3.3,6.7,7.1,7.7,7.2c0.3-0.1,1.1-1.4,1.5-1.8c1.7-2.4,4.1-5.6,5.4-7.1c0.5-0.5,0.5-0.8,0.5-0.8l0,0
			c0,0-0.2-0.4-1.6-1.2c-4.5-2.5-3.7-5-3.3-5.7c1.2-2.2,4.7-2.2,8.5-0.2c3.5,1.8,6.1,2.4,7.9,1.8c1.2-0.5,2.2-1.6,2.9-3.4
			c1-2.7,1.8-4.6,3.6-4.7c0,0,0,0,0,0c1.8,0,2.5,1.8,3.2,3.5c0.7,1.8,1.5,2.4,1.8,2.6c0-0.1,0.1-0.5,0.1-1.4c0-1.5,0.5-2.7,1.4-3.4
			c1.6-1.2,3.9-0.9,6-0.3c1.7,0.4,2.9,0.1,3.7-0.8c1.4-1.7,1.6-5.9-1.1-11.2c-1.9-3.7-3.4-9-3.4-12.2c0-2.5-1.3-6.3-2.9-8.4
			c-2.7-3.5-4.8-8.2-2.8-10.8c0.4-0.6,1.5-1.6,3.8-1.2c0,0,0,0,0,0c-1.4-2.6-2.5-6.9-2.5-9.8c0-3.4-5.8-11.6-12.4-17.7
			c-4.7-4.3-7.5-5.3-8.3-5.3c-2.5,0.2-4.3,0.4-4.7-1.5c-0.3-1.8,1.4-2.3,3.1-2.8c1.7-0.5,2.3-1.1,2.4-1.3c-0.1,0.1-0.5,0-1.4,0
			c-0.4,0-0.8,0-1.4,0.1c-2.8,0.4-3.4,0.5-3.2,8.3c0.1,5.7,1.2,9.3,3.4,10.9c4.3,3.2,4.5,6.7,3.5,19.5c-1,12-2.1,16.4-7.1,20.3
			c-2.7,2.1-7,4.4-9.6,4.4c-1.1,0-2.5,0.9-3.7,2.4c-1.8,2.3-2.6,5.5-2,7.7c0.3,1.3,0.5,2.8-0.4,4.1c-1.5,2.1-4.9,2.4-17.4,2.9
			c-11.9,0.4-16,1.8-16.5,2.2c-0.5,1.8-4.6,6.8-7.2,9.6c-2,2.2-4.7,5.3-7.2,8.2l7.5-0.7c2.9-0.3,4.9-0.9,5.6-1.3
			c0.4-1.7,2.4-2.8,5-2.8c1.6,0,2.9,0.4,3.7,1.1c0-0.5,0.1-0.9,0.3-1.4c0.7-1.7,2.5-2.7,4.8-2.7c2.9,0,5.1,1.7,5.1,3.9
			c0,2.2-1.4,4.2-3.5,5.1c-1.7,0.7-3.6,0.4-4.8-0.8c-0.2-0.2-0.5-0.5-0.6-0.7c-0.1,1.6-0.9,3.6-2.4,6.4l0,0
			C1301.4,942.3,1301.1,942.9,1300.8,943.5C1300.8,943.5,1300.8,943.5,1300.8,943.5z M1287.6,938.6l1.4,0.8c3.1,1.7,6.5,3.6,7.6,3.3
			c0.6-0.2,1.4-1.8,1.9-2.8l0,0c2.3-4.3,1.9-5.3,1.9-5.3l0,0c0,0-0.3-0.2-1.3-0.2c-0.8,0-1.3,0.2-1.5,0.3c-0.5,2.6-5.6,3.5-8.7,3.8
			L1287.6,938.6z M1297.7,934.3L1297.7,934.3L1297.7,934.3z M1308,931.5c-1,0-1.4,0.3-1.4,0.4c-0.1,0.2,0,0.8,0.8,1.6
			c0.2,0.2,0.6,0.1,0.8,0c0.6-0.2,1.2-0.8,1.3-1.6C1309.3,931.7,1308.8,931.5,1308,931.5z M1317.5,927.8c-0.2,0-0.2,0-0.2,0
			c-1,0.4-1.2,0.8-1.2,0.8c0,0.3,1.4,1.5,4.2,1.5c0.5,0,1.1,0,1.7,0.1C1319.4,928,1318,927.8,1317.5,927.8z M152.2,927.9
			c-1.8,0-3.4-0.7-5.5-2.2l0,0c-2.1-1.5-4.1-3.2-3.6-5.3c0.5-2.4,3.4-3.4,11.8-5.3c5.7-1.3,8.5-1.6,10.2-0.3c0.8,0.7,1.3,1.7,1.3,3
			c0,2.8-3.8,6.1-7.3,7.9C156.1,927.1,154.1,927.9,152.2,927.9z M146.8,921.1c0.3,0.3,0.8,0.8,2,1.7c2.7,2,3.4,2.3,8.5-0.4
			c3.3-1.7,5.2-4,5.3-4.7c-0.3-0.3-1.9-0.3-7.1,0.9C153.7,919,148.4,920.2,146.8,921.1z M1331,894.1c-2.2,0-4-1.8-4-4
			c0-2.2,1.8-4,4-4c2.2,0,4,1.8,4,4C1335,892.3,1333.2,894.1,1331,894.1z M1331,889.7c-0.2,0-0.4,0.2-0.4,0.4c0,0.4,0.8,0.4,0.8,0
			C1331.4,889.9,1331.2,889.7,1331,889.7z M1338.2,834.4c-2.5,0-4.6-2.1-9.1-7.2l0,0c-4-4.5-6.8-8.3-3.6-12.2c1.3-1.6,1.3-2.1,0-3.7
			c-0.8-1-2.1-2.6-1.2-4.1c0.9-1.6,2.9-1.3,6.1-0.7c0.5,0.1,1.9,0.4,2.7,0.4c0-0.9-0.5-2.6-0.6-3.5c-1.6-6.9-6.6-15.5-10.9-18.7
			c-1.8-1.3-2.6-2.7-2.6-4.1c0-1.1,0.6-2,1.7-2.7c3-1.8,11.5,3.5,14.1,5.2c13.5,8.9,31.3,14.3,33.7,12.9c0.8-1.5,2.1-1.6,2.7-1.5
			c1.8,0.2,2.8,2.1,3.4,3.6c0.3-0.6,0.5-1.3,0.7-1.6c2.1-5.2,3-7.3,5.1-6.8c2,0.5,2,2.5,1.3,9.3c-0.6,5,0.2,5.7,0.2,5.7
			c3.1,0.1,3.2,2.3,3.2,2.5c0,3.4-8.6,7.7-12.6,7.7c-1.3,0-3.4,1.7-4.4,4.3c-0.9,2.4-1.8,4.4-3.6,5.2c-1.9,0.8-4.1,0.1-7-1.1
			c-6.7-2.6-18-3.5-21.7-2.8c0.7,0.6,2.1,1.6,3.8,2.3c2.7,1.2,4.6,2.4,5,4.3c0.4,1.7-0.6,3.1-1.3,4
			C1341.7,832.9,1340.3,834.4,1338.2,834.4C1338.3,834.4,1338.3,834.4,1338.2,834.4z M1331.8,824.8c2,2.2,5.3,6,6.4,6c0,0,0,0,0,0
			c0.3,0,1-0.7,2.1-1.9c0.5-0.7,0.6-0.9,0.6-0.9l0,0c0,0-0.4-0.6-3-1.7c-0.7-0.3-6.5-3.1-6.5-6.2c0-0.5,0.2-1.4,1.2-2.1
			c3.5-2.4,18.7-0.7,26.1,2.2c1.1,0.4,3.5,1.4,4.2,1.1c0.6-0.2,1.3-2.3,1.7-3.1c1.5-3.8,4.7-6.6,7.8-6.6c2.3,0,5.9-1.9,7.8-3.3
			c-0.4-0.2-0.8-0.5-1.1-0.9c-1.2-1.4-1.5-3.6-1.1-7.6c-1,2.5-1.8,3.9-3.4,3.9c0,0,0,0,0,0c-1.8,0-2.5-1.9-3.2-3.8
			c-0.1-0.4-0.3-0.6-0.4-0.9c-0.5,0.5-1.1,0.8-1.9,0.9c-5.8,1.2-24.4-5.7-36.2-13.5c-4.5-3-8.1-4.5-9.7-4.9c0.2,0.2,0.4,0.3,0.7,0.5
			c4.9,3.7,10.4,13,12.2,20.8c0.8,3.4,1.2,5.5-0.1,6.9c-1.4,1.4-3.6,1-6.1,0.5c-0.3,0-0.5-0.1-0.7-0.1c1.7,2.5,1.5,4.8-0.7,7.4
			C1327.5,818.3,1326.8,819.2,1331.8,824.8L1331.8,824.8z M431.5,799.7c-2.1,0-4-0.7-5.4-2c-1.3-1.3-2-4.3-2-6.5
			c0-1.3-1-2.9-2.1-3.4c-0.2-0.1-0.4-0.2-0.6-0.3c0.1,0.4,0.2,0.7,0.3,1.1l0,0c0.3,1.2,0.9,4.1-0.4,5.7c-0.5,0.6-1.2,1-2,1
			c-3.6,0-6.2-7.2-6.2-10.9c0-2.8,1.7-3.2,2.3-3.3c0.7-0.1,1.5,0.1,2.1,0.6c0-0.2,0-0.3,0-0.5c0-1.7,0.6-3.1,1.7-3.9
			c1-0.7,2.4-0.8,3.8-0.3c0.1,0.1,0.3,0.1,0.3,0.1c0-0.1,0-0.3,0-0.5c-0.2-2.7,1.4-5.5,3.7-6.3c1.2-0.4,2.4-0.3,3.4,0.4
			c1.1,0.8,1.8,2.2,1.8,3.9c0,0.2,0,0.3,0,0.5c0.9-0.3,2.3-0.3,4,1.2c3.5,3.3,7,13.5,4.5,18.1l0,0c-1.4,2.6-4.3,4.5-7.6,5
			C432.5,799.7,432,799.7,431.5,799.7z M421.3,780.4c0,0-0.1,0-0.1,0.8c0,1.2,1,2.7,2.1,3.2c2.5,1,4.5,3.9,4.5,6.7
			c0,1.8,0.6,3.6,0.9,4c0.8,0.8,2.2,1.1,3.8,0.9c2.1-0.3,4.1-1.6,4.9-3.2l0,0c0.9-1.7,0.3-6.4-1.5-10.3c-1.2-2.7-2.4-3.8-2.8-3.9
			c-0.8,0.6-1.8,0.6-2.7,0.1c-1.2-0.7-1.8-2.1-1.8-4c0-0.7-0.2-0.9-0.3-1c-0.7,0.3-1.4,1.4-1.3,2.6c0.2,2.3-0.8,3.4-1.4,3.8
			c-0.6,0.4-1.9,1-3.8,0.3C421.5,780.4,421.3,780.4,421.3,780.4z M417.1,786.8c0.3,1.2,0.7,2.3,1.2,3.1c0-0.1-0.1-0.3-0.1-0.4l0,0
			C417.9,788.4,417.5,787.5,417.1,786.8z M582.5,781.7c-0.1,0-0.1,0-0.2,0c-2-0.1-2.9-2.4-3.6-4.2c-1-2.5-0.5-6.3,1.3-10.2
			c1.7-3.9,4.3-6.8,6.8-7.7c2.1-0.8,4.6-1.5,6.1,0.2c1.6,1.8,0.9,4.9-2.9,12.3l0,0C586.2,779.3,584.7,781.7,582.5,781.7z
			 M590.1,762.4c-0.3,0-1,0.2-2,0.6c-1.6,0.6-3.5,2.9-4.8,5.8c-1.3,2.9-1.8,5.8-1.2,7.4c0.2,0.6,0.4,1,0.6,1.4
			c1.1-1.5,3.1-5.2,4.1-7.2l0,0C589.4,765.2,590,763.2,590.1,762.4z M627.4,767.8c-2.7,0-5.6-0.5-7.9-1.4c-0.8-0.3-2.8-1.1-2.5-2.9
			c0.4-1.9,2.4-2.3,8.6-2.4c9.1-0.1,9.6,1.3,10,2.1l0.5,1.1l-1,1.2C633.5,767.1,630.6,767.8,627.4,767.8z M600.9,764.3
			c-0.2,0-0.4,0-0.6,0c-1.3-0.1-3.7-0.2-4.1-2.1c-0.2-1.2,0.5-2.1,2.1-2.8c2-0.8,4.7-0.8,6.2,0.6l0,0c0.9,0.8,0.9,1.9,0.6,2.5
			C604.6,763.8,603.2,764.3,600.9,764.3z M877,699.3c-1.5,0-3.1-0.2-4.5-0.7c-1.7-0.6-3.7-1.3-3.7-3.2c0-2,2.3-2.8,6-4.1
			c9-3.1,17.2-20.6,17.2-36.6c0-9.3,0.9-12.7,3.4-13.3c2.7-0.6,4.9,2.4,9,11.6c3.8,8.5,4.2,16.8,1.3,23.3
			c-2.2,4.9-6.3,8.5-11.6,10.2c-1.5,0.5-2.8,2.2-2.8,3.6c0,2.1-1.3,4.2-3.7,5.9C885,697.8,880.9,699.3,877,699.3z M874.3,695.3
			c3.6,1,8.4-0.3,11.2-2.3c1.4-1,2.1-2,2.1-2.9c0-3,2.4-6.1,5.4-7.1c4.4-1.4,7.6-4.2,9.4-8.2c2.5-5.6,2-12.8-1.3-20.4
			c-2.5-5.8-4-8.1-4.8-9c-0.3,1.1-0.7,3.6-0.7,9.2c0,18-9,36.3-19.7,40C875.6,694.9,875,695.1,874.3,695.3z M491.2,489.6
			c-1.2,0-2.7-1.1-5.7-3.4c-2.3-1.8-5.1-3.4-6.1-3.8c-1.3-0.5-2.3-1.4-2.5-2.5c-0.2-1,0-2,0.8-2.8c1.3-1.4,3.8-1.5,7.2-0.1
			c3.6,1.4,8.9,4.7,8.9,8.1c0,2,0,3.5-1.4,4.2C491.9,489.5,491.5,489.6,491.2,489.6z M483,480.3c1.6,0.9,3.3,2.1,4.7,3.1
			c0.8,0.6,1.6,1.2,2.3,1.7c-0.1-0.5-1.2-1.8-3.9-3.4C484.9,481,483.9,480.6,483,480.3z M1007.1,432.4c-0.5,0-1.1-0.1-1.5-0.1
			c-1.7-0.2-9.3-0.7-17-1.2c-10.1-0.6-12.6-0.9-13.4-3c-0.7-1.8,0.8-3.3,1.8-4.3c3.6-3.6,6.7-3.5,15.5-1.4
			c5.4,1.3,17.9,4.7,17.3,8.2C1009.7,432.1,1008.4,432.4,1007.1,432.4z M979.4,426.7c2.1,0.4,6.6,0.7,9.5,0.8h0
			c3.7,0.2,7.4,0.4,10.4,0.6c-2.2-0.7-4.8-1.5-7.5-2.2c-9-2.2-10.1-1.6-12.1,0.4C979.6,426.5,979.5,426.6,979.4,426.7z M973.4,424
			c-2.4,0-4.6-0.7-5.7-1.8c-0.8-0.8-1-1.6-1-2.2c0-2.2,1.1-3.1,1.8-3.5c1.7-0.9,4.1-0.3,7.6,1.9c1.3,0.8,3,1.9,2.5,3.7
			C978.1,423.9,975.9,423.9,973.4,424C973.5,424,973.4,424,973.4,424z M970.5,419.7c0.3,0.1,0.7,0.3,1.3,0.4
			C971.2,419.9,970.7,419.8,970.5,419.7z M970.2,419.7C970.2,419.7,970.2,419.7,970.2,419.7l0.1,0.3
			C970.4,419.9,970.3,419.8,970.2,419.7C970.3,419.7,970.3,419.7,970.2,419.7z M583.7,373.5l-14.5-0.3c-5.8-0.1-18-1.6-27.2-3.4
			c-9-1.7-20.5-3.4-25.5-3.7c-8.4-0.5-12.7-2.1-14-5.2c-0.9-2.4,0-5,3-8.3c4.7-5.1,7.7-5.3,20.7-4.3c11.1,0.9,16.4,2.5,18.1,5.5
			c0.5,1,4,2.9,13.5,4c10.2,1.2,14.9,3,18.7,7.3L583.7,373.5z M517,351.5c-5.1,0-6.4,1-8.8,3.6c-1.8,2-2.7,3.6-2.3,4.4
			c0.2,0.6,1.7,2.4,10.8,3c5.2,0.3,16.8,2,26,3.7c9,1.7,20.9,3.2,26.6,3.3l6.3,0.1l-1.9-2.1c-3.1-3.6-7.1-5-16.4-6.1
			c-9.2-1-14.7-3-16.2-5.8c-0.5-1-3.2-2.7-15.2-3.7C522,351.7,519.2,351.5,517,351.5z"/>
	</g>
</g>
</svg>
