<?xml version="1.0" encoding="utf-8"?>
<!-- Generator: Adobe Illustrator 19.2.1, SVG Export Plug-In . SVG Version: 6.00 Build 0)  -->
<svg version="1.1"
	 id="Layer_1" xmlns:cc="http://creativecommons.org/ns#" xmlns:dc="http://purl.org/dc/elements/1.1/" xmlns:inkscape="http://www.inkscape.org/namespaces/inkscape" xmlns:rdf="http://www.w3.org/1999/02/22-rdf-syntax-ns#" xmlns:sodipodi="http://sodipodi.sourceforge.net/DTD/sodipodi-0.dtd" xmlns:svg="http://www.w3.org/2000/svg"
	 xmlns="http://www.w3.org/2000/svg" xmlns:xlink="http://www.w3.org/1999/xlink" x="0px" y="0px" viewBox="0 0 213 213"
	 style="enable-background:new 0 0 213 213;" xml:space="preserve">
<g>
	<path d="M169.9,170.9c-0.1,0-0.2-0.1-0.2-0.2c0,0,0-0.1,0-0.1c-0.2-1.8-3.8-5.2-5.9-6.9c-0.3,0.4-0.5,0.8-0.7,1.2
		c-0.6,1.1-1.1,2-2.4,2.9c-1.7,1.2-3.4,2.2-5.9,1.2c-0.5-0.2-0.9-0.5-1.4-0.8c-0.6-0.4-1.1-0.8-1.9-0.9c-0.6-0.1-1.3-0.1-2-0.1
		c-0.5,0-1,0-1.4-0.1c-2.4-0.2-3.7-0.6-5.4-2.4c-2.8-3-3.7-5.2-4.8-9.1c-0.5-1.9-1.5-3.6-2.5-5.2l-0.1-0.1c-0.4-0.7-0.8-1.1-1.1-1.2
		c-0.2-0.1-0.4,0.1-0.8,0.3c-0.5,0.3-1.1,0.7-2.1,0.8c-0.2,0-0.4,0.1-0.6,0.1c-0.2,0-0.3,0.1-0.5,0.1c-0.1,0-0.2-0.1-0.3-0.2
		c-0.5-1.5,0.1-2.3,0.7-3c0.4-0.5,0.7-0.9,0.9-1.5c0.2-0.9-0.4-3.2-1.3-3.5c-0.4-0.1-0.6-0.1-0.9,0c-0.5,0.2-0.7,1-1,1.7
		c-0.2,0.5-0.3,1-0.5,1.3c-0.9,1.3-1.7,1.5-2.8,1.7c-0.3,0-0.6,0.1-0.9,0.2c-0.1,0-0.2,0-0.2-0.1s-0.1-0.2-0.1-0.2
		c0.2-0.8,0.7-1.3,1.2-1.9c0.4-0.4,0.8-0.8,1-1.3c0.2-0.5,0.3-1.2,0.4-1.8c0.1-0.6,0.1-1.1,0.3-1.6c0.4-1,0.9-1.8,1.4-2.6
		c0.8-1.1,1.4-2.1,1.4-3.9c-1.8-0.3-3,1.6-3.8,3.1l-0.3,0.4c-0.8,1.4-1.8,2.5-2.7,3.7c-0.3,0.4-0.6,0.7-0.9,1.1
		c-0.3,0.3-0.5,0.7-0.7,1.1c-0.7,1.2-1.5,2.6-3.3,2.4c-1.5-0.2-1.9-1.7-2.4-3.1c-0.2-0.6-0.4-1.2-0.6-1.7c-0.8-1.5-1.4-2.6-2.4-3.9
		c-0.6-0.8-1-1.7-1.5-2.5c-0.6-1.1-1.2-2.2-2-3.1c-1.2-1.2-2.3-1.5-3.7-1.8c-0.5-0.1-0.9-0.2-1.5-0.4c-0.6-0.2-1.1-0.5-1.6-0.8
		c-0.5-0.3-0.9-0.5-1.4-0.7c-0.4-0.1-0.9-0.1-1.3-0.1c-0.4,0-0.8,0-1.2-0.1c-3.4-0.7-7.1-1.3-10.9-1c-1.8,0.2-2.7,0.6-4.1,1.4
		l-0.6,0.3c-1.3,0.7-2.6,0.7-3.8,0.8c-0.8,0-1.6,0.1-2.4,0.3c-1.3,0.3-2.6,0.5-4,0.8c-2.6,0.5-5.3,0.9-7.6,2c-1.3,0.6-3.1,2.1-4,3.5
		c-0.4,0.5-0.6,1-0.8,1.4c-0.6,1.1-1.1,2.1-2.7,2.7c-2.2,0.9-4.4,0.4-6.5-0.1c-1.4-0.3-2.8-0.6-4.1-0.6c-3.8,0.2-7.2,1.8-10.2,3.5
		c-0.6,0.4-1.2,0.8-1.7,1.3c-0.8,0.7-1.7,1.5-3,1.8c-0.6,0.1-1.1,0.1-1.7,0.1c-0.4,0-0.9,0-1.3,0c-0.6,0.1-1.1,0.3-1.6,0.6
		c-0.5,0.2-1,0.5-1.5,0.6c-2.3,0.5-4-0.7-5.6-1.9l-0.2-0.2c-0.4-0.3-0.8-0.5-1.2-0.8c-1.3-0.8-2.6-1.6-3-3.3c-0.1-0.4-0.2-2.1,0-2.6
		c0.4-0.8,0.9-0.8,1.4-0.9c0.3-0.1,0.6-0.1,0.8-0.3c0.6-0.6,0.8-2,1-3.3c0.1-0.9,0.2-1.7,0.5-2.3l0.1-0.2c0.6-1.7,1-2.8,0.1-4.4
		c-0.3-0.6-0.7-1.1-1.1-1.6c-0.7-0.9-1.4-1.7-1.7-3c-0.4-1.5-0.6-3.1-0.7-4.6c-0.2-1.8-0.5-3.8-1-5.6c-0.5-1.7-1.3-3.1-2.2-4.6
		c-1-1.7-2-3.5-2.5-5.6c-0.3-1.4-1.1-2.8-1.8-4.1c-0.3-0.6-0.6-1.1-0.9-1.7C7.3,96,7.2,96,7.1,95.9c-0.5-0.3-0.9-0.6-1.3-1.1
		C5,93.9,5,92.9,5.1,91.7l0-0.2c0-0.1,0.1-0.2,0.2-0.2c0.1,0,0.2,0,0.3,0.1c0.7,0.8,1.2,1.9,1.6,3.1c0.2,0.5,0.4,1,0.6,1.4
		c0.4,0.3,0.8,0.6,1.1,1c0.2-1.2-0.4-2.4-1.1-3.7c0-0.1,0-0.2,0-0.2s0.1-0.1,0.2-0.1c1.1,0,1.8,1.1,2.3,2.1c0.2,0.3,0.3,0.6,0.5,0.8
		l0-0.1c0.4-1.4,0.5-2-0.3-3.5c-0.2-0.4-0.4-0.7-0.6-1.1c-0.8-1.3-1.5-2.4-1-4.3c0-0.2,0.2-0.4,0.3-0.8c0.4-0.9,1.2-2.7,0.8-3.2
		c0,0-0.1-0.2-0.6-0.2c-0.6,0.1-0.7,0.6-0.6,1.7c0,1,0.1,2.3-1.2,2.5c-0.1,0-0.1,0-0.2-0.1c-0.1,0-0.1-0.1-0.1-0.2
		c-0.1-1.6,0.4-3.1,0.8-4.5c0.3-0.9,0.6-1.9,0.7-2.9C8.9,78.5,9,77.9,9,77.3c0.1-2,0.3-4.6,1.8-5.5c0.1,0,0.2,0,0.2,0
		c0.1,0,0.1,0.1,0.1,0.2l0,0.1c0,0.9,0.1,2,0.6,2.4c0.1,0.1,0.3,0.2,0.4,0.2c0.6-0.5,1-1.1,1.4-1.8c0.5-0.8,1-1.6,1.9-2.2
		c0.5-0.3,1.1-0.5,1.6-0.7c0.7-0.3,1.5-0.6,2-0.9c0.4-0.3,0.7-0.8,0.9-1.2c0.2-0.4,0.5-0.9,0.9-1.2c1.6-1.3,3.5-1.3,5.3-1.3
		c1,0,2.1,0,3.1-0.3c0.5-0.1,1-0.4,1.5-0.7c0.5-0.3,0.9-0.6,1.5-0.8c0.3-0.1,0.5-0.1,0.8-0.2c1-0.2,1.9-0.5,2.1-1.6
		c0-0.1,0.1-0.2,0.1-0.2c0.9-0.4,2-0.2,3-0.1c0.7,0.1,1.4,0.3,2,0.2c1.8-0.2,2.8-1.1,4.1-2.3l0.3-0.3c2.1-2,3.7-3.6,5.3-6
		c0.8-1.3,1-1.7,0.9-3.5c0-0.2,0-0.4,0-0.6c-0.1-1.4-0.1-2.2,1.2-3.5c0.4-0.4,1.4-1.2,2-1.4c0.5-0.2,0.6-0.3,0.7-0.4
		c0.1,0,0.1-0.1,0.3-0.1c0.1,0,0.2,0.1,0.2,0.2c0.1,0.1,0.2,0.3,0.5,0.7c0.5,0.6,0.9,1.5,1.2,2.4c0.2,0.6,0.4,1.1,0.7,1.5
		c0.3-0.4,0.5-0.9,0.5-1.8c0-0.1,0-0.2,0.1-0.2c0.1,0,0.2-0.1,0.2,0c0.1,0,0.3,0.1,0.5,0.1c-0.1-0.1-0.2-0.2-0.3-0.3
		c-0.6-0.5-1.1-1-1.3-1.5c-0.4-1.3,0.4-2.4,1.1-3.3l0.2-0.2c0.1-0.1,0.2-0.1,0.2-0.1c0.1,0,0.2,0.1,0.2,0.2c0.2,0.7,0.6,1.1,1.4,1.3
		c1.1,0.3,1.1,0.1,1.3-0.6c0-0.2,0.1-0.4,0.2-0.7c0.2-0.5,0.2-1,0.3-1.5c0.1-1.1,0.3-2.2,1.9-2.6c0.1,0,0.2,0,0.3,0.1
		c0.3,0.4,0.4,0.4,0.6,0.5c0,0,0-0.1,0-0.1c-0.1-0.3-0.2-0.5-0.5-0.7c-0.1-0.1-0.1-0.2-0.1-0.2s0.1-0.2,0.2-0.2c1-0.3,1.7-0.5,1.9-1
		c0.2-0.4,0-1-0.4-1.8c0-0.1,0-0.2,0-0.3c0-0.1,0.1-0.1,0.2-0.1c0.7,0.1,1.6,0.1,2.1-0.3c0.2-0.1,0.2-0.4,0.2-0.6c0-0.1,0-0.1,0-0.2
		c0-0.1,0.1-0.2,0.2-0.2c0,0,0,0,0,0c0.1,0,0.2,0.1,0.2,0.2c0,0.1,0,0.1,0,0.2c0,0.5,0.2,0.7,0.5,1c0.1-0.2,0.2-0.4,0.3-0.6
		c0.2-0.4,0.4-0.9,0.6-1.2c0,0,0,0,0-0.1c0-0.2-0.1-0.5,0.2-0.7c0.4-0.3,0.9,0,1.1,0.2c0.1,0.1,0.2,0.2,0.2,0.2
		c0.2-0.1,0.3-0.3,0.4-0.6c0.2-0.3,0.4-0.6,0.7-0.8c0.3-0.2,0.6-0.1,0.9-0.1c0.3,0.1,0.5,0.1,0.9-0.3c0.1-0.1,0.1-0.1,0.2-0.1
		c0.1,0,0.1,0.1,0.2,0.1c0.4,0.9,1.2,1.2,2.1,1.6c0.8,0.3,1.7,0.7,2.4,1.5c0.9,1.1,0.9,2.2,0.9,3.4c0,0.3,0,0.7,0,1
		c0.2-0.4,0.5-0.7,0.7-1c0.4-0.5,0.8-1,1-1.6c0-0.1,0.2-0.2,0.3-0.2c1.5,0.2,3.7,0.9,5.4,1.9c-0.1-0.4,0-0.8,0.3-1.2
		c-0.9-0.9-2-1.9-1.7-3.5c0-0.1,0.1-0.1,0.1-0.2c0.4-0.2,0.8-0.4,1.2-0.5c0.3-0.1,0.5-0.2,0.7-0.3c-0.1,0-0.3,0-0.4,0
		c-0.1,0-0.2-0.1-0.3-0.2C88,29.3,88.6,29.1,89,29c0.2-0.1,0.5-0.1,0.6-0.3c0.2-0.4,0.3-0.7,0.3-1.2c0-0.4,0.1-0.8,0.3-1.3
		c0.3-0.7,1-1.2,1.6-1.6c0.8-0.6,1.5-1.1,1.6-2c0-0.1,0-0.1,0.1-0.2c0.1,0,0.1-0.1,0.2,0c0.6,0.1,0.9,0.1,1,0
		c0.2-0.3-0.4-1.2-0.7-1.7c-0.2-0.2-0.3-0.4-0.4-0.6c-1,0-2,0-3-0.1c-0.1,0-0.2-0.1-0.2-0.2c-0.2-0.6-0.1-1,0.2-1.4
		c1-1.2,4.3-1,5.9-0.9c0.2,0,0.3,0,0.4,0c0.1,0,0.2,0.1,0.2,0.1c0.3,0.5,0.4,1,0.3,1.4c-0.2,0.6-0.8,0.8-1.4,1
		c-0.5,0.2-1,0.4-1.1,0.7c-0.1,0.2,0,0.4,0.1,0.7c0.6,1.2,2.9,0.6,4.4,0.1c0.4-0.1,0.7-0.2,0.9-0.2c0.3-0.1,0.7-0.1,0.9,0
		c0.5,0,0.7,0.1,0.9-0.4c0.4-0.7-0.1-1.2-0.8-1.6c-0.3-0.2-0.8-0.3-1.4-0.5c-1-0.3-1.9-0.5-1.9-1.1c0-0.4,0.4-0.7,1.4-1.2
		c1.5-0.6,3.3,0.4,4.7,1.1c0.2,0.1,0.4,0.2,0.6,0.3c0.5,0.3,0.9,0.6,1.3,0.8c0.8,0.5,1.4,1,2.6,1.2c1.2,0.2,2.4,0.6,3.4,0.9
		c0.6,0.2,1.2,0.4,1.8,0.5c0.8,0.2,1.7,0.3,2.7,0.2c0.7-0.1,1.1-0.2,1.4-0.4c0.2-0.1,0.4-0.2,0.7-0.3c0.2-0.1,0.3-0.2,0.5-0.3
		c0.2-0.1,0.4-0.3,0.7-0.4c0.1,0,0.2,0,0.3,0.1c0.1,0.1,0,0.2,0,0.3c-0.3,0.3-0.4,0.8-0.2,1.1c0.1,0.2,0.4,0.3,0.6,0.3
		c-0.1-1.1,0.4-1.4,0.7-1.5c1.2-0.3,3.3,1.2,3.6,2.3c0.4,1.4-0.7,2.3-1.4,2.9c-0.2,0.1-0.3,0.3-0.5,0.4l-0.1,0.1
		c-1.2,1.1-1.3,1.1-3,1.2c-0.1,0.6,0.1,1.2,0.2,1.8c0.2,1,0.5,1.9,0,2.9c-0.3,0.6-0.9,1-1.4,1.4c-0.8,0.6-1.5,1.1-1.2,2.2
		c0.2,0.7,1.5,2,3.3,3.3c0.4,0.3,1.5,0.9,2,1.1c0.6,0.3,1.6,0.8,2.2,1c0.4,0.2,0.9,0.4,1.3,0.5c1.2,0.5,2.4,0.9,3.6,1.9
		c0.3,0.2,0.5,0.4,0.6,0.5c0.3,0.3,0.5,0.4,1.2,0.7c0.3,0.1,0.7,0.2,1,0.3c0.5,0.1,1,0.3,1.5,0.6c0.6,0.4,1.2,0.9,1.7,1.5
		c0.7,0.7,1.3,1.3,2.1,1.6c0.8,0.3,2.2,0.4,4.2,0.4c0.2-0.8,0.7-1.6,1.3-2.3c0.4-0.6,0.9-1.3,1.1-1.9c0.3-0.8,0.5-1.6,0.6-2.5
		c0.2-0.8,0.3-1.7,0.6-2.5c0.8-2.3,0.9-4.5,0.9-6.9c0-0.9,0-1.7,0.1-2.6c0.2-3.6,1.1-7.8,3-12.7c0.6-1.7,1.1-2.4,1.8-2.5
		c0.6-0.1,1.3,0.4,2,1.6c0.9,1.3,1,2.4,1.1,3.5c0.1,0.6,0.1,1.2,0.3,1.9c0.2,0.7,0.4,1.2,0.7,1.8c0.3,0.7,0.7,1.4,0.9,2.3
		c0.1,0.4,0.2,0.9,0.3,1.3c0.1,0.8,0.3,1.6,0.5,2.3c0.9,2.9,3.6,3.2,5.6,2.7c0.1,0,0.3,0,0.3,0.2c0.8,2.8,1.7,5.3,2.7,7.3
		c0.2,0.3,0.3,0.6,0.5,0.9c0.4,0.7,0.8,1.4,0.9,2.4c0,0.3,0,0.7,0,1c0,0.5,0,0.9,0.1,1.4c0.1,0.4,0.5,0.8,0.9,1.2
		c0.4,0.4,0.7,0.8,0.9,1.2c0.2,0.6,0.1,1.3,0,2c-0.1,0.6-0.2,1.2,0,1.8c0.1,0.3,0.5,0.7,0.9,1.1s0.8,0.8,0.9,1.2
		c0.1,0.3,0.2,0.6,0.3,0.9c0.1,0.4,0.3,0.8,0.5,1.1c0.6,0.8,1.5,1.3,2.4,1.8c0.8,0.4,1.6,0.9,2.2,1.5c1.1,1.1,2.2,1.7,3.4,2.3
		c0.4,0.2,0.7,0.4,1.1,0.6c2,1.2,2.3,2,2.8,3.5c0.1,0.2,0.2,0.5,0.3,0.8c0.3,0.9,0.8,1.7,1.2,2.5c0.4,0.7,0.8,1.5,1.1,2.2
		c0.3,0.7,0.6,1.2,1,1.9c0.2,0.4,0.5,0.8,0.7,1.2c0.8-0.4,1.6-0.5,2.4-0.2c1.2,0.4,2.4,1.4,3,2.8c0.4,0.8,0.6,1.6,0.7,2.3
		c0.2,1.2,0.4,2.2,1.8,3.1l0.1,0.1c1.8,1.3,3,2.2,4,4.2l0.2,0.4c0.7,1.4,1.3,2.9,2.4,4.1c0.4-0.4,0.6-1.1,0.8-1.8
		c0.3-1.1,0.7-2.4,2-2.3c0.1,0,0.2,0.1,0.2,0.2l0,0.1c0.1,2.2,0.2,4.4-0.5,6.4c-0.1,0.3-0.3,0.7-0.4,1c-0.6,1.3-1.1,2.5-0.8,3.9
		c0.2,0.9,0.6,1.8,1,2.8c0.4,0.9,0.8,1.9,1,2.8c0.5,2,0.4,4,0.2,6.1l0,0.5c-0.1,1.1-0.3,2.1-0.5,3.1c-0.1,0.6-0.3,1.3-0.4,2
		c-0.1,0.7-0.1,1.4-0.2,2.1c-0.1,1.3-0.2,2.5-0.6,3.8c-1.5,4.3-3.2,8.6-5.6,11.8c-1.5,2-2.6,4.1-3.8,6.3c-0.7,1.3-1.4,2.6-2.2,3.9
		c-1.1,1.7-1.2,2.5-1.6,4.4l-0.1,0.4c-0.2,1-0.7,2-1.1,2.9c-0.4,1-0.9,2-1.1,3.1c-0.1,0.6-0.2,1.1-0.3,1.7c-0.7,3.6-1.3,7-5.2,8.8
		c-1.5,0.7-3.5,0.7-5.5,0.8c-2.7,0.1-5.4,0.2-7,1.7c-0.6,0.6-1.1,1.8-1.1,2.6c0,0,0,0.1,0,0.1C170.2,170.8,170.1,170.9,169.9,170.9
		C169.9,170.9,169.9,170.9,169.9,170.9z M163.7,163.1c0.1,0,0.1,0,0.1,0c1.1,0.8,4.8,3.9,6,6.3c0.2-0.7,0.6-1.5,1.1-1.9
		c1.7-1.7,4.6-1.8,7.3-1.9c2-0.1,3.9-0.2,5.3-0.8c3.7-1.6,4.3-4.9,4.9-8.4c0.1-0.6,0.2-1.1,0.3-1.7c0.2-1.1,0.7-2.2,1.2-3.2
		c0.4-1,0.8-1.9,1-2.8l0.1-0.4c0.4-1.8,0.6-2.7,1.7-4.5c0.8-1.3,1.5-2.6,2.2-3.9c1.2-2.2,2.3-4.3,3.9-6.3c2.4-3.1,4.1-7.5,5.5-11.7
		c0.4-1.2,0.5-2.4,0.6-3.7c0-0.7,0.1-1.4,0.2-2.1c0.1-0.7,0.2-1.4,0.4-2c0.2-1,0.4-2,0.5-3.1l0-0.5c0.1-2.1,0.2-4.1-0.2-6
		c-0.2-0.9-0.6-1.8-1-2.7c-0.4-1-0.8-2-1-2.9c-0.3-1.6,0.2-2.8,0.8-4.2c0.1-0.3,0.3-0.7,0.4-1c0.7-1.8,0.6-4,0.5-6
		c-0.7,0.1-1,0.8-1.3,1.9c-0.2,0.9-0.5,1.7-1.1,2.2c-0.1,0.1-0.2,0.1-0.3,0c-1.3-1.3-2-2.9-2.7-4.4l-0.2-0.4c-0.9-1.9-2-2.8-3.8-4
		l-0.1-0.1c-1.5-1.1-1.7-2.2-2-3.4c-0.1-0.7-0.3-1.4-0.7-2.2c-0.6-1.2-1.7-2.2-2.7-2.5c-0.8-0.2-1.5-0.1-2.2,0.3c-0.1,0-0.1,0-0.2,0
		c-0.1,0-0.1-0.1-0.2-0.1c-0.2-0.5-0.5-1-0.8-1.4c-0.4-0.6-0.8-1.2-1-1.9c-0.3-0.7-0.7-1.4-1.1-2.1c-0.4-0.8-0.9-1.7-1.2-2.6
		c-0.1-0.3-0.2-0.5-0.3-0.8c-0.5-1.5-0.7-2.2-2.6-3.3c-0.4-0.2-0.8-0.4-1.1-0.6c-1.2-0.7-2.3-1.3-3.5-2.4c-0.6-0.6-1.4-1-2.1-1.5
		c-0.9-0.5-1.9-1.1-2.6-1.9c-0.3-0.4-0.5-0.9-0.6-1.3c-0.1-0.3-0.2-0.5-0.3-0.8c-0.1-0.3-0.5-0.7-0.9-1.1c-0.4-0.5-0.8-0.9-1-1.3
		c-0.2-0.6-0.1-1.3,0-2c0.1-0.7,0.2-1.3,0-1.8c-0.1-0.3-0.4-0.7-0.8-1.1c-0.4-0.4-0.8-0.9-1-1.4c-0.2-0.5-0.2-1-0.2-1.5
		c0-0.3,0-0.6,0-0.9c-0.1-0.9-0.4-1.5-0.8-2.2c-0.2-0.3-0.3-0.6-0.5-1c-1-2-1.9-4.4-2.7-7.2c-2.2,0.5-5,0-6-3.1
		c-0.2-0.7-0.4-1.6-0.5-2.4c-0.1-0.4-0.2-0.9-0.3-1.3c-0.2-0.9-0.5-1.6-0.8-2.2c-0.3-0.6-0.6-1.2-0.8-1.9c-0.2-0.7-0.3-1.4-0.3-2
		c-0.1-1.1-0.3-2.1-1.1-3.3c-0.6-1-1.2-1.4-1.6-1.4c-0.6,0.1-1.1,1.3-1.4,2.1c-1.8,4.9-2.8,9-2.9,12.5c0,0.9-0.1,1.8-0.1,2.6
		c0,2.4-0.1,4.7-0.9,7.1c-0.3,0.8-0.5,1.6-0.6,2.4c-0.2,0.8-0.3,1.7-0.6,2.5c-0.3,0.7-0.7,1.3-1.2,2c-0.6,0.8-1.1,1.6-1.2,2.3
		c0,0.1-0.1,0.2-0.2,0.2c-2.2,0.1-3.7-0.1-4.6-0.4c-0.9-0.4-1.6-1.1-2.3-1.8c-0.5-0.5-1-1-1.6-1.4c-0.4-0.3-0.9-0.4-1.4-0.5
		c-0.3-0.1-0.7-0.2-1.1-0.3c-0.8-0.3-1-0.5-1.3-0.8c-0.1-0.1-0.3-0.3-0.6-0.5c-1.2-0.9-2.3-1.3-3.5-1.8c-0.4-0.2-0.9-0.3-1.3-0.5
		c-0.6-0.3-1.7-0.8-2.2-1.1c-0.6-0.3-1.6-0.9-2-1.2c-1.2-0.8-3.1-2.4-3.5-3.6c-0.4-1.5,0.5-2.1,1.4-2.7c0.5-0.3,1-0.7,1.3-1.2
		c0.4-0.8,0.2-1.6,0-2.5c-0.2-0.7-0.4-1.5-0.2-2.2c0-0.1,0.1-0.2,0.2-0.2c1.8-0.1,1.8-0.1,2.9-1.1l0.1-0.1c0.2-0.1,0.3-0.3,0.5-0.4
		c0.8-0.6,1.6-1.2,1.3-2.3c-0.2-0.8-2.1-2.1-3-1.9c-0.4,0.1-0.5,0.5-0.3,1.2c0,0.1-0.1,0.3-0.2,0.3c-0.9,0.2-1.3-0.3-1.4-0.5
		c-0.2-0.3-0.2-0.6-0.1-1c-0.1,0.1-0.3,0.2-0.5,0.2c-0.3,0.1-0.4,0.2-0.6,0.3c-0.4,0.2-0.8,0.4-1.6,0.5c-1,0.1-2.1,0-2.9-0.2
		c-0.6-0.2-1.2-0.4-1.8-0.5c-1.1-0.3-2.2-0.7-3.4-0.9c-1.4-0.2-2-0.7-2.8-1.2c-0.4-0.3-0.7-0.5-1.2-0.8c-0.2-0.1-0.4-0.2-0.6-0.3
		c-1.2-0.7-2.9-1.7-4.2-1.1c-1.1,0.5-1.1,0.7-1.1,0.7c0,0.2,1,0.5,1.5,0.6c0.6,0.2,1.2,0.3,1.6,0.6c0.5,0.4,1.5,1.1,0.9,2.3
		c-0.4,0.8-0.9,0.7-1.4,0.7c-0.2,0-0.5,0-0.8,0c-0.2,0-0.5,0.1-0.9,0.2c-1.4,0.4-3.3,0.9-4.4,0.3c0,0.1,0,0.2-0.1,0.3
		c-0.2,0.4-0.8,0.4-1.2,0.3c-0.2,1-1,1.6-1.7,2.1c-0.6,0.4-1.2,0.8-1.4,1.4c-0.2,0.4-0.2,0.8-0.3,1.1c-0.1,0.4-0.1,0.9-0.4,1.4
		c-0.2,0.4-0.6,0.5-0.9,0.6c-0.3,0.1-0.5,0.1-0.5,0.6c0.1,0,0.2,0,0.3,0c0.2,0,0.4,0,0.6,0c0.1,0,0.2,0,0.3,0.1c0,0.1,0,0.2,0,0.3
		c-0.4,0.4-0.9,0.6-1.5,0.8c-0.3,0.1-0.7,0.2-1,0.4c-0.2,1.2,0.7,2.1,1.6,3l0.1,0.1c0,0,0.1,0.1,0.1,0.2s0,0.1-0.1,0.2
		c-0.3,0.3-0.3,0.7-0.3,0.9c0,0.2,0.1,0.4,0.2,0.5c0.2,0.2,0.4,0.3,0.6,0.5c0.1,0.1,0.1,0.2,0,0.3c-0.1,0.1-0.2,0.1-0.3,0.1
		c-0.3-0.1-0.5-0.3-0.7-0.5c-1.5-1-3.8-1.9-5.6-2.2c-0.2,0.6-0.6,1.1-1,1.6c-0.5,0.6-0.9,1.2-1,1.8c0,0.1-0.1,0.2-0.2,0.2
		c-0.1,0-0.2-0.1-0.3-0.2c-0.2-0.7-0.2-1.5-0.2-2.2c0-1.1,0-2.1-0.8-3.1c-0.6-0.7-1.4-1.1-2.2-1.4c-0.8-0.3-1.7-0.7-2.2-1.5
		c-0.4,0.3-0.8,0.2-1.1,0.2c-0.2,0-0.4-0.1-0.6,0c-0.2,0.1-0.4,0.4-0.5,0.6c-0.2,0.3-0.3,0.6-0.7,0.8c-0.3,0.2-0.6-0.1-0.8-0.2
		c-0.3-0.2-0.4-0.3-0.5-0.2c0,0-0.1,0.1,0,0.2c0,0.1,0,0.3-0.1,0.5c-0.2,0.2-0.4,0.6-0.5,1c-0.1,0.3-0.3,0.7-0.4,0.9
		c0,0.1-0.1,0.1-0.2,0.1c-0.1,0-0.1,0-0.2,0c-0.3-0.2-0.5-0.4-0.7-0.7c0,0-0.1,0.1-0.1,0.1c-0.5,0.5-1.3,0.5-2,0.5
		c0.4,0.8,0.4,1.4,0.2,1.9c-0.3,0.6-1,0.9-1.8,1.1c0.1,0.2,0.2,0.4,0.3,0.6c0.1,0.2,0.1,0.4,0.3,0.5c0.1,0.1,0.1,0.2,0,0.3
		s-0.2,0.1-0.3,0.1c-0.1,0-0.2-0.1-0.3-0.1c-0.4-0.1-0.7-0.2-1-0.6c-1.2,0.4-1.3,1.1-1.4,2.1c-0.1,0.5-0.1,1-0.3,1.6
		c-0.1,0.2-0.1,0.4-0.2,0.6c-0.2,0.9-0.4,1.4-1.9,1C59.5,43,59,42.6,58.7,42c-0.6,0.8-1.2,1.7-0.9,2.6c0.1,0.4,0.7,0.9,1.2,1.3
		c0.4,0.3,0.8,0.7,1,1c0.1,0.1,0.1,0.2,0,0.3c-0.1,0.1-0.2,0.1-0.3,0.1c-0.1-0.1-0.4-0.1-0.7-0.2c-0.1,0-0.2,0-0.3-0.1
		c0,1-0.3,1.6-0.9,2c-0.1,0-0.1,0-0.2,0c-0.1,0-0.1-0.1-0.2-0.1c-0.3-0.5-0.6-1.2-0.8-1.8c-0.4-0.9-0.7-1.8-1.1-2.3
		c-0.2-0.3-0.4-0.5-0.5-0.7c-0.1,0.1-0.4,0.2-0.7,0.3c-0.5,0.2-1.4,0.9-1.9,1.3c-1.1,1.1-1.1,1.7-1,3.1c0,0.2,0,0.4,0,0.6
		c0.1,1.9-0.1,2.4-1,3.8c-1.6,2.5-3.3,4.1-5.4,6.1l-0.3,0.3c-1.3,1.3-2.4,2.3-4.4,2.5c-0.7,0.1-1.5-0.1-2.2-0.2
		c-0.9-0.2-1.8-0.3-2.6,0c-0.3,1.3-1.4,1.6-2.4,1.9c-0.3,0.1-0.5,0.1-0.8,0.2c-0.5,0.2-1,0.5-1.4,0.7c-0.5,0.3-1,0.6-1.6,0.8
		c-1,0.3-2.1,0.3-3.2,0.3c-1.8,0-3.5,0-5,1.2c-0.3,0.3-0.5,0.6-0.7,1.1c-0.3,0.5-0.6,1-1.1,1.4c-0.6,0.4-1.4,0.7-2.2,1
		c-0.6,0.2-1.1,0.4-1.6,0.7c-0.8,0.5-1.3,1.2-1.7,2c-0.2,0.3-0.4,0.6-0.6,0.9c0,0,0,0,0.1,0c0.1,0.1,0.2,0.2,0.1,0.3
		c-0.1,0.1-0.2,0.2-0.3,0.2c-0.1,0.1-0.1,0.1-0.1,0.2c0,0.1-0.1,0.2-0.2,0.3c-0.2,0-0.4,0.1-0.6,0c-0.1,0.1-0.2,0.1-0.3,0.2
		c-0.1,0.1-0.3,0-0.3-0.1c0-0.1,0-0.2,0-0.2c-0.1,0-0.2-0.1-0.3-0.2c-0.6-0.5-0.7-1.5-0.8-2.4c-1,1-1.1,3.1-1.2,4.8
		c0,0.6-0.1,1.2-0.1,1.7c-0.2,1-0.4,2-0.7,3c-0.1,0.2-0.1,0.4-0.2,0.5c0.2-0.3,0.4-0.6,0.9-0.6c0.5,0,0.8,0.1,1,0.4
		c0.5,0.7-0.1,2.2-0.7,3.7c-0.1,0.3-0.3,0.6-0.3,0.7c-0.4,1.7,0.2,2.7,0.9,4c0.2,0.3,0.4,0.7,0.6,1.1c0.9,1.7,0.7,2.4,0.3,3.9
		l-0.1,0.5c0,0.1-0.1,0.2-0.2,0.2s-0.2,0-0.2-0.1c-0.3-0.3-0.6-0.8-0.8-1.3c-0.4-0.7-0.8-1.5-1.4-1.7c0.7,1.4,1.2,2.7,0.7,4.1
		c0,0.1-0.1,0.2-0.2,0.2c-0.1,0-0.2,0-0.2-0.1c-0.1-0.2-0.2-0.3-0.3-0.4c0.1,0.2,0.2,0.3,0.3,0.5c0.8,1.3,1.6,2.7,1.9,4.2
		c0.4,2.1,1.4,3.8,2.4,5.5c0.8,1.5,1.7,3,2.2,4.7c0.5,1.9,0.8,3.8,1,5.7c0.2,1.5,0.4,3,0.7,4.5c0.3,1.2,0.9,2,1.6,2.8
		c0.4,0.5,0.8,1,1.2,1.6c1.1,1.9,0.6,3.2,0,4.8l-0.1,0.2c-0.2,0.6-0.3,1.4-0.4,2.2c-0.2,1.4-0.4,2.9-1.1,3.6
		c-0.4,0.4-0.8,0.4-1.1,0.5c-0.4,0.1-0.7,0.1-1,0.6c-0.1,0.3-0.1,1.8,0,2.2c0.3,1.5,1.5,2.2,2.7,3c0.4,0.2,0.8,0.5,1.2,0.8l0.2,0.2
		c1.6,1.2,3,2.3,5.1,1.8c0.5-0.1,1-0.3,1.4-0.6c0.6-0.3,1.1-0.6,1.8-0.7c0.5-0.1,0.9-0.1,1.4-0.1c0.5,0,1.1,0,1.6-0.1
		c1.2-0.3,2-1,2.8-1.7c0.5-0.5,1.1-1,1.8-1.4c3.1-1.8,6.6-3.4,10.5-3.6c1.5-0.1,2.9,0.3,4.3,0.6c2.1,0.5,4.1,0.9,6.2,0.1
		c1.4-0.5,1.8-1.4,2.4-2.5c0.2-0.5,0.5-1,0.9-1.5c1-1.4,2.8-3,4.2-3.6c2.3-1.1,5-1.5,7.7-2c1.4-0.2,2.7-0.5,3.9-0.8
		c0.8-0.2,1.7-0.3,2.5-0.3c1.2-0.1,2.4-0.2,3.6-0.8l0.6-0.3c1.4-0.8,2.4-1.3,4.3-1.4c3.9-0.4,7.6,0.2,11.1,1c0.4,0.1,0.7,0.1,1.1,0
		c0.5,0,1,0,1.5,0.1c0.5,0.2,1,0.5,1.5,0.7c0.5,0.3,1,0.6,1.5,0.7c0.5,0.1,1,0.3,1.4,0.4c1.3,0.3,2.6,0.6,3.9,1.9
		c0.9,0.9,1.5,2.1,2.1,3.2c0.4,0.8,0.9,1.7,1.5,2.4c1,1.3,1.7,2.5,2.5,4c0.3,0.5,0.5,1.1,0.7,1.8c0.4,1.3,0.8,2.6,2,2.7
		c1.5,0.2,2.1-0.9,2.8-2.1c0.2-0.4,0.5-0.8,0.8-1.2c0.3-0.4,0.6-0.8,0.9-1.1c1-1.2,1.9-2.3,2.7-3.6l0.3-0.4c1-1.6,2.3-3.8,4.5-3.3
		c0.1,0,0.2,0.1,0.2,0.2c0.1,2-0.7,3.2-1.5,4.4c-0.5,0.7-1,1.5-1.3,2.5c-0.2,0.5-0.2,1-0.3,1.5c-0.1,0.7-0.2,1.3-0.4,1.9
		c-0.3,0.6-0.7,1-1.1,1.4c-0.4,0.4-0.7,0.8-1,1.2c0.2,0,0.3-0.1,0.5-0.1c1.1-0.2,1.8-0.3,2.5-1.4c0.2-0.3,0.3-0.7,0.5-1.2
		c0.3-0.8,0.5-1.7,1.2-2c0.4-0.2,0.8-0.2,1.3,0c1.2,0.4,1.8,3,1.6,4.1c-0.2,0.7-0.6,1.2-1,1.7c-0.6,0.7-1,1.2-0.7,2.4
		c0.1,0,0.2,0,0.3-0.1c0.2,0,0.5-0.1,0.7-0.1c0.9,0,1.4-0.4,1.9-0.7c0.4-0.3,0.8-0.5,1.2-0.4c0.4,0.1,0.8,0.5,1.4,1.4l0.1,0.1
		c1,1.7,2,3.4,2.5,5.3c1,3.8,2,6,4.6,8.9c1.5,1.6,2.7,2,5,2.2c0.4,0,0.9,0,1.4,0.1c0.7,0,1.4,0,2.1,0.1c0.9,0.2,1.5,0.6,2.1,1
		c0.4,0.3,0.8,0.6,1.3,0.8c2,0.8,3.5,0.2,5.4-1.1c1.2-0.8,1.7-1.7,2.3-2.7c0.2-0.4,0.5-0.9,0.9-1.4
		C163.5,163.1,163.6,163.1,163.7,163.1C163.7,163.1,163.7,163.1,163.7,163.1z M5.6,92.1c-0.1,1,0,1.7,0.5,2.4
		C6.4,94.8,6.7,95,7,95.2c-0.1-0.2-0.2-0.5-0.3-0.7C6.4,93.7,6.1,92.8,5.6,92.1z M8.3,83c-0.3,1-0.5,2-0.5,3
		c0.5-0.3,0.5-0.9,0.5-1.9C8.3,83.8,8.3,83.4,8.3,83z M90.9,19.5c1,0,2,0,3,0.1c0.1,0,0.2,0.1,0.2,0.2c0,0.1,0.2,0.4,0.4,0.7
		c0,0,0.1,0.1,0.1,0.1c0.2-0.5,0.8-0.7,1.4-0.9c0.5-0.2,1-0.4,1.1-0.7c0.1-0.2,0-0.5-0.2-0.8c-0.1,0-0.2,0-0.3,0
		c-1.4-0.1-4.7-0.3-5.5,0.7C90.8,18.9,90.8,19.2,90.9,19.5z"/>
	<path d="M123.2,32.4C123.2,32.4,123.2,32.4,123.2,32.4c-0.7,0-1-0.4-1.2-0.6c-0.3-0.5-0.3-1.3,0-2.1c0-0.1,0.1-0.1,0.2-0.2
		c0.3,0,0.7-0.1,1,0c0.1,0,0.2,0.1,0.2,0.2c0,0,0,0,0,0c0.1,0,0.2,0,0.4,0c0.1,0,0.1,0.1,0.2,0.1s0,0.1,0,0.2l-0.1,0.2
		c-0.2,0.5-0.6,1.2-0.5,1.8c0,0.1,0,0.1-0.1,0.2C123.4,32.4,123.3,32.4,123.2,32.4z M122.5,30c-0.2,0.6-0.2,1.1,0,1.5
		c0.1,0.2,0.3,0.3,0.5,0.3c0-0.6,0.3-1.2,0.5-1.6c-0.1,0-0.1,0-0.2,0c-0.1,0-0.2-0.1-0.2-0.2C122.8,30,122.6,30,122.5,30z"/>
	<path d="M136.2,44.6c-0.1,0-0.3,0-0.4,0l-0.1,0c-0.1,0-0.2-0.1-0.2-0.2c-0.2-0.5,0-0.7,0.3-0.9c0.1,0,0.1-0.1,0.2-0.1
		c0.1-0.1,0.2-0.1,0.4,0c0.1,0.1,0.1,0.2,0,0.4c-0.1,0.1-0.2,0.2-0.2,0.2c-0.1,0.1-0.1,0.1-0.1,0.2c0.1,0,0.3,0,0.4,0
		c0,0-0.1-0.1,0-0.2c0-0.1,0.1-0.2,0.3-0.2c0.2,0,0.4,0,0.6,0l0.1,0c0.1,0,0.2,0.1,0.2,0.1c0,0.1,0,0.2-0.1,0.3
		C136.9,44.5,136.6,44.6,136.2,44.6z"/>
	<path d="M125.3,152.9c-0.6,0-1.2,0-1.8-0.1l-0.4,0c-0.1,0-0.2-0.1-0.2-0.2c-0.3-1,0.2-1.9,1.2-2.4c1.2-0.6,2.9-0.5,3.6,0.5
		c0-0.1,0.1-0.1,0.2-0.1c0.6-0.1,1.2,0,1.5,0.1c0.1,0,0.1,0.1,0.2,0.1c0,0.1,0,0.2,0,0.2C128.5,152.6,126.9,152.9,125.3,152.9z
		 M123.3,152.3l0.3,0c1.8,0.1,4.1,0.3,5.3-1.3c-0.3,0-0.7-0.1-0.9,0c-0.1,0-0.2,0-0.2-0.1c0,0,0,0-0.1,0.1c-0.1,0.1-0.3,0.1-0.3-0.1
		c-0.5-0.8-2-0.8-3-0.3C123.9,150.9,123.1,151.4,123.3,152.3z"/>
</g>
</svg>
