<svg xmlns="http://www.w3.org/2000/svg" xmlns:xlink="http://www.w3.org/1999/xlink" version="1.1" x="0px" y="0px" viewBox="0 0 100 100" enable-background="new 0 0 100 100" xml:space="preserve"><g><path stroke="#000000" stroke-linecap="round" stroke-linejoin="round" stroke-miterlimit="10" d="M6.344,42.482   c0.821-0.471,0.851-1.455,1.663-1.904c0.492-0.271,1.231-0.43,1.686-0.754c0.414-0.295,0.48-0.832,0.827-1.117   c1.085-0.893,2.516-0.384,3.739-0.7c0.49-0.126,0.846-0.525,1.361-0.692c0.568-0.183,1.281-0.176,1.379-0.911   c0.67-0.318,1.506,0.149,2.261,0.077c0.861-0.082,1.319-0.521,1.911-1.094c1.006-0.973,1.811-1.728,2.568-2.891   c0.393-0.603,0.475-0.828,0.433-1.637c-0.041-0.797-0.151-1.145,0.476-1.754c0.195-0.19,0.612-0.539,0.887-0.629   c0.633-0.209,0.188-0.395,0.663,0.185c0.36,0.438,0.599,1.363,0.911,1.894c0.312-0.205,0.371-0.6,0.352-0.977   c0.14,0.054,0.498,0.085,0.618,0.152c-0.247-0.342-0.882-0.703-0.997-1.072c-0.18-0.574,0.25-1.072,0.549-1.473   c0.098,0.379,0.329,0.559,0.727,0.651c0.769,0.18,0.637-0.147,0.816-0.663c0.275-0.797-0.037-1.527,0.936-1.781   c0.213,0.286,0.286,0.251,0.604,0.344c-0.146-0.211-0.156-0.457-0.373-0.632c0.846-0.212,1.267-0.435,0.753-1.438   c0.515,0.045,1.214,0.046,1.176-0.626c-0.009,0.348,0.116,0.521,0.363,0.693c0.162-0.244,0.274-0.706,0.462-0.904   c0.072-0.076-0.064-0.24,0.072-0.348c0.23-0.178,0.426,0.273,0.582,0.184c0.246-0.143,0.273-0.496,0.539-0.634   c0.293-0.151,0.474,0.185,0.825-0.173c0.401,0.83,1.441,0.67,2.052,1.43c0.582,0.726,0.235,1.568,0.451,2.414   c0.037-0.638,0.751-1.032,0.918-1.677c0.943,0.104,2.289,0.63,2.988,1.255c-0.405-0.174-0.587-0.738-0.258-1.055   c-0.436-0.434-0.926-0.878-0.795-1.559c0.422-0.249,0.874-0.246,1.143-0.547c-0.155,0.023-0.354-0.036-0.511-0.027   c-0.089-0.64,0.42-0.352,0.629-0.688c0.215-0.344,0.106-0.711,0.29-1.123c0.303-0.682,1.41-0.867,1.445-1.71   c1.258,0.265,0.174-0.954,0.068-1.273c-0.47-0.026-0.957-0.003-1.428-0.027c-0.359-1.216,2.21-0.92,2.883-0.88   c0.686,1.175-1.485,0.662-0.969,1.692c0.387,0.771,1.941,0.136,2.534,0.011c0.419-0.088,0.694,0.16,0.906-0.262   c0.222-0.442-0.142-0.71-0.386-0.889c-0.432-0.318-2.391-0.406-0.892-1.046c0.742-0.316,1.688,0.341,2.281,0.659   c0.702,0.377,0.924,0.764,1.814,0.91c0.845,0.139,1.562,0.428,2.369,0.643c0.389,0.104,0.855,0.121,1.269,0.084   c0.549-0.048,0.636-0.232,0.997-0.363c0.185-0.066,0.323-0.228,0.519-0.276c-0.294,0.272-0.25,0.97,0.381,0.809   c-0.275-1.382,1.561-0.349,1.746,0.278c0.208,0.707-0.481,1.037-0.848,1.363c-0.573,0.514-0.556,0.518-1.416,0.566   c-0.143,0.703,0.453,1.5,0.084,2.174c-0.369,0.672-1.478,0.757-1.191,1.703c0.156,0.516,1.163,1.29,1.548,1.571   c0.188,0.138,0.666,0.396,0.908,0.524c0.26,0.139,0.723,0.355,1.002,0.476c0.768,0.332,1.456,0.507,2.203,1.063   c0.408,0.304,0.354,0.358,0.839,0.551c0.408,0.162,0.787,0.173,1.143,0.39c0.649,0.395,1.028,1.166,1.746,1.432   c0.542,0.201,1.494,0.201,2.059,0.186c0.087-0.656,0.855-1.307,1.107-1.984c0.278-0.749,0.29-1.49,0.565-2.254   c0.517-1.43,0.356-2.803,0.435-4.387c0.096-1.943,0.684-3.953,1.34-5.728c0.429-1.161,0.817-1.462,1.551-0.366   c0.582,0.869,0.405,1.504,0.655,2.436c0.18,0.67,0.562,1.153,0.729,1.896c0.119,0.53,0.196,1.166,0.36,1.669   c0.419,1.279,1.598,1.589,2.696,1.286c0.327,1.129,0.744,2.324,1.239,3.355c0.262,0.545,0.541,0.848,0.616,1.455   c0.048,0.385-0.018,0.733,0.094,1.084c0.131,0.412,0.668,0.742,0.802,1.115c0.186,0.518-0.152,1.196,0.022,1.717   c0.102,0.301,0.672,0.754,0.829,1.084c0.167,0.35,0.176,0.633,0.411,0.93c0.53,0.671,1.487,0.916,2.116,1.526   c0.668,0.647,1.295,0.912,2.074,1.368c1.025,0.598,1.013,0.923,1.362,1.889c0.269,0.741,0.76,1.435,1.038,2.135   c0.213,0.536,0.563,0.98,0.824,1.515c0.958-0.571,1.97,0.155,2.414,1.053c0.499,1.009,0.156,1.79,1.176,2.524   c0.831,0.598,1.398,0.992,1.822,1.912c0.338,0.736,0.683,1.563,1.291,2.174c0.604-0.455,0.381-1.99,1.265-1.914   c0.054,0.984,0.119,2.008-0.238,2.903c-0.314,0.786-0.742,1.446-0.57,2.294c0.16,0.791,0.715,1.686,0.918,2.527   c0.23,0.959,0.146,1.955,0.086,2.979c-0.047,0.793-0.276,1.535-0.388,2.316c-0.133,0.922-0.057,1.764-0.36,2.639   c-0.611,1.77-1.397,3.859-2.531,5.346c-1.121,1.471-1.778,3.057-2.746,4.635c-0.521,0.85-0.585,1.24-0.794,2.186   c-0.196,0.889-0.806,1.779-1.001,2.729c-0.382,1.857-0.436,3.768-2.458,4.658c-1.593,0.699-4.411-0.064-5.729,1.184   c-0.294,0.279-0.563,0.939-0.522,1.344c-0.028-0.951-1.992-2.709-2.825-3.332c-0.545,0.82-0.66,1.354-1.451,1.902   c-0.811,0.563-1.546,0.932-2.552,0.525c-0.535-0.217-0.868-0.684-1.496-0.803c-0.502-0.094-1.084-0.041-1.592-0.088   c-1.072-0.102-1.64-0.268-2.363-1.045c-1.252-1.344-1.668-2.373-2.139-4.098c-0.241-0.883-0.713-1.67-1.162-2.426   c-0.753-1.264-0.818-0.135-1.931-0.096c-0.192,0.008-0.351,0.064-0.53,0.084c-0.366-1.023,0.57-1.215,0.734-1.994   c0.092-0.436-0.177-1.555-0.659-1.715c-0.904-0.299-0.889,0.926-1.226,1.441c-0.453,0.693-0.903,0.617-1.632,0.789   c0.15-0.604,0.751-0.863,0.994-1.4c0.212-0.467,0.166-1.09,0.337-1.568c0.438-1.225,1.333-1.635,1.263-3.063   c-1.028-0.254-1.623,0.922-2.056,1.625c-0.493,0.801-1.053,1.422-1.64,2.158c-0.491,0.615-0.747,1.674-1.749,1.551   c-0.86-0.107-0.887-1.35-1.281-2.098c-0.353-0.666-0.642-1.195-1.104-1.807c-0.606-0.801-0.914-1.844-1.614-2.559   c-0.75-0.766-1.467-0.725-2.368-0.996c-0.494-0.148-0.874-0.496-1.364-0.662c-0.38-0.129-0.789,0.002-1.178-0.08   c-1.623-0.344-3.287-0.611-5.006-0.438c-0.985,0.1-1.387,0.373-2.203,0.797c-0.92,0.477-1.85,0.262-2.801,0.5   c-1.666,0.416-3.672,0.541-5.26,1.268c-0.613,0.281-1.432,1.004-1.86,1.615c-0.544,0.775-0.569,1.469-1.542,1.848   c-1.625,0.635-3.177-0.369-4.801-0.299c-1.726,0.074-3.241,0.787-4.707,1.615c-0.783,0.441-1.16,1.188-2.119,1.408   c-0.443,0.102-0.904,0.002-1.359,0.068c-0.543,0.08-0.937,0.439-1.458,0.551c-1.059,0.225-1.798-0.383-2.54-0.938   c-0.705-0.527-1.609-0.828-1.828-1.797c-0.045-0.195-0.084-0.918,0.002-1.092c0.25-0.512,0.66-0.215,0.982-0.543   c0.497-0.504,0.414-1.887,0.675-2.598c0.292-0.793,0.53-1.357,0.054-2.184c-0.438-0.758-1.041-1.154-1.25-2.045   c-0.359-1.529-0.352-3.094-0.8-4.639c-0.479-1.652-1.733-2.865-2.112-4.635c-0.201-0.938-0.857-1.838-1.258-2.66   c-0.311-0.639-0.537-1.546-1-2.042c-0.041,0.586-0.098,1.049,0.254,1.45c0.429,0.486,0.985,0.58,1.372,1.225   c0.246-0.697-0.087-1.354-0.435-1.985c0.68-0.033,0.94,1.077,1.318,1.429c0.214-0.816,0.369-1.096-0.07-1.92   c-0.45-0.846-0.989-1.324-0.729-2.389c0.074-0.304,1.101-2.119,0.113-2.032c-0.847,0.075,0.081,1.735-0.827,1.906   c-0.045-1.158,0.52-2.204,0.689-3.353c0.135-0.92-0.004-2.672,0.83-3.174c0.02,0.627,0.023,1.496,0.906,1.341   c-0.012-0.209,0.14-0.163,0.198-0.26"></path><path stroke="#000000" stroke-linecap="round" stroke-linejoin="round" stroke-miterlimit="10" d="M56.917,21.834   c-0.137-0.025-0.308-0.004-0.441,0.014c-0.188,0.463-0.129,1.04,0.428,1.068c-0.054-0.36,0.15-0.726,0.272-0.978   c-0.09-0.022-0.169,0.002-0.259-0.013"></path><path stroke="#000000" stroke-linecap="round" stroke-linejoin="round" stroke-miterlimit="10" d="M62.738,28.11   c-0.112,0.126-0.246,0.114-0.168,0.351c0.319,0.021,0.451,0.046,0.682-0.176c-0.106,0.008-0.225,0.02-0.331,0.008"></path><path stroke="#000000" stroke-linecap="round" stroke-linejoin="round" stroke-miterlimit="10" d="M58.827,76.865   c-0.483-0.68-2.3-0.279-1.987,0.785c0.934,0.068,2.204,0.244,2.801-0.748c-0.192-0.043-0.424-0.064-0.632-0.037"></path></g></svg>