<?xml version="1.0" encoding="utf-8"?>
<!-- Generator: Adobe Illustrator 19.2.1, SVG Export Plug-In . SVG Version: 6.00 Build 0)  -->
<svg version="1.1"
	 id="Layer_1" xmlns:cc="http://creativecommons.org/ns#" xmlns:dc="http://purl.org/dc/elements/1.1/" xmlns:inkscape="http://www.inkscape.org/namespaces/inkscape" xmlns:rdf="http://www.w3.org/1999/02/22-rdf-syntax-ns#" xmlns:sodipodi="http://sodipodi.sourceforge.net/DTD/sodipodi-0.dtd" xmlns:svg="http://www.w3.org/2000/svg"
	 xmlns="http://www.w3.org/2000/svg" xmlns:xlink="http://www.w3.org/1999/xlink" x="0px" y="0px" viewBox="0 0 213 213"
	 style="enable-background:new 0 0 213 213;" xml:space="preserve">
<g>
	<path d="M77.4,176.6h-1.5l-0.5-0.4v-0.3l-0.4-0.4v-0.2l-0.3-0.3l0.1-1.6l0.1-0.1l-0.1-0.7l0.4-0.3l0-0.1h-0.3l0-1.2L75,171v-1.1
		l-0.2-0.2l-0.2-0.5v-0.2l-0.6-0.7v-0.6l0.1-0.1l-0.1-0.8h0.8l0.4,0.4h0.8l0.4-0.3l0.3,0v-0.2l0.8-0.9h0.2v-0.3l0.8-0.3l0.3,0.3h0.1
		l0.3,0.3h0.2l0.6,0.6l0,0.5l0,0.1l0.2,0.1l0.2,0.5l0.2,0.2l0.1,0.7l0.1,0.2l0.1,0.4l-0.3,0.3l-0.2,0.6l-0.2,0.2v0.4l0.2,0.4
		l-0.6,4.8l-1.3-0.4L78,175h-0.1l-0.2,0.2l0,0.7l-0.3,0.2V176.6z M76.1,176.1h0.8v-0.2l0.3-0.3l0-0.7l0.5-0.5h0.6l0.4,0.4l0.5,0.2
		l0.5-4.1l-0.2-0.4v-0.8l0.3-0.2l0.3-0.6l0.1-0.1l0,0l-0.2-0.2l-0.1-0.6l-0.2-0.2l-0.2-0.5l-0.3,0.2l0-0.7l0.1-0.3v-0.2l-0.3-0.3
		h-0.2l-0.3-0.3h-0.1l-0.2-0.2l-0.2,0.1v0.4h-0.5l-0.5,0.5v0.2l-0.3,0.3l-0.3,0l-0.3,0.3h-1.2l-0.4-0.3l0.1,0.5l-0.1,0.1v0.2
		l0.6,0.7v0.3l0.1,0.2l0.3,0.2v1.6l-0.1,0.1l0,0.5h0.3l0.1,0.8l-0.4,0.3l0.1,0.6l-0.2,0.2l-0.1,1.2l0.3,0.2v0.2l0.4,0.4v0.3
		L76.1,176.1z"/>
	<path d="M98.5,185.5l-1.5-0.1l-1.5-1.1V184l-0.3-0.1h-1.3l-1.2-0.7h-0.6l-0.4-0.7l-0.3,0l-0.7-0.3l-0.1-0.1h-1.2l-0.8-0.7l0.4-0.3
		v-1.2l0.5-0.4H90l0.4,0.4h0.2l0.1-0.1v-0.3h0.6l0.2-0.2h0.4l0.7,0.5h0.3l0.3,0.3h0.3l0.4-0.3l2.2-0.1l0.6-0.7l1.2,0.1v0l0.4-0.4
		l0.2,0.1l0.2,0l0.1-0.1h0.2l0.5-0.2l0,0.6l0,0.1l-0.2,0.2l0.1,0.2l-0.7,1.3l-0.1,0.4l-0.1,0.3v0.3l-0.3,0.4v0.2l0.1,0.3h0.1
		l0.6,0.6l-0.1,0.1l0.1,0v0.2l0.4,0.3l-0.8,0.9l0.1,0.6L98.5,185.5z M97.2,184.9l1.1,0.1l0,0l-0.1-0.6l0.7-0.8l-0.2-0.1v-0.1
		l-0.4-0.2l0.2-0.2l-0.1-0.1h-0.4v-0.4l-0.1-0.3v-0.4l0.3-0.4l0-0.3l0.1-0.3l0.1-0.4l0.6-1.1L99,179l-0.4,0.1l-0.1,0l0,0v0.4
		l-1.5-0.2l-0.6,0.6l-2.3,0.1l-0.4,0.3H93l-0.3-0.3h-0.2l-0.7-0.5l-0.2,0.2h-0.3v0l-0.4,0.4h-0.6l-0.4-0.4h-0.3l-0.2,0.2v1.2
		l-0.1,0.1l0.2,0.2h1.2l0.3,0.2l0.6,0.2H92l0.4,0.7h0.4l1.2,0.7l1.3,0l0.6,0.2v0.4L97.2,184.9z"/>
	<path d="M78.1,165.2l-0.5-0.2l-0.2-0.2h-0.2l-0.7-0.6v-0.4h-0.3l-0.2-0.6l0.3-0.3v-0.1l-0.6-0.5l0.6-0.2l-0.3-0.3l-0.2-0.5l0.2-0.2
		l-0.3-0.3l0.4-0.4l0.1-0.8l0.6-0.2l0.2-0.2h0.5l0.5-0.4l0.5-0.1l0.1,0.1l0-0.1l0-1.1l0.3-0.4l0.6,0.5l0.1,1.7l0.2,0.2l0,2.5
		l-0.5,0.4l-0.1,1.9L78.1,165.2z M77.9,164.6L77.9,164.6l0.5-0.4l0.1-1.9l0.5-0.4l0-2.1l-0.2-0.2l0-0.7l-0.2,0.5h-0.4l-0.2-0.2
		l-0.1,0l-0.5,0.5H77l-0.2,0.2l-0.3,0l-0.1,0.7l-0.2,0.2l0.3,0.3l-0.3,0.3l0.1,0.2l0.8,0.7l-0.5,0.2l0.2,0.2v0.5l-0.2,0.2h0.5
		l0.1,0.5L77,164l0.3,0.3h0.4L77.9,164.6L77.9,164.6z"/>
	<path d="M13.3,118.6l-0.3-0.4l-0.1,0l-0.9,0.3l-0.6-0.5l0.4-0.5l-0.6,0.1l-0.8-0.2l0.7-1l-0.1,0l-0.3,0.4l-0.3-0.6l-0.7-0.4l0.7-1
		l1.1-0.2l-1.2,0L9.6,114l0.6-0.6l1.1-0.2l0.5,0.4l0.2-0.3l0-0.4l0.7-0.9l0.1,0l-0.2-0.1l0.2-0.7l0.9-1l0-0.2l0.7-0.9l0.5-0.3
		l0.4,0.1l0.1-0.2l-0.1-0.1l-0.7,0.1l-1-0.1l-0.4-0.3l0.1-0.4l-1.6-0.6l0.4-1l0.3-0.3l0.3,0l0-0.6l0.9-0.3l-1.5-1l0.7-0.6l-0.1-0.7
		l0.1-0.6l1.9-0.1l0.3,0.2l0.7,0.1l0.1,0.4l0.1-0.2l0.5-0.2l0.8,0.1l0.2,0.1l0-0.4l0.6-0.5l0.7-0.2l0.1-0.2l-0.1,0l-1.1-0.2
		l-0.3-0.2l-0.1-0.7l0.5-0.3l0.6-0.1l0-0.3l0.3-1l0.8-0.6l0.3-0.1l0.5,0.1l0.9-0.3l0.2,0l0.3-0.1l0.4-0.5l1.4,1.2l0,0.1l1.7-0.4
		l0.9,0.7l0.2,1l0.6,0.6l0,0.3l0.3,0.4l-0.3,0.4l0.3,0l0.4,0.3l0.3,1.8l-0.8,0.9l-0.8,0.2l-0.2,0.6l-0.9,0.3l-0.2-0.1l-0.1,0
		l-0.3,0.3l0.7,1.9l0.1,3.7l-0.6,0.7l-0.6,2l-0.4,0.3l0,0.7l-0.3,0.4l-0.8,0.2l-0.4-0.3l-0.1-0.2l-0.1-0.1l-0.2,0.6l-0.3-0.3
		l-0.2,0.1l-0.6,0.1l-0.4-0.2l-0.4,0.1l0,0l-0.4,0.5l-0.6,0.1l-0.9,0.9l-0.3,0.1l-0.5-0.3l-0.1-0.4l-0.1-0.1l-0.1,0l-0.1,0.2
		l0.2,0.2l0.1,0.6l-0.8,0.2l-0.2,0.3L13.3,118.6z M12.9,117.7l0.4,0.1l0.2,0.3l2.4-0.5l0.2-0.3l0.4-0.1l-0.2-0.2l0.3-0.7l0.6-0.2
		l0.4,0.3l0.1,0.3l0.1,0.1l0,0l0.9-0.9l0.5-0.1l0.1-0.2l-0.1-0.3l1.1-0.2l0.4,0.2l0.4-0.1l0.4-0.3l0,0l0.2-0.5l0.8,0.4l0.2,0.3
		l0.1,0.1l0.4-0.1l0.1-0.2l0-0.7l0.4-0.4l0.7-2l0.5-0.6l-0.1-3.5l-0.8-2.1l0.6-0.6l0.5-0.1l0.1,0.1l0.4-0.1l0.2-0.7l0.9-0.2l0.5-0.6
		l-0.2-1.3l-0.1-0.1l-0.9,0l-0.1-0.6l0.4-0.3l0.1,0l-0.1-0.2l0-0.3l-0.6-0.5l-0.2-0.9l-0.6-0.4l-2,0.4L23,98.9l-0.9-0.7L22,98.4
		l-0.6,0.2l-0.2,0l-1,0.3l-0.6-0.1l-0.2,0l-0.6,0.5l-0.3,0.8l0.1,0.4l-0.3,0.4l-0.8,0.1l-0.1,0.1l0,0.1l0,0l1.1,0.2l0.6,0.3
		l-0.6,0.8l-0.7,0.2l-0.3,0.2l0.1,0.6l-0.3,0.9l-0.4-0.9l-0.2-0.1l-0.5-0.1l-0.2,0.1l-0.4,0.5l-0.5-0.4l0-0.3l-0.5-0.1l-0.2-0.2
		l-1.3,0.1l0,0.1l0.2,0.9l-0.4,0.3l1.7,1.1l-1.5,0.5l0,0.7l-0.6,0l-0.1,0.1l-0.2,0.4l1.5,0.5l-0.1,0.5l0,0l0.8,0.1l0.8-0.1l0.5,0.2
		l0,0.5l-0.5,0.6l-0.5-0.1l-0.2,0.1l-0.5,0.6l0,0.2l-1,1.1l0,0.1l0.3,0.1l0.5,0.7l-1,0.1l-0.5,0.6l0,0.4l-0.4,0.6l0.1,0l-0.2,0.9
		l-1.3,0.2l-0.3,0.4l0.3,0.2l0,0.1l1.3-0.2l0.5,0.3l-0.8,0.7l-0.5,0.1l-0.2,0.2l0,0l0.8-0.1l0.3-0.4l0.6-0.1l0.1,0.5l-0.4,0.5
		l-0.3,0.1l-0.2,0.3L12.9,117.7z M10.5,114.1l1.1,0l-0.4-0.3l-0.8,0.1l-0.1,0.1L10.5,114.1z"/>
	<path d="M26.8,128.1l-0.7-0.6l0.4-0.1l0-0.1l-0.2-0.1l-0.1,0l-0.2,0.3l-1.1,0.1l0.2-0.9l0.6-0.3l0.4,0l0.8-0.5l1.2-1.5l0.4,0l1-1.1
		l-0.1-0.4l0.6-0.9l0.4,0.3l0.2-0.1l0.4-1l1.7-0.2l0.4,0.1l0.4-0.1l0.5,0.4l0.8-0.1l0.1-0.3l1.1-1.2l-0.2,0.1l-0.5,0.1l-0.1,0.2
		l0,0.3l-0.2,0.3l-0.9,0.1l-0.7-0.3l-0.6-0.5l0-0.2l-0.2-0.1l0-0.3l-0.2-0.1l-0.2,0l-0.3,0.4l-0.8,0.1l-0.6-0.4l0.3-0.5l-0.3-0.4
		l-0.1,0.2l-0.4,0.1l-0.1,0.2l-0.9,0.2l-1.3-0.1l0.3-0.4l-0.1-0.1l0-0.4l0.2-0.3l0-0.1l-0.2-0.2l-0.1-0.5l0.4-0.5l0.9-0.1l1.1-0.7
		l0.4,0l0.2-0.3L31,115l0.3-0.3l-0.2-2.5l-0.1-0.1l-0.2,0l-0.2,0.3l-0.8,0.3l-0.8-0.2l1.6-1.5l0.1-0.4l0.8-0.8l3-0.5l0.1,0.1
		l-0.1-0.5l0.5,0.2l-0.3-0.5L35,108l0.1-0.4l-0.3-0.4l0.2-0.6l0.4-0.4l0.1-0.1l0-0.2l0.2-0.2l-0.4-0.3l-0.2,0.3l-0.5,0.1l-0.3-0.6
		l-0.4-0.3l-0.2-1.1l-0.5-0.5l-0.1-0.6l0.6-0.6l0.1-0.2l0-0.2l0.4-0.6l0,0l-0.2,0l-0.1,0l-0.1,0.4l-0.5,0.3l-0.2,0l-0.7,0.4
		l-0.4,0.1l-0.2-0.3l-0.4-0.2l0.1,0.7h-0.7l-1-0.8l-0.3,0l-0.1,0.1l-0.9,0.2l-0.1-1.3l1.3-2.5l0.3-0.2l0-0.2l0-0.2l-0.6-0.9l0-0.3
		l0-0.3l-0.3,0.6l-0.6-0.7l0-0.2l-0.2-0.1l0.1,0.1l0,0.4l-0.5,0.6l0.1,0.4L28,97.3l0,0.3l-0.1,0.5l-0.3,0.4l-1,0.1l0.1-0.8l0.4-0.8
		l0.1-0.4l0.4-0.6v-0.5l-0.1-0.3l0-1l0.2-0.3l0-0.4l0.3-0.5l-1.7,0.2L25.4,93l0.3-0.5l0.2-0.2l0.1-0.2l0-0.2l-0.2-0.3l0-0.4l0.5-0.6
		l0,0l0.4-0.5l0.5,0l0.1-0.1l0-0.9l0.4-0.5l-0.2-0.8l0.2-0.4l0-0.1L27.3,87l0.2-0.6l0.2-0.2l0-0.1l-0.3-0.4l0.2-0.3l-0.1-0.9
		l0.8-0.3l0.2,0.1l0.7-0.1l-0.6-0.5l0.5-0.7l0.3-0.9l0.4-0.1l0.1-0.2l0.3-1.2l0.3-0.4l0.5,0.3l0.4,0.1l0.1,0.1l0.6-0.1l0.4,0.3
		l3.6-0.7l0.4,0.6l-0.2,0.5l0.1,0.3l-0.3,0.7l-1.5,1.6L33.9,84l-0.8,0.7L34,85l-0.5,0.7l0,0.1l-0.1,0.4l0.3-0.1l0.3-0.2l0.8-0.3
		l1.3,0.2l0.3-0.1l1.6,0.1l0.4-0.2l0.5-0.1l1.3,1.4l-0.3,0.4l-0.1,0.3l-0.5,0.7l-0.4,1.5l-0.4,0.5l-0.1,0.6l-1.2,1.6l-0.4,0
		l-0.5,0.2l1,0.1l-0.3,1l-0.3,0.3l-0.5,0.1l-0.6,0.3l-0.1,0.4l0,0l1.5-0.3l3,2.8l0.1,0.7l-0.1,0.5l0.2,0.9l0.4,0.3l0.6,2.3l0.1,0.1
		l1.5,0.5l0.9,0.7l-0.1,0.4l0,0.2l0.3,0.5l0.7,0.7l0.5,3.3l0.5,0.3l0.4,0.6l0.4,1.9l-0.8,0.5l0,0l0.2,0.4v0.3l0.2,0l0.1-0.1l0.2-0.6
		l1.1-0.3l2.6,0.8l1,1l-0.1,0.6l0.2,0.5l-0.6,2.2l-0.8,0.7l-0.4,0.1l0.4,0.1l-0.3,0.7l-0.5,0.1l-0.2,0.2l-0.4-0.1l-0.2,0l0.4,0.3
		l-0.1,0.6l-0.3,0.3l-1.1,0.3l0,0l1.6,0.2l0.1-0.1l0.9,0l0.4,0.3l-0.1,0.7l0.1,0.7l-0.7,0.4l-0.5,0.1l-0.5,0.3l0,0.2l-0.3,0.4
		l-0.4,0l-0.9,0.6l-5,0.2l-0.3-0.2l-1.2-0.3l0.1,0.4l-1.9,0.3l0.1,0.5l-2.6,0.2l-0.7-0.5l-1.3-0.1l-1.1,0.6l-0.1,0.5l0,0.2l-0.1,0.4
		l-0.3,0.4l-0.3,0.2l0,0.4l-0.8-0.1l-0.6-0.5l-0.1-0.2l-0.2,0l-0.1-0.5l-0.1,0.1l-2,0.3l-0.1,0.1l0,0.4l-0.5,0.1l-0.5,0.4l0,0.2
		l-0.3,0.6L26.8,128.1z M26.3,126.7l0.6,0.3l0.1,0.6l0.1-0.2l0-0.3l0.8-0.7l0.2,0l0-0.1l0.3-0.4l2-0.3l0.3-0.4l0.5,0.5l0.1,0.3
		l0.1,0l0.2,0.4l0.4,0.3l0-0.1l0.5-0.3l0.2-0.3l0-0.2l0-0.2l0.2-0.8l1.5-0.8l1.5,0.1l0.6,0.5l1.8-0.1l-0.1-0.4l2-0.3l0-0.1l0.3-0.4
		l1.6,0.4l0.2,0.2l4.7-0.2l0.9-0.6l0.3,0l0-0.1l0-0.3l0.9-0.5l0.5-0.1l0.3-0.2l-0.1-0.5l0.1-0.5l0,0l-0.5,0l-0.1,0.2l-2-0.3
		l-0.3-0.2l-0.2-0.3l0.2-0.3l1.3-0.3l0.1-0.1l0-0.2l-0.1-0.1l-2.1-0.5l1.8-0.1L48,118l0.5-0.1l0.2,0l0.1-0.1l0.3-0.1l-0.8-0.6
		l1.4-0.4l0.5-0.5l0.6-1.9l-0.1-0.4l0.1-0.5l-0.7-0.7l-2.3-0.7l-0.7,0.2l-0.2,0.5l-0.3,0.3l-0.7,0l-0.1-0.4v-0.2l-0.2-0.5l0-0.4
		l0.7-0.5l-0.4-1.5l-0.3-0.4l-0.6-0.4l-0.5-3.3l-0.7-0.6l-0.3-0.7l0-0.3l0-0.1l-0.6-0.5l-1.5-0.5l-0.3-0.2l-0.6-2.3l-0.4-0.3
		l-0.3-1.2l0.1-0.6l-0.1-0.5L37,95.3l-1.3,0.3l-1.5-0.2l0.4-0.6l0.5-0.1l0-0.3l0.9-0.5l0.4,0l0.1-0.1l0.1-0.3l-2-0.2l2-1.1l0.2,0
		l1-1.4l0.1-0.6l0.4-0.6l0.4-1.5l0.5-0.7l0.1-0.4l0.1-0.1l-0.8-0.9l-0.1,0l-0.4,0.2l-1.6-0.1l-0.3,0.1L34.8,86l-0.6,0.3L34,86.5
		l-0.7,0.2l-0.4-0.3l0.2-0.6l0-0.2l0.3-0.4l-2.4-1.1l1.9,0.3l1-0.9l0.4-0.1l1.4-1.4l0.2-0.4l-0.1-0.3l0.2-0.4l0-0.1l-3.5,0.7
		l-0.4-0.3l-0.5,0.1L31,81.1l-0.4-0.2L30.3,82l-0.2,0.4l-0.3,0.1l-0.3,0.8l-0.2,0.3l0.8,0.7l-0.9,0.4l-0.8,0.1l-0.1-0.1l-0.2,0.1
		l0.1,0.7l-0.1,0.2l0.2,0.3l-0.1,0.4l-0.2,0.2l-0.1,0.2l0.2,0.3l0.1,0.3L28,87.9l0.3,0.8l-0.5,0.6l0,0.9l-0.4,0.4l-0.3,0l0,0
		l0.2,0.7h-0.7l-0.2-0.1l-0.1,0.2l0,0.1l0.2,0.3l0,0.4l-0.2,0.5l1.1-0.1l0-0.9l0.4-0.1l1.1-1.3l0.2,2l-0.5,0.3l-0.5,1.1l0,0.4
		l-0.2,0.3l0,0.5l0.4-0.5l0.6,0.4l0.1,0.3l0.2,0.2l0,0.2l1.2-2.6l-0.2,1.7l0,0.1l1,0.7l-0.9,0.1l-0.2,0.3l-0.1,0.3l0,0.2l0.6,0.9
		l0.1,0.4l-0.1,0.4l-0.2,0.2l-0.2,0.1l-1.2,2.2l0,0.5l0.2-0.1l0.1-0.1l0.7,0l0.8,0.6l-0.1-0.9l1.4,0.7l0.1,0.2l0,0L33,101l0.2,0
		l0.2-0.1l0.1-0.4l0.5-0.2l0.5,0.1l0.3,0.5l-0.5,0.7l0,0.2l-0.2,0.5l-0.5,0.5l0,0.1l0.4,0.5l0.2,1l0.4,0.3l0.2,0.3l0.2-0.3l0.6,0.1
		l0.8,0.6l-0.4,0.5l0,0.3l-0.3,0.2l-0.3,0.3l-0.1,0.3l0.3,0.5l-0.1,0.2l-0.1,0.4l-0.3,0.5l0.3,0.5l0.8,0.6l-0.8,0.1l-0.3-0.1
		l0.1,0.3l-0.5,0.2l-0.4-0.3l-2.6,0.4l-0.6,0.6l-0.1,0.3l-0.8,0.8l0.1,0l0.3-0.3l0.6-0.1l0.5,0.3l0.2,2.9l-0.5,0.6l-0.8,0.3
		l-0.2,0.3l-0.5,0.1l-1.1,0.7l-0.8,0.1l-0.1,0.1l0,0.1l0.2,0.2l0.1,0.5l-0.2,0.2l0.3,0.2l-0.1,0.1l0.3,0l0.6-0.2l0.2-0.2l0.4-0.1
		l0.3-0.4l0.4,0.3l0.3,0.5l0.5-0.1l0.1,0.5l0.1-0.1l0.6-0.1l0.5,0.4l0,0.3l0.1,0.1l0,0.2l0.4,0.3l0.5,0.2l0.6-0.1l0-0.3l0.3-0.4
		l0.7-0.1l0.7-0.3l0.3-0.3l2-1.2l-3.3,3.8l-0.1,0.3l-0.2,0.2l-1.2,0.2l-0.5-0.4l-0.2,0l-0.5-0.1l-1.3,0.2l-0.4,0.9l-0.6,0.3
		l-0.2-0.2l-0.2,0.3l0.1,0.5l-1.3,1.4l-0.4,0l-1.2,1.5L26.3,126.7L26.3,126.7z M25.4,127L25.4,127l0.2,0l0.1-0.2l-0.1,0L25.4,127z
		 M27.2,98l0,0.1l0.2,0l0.1-0.2l0.1-0.3l0-0.3L27.2,98z M27.6,96.8l0,0.3L27.6,96.8l0.1-0.1L27.6,96.8z M28,95.4v0.5l0.1-0.2l0-0.2
		L28,95.4z M30,95l-0.1,0.3L30,95L30,95z M28.4,95.1l0.1,0.2L28.4,95.1L28.4,95.1z M27.9,92.1l0,0.6l0.3-0.6l0.3-0.2l0-0.4l-0.4,0.5
		L27.9,92.1z"/>
	<path d="M133.3,192.3l-0.9-1.1l-4.6-0.5l0.2-1.6l0.5,0l0.1-0.9l0.7,0.8l1-0.2l0.6,0.7l1.9-0.1l0.6-0.4l3.7,0.4l-0.1,0.5l0,0
		l0.4-0.4l1.8,0.2l-0.1,0.7l-0.8,0.7h-1.8l-0.7,0.6l-1.6,0.1L133.3,192.3z M128.4,190.3l4.3,0.5l0.7,0.9l0.6-0.4l1.6-0.1l0.7-0.6
		h0.5l-0.4-0.5l0-0.2l-3-0.3l-0.5,0.4l-2.3,0.1l-0.6-0.7l-1,0.2l-0.1-0.2l0,0.2l-0.5,0L128.4,190.3z M137,190.6h1.1l0.5-0.4l-1-0.1
		L137,190.6z"/>
	<path d="M25.8,187.5h-0.6l-0.3-0.3l-0.4,0l-1-0.8l-0.3-1.2l-0.2-0.3l-0.2-0.5v-0.8l-0.1-0.1l-0.7-0.2l-1-1h-1.7l-0.1,0.3l-0.9,0.5
		l-0.2,0.2l-1.5,0l-0.9-0.3l-1.4,0.1l-0.4,0.5l-0.3-1.3l0.7-0.7v-0.3l-0.2-0.6l0.1-2.7l0.2-0.4l-0.2-0.2l-1.2-0.1l0-0.9l-0.7-0.1
		v-0.4l-0.2-0.2l0.2-1.9l0.2-0.2l0-0.4l0.5-0.5l0.2-0.4l0.4-0.4l0.1-1.2l0.6-0.6l0-0.9l0.2-0.7l0-1l0.3-0.3l-0.2-1l-0.2-0.2v-0.9
		l-0.3-0.8V164l-0.2-0.5l0.3-0.3l-0.1-3.6l-0.1-0.2l-0.6-0.4l-0.5-0.6V158l1-1.2l2.6-0.5l0.2-0.1v-1l0.8-0.4l1.7-0.1l1.4,0.9
		l12.6,0.2l0.5,0.5l0.9,0.1L35,156l0.6,0l0.7,0.3l0.3,0.3h2.2l1.3-1.7l-0.1-1l0.4-0.3l0.5-6.4h0.7l-0.3-0.4l-0.6-1.9l0.5-0.9
		l-0.3-0.3l-1.6-0.5l-1.5-2.1l-0.1-1l0.4-0.5l-0.1,0l-1,0.1l-0.3-0.9h-2.2l-0.4-0.7h-0.8l-0.7-0.7h-2.3v-0.6l-0.5-0.3H29v-0.9h0.4
		l0-0.8h-1v-1l1.2-1l2.8-0.1l0.7-0.7l0.4,0.4L34,132h0.8l1.4,1.3l0.3-0.3l0.7-0.3l0.4,0.4l2.3,0l0.1-0.1l-0.2-0.3V132l-0.5-0.5v-1.2
		l-0.5-0.5l-0.2-1.4H41l0.5,1.1l0.4,0.3l3.8,0l0.4-0.4l-0.3-0.3v-0.6l1.6-1.1h0.4l0.9-0.5h1.2l1-1l-0.3-0.3v-1l0.3-0.3l0.1-1.2
		l1.1-0.9l1.8-0.1l0.5-0.3l1.8-0.2l0.2-0.2l0.7-0.1l0.9-0.6h0.2l0.2-0.2h0.5l0.3-0.2l0.1,0l-0.1-0.2v-0.1l-0.1-0.1l0.1-0.4l0.2,0
		l0.3-0.2l0.3,0l0-0.1l0.1,0.1l0,0l0.7,0l0.1,0.1l0.1-0.1l0.1,0l0,0l-0.3-0.3l0,0h-0.4v-0.5l0.3-0.2h0.1l0.2,0l0-0.4l0.2-0.2l0.2,0
		v-0.1l0.8-0.8l0.6-1.2l0.6-2.2l0.3-0.1l0.6,0.1l0,0l0.1-0.1l0.6,0.3l-0.1,0.2l0.1,0.2l0,0.2l0.2,0l0.3,0.3v0.3l-0.2,0.3l-0.2,0.2
		H65l-0.1,0.1l-0.1,0v0.1l0.1,0.1v0.2l0.2,0.1l-0.3,0.4l0,0l0,0l0,0l0.2,0.1h0.3l0.1,0.1h0.1l0.1,0.1l0.2-0.1l0-0.1l0.1-0.1l0.3-0.2
		l0.1,0l0.1-0.1l0.1-0.1l0.1-0.2l-0.1-0.2l-0.4,0l-0.3-0.5l0-0.5l-0.1,0l-0.1,0l0,0l-0.3,0l-0.4-0.4l0.3-0.3l0-0.1l-0.1-0.6l0.1-0.2
		l0.1-0.4l0.7-0.6l1.2-0.4h0.4v0h0.6l0,0l0.2-0.1l0.6-0.1l0.2-0.1l0.3,0l0.2,0H70l0,0.1l0.3,0.2l-0.2,0.2l0,0.1l0.1,0l0.2,0.1
		l-0.1-0.4l0.3-0.3v-0.3l0.5-0.4l2.4-0.2l0.3,0.2l0.1,0.4v-0.2h0.6l0.2,0.2l-0.1-0.9l0.3-0.2v-0.3l0.8,0.1l0.2,0.1l-0.1-0.2v-0.6
		h0.2l-0.4-0.3v-0.5h-0.6l0.5-1.1h0.4l0.2-0.2v-0.2l-0.1-0.2l-0.2-0.4l-0.5-0.4v-0.8l-0.1-0.1l0.1-1.2l-0.1-0.3l-0.1-0.9h-0.1
		l-0.1-0.1l-0.1,0l-0.3-0.2l-0.2,0.3l-0.6-0.6h-0.1l-0.4-0.3l0.2-0.2l0-0.3l0.2-0.2l0-1.5l0,0l-0.2-0.1l0-0.9l0-0.3l0.1,0l0-1.1l0,0
		l0.1-1.3l0.1-0.1l0.1-0.3l0.2-0.3l0-0.5l0-0.1l0-0.3l0.1,0.1l1-1.5l0.3-0.3l0.2,0.1l0.5-0.1l0-0.1l0.3-0.1l-0.2-1.1l0.6,1l0.5,0.1
		l0.6-0.2l0.4-0.3l1.3-2.2l0.9-0.1l0.1-0.1l0.2-0.1l0.6-0.6l0.6-0.2l0.2,0.4l-0.6,0.6l0,0.2l0,0.3l0.5,0.4l-0.1,0.2l0.1,1.3
		l-0.3,0.2l-0.4,1.1l-0.1,0L81,94.6l0.2,0.2l0.1,0.4l-0.1,0.1l0,0l0.1,0.3l0,0l0,0l0,0.1l0.3,0.2l0.2,0l0.1-0.1l0.8-0.1l0.3,0.2
		l0.1,0.1l0.5,0.4L83.2,97l0,0.4L83,97.5l-0.3,0.5l0,0.1l0,0.2l-0.1,0.3l-0.2,0.1h-0.2L82,98.4l-0.1,0.1l-0.1,0l-0.2,0l-0.1,0.1
		h-0.3L81,98.4l0.1,0.3l0,0l0,0.1l0.1,0.2L81.2,99l0,0.1l0,0.1l0,0.2l0,0.2L81,100l0.1,0.1l-0.2,0.2v0.3l-0.5-0.1l0,0.1l0.1,0.1
		l-0.1,0.3l-0.1,0.1l0,0.1l-0.6,0.2l0,0l0,0.1v0.1l-0.1,0.1l0,0l1.1-0.5l0,0L81,101l0.5,0.2h0.1l0.2,0.2l0.1,0.1l0.1-0.1l0-0.1
		l0.2-0.4l0.4,0.7h0.3l-0.3,0.2v0l0.2,0.2l-0.2,0.3l0.3,0.4l0.3,0.7h-0.2l0,0.7l-0.1,0.5l-0.2,0.2l-0.5,0l-0.2,0.2l-0.4,0l-0.2,0
		h-0.1l-0.1-0.1h-0.2l-0.1-0.1l-0.4,0h-0.2l0-0.1l-0.2,0l-0.3-0.1l-0.2,0v0l0,0l0.6,0.5l0.2,0.6l-0.1,0.2l0,0h-0.1l-0.1,0.1
		l-0.6,0.2l-0.2-0.2l0,0l-0.3,0.4l-0.1-0.1l0.2,1h0.7l0.1,0.2l0.5,0l0.7,0.3l0.2,0.2l0.4,0l0.6-0.5l0.3,0.8l0,0.4l-0.2,0.4l-0.5,0.5
		l0,0l0.2-0.2l0.9,0l0.2,0.2v-0.3h0.4V109l0.4-0.3h0.5l0.5-0.2h0.3l0.5-0.4L86,108l0.9-0.8l0.5,0.3l0.2-0.2l0.6-0.1l0.3,0.1l0.8-1
		l1.7-0.3l1.1,1.1h0.8l0.4,0.4h1.3l0.6,0.7l0.3,0.6l0.2,0.2h0.1l0.8-0.8h0.5l0.3-0.2l1.2-0.5l0.3-0.2l2.8-0.6l0.2-0.3h0.5l0.3-0.2
		l5.3-2.2l2.7,0l0.4,0.5v0.4l0.2,0.5l0.4,0.4l0.5,0.2l2.5,0.1l1.1-1.1h0.5l0.3-0.1l-0.3-1l0.2-0.6l2.4-0.1l0.5-0.2l0.1-0.2l0-0.9
		l0.6-0.6l0.4-0.1l0-0.2l-0.2-0.2l0.1-0.4l-0.1-0.6l-0.2-0.2l-0.6-4.7l0.3-1l1-1l0.2-0.5v-0.8l1.2-1.8l0.8-0.1l0.3-0.3l0.5-0.1
		l0.5-0.2h0.3l0.3-0.3l3.6,3.8l1,0.1l1.5-0.9l0.5-0.7l0-0.7l-0.3-0.6l0.1-1.5h0.1v-0.5l0.6-0.8v-0.2l-0.3-0.4l-1,0.5l-0.3-0.3
		l-0.6,0l-0.6-0.2l-0.6-1l-0.1-2.1l0.1-0.1l-0.2-0.2v-0.8l0.4-0.3l2.1-0.8l0.2-0.4l0.7-0.2h1.1l0.3-0.3h2.1l0.5-0.7l0.5,0.3h0.3
		l0.4-0.2l2.1,0.2l0.2,0.1l1.1,0.1l0.9,0.4l2.2,0.1l0.7-0.3l0.3-0.3l0.7,0.8l0.2,0.9h-0.8l-0.5,0.4l0.1,0.5l-0.4,0.4l-0.2,0.4
		l-0.5,0.4h-0.2l-0.2,0.2v0.3l0.3,0.6l-0.2,2.4l0.8,0.8l-0.1,0.9l-0.8,0.8l0,0.7l1.2,1.2l-0.1,2l-0.3,0.3l0.2,0l0.3,0.3l0.1,0.5
		l0.6,0.7l0.1,0.4l0.3,0.3l0.1,0.4l0,1.2l0.5,0.3h1l0.4,0.4l1.8-0.2l0.3,0.5l0.1,0.9l0.8-0.1l0.4-0.3l2.3,0l1.1,0.7l0.7,0.9l0,1.3
		l0.7,0.7l-0.7,1l0.1,0.7l0.9,0.8l0.1,0.6l1,1.4l0.8,0.4h0.6l0.1,0.8l-0.2,0.6l0,0.1l1.2,0.1l0.7,0.3l1,1.7v0.5l-0.8,0.8l-0.7,0.3
		l-2.8-0.1l-0.2,0.4l0.6,1l0.2,1.6l0.4,0.9l0,0.6l0.2,0l0.4,0.2l0.9-0.2l0.8-1.1l0.9,0.3l0.1,0.1h0.4l0.7-0.5l2.9,0.2l0.7,0.7
		l0.2,0.5l0.9,1.1l-0.2,0.6l-0.4,0.4l0.2,0.6l0.3,0.3l0,0.4l0.1,0.2l2.3,0.2l0.9,0.7l0.6,1.4l0.1,1.1l0.1,0.2l0.7,0.3l0.7-0.2
		l0.4,0.1l0.5,0.5l0.6,0.2l2.8-0.4l0.5-0.4l2.5,2.3l1.5-0.3l1.9,0.9l0.6-0.3l2.2,1.4l0.9,0.2l0.3,0.8l0,0.9l-0.3,0.7l-0.5,0.4
		l0.2,0.6l-0.5,1l0,0.3l0.3,0.3l0.3,2.1l-0.4,0.4l-0.1,0.6l-3.3,0.1l-0.9,0.8l-0.7,0.3l-0.4,0.5l-0.1,1.5l-5.2,1.9l-1.1-0.1
		l-0.3,0.3l-2.1,0.3l-1,1l-1.2,0.2l-0.6,0.7l-0.5,0.2v0.3l1.6,2.5l0.4,0.1l0.7-0.3l1.4,0l0.6-0.3l1.5,0.5v0.7l-0.6,0.9h-0.6
		l-0.8,0.5l-1.2,0l-0.5-0.3l-0.6-0.1l-0.1,0.2l-1.4,0.8l-1.4,0.1l-0.3,0.5l-1.9,1.3h-1.4l-0.3-0.5l-1-0.4l0.7-0.7l0.1-1.3l-0.2-0.2
		l-2.5-1.2h-1.2l3.9-2.5h0.5l0.1-0.1l-0.1-0.2l-6.7-1l0.6-0.6l0.1-0.5l0.3-0.3h1.5l0.1-0.2l-0.3,0.1l-1.1,0l-0.3-0.6l0-0.6l-0.6,1.2
		l-0.8,0l-0.5-0.2l-1.8,0.3l-0.4,0.4l-0.8,1.5h-0.3l-1,1.3l-0.6,0.1l-1.1,0.7h-0.1v0.6l0.3,0.9l-0.2,0.4l-0.3,0.3l0.1,0.7l-0.6,0.7
		l-2,0.2l-0.2,0.2l0.1,0.3l-0.1,0.5l-0.7,0.7l-0.6,4.2l-0.5,0.3l-0.6-0.1l-2,3.8l0.1,0.4l0.6,0.7l0.4,0.9l-0.5,0.5l-2.2-0.2
		l-0.2-0.2H141l-1.9,0.7l-0.3,0.3l0.7,1.5l-0.4,0.7l-0.5,0.2l-0.4,1.4l-1,1.2v-0.7h-0.5l-0.4-0.3h-0.8l-0.6,0.2l-0.7-0.5l0,0h-0.7
		l-0.1,0.1h-1.4l-0.6,0.6l-1.8-0.1l0,0.4l1.4,1.4v0.6l-0.6,0.4l-0.9-0.9l0.1,0.2l0.8,0.8l-0.5,0.5h-0.6l-0.6-0.6v0.5l-0.4,0.5
		l-0.8-1v-0.3l-0.2-0.3h-0.3l-0.5-0.5l-0.4-0.9l-0.3,0.2h-0.2l-0.1,0.1l-0.1,0.6l-0.4,0.4l2.5,3.8l0.1,0.6l-0.8-0.2l-0.3-0.3
		l-0.1-0.1l-0.4-0.4l-0.3,0.2l0.4,0.4l0.1,0.3l0.3,0.4l-0.2,0.6l-0.4,0.1l-0.1,0l0.5,0.2l0.2,0.3l0.1,0l0.1,0l0.5,0.1l0.2,0.3l0,0.2
		l1.5,1.2l0.6,0.1l0.3,0.5l0,0.3l-0.1,0.2l0.3,1.4l-0.1,0.3l-0.4,0.4l-0.4-0.2l-0.5-0.7l-0.2-0.1l-0.4-0.5l-0.9-0.2l-0.7,0.2l0,0
		l0.4,1.1l0.2,0l0.4-0.2l0.1,0.4l0.5,0.5l-0.2,0.4l-0.3,0.2l-0.5,0l0,0l-0.2,0.1l-0.7,0.3l-0.2-0.5l0.1-0.3l-0.2-0.2l-0.4-0.1
		l-0.4-0.3l0,0l1.1,3.1l-0.2,0.6l0.5,1.1l-0.5,0.4l-0.3-0.2l-0.2-0.3l-0.3-0.2l-0.1-0.2l-0.1-0.1l-0.1,0l-0.3-0.4l0-0.3l-0.3-0.1
		l-0.4,0.7l0,0.2l-0.2,0.7l-0.6-0.3l-0.3-0.4l0.2-0.6l-0.8-1.2l0-0.2l-0.1,0l-0.2,0.1l0,0.1l0.1,0.5l-0.2,0.4l-1.3-0.1l0.1-0.5
		l-0.1-0.2l0.1-0.3l0,0l-0.2-0.2l-0.2-0.4l0-0.3l0.1-0.4l0.4-0.3l0.1-0.3l-0.5-0.9l-0.5-0.4l0-0.2l-0.8-0.7l0.2-0.6l0.6-0.1l0.1-0.1
		l0-0.3l0.2-0.1l0.3-0.6l0.5,0.3l0.4,0l0.1-0.1l0.1,0l0-0.1l-0.1,0l-0.3,0.2l-0.6-0.1l-0.2-0.3l-0.2,0.1l-0.4-0.1l-0.3-0.3l-0.2-0.4
		l0-0.2l-0.3-0.8L118,175l-0.4-1.1l-1.1-0.9l-0.3-0.9l-0.3-0.3l-0.1-0.4l-2.4-2.1l0-2l0.3-0.9l0-1.4l0.2-0.5v-0.8l-2.9-3l-0.1-0.3
		l-5.2-3.5l-2.4-0.5l-0.3,0.1l-0.2,0.3l-0.7-0.4l-0.2-0.3l0-0.5l-1.8-1.1l-0.1-0.3l-0.8-0.7l0-0.6l-1.2-1.5l-0.2-1.5l-0.1-0.2
		l-0.1-0.2l-0.8-0.6l-0.1-0.2l-0.5-0.2l-0.1,0l0,0.5l-0.5,1l-0.1,0.1l-0.1,0.2l0,0.2l-0.1,0.3l-0.6,0.5l-1.5-2.1l0-0.6l-0.2-0.4
		l0-0.2l0-0.1l-0.4-0.3l-0.2-0.4h-0.2l-0.1-0.3l-0.1,0l-0.3-0.1L91,147l0.2,0.5h-0.6l-0.6,0.3l-0.4,0.1l-0.4-0.1l-0.5,0.5l0.3,0.2
		l0.3,0.8l0.5,0.5v1l-0.6,0.6v1.2l2,2.1l0.4,0l1,0.6l1.9,2.6l0.3,2.4l0.8,0.8l1.8,0.7l0.7,0.7l4.1,0.2l0.7,1l-0.7,0.7l-0.3,0.6
		l3,1.3h0.1l5.7,3.5l0.1,0.7l-0.3,1.1h-1.9v-0.9L108,170l-1.5,0.2l-0.6-0.6h-0.3l-1.3,1.4v0.6l1.8,1.8l0.3,1.9l-1.7,0.6l-0.5,0.5v1
		l-1.8,2.3l-2.2-0.4v-0.9l0.7-0.7l0.3-0.6v-1h0.7l0.2-0.6l0.3-0.3l-0.5-0.5v-1.5l-1.1-0.3v-1.3l-0.3-0.3l-0.5,0l-1.1-0.6l-1.8-2.3
		h-1l-2.6-2.5h-1.6l-0.6-0.6l-0.8,0l-0.1-0.1l-6.8-5.7l-0.1-0.4l-0.9-0.9v-0.9l-0.7-0.9l-0.5-2.1l-2.2-1.2h-1.1l-1-0.7h-1.2l-1,1
		v0.5l-1,0.8l-0.3,0.7l-1.8,0.6l-0.2,0.2l-0.6,0l-0.2,0.2l-0.5,0l-0.1,0.1v0.2l-0.5,0.2l-0.2,0.2l-0.2,0l-0.1,0.2l-0.9,0.5l-0.2,0.2
		l-0.2,0.7L66,159l-0.3,0.2l-0.2-0.1L65,159l-0.2,0.1l-0.9-0.3l0-0.1l-0.2,0l-1.1-0.4l0.1-0.2l-0.1-0.1l-1.1-0.2v-0.3l-0.7,0.1
		l-0.1,0.1h-0.4l-0.3-0.3l-0.3-0.1l-0.1-0.1l-0.4,0l-0.1,0l-0.9,0l0-0.3l-0.1-0.1v-0.1l-0.1,0l-1.9,1.2l-0.6,0l-0.4,0.2l-0.6,0.6
		l-0.2,0.9l0.1,0.2l0,0.9l0.1,0.1v1.8l-0.2,0.2v0.4l-0.3,0.3l0,0.9l-0.2,0.4l-0.6,0.6h-0.5l-0.9,0.8h-0.4l-0.2,0.2h-0.5l-1.6,0.6
		l-0.4,0.4l-0.3,0.2v0.4l0.4,0.4l-1.3,0.7l-2.6,3.2l-0.2,2l0.1,0.2l1.5,1.9l-1.3,0.9h-0.3l-1.3,1.4l-0.5,1.7l-0.6,0.6v0.3l-0.7,0.2
		h-1.2l-1.4,1l-0.3,1.2l-1.1,1.1l-1.2-0.3l-0.6,0.6l-0.7-0.2h-1l-0.2-0.2l-1.7,0.1l-0.5,0.2h-1.7l-0.2,0.2h-0.2l-0.5,0.7l-1.5,0
		l-0.6,0.4v0.4l-0.7,0.7L25.8,187.5z M25.4,187h0.3l0.4-0.2l0.5-0.5v-0.5l0.9-0.6l1.4,0l0.5-0.7h0.2l0.2-0.2h1.9l0.4-0.2l1.9-0.1
		l0.3,0.2l0.9,0l0.5,0.2l0.6-0.6l0.4,0l0.8,0.3l0.8-0.8l0.3-1.3l1.7-1.2h1.3l0.3-0.1v-0.2l0.7-0.7l0.5-1.6l1.4-1.6h0.3l0.7-0.5
		l-1.2-1.6l-0.1-0.4l0.3-2.3l2.8-3.4l0.8-0.4l-0.1-0.1v-0.9l0.6-0.3l0.4-0.4l1.8-0.6H51l0.2-0.2h0.4l0.9-0.8h0.5l0.4-0.4l0.1-0.2
		l0-0.9l0.3-0.3v-0.4l0.2-0.2l0-1.3l-0.1-0.1l0-1.1l-0.1-0.3l0.3-1.2l0.8-0.8l0.5-0.3l0.5,0l1.9-1.2l0.7,0.1v0.4l0.1,0.1l0.6,0
		l0.1,0.1l0.5,0l0.2,0.2l0.3,0.1l0.2,0.2l0.1-0.1l0.9-0.1l0.1-0.2l0.2-0.2H62l0.6,0.4v0.3l-0.1,0.1l0.5,0.1l0.2,0.2v0.1l0.1,0.2
		l0.1,0l0.5,0.2h0.4l0.1,0.2l0.5,0.2l0.1,0l0.8,0.1l0.1-0.1l1.5-0.2l0.2-0.5l0.3-0.4l0.8-0.5l0.1-0.2l0.2-0.1l0.2,0l0.1-0.1l0.3-0.1
		v-0.1l0.4-0.4l0.5,0l0.3-0.3l0.6,0l0.2-0.1L73,155l0.3-0.7l0.9-0.7v-0.5l1.3-1.3h1.6l1,0.7l1.2,0l2.5,1.3l0.5,2.3l0.7,0.9v0.9
		l0.9,0.9l0.1,0.3l6.6,5.5l0.8,0l0.6,0.6h1.6l2.6,2.5h1l1.9,2.5l0.9,0.4h0.5l0.7,0.5v1.2l1.1,0.3v1.6l0.7,0.7l-0.6,0.6l-0.3,0.8
		h-0.5l0,0.7l-0.4,0.8l-0.6,0.6v0.2l1.5,0.3l1.6-1.9v-1l0.8-0.8l1.4-0.5l-0.2-1.3l-1.8-1.9v-1.1l1.6-1.6h0.7l0.6,0.6l1.5-0.2
		l0.8,0.9v0.6h1l0.2-0.7l-0.1-0.4l-5.3-3.3l-0.2,0l-3.5-1.6l0.6-1.1l0.5-0.5l-0.3-0.4l-4.1-0.2L97,162l-1.8-0.7l-0.9-0.9l-0.3-2.4
		l-1.8-2.4l-0.9-0.4h-0.5l-2.2-2.4V151l0.6-0.6v-0.6l-0.4-0.5l-0.3-0.7l-0.7-0.5l1.1-1.1l0.6,0.2l0.3,0l0.5-0.3l-0.1-0.1l0.4-0.3
		l1.1-0.2l0.3,0.1l0.4-0.1l0.1,0.4h0.1l0.3,0.6l0.6,0.4l-0.1,0.4l0,0l0.3,0.4l0,0.6l1.1,1.5l0.1-0.1l0-0.1l0-0.2l0.3-0.4l0.4-0.8
		v-0.6l0.6-0.2l0.2,0l0.7,0.3l0.2,0.3l0.8,0.6l0.1,0.3l0.2,0.2l0.2,1.5l1.2,1.5l0,0.6l0.7,0.7l0.1,0.2l1.9,1.1l0,0.6l0.1,0.1
		l0.2,0.1l0.1-0.1l0.5-0.2l2.7,0.6l5.4,3.6l0.2,0.4l2.9,3l0,1.1l-0.2,0.5l0,1.4l-0.3,0.9v1.7l2.3,2.1l0.1,0.5l0.3,0.3l0.3,0.8
		l0.9,0.8l0.4,0l1.1,0.3l0.3,0.4l-0.2,0.6l-1.1-0.3l0.1,0.2l0.4,0.4l0.4,0.9l0,0.2l0.1,0.2l0.2,0.2l0.1-0.1l0.1-0.5l0.6,0.8l0.2,0
		l0.3-0.2l0.5,0.1l0.3-0.1l0.1,0l0.1-0.1l0.7-0.1l2.4,0.7l1.8,1.2l-0.1,0.5l-0.6,0.2l-0.3-0.1l0,0l-0.1,0.2l1.2-0.4l1.2,0.2l0.5,0.6
		l0.2,0.1l0.5,0.6l0,0l0-0.1l-0.3-1.6l0.2-0.2l-0.1-0.1l-0.5-0.1l-1.8-1.4l-0.1-0.3l-0.1-0.1l-0.2,0l-0.1,0l-0.5-0.1l-0.2-0.3
		l-1.4-0.6l-0.3-0.4l0.2-0.5l1.4,0.3l0,0l0.1-0.2l-0.2-0.4l0-0.2l-0.5-0.5l0.1-0.5l0.4-0.3l0.1-0.2l0.5,0.2l0.3,0.2l-2.3-3.4
		l0.5-0.5l0.1-0.6l0.3-0.4h0.2l0.7-0.5l0.6,1.5l0.2,0.2h0.3l0.4,0.6v0.2l0.3,0.3v-0.1l-0.2-0.2V170l0.4-0.4l1.1,1.1h0.2l-0.6-0.6
		l-0.2-0.6l0.6-0.6l1,1l0.1,0v-0.1l-1.4-1.4l0.1-1.1l2.1,0.1l0.6-0.6h1.4l0.1-0.1h0.7l0.2-0.2l0.8,0.6l0.5-0.1h1l0.4,0.3h0.8
		l0.2-0.2l0.3-1.4l0.6-0.3l0.2-0.3l-0.8-1.6l0.7-0.6l2.1-0.7h0.5l0.3,0.3l1.8,0.2l0,0l-0.3-0.6l-0.7-0.7l-0.2-0.7l2.3-4.4l0.8,0.2
		l0.1-0.1l0.6-4.1l0.7-0.7l0.1-0.3l-0.1-0.5l0.4-0.4v-0.7l1,0.1l-0.1,0.4l1.2-0.1l0.3-0.4l-0.1-0.7l0.4-0.4l0-0.1l-0.3-0.8v-1.1h0.5
		l1.1-0.6l0.4-0.1l1-1.3h0.3l0.7-1.3l0.6-0.6l2.1-0.4l0.6,0.2h0.3l0.4-0.9l0.1-0.6L157,140l0.7-2.5v2.2l0.8,0.7l0.1,1.7l0.1,0.2
		l0.7,0l0.5-0.2h1l-1,1.3h-1.5l-0.1,0.1l-0.1,0.5l6,0.9l0.4,0.7l-0.5,0.5h-0.6l-2.5,1.6l2.5,1.3l0.3,0.4l-0.2,1.7l-0.3,0.3l0.4,0.2
		l0.3,0.4h1l1.7-1.2l0.4-0.6l1.6-0.1l1.1-0.6l0.2-0.4l1.1,0.2l0.5,0.3h0.9l0.8-0.5h0.5l0.3-0.5V148l-1-0.3l-0.6,0.2l-1.4,0l-0.7,0.3
		l-0.8-0.2l-1.8-2.8v-0.8l0.7-0.4l0.6-0.8l1.3-0.2l1-1.1l2.1-0.3l0.3-0.3l1.2,0.1l4.8-1.8l0.1-1.3l0.6-0.7l0.7-0.3l0.9-0.8l3.1-0.1
		l0.1-0.4l0.3-0.4l-0.2-1.7l-0.3-0.3l0-0.6l0.4-0.9l-0.3-0.8l0.7-0.5l0.2-0.5l0-0.6l-0.2-0.5l-0.8-0.2l-2-1.3l-0.6,0.3l-1.9-1
		l-1.5,0.3l-2.3-2.2l-0.2,0.2l-3.1,0.5l-0.9-0.3l-0.5-0.4l-0.1,0l-0.8,0.2l-1-0.5l-0.3-0.5l-0.1-1.1l-0.5-1.2l-0.7-0.5l-2.5-0.3
		l-0.2-0.6l0-0.3l-0.2-0.3l-0.3-0.9l0.6-0.6l0.1-0.2l-0.8-1l-0.2-0.5l-0.5-0.5l-2.5-0.2l-0.7,0.5h-0.8l-0.2-0.2l-0.5-0.1l-0.6,0.9
		l-1.2,0.3l-0.5-0.2h-0.8l0.3-0.7v-0.4l-0.4-0.9l-0.2-1.6l-0.7-1.1l0.4-0.9l3,0.1l0.5-0.2l0.5-0.5v-0.2l-0.8-1.4l-0.5-0.3l-1.4-0.1
		l-0.2-0.6l0.3-0.6l0-0.2l-0.3,0l-1-0.5l-1.1-1.7l-0.1-0.5l-0.9-0.8l-0.2-1.1l0.6-0.8l-0.5-0.5l0-1.3l-0.6-0.8l-0.8-0.5l-2,0
		l-0.4,0.3l-1.2,0.2l-0.3-0.3l-0.2-1l-0.1-0.1l-1.7,0.2l-0.5-0.5h-0.9l-0.8-0.6l0-1.4l-0.1-0.3l-0.3-0.3l-0.1-0.4l-0.6-0.7l-0.1-0.5
		l-0.6,0v-0.7l0.4-0.4l0.1-1.6l-1-1l-1.2,0l0-0.5l1,0l0-0.8l0.9-0.8l0-0.5l-0.8-0.8l0.2-2.5l-0.3-0.6v-0.5l0.4-0.6h0.3L143,83
		l0.2-0.4l0.2-0.2l-0.2-0.5l0.8-0.7h0.4l0-0.2l-0.3-0.3l-0.1,0l-0.8,0.4l-2.4-0.1l-0.9-0.4l-1.1-0.1l-0.2-0.1l-1.8-0.2l-0.5,0.2
		h-0.5l-0.2-0.1l-0.4,0.5h-2.1l-0.3,0.3h-1.2l-0.4,0.1l-0.2,0.4l-2.3,0.8l-0.1,0.1V83l0.5,0.5l-0.3,0.3l0.1,1.8l0.4,0.7l0.4,0.1h0.6
		l0.2,0.2l1.1-0.6l0.7,0.9v0.5l-0.6,0.8v0.3l2.1,0.5h-2.2l0,0.9l0.3,0.6l0,1l-0.7,0.9l-1.7,1l-1.4-0.1l-3.4-3.6l0,0h-0.5l-0.5,0.2
		l-0.4,0l-0.3,0.3l-0.8,0.1l-1,1.5l0,0.8l-0.3,0.6l-1,1l-0.2,0.7l0.5,4.4l0.2,0.2l0.2,0.9l-0.1,0.3l0.1,0.1l0.1,0.8l-0.7,0.1
		l-0.3,0.3l0,0.7l-0.2,0.5l-0.8,0.4l-2.1,0l0,0.1l0.4,1.3l-0.9,0.3h-0.4l-1.2,1.2l-2.8-0.2l-0.6-0.3l-0.6-0.6l-0.3-0.7v-0.3
		l-0.2-0.2l-2.3,0l-5.2,2.2l-0.3,0.3h-0.4l-0.2,0.2l-2.8,0.6l-0.3,0.2l-1.2,0.5l-0.3,0.3h-0.5l-0.8,0.8h-0.5l-0.4-0.5l-0.3-0.6
		l-0.4-0.4H93l-0.4-0.4h-0.9l-1-1l-1.2,0.2l-0.9,1.1l-0.4-0.2l-0.3,0.1l-0.4,0.3l-0.5-0.3l-0.2,0.2l-0.3,0.5l-0.7,0.5h-0.4l-0.5,0.2
		h-0.4l-0.1,0.1v0.4H84v0.4h-0.6l-0.2-0.2l-0.5,0l-0.5,0.4l-0.7-0.8l0.8-0.8l0.1-0.2l0-0.3l-0.2,0.2l-0.7,0l-0.3-0.3l-0.6-0.2h-0.2
		l-0.3,0.2l-0.3-0.4H79l-0.2-1.3l-0.1-0.1l-0.1-0.3l-0.1-0.3l0-0.3l0.2-0.2l0.1,0l-0.2-0.1l-1.1,0l0.6-0.6h-0.1v-0.2l-0.3,0l0.8-0.7
		l0.2,0.1l0,0h-0.1l-0.3-0.3l0.1-0.2l-0.1-0.7h-0.3v-0.5l0.2-0.1l0.3-0.2l0.1,0.1l0.1-0.1l0.1,0.1l0-0.1l0,0l-0.1-0.2l-0.2-0.1h-0.3
		l-0.2-0.6l0.7,0l0.5,0.2l0.3-0.1l0,0l0,0l0,0l0,0l0.1-0.2l-0.1,0l-0.2-0.1h-0.2v-0.6l0.4,0l0.2-0.2l0.6,0l0.1-0.1l0-0.1l-0.1-0.2
		L80,99.4l0.7-0.6l-0.1-0.4l0.1-0.4l0.3-0.3l0.1-0.3l0.3-0.1l0.5,0.1v0.3l0,0l0.4,0l0,0l0.4-0.6l0-0.3l0.1-0.2l-0.2-0.1l-0.1-0.1
		l-0.4,0.1L82,96.5l-0.5,0l-0.4-0.2H81l0-0.1l-0.2,1l-0.4-1.1l0.1-0.4l0.3-0.3l0,0l0,0l-1.3-0.5l1.2-0.1l-0.1-0.2l-0.1-0.1l0.1-1.4
		l0.2-0.1l0.4-1.1l0.2-0.1l-0.1-1.2l0,0l-0.3-0.3l0-0.5l-0.2,0.1l-0.1,0.1l-0.9,0.1l-1.3,2.1l-0.5,0.4l-0.7,0.2l-0.1,0l0.1,0.1
		l0.1,0l0,0.1l0.7-0.3l0.4-0.1h0.3l0.2-0.1l0.1-0.1l0.3,0l0.2,0.1l0.8,0.6l-0.8,0l-0.1,0.1H79l0,0.2l-0.1,0l0,0.1l0,0l0.1,0.7
		l-0.7-0.7l0-0.1l-0.4,0.1l-0.2,0.2l-0.1,0.1l0.1,0.1v0.4l-0.1,0l0.1,0.1l0.1,0.2l0,0.1h0l0.1,0.1l0,0.1l0,0.4l0,0.1h0.2v0.6h-0.3
		l-0.2,0.1h-0.1l-0.2-0.1l-0.1-0.1v-0.2l0,0l0,0l0,0.3h-0.6v-0.2L76.4,96l0.2-0.3l0,0l0.1-0.2l0.1-0.1l-0.6,0.2L76,96l-0.1,0
		l0.1,0.1l0.1,0.4l0.7,0.3h-0.9l-0.1,0l-0.4,0l-0.3-0.2l0-0.2l-0.1,0l-0.3-0.1h-0.1l0,0.1h-0.4L74,96.1l-0.1,0l0,0l0,0.5l0.7,0.6
		l-0.3,0l0.1,0.1l0.1,0.2l-0.1,0.2l-0.4,0.4L74,97.9l0,0.7l0.5,0.3l0.2,0.2l0,0.3l0.2,0.1l0,0.3l-0.1,0.3l-0.4,0.4l-0.2,0.1l0,0.6
		l-0.1,0.3l-0.1,0.1l0,0.1l0.1-0.1l1-0.1l-0.4,0.4v0.1l0.7,0.4h0.1l0.2,0.4l0.1,0.8l0.1,0.3l-0.1,1.1l0.1,0.1v0.9l0.4,0.4l0.2,0.4
		l0.2,0.2v0.6l-0.4,0.5h-0.3l0,0.1h0.3v0.8l0.1,0.1h0.6l-0.3,1h-0.1l0.1,0.1l0.9,0.7h-1.6l-0.2-0.1v0l-0.3,0.2l0.2,2.8l-0.5-1
		l-0.9,0.1l-0.6-0.5l0-0.5l-0.1-0.3l-2,0.2l-0.2,0.2v0.3l-0.2,0.2l0.1,0.3l0,0h0.3l0.6,0.6l-0.9,0.4l-0.3-0.2l-0.2,0l-0.1-0.1
		l-0.1,0l-0.1-0.2l-0.5-0.2v-0.1l-0.1-0.1v-0.1l-0.1-0.3l-0.3,0l-0.2,0.1l-0.6,0.1l-0.1,0l-0.1,0.2l-0.1-0.1l-1.3,1.3l0.8-1.4l0,0
		l0,0h-0.2l-1.1,0.4l-0.5,0.4l-0.1,0.5l0,0l0,0.2l0,0.2l0,0.1l0.1,0.1l0.1,0.1l0,0l0.3-0.1l0.1,0.1h0l0.8,0.5h-0.8l-0.1,0.1l0,0.3
		l0,0.1l0.3,0l0.3-0.1l0.1-0.1h0.4l0.3,0.5l-0.7,0.2l0,0.4l-0.2,0.4l-0.2,0.1l-0.1,0.1l-0.2,0.1l-0.1,0l-0.1,0.1l-0.2,0.3l-0.5,0.1
		h-0.1l-0.2-0.1h-0.1l-0.1-0.1h-0.3l-0.2-0.1h-0.3v-0.2l-0.1,0l-0.5-0.5l-0.5,0l-0.6,1.1l-0.7,0.7l0,0.1l0.8,0.6h-0.9l0.2,0.1h0.1
		l0.1,0.1l0.4,0.1h0.1l0.4-0.3l0.1,0.1l0.2-0.1l0.1,0h0.3v0.1l0.1,0v0.5l-0.2,0.2l-0.7,0l-0.2,0.1h-0.3l-0.1-0.1l-0.2,0.1l-0.3,0.1
		l-0.1,0l0,0.1l0.3,0.2v0.4l-0.1,0.1l0.1,0.1l-0.3,0.2l-0.5,1.2v-1l0,0l-0.2-0.1H61l0,0l-0.3,0.1l-0.1,0.1l-0.4,0l-0.1,0.1l-0.3-0.3
		h-0.2l-0.1-0.1l-0.1,0.1l-0.1,0l-0.2,0.1h-0.5l-0.2,0.2h-0.3l-1,0.6l-0.5,0l-0.2,0.2l-2,0.2l-0.5,0.3l-1.7,0.1l-0.8,0.7l-0.1,1.2
		l-0.3,0.3v0.6l0.5,0.5l-1.5,1.5h-1.3l-0.9,0.5h-0.4l-1.2,0.9v0.2l0.1,0.1h0.6v0.9h-0.7l-0.3,0.4l-4.2,0l-0.6-0.6l-0.4-0.9H39
		l0.1,0.7l0.5,0.5v1.1l0.5,0.5v0.8l0.4,0.5l-0.6,0.6l-2.7,0l-0.3-0.3l-0.3,0.1l-0.5,0.5l-1.6-1.4h-0.4l-0.6,0.6l-0.4-0.4l-0.5,0.5
		l-2.9,0.1l-0.9,0.7v0.2h1l-0.1,1.7l0.8,0.5v0.4h2l0.7,0.7h0.9l0.4,0.7h2.2l0.3,0.9l0.7-0.1l1,0.3l-0.9,0.9l0.1,0.6l1.3,1.8l1.6,0.5
		l0.6,0.6l-0.6,1l0.5,1.6l1.2,1.2l0.1,1.9l-0.9-0.9l-0.3-0.9l-0.3-0.3h-0.2l-0.5,6.1l-0.3,0.3l0.1,1l-1.5,2h-2.7l-0.4-0.4l-0.5-0.2
		h-0.3l-0.6,0.5l-1.2-0.1l-0.5-0.5l-12.6-0.2l-1.3-0.9l-1.5,0.1l-0.4,0.2v1l-0.6,0.3l-2.5,0.4l-0.8,0.9v0.1l0.4,0.5l0.7,0.4l0.2,0.5
		l0.1,3.8l-0.2,0.2l0.1,0.3v0.4l0.3,0.8v0.7l0.2,0.2l0.2,1.4l-0.3,0.3l0,0.8l-0.2,0.7v1L14,171l-0.1,1.2l-0.5,0.5l-0.2,0.4l-0.4,0.4
		l0,0.4l-0.3,0.3l-0.2,1.5l0.2,0.2v0.2l0.2,0l1.3-1.3v1l-0.7,1v0.2l1,0.1l0.1-0.1l0.4,0.4l-0.1,0.1l0.2,0.2l-0.3,0.7l-0.1,2.4
		l0.2,0.6v0.5l-0.6,0.6l0,0.2l1.6-0.2l1,0.3h1.1l0.2-0.1l0.8-0.4l0.1-0.4h2.3l1,1l0.8,0.3l0.3,0.3v1l0.1,0.3l0.3,0.3l0.3,1.1
		l0.8,0.6l0.4,0L25.4,187z M123.2,185.2L123.2,185.2L123.2,185.2L123.2,185.2z M125.5,185.2L125.5,185.2L125.5,185.2L125.5,185.2z
		 M125.1,184.7l0.2,0l0.2,0.3l-0.1-0.3l0.2-0.6l-1.1-3l0.2-0.7l0.6,0.2l0.4,0.3l0.4,0.1l0.4,0.5l-0.1,0.2l0.1,0l0.2-0.2l0.2-0.1
		l0.4,0l-0.2-0.2l-0.5-0.1l-0.3-0.3l-0.3-0.9l-0.4-0.2l0.1-0.3l-0.3,0.1l-1.3-0.9l0-0.1l-1.2-0.5l-0.3-0.3l-0.5-0.2l-0.4,0.1l0,0.2
		l-0.3,0.1l-0.2,0.1l-0.7-0.1l-0.1,0l-0.1,0.3l-0.1,0.1l0,0.2l-0.3,0.3l-0.4,0.1l0.7,0.6l0,0.2l0.5,0.4l0.7,1.1l-0.2,0.6l-0.4,0.3
		l0,0.2l0,0.2l0.1,0.2l0.2,0.2l0,0.3l-0.1,0.2l0.1,0.2l0,0.1l0.4,0l-0.1-0.3l0.1-0.4l0.3-0.2l0.3-0.1l0.4,0.1l0.2,0.2v0.3l0.9,1.3
		l0,0.1l0.4-0.7l0.3-0.2l0.9,0.2l0,0.5L125.1,184.7z M124.3,178.3l0.9,0.6l0-0.2l0.5-0.3l0.4,0.1l0,0l-1.3-0.9l-2.2-0.6l-0.5,0.1
		l0.6,0.3l0.3,0.3l1.2,0.4L124.3,178.3z M42.3,147.9l0.1,0.4l0-0.3L42.3,147.9z M60.3,120.5L60.3,120.5l0.2,0.1l0,0l0,0l0.1-0.1
		L60.3,120.5L60.3,120.5L60.3,120.5z M59.8,120.3L59.8,120.3L59.8,120.3l-0.1-0.2l0,0L59.8,120.3z M63.3,115.9L63.3,115.9l0.9,0.4
		l0,0l0-0.2l0-0.1l0,0l0-0.2l-0.1-0.1l0-0.3l0.2-0.3l0.3,0l0-0.1l0-0.1l0-0.3l-0.6-0.2l-0.1-0.1L63.3,115.9z M74.5,112l0.4,0.4
		l-0.3-0.5l-0.1-0.1V112z M78.8,104.4L78.8,104.4l0.2-0.2l0.6,0.1l0.2,0.1h0.2l-0.1-0.5l-0.1,0l-0.3-0.3l0-0.1l-0.1-0.2l0,0l0-0.1
		l0-0.1l-0.1-0.1l-0.3-0.3l0,0.2l0.1,0.1l0,0.1l0.2,0.1l0,0.2l0.1,0.2l-0.2,0.1l-0.1,0.1l-0.3,0.3l-0.1,0l-0.1,0.1V104.4z
		 M81.9,104.4L81.9,104.4l0.2-0.1l0.4,0l0-0.1l0.1-0.3v-0.5l-0.1-0.3l0.1-0.1l0-0.1l-0.3-0.4l0-0.1l-0.2,0.1l-0.1,0.2h-0.4l-0.2-0.2
		V102l0.1,0l-0.1-0.2h-0.5l-0.7,0.3l-0.1,0.2l-0.4,0l0.4,0.5h-0.3v0.1l0.2,0.1l0,0.4l0.1,0.1l0,0.1l0,0.1l0.3,0.1v0.1l0,0l0.2-0.1
		l0.2,0.2l0.1,0.2l0.1,0.1l0,0l0.3,0.2h0.1l0.1,0.1h0.2L81.9,104.4z M79.1,102.6L79.1,102.6L79.1,102.6L79.1,102.6L79.1,102.6z
		 M74.1,99.5l0.1,0.4l0.2-0.2l-0.1-0.1L74.1,99.5l0-0.2l-0.1-0.1l0,0.2L74,99.5L74.1,99.5z M74.5,95.8h0.1H74.5L74.5,95.8z
		 M74.3,95.6L74.3,95.6L74.3,95.6L74.3,95.6z M75.4,95.5l0.2,0l0.2-0.3l0.1,0l0.1-0.3l0.4-0.5l0.3,0.1l0.3-0.1l0.1,0.1v-0.1
		l-0.1-0.1l0.1-0.5l0.1-0.1L77,93.7l-0.1,0.1l-0.3,0l-0.1,0.1h-0.2L76.1,94l0,0l-0.1,0.1l-0.3,0l0,0l-0.3,0.5l-0.1,0.1l-0.1,0.2l0,0
		l0,0.3h0.1l0,0.1l0,0l0,0L75.4,95.5z M76.5,95.1l0.3,0.3v-0.1l0,0l0-0.2l0,0l-0.1,0l-0.1,0L76.5,95.1z M74.6,95.2L74.6,95.2
		l0.1-0.1L74.6,95V95.2z M74.4,94.7l0.2,0.2l0.1-0.2v-0.1l0.4-0.4L75,94.2l0.4-0.6l0.3,0l0-0.1v-0.4l-0.2,0l-0.1,0l-0.1,0.1l0,0.1
		L74.4,94.7z M76.1,93.2l0.2,0.1l0,0l0.2,0L76.4,93l-0.1,0.1l-0.1,0.1L76.1,93.2z M75.9,93.2L75.9,93.2L75.9,93.2L75.9,93.2z
		 M123.7,166.5l-0.8-0.2l0.1-0.5l0.8,0.2L123.7,166.5z M125.3,166l0-0.6l0.5,0l0,0.5L125.3,166z M136.5,165.9h-0.2l0-0.5l0.5-0.1
		l0.1,0.5L136.5,165.9z M133.7,165.7l-1.1-0.5l0.2-0.5l1.1,0.5L133.7,165.7z M115,144.5h-0.3l0-0.5l0.6,0l0,0.5L115,144.5z
		 M102.1,141.5l-0.3-0.3v-0.3h0.5v0.1l0.1,0.1L102.1,141.5z M105.4,137.7l-0.4-0.3l0.2-0.3l0.4,0.3L105.4,137.7z M76.9,105.8
		l-0.7-0.1l0-0.5l0.7,0.1L76.9,105.8z M137.3,89.7l-1.3-0.8l0.3-0.4l1.3,0.8L137.3,89.7z"/>
	<path d="M92.1,101.8l-0.8-0.4l-0.4-1.4l-0.3-0.4l-0.7-0.3L89.7,97l0.6-1l0.3-0.3l-0.1-0.5L90.1,95l-0.4-0.2l-1.2-1.4L88.5,93
		l-0.2-0.4L88,91.7l-0.9-1.2v-0.4l-0.5-0.9l0-1.5L85.9,87l-0.1-0.1l-0.5-0.5l-0.2-0.3l-0.5-2.5l-0.1-0.1l0-1.1L83,82.1v-1.3
		l-0.4-0.4V80l-0.5,0.2v0.2l0.6,0.6l-1,1.1l-0.2,0.6h-0.4l-0.4,0.4H80l-0.3-0.3L79.6,83v0.5L79,84.1h-0.4L78,84.7l-0.5,1.1L77,86.2
		h-0.5l-0.7,0.7h-0.3l-0.7,0.7h-0.8l-0.2,0.2L73.3,88L73,88.3h-2.6L70.1,88h-1.8l0.9-0.9h-0.3l-0.4,0.4l-1.2-0.6v-0.3h-0.9L66,85.7
		l-1.1-1.1v-0.8l0.4-0.4l0.3-1l0.8,0.8H67l0.1-0.1L66.3,83l0.3-1.1l0.4-0.4l0,0l0.2-0.6l-1,0l0.1,0.4l-1.1,0.4h-1.3v-0.6l-0.4-0.4
		l1.5-0.7h0.4l1-1l-0.4-0.2l-0.6-0.6l1.2-1.2l-0.7,0.2l-0.6-0.6h-0.8L64,77.1l-0.7-0.7v-0.8l1.2-0.4H65l0.2-0.2L65.1,75l-0.4-0.4
		l0.3-0.3l-0.5-0.2v-0.2h-0.4l-0.5-0.6l1.7-1.7l4.7,0.2l0.4,0.4l0.3-0.2h0.6l0.2-0.2l-0.2-0.2l-0.7-0.2l-7.5,0.2l0.9-1.3h0.6
		l-0.5-0.3l-1-1v-0.8l2.5-0.3l-1.4-0.7l1-1l1.5,0.1l-0.5-0.5l0.7-0.7l1,0.1v-0.6h0.2l-0.7-0.8l1.6,0.7l-1.2-0.9l2.2-0.3l0.9,0.3h0.9
		l0.4-0.4L71.5,63h-0.8L70,62.3l0.2-0.8h2.1l0.4-0.3h0.8v0.1h1l0.4,0.4l0.5,0l-0.5-0.5l0.4-0.7h0.3v-0.4l0.6-1h1l0.5-0.6v0.9
		l1.4-1.4l0.7,0.3l0.7,0.7v0.6l0.4-0.1l0.2-0.2l0.1-0.6l2.4,0.1l0-0.1l-0.2-0.2l-0.1-0.5l0.2-0.2h-0.3l-0.7,0.2h-0.2l-0.4,0.4h-0.5
		L81,58.8l-0.7-0.1l-0.4-1l0.2-0.2l-0.3-0.3l1.1-1.1h0.3v-0.2L81,55.2l0.7-0.7h0.5l0.4-0.4l0.2-0.6l0.6-0.1l0.2-0.5H85l0.5,0.5h0.4
		l0.1-0.4l0.3-0.3l-0.5-0.5v-0.6l0.5-0.5l0.4-0.1L86.6,51v-1.1l2.9-0.1l0.4-0.4l-0.1,0h-0.7v-0.4h-0.5l-0.7-0.7l0.9-0.9l0.4,0
		l0.5,0.2l-0.1-0.2h-0.4L89,46.4l0.4-0.4l0.4-0.1l0.3-0.3v-0.4l0.9-0.4h0.5l-0.3-1.4l2.3-0.2l0.3-0.2l-1.5,0.1l-0.7-0.7l0.2-0.7h0.7
		l0.4-0.4l-0.2-0.5l1-0.9l0,0l-0.2-0.2l1.7-1.4l0.9-0.1l0.9-0.9l0.5,0L96,36.4l2.1-0.7l0.4-0.4l1,0.5l0.5,0l-0.8-0.8l0.5-0.5h0.8
		l-0.1-0.1l-0.9-0.1L99,34.7l-1.8-0.1l1-1l0.3-0.5l0.3-0.2l0.7-0.2l0.8,0.4h0.6l0.1-0.1l-0.6-0.7l1-1h1.1v1.3l0.2,0.2l0.2,0l0-0.5
		l0.9-1.1l-0.3-0.3v-1.1l1.6,0.5h0.8l0.3,0.2l0.3-0.3h0.2l0.2-0.2h-0.4l-0.3,0.3l-1.8-0.3l-0.4-0.7l0.6-0.6l0.9-0.4l0.6-0.6l1.1,0.5
		l0.2-0.2l-0.1-0.3l-0.4-0.4l0.1-0.9l0.5-0.5l-0.2-0.1l-0.6,0.6l-1.2,0l-0.6-0.8l0.4-0.4l-0.8-0.8l1.1-0.5l0.6-0.7h0.5l0.5-0.4
		l2.1-0.8l-0.7,1.2h0.5l1.2,1.2l0.1-0.2h0.2l-0.3-0.4l0.1-0.4l-0.6-0.5v-0.8l0.7-0.7h1.3v1.3l0.3,0.5l0-0.6l0.3-0.8l0.4-0.4h2.2
		l-0.1,0.6l0.4-0.6l2.3-1.3v1.9l-0.3,0.3v0.4l-0.4,0.4l1.2-0.7l-0.2-0.4l1.4-1.7l0.5,0.5h0.3l0.1-0.9l1-0.3l0.6,0.6l0.8-0.1l0.1-0.1
		V20l-0.5,0l-0.7-0.7l-0.9-0.4v-0.8l1.5,0l0.7,0.3l0.5-0.2l0.9,0.4l0.5-0.2L125,18l1.2-0.6v1l0.3,0.3v0.6l0.6,0.5l0.3-0.1l-0.2-0.2
		v-0.7l1.4-0.7l0.3-0.7l0.4-0.4l1.6-0.1l-0.1-1.1h1.3v-0.2h-0.6l0.6-0.9v-0.5l1.4-0.6h0.8V14l0.4,0.2h0.3l0.3-0.3l0.3-0.1l-0.2-0.2
		l0.5-0.9h1.2l1.6,1.6l0.3-0.3h0.4l0.6-0.9l-0.1,2.6l-0.3,0.3l0,1.2h0l0.9-0.7l0.2,0.1l0.1-0.1l0.2,0l0-0.2l0.4-0.9l0.7-0.5
		l-0.2-0.6l0.1-0.6l0.4-0.4l0.5-0.2l1.1,0l0.5-0.2h1v0.6h0.6V14l0.5,0.5l-1.4,0.3l-0.7,0.6h0.6l0.4,0.4l-0.4,0.4l0.1,0.1v0.5
		l0.3,0.1l0.5-1.1v-0.5l1.1-0.9l1.9,0.1l0.6,0.6l-0.1,0.3h2.3l1.2,0.9l1.9,0.4v0.8l0.8,0.8h-0.9l-0.8,0.3h-0.5l-1.2,1.1h-3.2
		l0.4,0.4h0.4l0.9,0.9v0.3h1.3l0.6-0.5l0.6,0.7l0.5-0.1l0.5-0.5l0.8,0.9l-0.5,0.5l0.1,0.8l-0.4,0.4l-1.1,0l-0.7-0.6l-0.3,0.2
		l-1.2,1.4h-0.9l-0.2,0.2h-0.4l-0.4,0.8l-0.9,0.9h-0.8l-0.3,0.6h-0.5l-0.1,0.1l0.2,0.2l0.1,1.5l-0.7,0.6v0.4l0.3,0.7l1.1,1.1
		l0.8,0.2l2.8,2.7l0,0.4l-0.2,0.6l-2.8,3.7l0,0.2l3.7,5.9v1.4l-1.1,0.1l-0.4,2.3l0.2,0.2v0.5l-0.5,0.6l0.3,0.5l1.4,0.9v0.6l-0.2,0.3
		v0.6l1.9,1.7l-0.1,0.7l-0.8,1.3l-0.9,0.6l5.1,4.1l0,0.7l-0.8,1.8l-12.2,11.4l-4.4,0.2l-0.4-0.1l-1.3,0.6l-0.2,0l-0.1,0.1l-1.1,0.1
		l-0.2-0.1l-2,0.9l-1-0.1l-0.7,0.5v0.3l-5.2,0.3l-0.9-0.9l0-0.2l-0.1-0.1l-1.5,0.1l0.3-0.8l0,0l-1.3-0.4l-0.2-0.2h-0.9l-0.4-0.5
		l-0.9-0.4l-0.3-0.4l-0.2-0.6l0.3-1.9l0.3-0.3l0-0.8l0.2-0.2l-0.1-0.9l0.2-0.2l-0.3-1.2l-0.5-0.4v-1.9l-0.1-0.3v-0.1l-0.4-0.2v-2.4
		l0.5-0.9l0.4-0.2l0.2-1.1l0.4-0.6l2.1,0l0.4-0.2l0.1-0.1v-1.2l0.9-1l0.3,0.2l0.7-0.2l0.5-1l0.7-0.3l0.3,0l0.1-0.1l0-0.3l0.4-0.3
		l0.4-0.1l3.9-4.2l0.3-0.1l0.3-0.3h1.6l0.1-0.2l0.2-0.3v-0.1l-0.4-0.4l-0.2-0.7l0.2-0.8l-0.1-0.8l-0.5-0.2l-0.6-0.6l-0.3,0l-0.3-0.3
		h-0.4l-0.5-0.5l-5,0.2l-0.6-0.3l-0.2-0.2h-0.1l-0.2,0.1v0.3l-1.1-0.1l-0.2,0.4v0.4l-0.7,0.3h-0.4l-0.2,0.1v0.3l-0.5,0.6h-0.6
		l-0.1,0.1l0.1,0.1l-0.1,0.7l-0.3,0.3l-0.2,1l-0.8,0.7l-0.3,0.6l0.1,0.2l0.9,0.8l0.1,0.4l0,0.4l-2.2,2.5v0.3l-0.5,0.5l-0.1,0.4H118
		l-0.9,0.4l-0.7,0.6l-0.4,0.1l-0.6,0.5H115l-2.1,1.6l-1,0.2l-0.4,0.4l-0.2,0.5l-0.5,0.2l-0.5,0.7l-1.1,0.4l-0.1-0.2l-0.2,1.4
		l-0.5,0.3l-0.9,0.1l-0.1,0.6l0.6,0.4l-0.3,0.6v0.6l-0.4,0.4v0.4l-0.3,0.2l0.1,0.4l-0.7,0.9l0,1.8l0.1,0.4v2.5l1,0.2l1.2,0.8h0.5
		l0.5,0.5l1,0.5l0,0.4l0.9,0.9l0.6,0.3l0.8,1.1l-1,1.6l-0.6,0.1l-0.6,0.7l0.4,0.3l0.4,0.9l-0.9,0.1l-2.5,2.3l0-0.8l0,0l-0.7,0.8
		l-0.9,0.3l-0.4-0.1l-0.6,0.6l-0.5,0.1l0.1,0.1l-0.2,0.5l-0.1,0.1l0.2,0.6l-0.3,0.7V89l-0.3,0l0.1,0.2l0.1,1.9l-0.3,0.7H104
		l-0.1,1.7l-0.2,0.2l-0.1,0.6l-0.6,0.8v0.3l-0.6,0.6l-0.1,0.6l-0.3,0.7l-0.3,0.3l-0.6,1.1l-0.8-0.8l-0.1-0.2h-1.8L98,97.8h-0.2
		l-0.6,0.7l-0.7,0.1l-0.2,0.2V99l-0.5,0.4l0,0.1l0.4,0.4v0.5l-0.2,0.2l-0.1,1l-2.4,0.2l-0.3,0.2L92.1,101.8z M91.8,101.1l0.5,0.3
		l0.8,0l0.3-0.2l2.2-0.1l0.1-0.8l0.1-0.1V100l-0.5-0.5l0.3-0.5l0.3-0.2v-0.2l0.4-0.5L97,98l0.6-0.7H98l0.4-0.1h2.2l0.1,0.5l0.2,0.2
		l0.3-0.6l0.3-0.3l0.3-0.5l0.1-0.6l0.6-0.6V95l0.7-0.9l0.1-0.6l0.2-0.2l0.1-2h0.2l0.1-0.3l-0.1-1.7l-0.4-0.7l0.6-0.1l0-1.4l0.2-0.5
		l-0.1-0.4l-0.2-0.2l0.4-0.4l0-0.1l-0.6-0.6l1.3-0.2l0.6-0.6l0.6,0.1l0.7-0.2l0.5-0.6l-0.1-0.4l0.3-0.3l0.5,0.3l0.2,0.3l1.4-1.3
		l-0.4-0.5l-0.2-0.8h0.9v-0.1l0.8-0.9l0.6-0.1l0.7-1.1l-0.6-0.7l-0.5-0.3l-1.1-1.1l0-0.2l-0.8-0.4l-0.4-0.4h-0.4l-1.3-0.9l-1.2-0.2
		v-2.9l-0.1-0.4l0-2l0.7-0.9l-0.1-0.5l0.3-0.3v-0.4l0.4-0.4v-0.6l0.2-0.3l-0.5-0.3l0.2-1.4l1.2-0.1l0.2-0.1l0.2-1.4l-0.6-1.6
		l1.4,1.5l0.6-0.2l0.5-0.7l0.5-0.2l0.2-0.4l0.6-0.6l1.1-0.2l2.1-1.6h0.3l0.6-0.5l0.4-0.1l0.7-0.6l1.1-0.4h0.3l0-0.2l0.5-0.5v-0.3
		l2.2-2.5l0-0.1l-0.1-0.2l-0.9-0.9l-0.4-0.9h0.4l0.2-0.5l0.7-0.6l0.2-0.9l0.3-0.3l0-0.3l-0.2-0.3l0.5-0.5h0.5l0.3-0.3v-0.4l0.4-0.4
		h0.5l0.2-0.1l0-0.2l0.3-0.8l0.9,0.1v-0.1l0.5-0.3h0.4l0.3,0.3l0.4,0.2l5.1-0.2l0.5,0.5h0.4l0.3,0.3l0.3,0l0.7,0.7l0.7,0.2l0.1,1.2
		l-0.2,0.7l0.1,0.5l0.4,0.5v0.4l-0.3,0.4l-0.1,0.5h-1.8l-0.2,0.2l-0.3,0.1l-3.9,4.2l-0.4,0.1l-0.1,0.1l0,0.3l-0.4,0.4l-0.4,0
		l-0.4,0.2l-0.5,1l-1.1,0.3l-0.2-0.1l-0.4,0.5v1.2l-0.3,0.3l-0.5,0.2l-2,0l-0.2,0.3l-0.2,1.2l-0.5,0.2l-0.4,0.6v2l0.4,0.2v0.4
		l0.1,0.3v1.7l0.5,0.3l0.5,1.7l-0.2,0.3l0.1,0.9l-0.2,0.3l0,0.8l-0.3,0.3l-0.3,1.6l0.1,0.5l0.2,0.2l0.9,0.4l0.3,0.3h0.9l0.2,0.2
		l1.3,0.4l0.3,0.4l-0.1,0.4l1.3-0.1v0.3l0.2,0.2l0,0.2l0.7,0.7l4.5-0.2v-0.1l1-0.7l1.1,0.1l2.1-0.9l0.3,0.2l0.8-0.1l0.1-0.1h0.4
		l1.3-0.7l0.6,0.2l4.1-0.2l12-11.2l0.7-1.6v-0.3l-5.5-4.3l1.4-1l0.6-1.1l0-0.2l-1.9-1.6v-1l0.2-0.3V52l-1.2-0.8l-0.5-0.9l0.6-0.7
		v-0.1l-0.2-0.2l0.5-2.9l1-0.1v-0.8l-3.7-5.9l0-0.5l2.9-3.8l0.2-0.4l0-0.1l-2.6-2.5l-0.8-0.2l-1.3-1.3l-0.4-0.9v-0.6l0.7-0.6
		l-0.1-1.1l-0.3-0.3l0.4-0.7h0.4l0.3-0.6h0.9l0.7-0.7l0.4-1h0.5l0.2-0.2h0.8l1.1-1.3l0.6-0.4l0.9,0.7l0.7,0l0.1-0.1l-0.1-0.8
		l0.3-0.3l-0.1-0.1l-0.2,0.2l-1,0.2l-0.5-0.5l-0.3,0.3h-2v-0.6l-0.6-0.6h-0.4l-0.6-0.5l-0.5-0.1l-1.5-0.7l1.5-0.5l0.8,0.4h3l1.2-1.1
		h0.7l0.6-0.2l-0.2-0.2v-0.6l-1.7-0.3l-1.1-0.8h-2.7l0.1-0.7l-0.3-0.3L147,15l-0.7,0.7l0,0.4l-1.3,2.8v-1.4l-0.5-0.2v-0.6l-0.3-0.3
		l0.3-0.3h-0.7v-0.8l1.1-0.8l0.6-0.1V14h-0.6v-0.6h-0.4l-0.5,0.2l-1.2,0l-0.3,0.1l-0.1,0.2l0,0.4l0.2,0.9l-0.9,0.7l-0.3,0.7v0.6
		l-0.5,0l-0.2,0.2l-0.3-0.2l-0.8,0.6h-0.7l0-1.9l0.3-0.3l0-1h-0.3l-0.5,0.5l-0.4,0l-2.5,2.4l-0.3,1.4l-0.4,0.4l-1,0l-0.3-0.4
		l-0.1-0.7l0.3-0.3v-0.8l0.2-0.2l-0.3-0.4l0.9-0.2l1.3-1.4h0.2l0.4-1.1l0.8,0l-0.6-0.6h-0.7l-0.2,0.3l0.6,0.6l-1,0.3l-0.3,0.3h-0.6
		l-0.7-0.4v-0.2h-0.2l-0.9,0.4v0.3l-0.2,0.2h0.2v1.2h-1.2l0.1,1l-1.9,0.1l-0.2,0.2l-0.3,0.8l-1.3,0.7v0.2l0.6,0.6l-1.3,0.4l-1-0.8
		v-0.6l-0.3-0.3v-0.4l-0.5,0.2l-0.4,0.3l-0.7,0.3l-0.9-0.4l-0.5,0.2l-0.8-0.3h-0.7l0.5,0.2l0.6,0.6l0.7,0.1v0.7l-0.9,1.3v-0.8
		l-0.7,0l-0.5-0.5l-0.4,0.1l-0.1,1h-1l-0.3-0.3l-0.8,1L119,23h-0.8l-4.2,2.7l2.2-2.2v-0.3l0.6-0.5v-0.4l0.3-0.3v-0.8l-1.4,0.8
		l-0.1,0.2l0.3,0.3l-0.8,1.1l-1.5,0.5l0.3,0.3h-1.3l-0.8-0.8l-0.3-0.7v-0.9h-0.6l-0.4,0.4v0.3l0.7,0.6l-0.1,0.4l1,1H111l-0.3,0.5
		l-1.5-1.5h-0.8v-0.7l-0.6,0.2l-0.5,0.5h-0.5l-0.6,0.6l-0.5,0.2l0.6,0.6l-0.4,0.5l0.2,0.2l0.7,0l0.7-0.7l1.2,0.6l-0.8,0.8l-0.1,0.5
		l0.3,0.3l0.2,0.6l-0.7,0.7l-1.1-0.5l-0.5,0.4l-0.9,0.4l-0.2,0.2l0.1,0.2l1.3,0.2l0.2-0.2h1.8l-1.2,1.2h-0.2l-0.1,0.1v0.7l-0.9-0.7
		l-0.8,0l-0.9-0.3v0.2l0.5,0.5l-1,1.3l0.1,0.8l-0.9,0.1l-0.5-0.5v-1h-0.4l-0.6,0.6l0.7,0.8l-0.9,0.4l-0.8,0l-0.7-0.3L99,33.3
		l-0.1,0.1l-0.3,0.5l-0.2,0.2l0.4,0l0.4-0.4l1.3,0.2l0.6,0.6l-0.5,0.5l-0.9,0l0.4,0.4h0.6l0.4,1l-2-0.2l-0.7-0.3l-0.2,0.2l-1.1,0.4
		l0.4,0.3l4.7,0.1l-2.7,1.1h-0.4l-0.7-0.4l-1.3,0.1l-0.9,0.9l-1,0.1l-1.2,1l0.2,0.2l-1.1,1l0.2,0.5l-0.8,0.8h-0.5l0,0.1l0.3,0.3
		l2.8-0.2l-1.5,1.3l-1.9,0.2l0.4,2.1l-0.7-0.7H91l-0.4,0.2v0.3l-0.5,0.5l-0.4,0.1l-0.1,0.1l0.1,0.3h0.4l0.3,1.2l-0.7,0l-0.5-0.2H89
		l-0.4,0.4l0.2,0.2h0.8v0.4h0.1l1.7-0.5l-1.7,2l-2.6,0.1v0.5l0.5,0.5l-1,0.3L86.3,52v0.2l0.7,0.7l-0.6,0.6L86.3,54h-1l-0.5-0.5h-0.9
		L83.7,54L83.1,54l-0.2,0.5L82.4,55h-0.5l-0.3,0.3l0.1,0.4v0.7h-0.6l-0.6,0.6l0.4,0.4l-0.3,0.3l0.2,0.5l0.2,0l0.2-0.2h0.5l0.4-0.4
		h0.4l0.7-0.2h0.2l0.2-0.2l-0.9-0.9H84l1.1-0.8h1.1L86,56.3l-0.8,0.2L85,56.9l0.3,0.3v0.6h-1.1l-0.4,0.4l0,0.1l0.4,0.4l-0.3,0.7
		l-2.3-0.1l-0.1,0.3L81.1,60L80,60.2v-1l-0.5-0.5l-0.3-0.1l-2,2v-1h-0.8l-0.4,0.6V61h-0.5l-0.1,0.1l1.7,1.7l-1.9-0.7H75l0.4,0.4v1.3
		l-1.2-1.2h-0.5L73,62v-0.4h-0.1L72.5,62h-1.9l0,0.1l0.4,0.4l0.7,0l1.3,0.6l-1,1l-1.3,0l-0.8-0.3L69,63.9l0.3,0.2h0.6l1.5,1.7
		l-0.9,0.9v-1L69,65.1h-0.6v1.3l-0.7-0.7l-0.6-0.1L67,65.7l1.1,1.1l-2.6-0.1L65.1,67l1.1,0.5l0.7,0.7l-3.2,0.4v0.2l0.8,0.8l0.8,0.5
		h1.9l-2.1,0.7h-0.8L64.1,71l6.6-0.2l1,0.4l0.6,0.6l-0.7,0.8h-0.6l-0.5,0.4l-0.6-0.6l-4.3-0.2l-1.2,1.2l0,0H65v0.3l0.9,0.4l-0.5,0.5
		l0,0l0.6,0.3l-0.8,0.9h-0.6L63.9,76v0.2l0.2,0.2l0.2-0.2h1.2l0.5,0.5l0.5-0.2l1.2-1.3h0.7l1,0.6l-0.6,0.5h-0.5l-0.1-0.1l-0.3,0.3
		v0.6l-1,0.3L66,78.3l0.2,0.2l0.3,0.1h1.3l-0.8,0.9h-0.4l-0.9,0.9l1.4-0.1l0.7-0.7l0.6,0.6l-0.7,0.7l-0.1,0.4l0.6,0.6h-0.9L67,82.2
		l-0.1,0.5l0.2,0l0.2-0.2h1.1l-1.3,1.3h-0.9l-0.4-0.4l-0.2,0.4L65.4,84v0.4l1,1l0.3,0.6h1.1v0.5l0.6,0.3l0.3-0.3h0.9l0.3,0.5
		l-0.4,0.5h0.9l0.3,0.3h2.2l0.3-0.3l0.6-0.1l0.3-0.3h0.8l0.7-0.7h0.3l0.7-0.7h0.5l0.3-0.3l0.5-1.1l0.7-0.7h0.4l0.3-0.3v-0.5l0.6-0.5
		l0.5,0.5h0.1l0.4-0.4H81l0.2-0.4l0.7-0.7l-0.4-0.4V80l0.5-0.3v-0.9l0.7-0.8l0.6,0.6v0.9l-0.3,0.3v0.4l0.4,0.4v1.1L85,82l0,1.3
		l0.1,0l0.6,2.7l0.1,0.2l0.6,0.5l0.1,0.2l0.8,0.7l0,1.6l0.5,1v0.2l0.9,1.2l0.2,0.9l0.2,0.4l0,0.2l1,1.3l0.4,0.2l0.4,0.4l0.2,0.9
		l-0.5,0.4l-0.4,0.8l0.2,1.8l0.5,0.3l0.4,0.6L91.8,101.1z M110,81.4l0.3,0.2l0.1,0l-0.1-0.1l-0.4-0.3V81.4z M64.4,81.2h0.7l0.5-0.2
		l-0.1-0.4H65l-0.7,0.3l0,0V81.2z M82.6,79v0.5l0.3-0.3v-0.5l0,0L82.6,79z M67.9,75.9l-1.1,1.2l0.6-0.2v-0.4L67.9,75.9L67.9,75.9z
		 M69.2,64.6L70,65l-0.3-0.4H69.2z M73.8,62.2h0.4l-0.7-0.7v0.4L73.8,62.2z M84.1,57.3h0.6l-0.4-0.4l0.6-0.7l-0.8,0.6h-0.2l0.4,0.4
		L84.1,57.3z M85.2,55.9L85,56.1l0.6-0.2H85.2z M99.3,37.6h0.3l0.5-0.2l-1.2,0L99.3,37.6z M112.7,23.2l0.8,0.8l0.8-0.8l0.2-1.2h-1.4
		l-0.2,0.2l-0.2,0.6V23.2z M115,22.3l-0.1,0.8l0.4-0.5L115,22.3z M148.2,19.6l0.2,0l-0.4-0.2l-0.1,0L148.2,19.6z M134,18.8L134,18.8
		l0.6,0.1l0.1-0.2l0.3-1.4l2.7-2.7l0.4,0l0.2-0.2l-1.6,0l-0.4,1.1H136l-1.3,1.4l-0.3,0.1l0.1,0.2l-0.4,0.4v0.8l-0.3,0.3L134,18.8z"
		/>
	<polygon points="163.6,44.6 163.6,40.3 164.1,39.7 164.1,44.6 	"/>
	<rect x="163.8" y="40" transform="matrix(0.7042 -0.71 0.71 0.7042 19.9543 128.3485)" width="0.3" height="0.5"/>
	<polygon points="203.1,115.3 202,115.3 203.1,114.5 203.4,114.9 	"/>
	<path d="M200.2,41l-0.4-0.1l-0.8-0.7h-0.2l-0.3-0.3h-0.2L198,40l-1.9,0l-0.4-0.2l-0.1,0l-0.6,0.5l-0.8-0.7l-0.4-0.1l0-0.6l0.2-0.4
		l3.2,0.5l0.4-0.1l0.1-0.2l0-0.1l-0.5-0.6l-0.1-0.7l0-0.1l-0.4-0.2H196v-0.8l0.3-0.3l0.4-0.1l0.3-0.3l0.9,0.3l0.5,0.5h0.8l0.3-0.3
		l0.6-0.1l2.9,0.7l0.3,0.3v0.2l0.2,0.2l0.8,0.2v0.2l0.6,0.2h0.4l0.9,0.7l0.2,0.5v0.2l-0.8,0.6l-0.7,0l-0.4-0.1l-1.5,0l-0.7,0.4
		l-0.4,0l-0.9-0.3l-0.2,0.2l-0.1,0.3L200.2,41z M199.1,39.7h0.2l0.8,0.8l0.3-0.5l0.1-0.3l0.5-0.5l1.2,0.4h0.1l0.7-0.4l1.7,0.1
		l0.4,0.1h0.4l0.5-0.4l-0.1-0.2l-0.7-0.6l-0.3,0l-1-0.4v-0.1l-0.5-0.1l-0.4-0.4l0-0.3l-2.7-0.6l-0.4,0.1l-0.4,0.4h-1.2l-0.6-0.5
		l-0.5-0.1l-0.2,0.2l-0.5,0.1v0.1h0.4l1.1,0.6l-0.3,0.4l0,0.3l0.5,0.6l0.1,0.4l-0.2,0.6l-0.7,0.2l-3-0.4l0,0.1l0.2,0.1l0.5,0.5
		l0.4-0.3l0.4-0.1l0.5,0.2h1.7l0.4-0.1h0.4L199.1,39.7z"/>
	<path d="M187.6,36.6l-0.5-0.5l0.7-0.7l0.5-0.2l0.1-0.1l-0.1-0.1l-0.6-0.2l-1.4,0l-1-0.9v-0.6l-0.1-0.2l-0.1-0.1l-0.5,0.1l-1.7-0.4
		l-1-0.8l-0.3-0.1l-0.8,0.2l-0.5-0.2l-0.1-0.1l-2-0.3l0.9-0.6l-1.5-0.2l-1.2,0.8l-1.5,0.4l-1.3,0.8l0-0.8l0.1-0.2l-0.3-0.3l0.7-0.9
		l4.5-1.4l1.1,0.2l0.5-0.2l1.5,0.2l0.4,0.3l1.1,0.2l0.9,1l0.5,0l2,0.7l0.2,0.2l1.5,0.4l0.1,0l0.2,0.1l0.5,0.4l0.7,0.2l0.5,0.5
		l1.4,0.3v0.4l0.2,0.2l0.7,0l1.2,0.4l0.3,0.4l0.4,0.1l0.5,0.5l-0.5,0.5h-1.1l-0.5,0.5l-0.3,0.1l-3.3-0.3l-0.4,0.2L187.6,36.6z
		 M187.7,36.1L187.7,36.1l0.7-0.1l0.4-0.2l3.3,0.3l0.2-0.1l0.5-0.5l1.2,0l-0.1-0.1l-0.4-0.1l-0.3-0.4l-1-0.3h-0.8l-0.5-0.5v-0.2
		l-1.1-0.2l-0.5-0.5l-0.7-0.2l-0.5-0.4l-0.2-0.1l-1.5-0.4l-0.2-0.2l-1.8-0.6h-0.5l-1-1.1l-1.1-0.2l-0.4-0.3l-1.2-0.2l-0.5,0.2
		l-1.1-0.2l-4.2,1.3l-0.3,0.4l0.3,0.2l0,0.1l0.5-0.3l1.5-0.4l1.2-0.8l2.3,0.3l-0.2,0.7l-0.1,0l0.9,0.1l0.2,0.2l0.3,0.1l0.8-0.2
		l0.5,0.2l1,0.8l1.4,0.3l0.7-0.1l0.4,0.4l0.1,0.4v0.4l0.6,0.6l1.3,0l0.8,0.3L189,35l-0.4,0.6l-0.6,0.2L187.7,36.1z"/>
</g>
</svg>
