<svg xmlns="http://www.w3.org/2000/svg" xmlns:xlink="http://www.w3.org/1999/xlink" version="1.1" x="0px" y="0px" viewBox="0 0 100 100" enable-background="new 0 0 100 100" xml:space="preserve"><g><path d="M45.485,26.415l8.323,8.323l9.857-9.857c-3.654-3.458-7.514-6.352-11.301-8.576C50.594,19.954,48.29,23.357,45.485,26.415z   "></path><path d="M76.659,42.123c-3.33,1.6-6.44,3.688-9.237,6.229l11.335,11.334C81.071,55.717,80.136,49.211,76.659,42.123z"></path><path d="M66.31,27.526l-9.856,9.857l8.324,8.324c3.059-2.805,6.46-5.109,10.109-6.881C72.662,35.041,69.77,31.181,66.31,27.526z"></path><path d="M50.539,11.04C51.814,7.526,52.57,3.814,52.779,0c-8.646,0.237-17.226,3.445-24.065,9.643l0.084,0.085   C33.85,6.17,41.883,6.853,50.539,11.04z"></path><path d="M31.506,12.436L42.84,23.77c2.543-2.795,4.629-5.906,6.229-9.237C41.981,11.056,35.475,10.122,31.506,12.436z"></path><path d="M16.51,40.096c0.583,8.07,3.763,15.986,9.559,22.383L38.66,49.887c-3.857-4.053-7.021-8.285-9.424-12.446   C25.197,38.963,20.916,39.867,16.51,40.096z"></path><path d="M78.381,37.327c4.039-1.524,8.32-2.427,12.728-2.655c-0.584-8.07-3.765-15.988-9.56-22.383L68.957,24.879   C72.815,28.932,75.979,33.165,78.381,37.327z"></path><path d="M53.752,61.957c-4.162-2.404-8.395-5.566-12.447-9.426L28.714,65.123c6.396,5.797,14.313,8.977,22.383,9.561   C51.326,70.275,52.229,65.994,53.752,61.957z"></path><path d="M81.549,62.479c6.199-6.84,9.406-15.418,9.643-24.066c-3.813,0.209-7.525,0.967-11.04,2.242   c4.188,8.654,4.871,16.689,1.313,21.74L81.549,62.479z"></path><path d="M27.466,34.113c-4.188-8.656-4.87-16.689-1.313-21.74l-0.085-0.084c-6.198,6.839-9.406,15.418-9.643,24.064   C20.239,36.145,23.951,35.389,27.466,34.113z"></path><path d="M78.819,65.039c-5.051,3.559-13.085,2.875-21.74-1.313c-1.276,3.514-2.032,7.227-2.24,11.039   c8.646-0.236,17.225-3.443,24.064-9.641L78.819,65.039z"></path><path d="M78.903,9.643c-6.396-5.796-14.312-8.976-22.382-9.559c-0.229,4.407-1.133,8.688-2.656,12.727   c4.162,2.403,8.395,5.566,12.447,9.423L78.903,9.643z"></path><path d="M41.308,47.24l9.855-9.857L42.84,29.06c-3.058,2.805-6.461,5.109-10.108,6.88C34.955,39.727,37.849,43.586,41.308,47.24z"></path><path d="M40.195,26.415L28.86,15.081c-2.313,3.968-1.379,10.476,2.098,17.563C34.289,31.044,37.399,28.958,40.195,26.415z"></path><path d="M76.112,62.332L64.777,50.998c-2.543,2.795-4.629,5.904-6.229,9.236C65.637,63.711,72.143,64.646,76.112,62.332z"></path><path d="M62.133,48.352l-8.324-8.322l-9.855,9.855c3.652,3.459,7.513,6.352,11.299,8.576C57.022,54.813,59.328,51.41,62.133,48.352   z"></path><path d="M88.456,72.03L82.8,66.374c-7.744,7.744-18.04,12.009-28.991,12.009c-10.952,0-21.248-4.265-28.991-12.009   c-7.744-7.744-12.009-18.04-12.009-28.991c0-10.952,4.265-21.248,12.009-28.991L19.16,2.734   C9.905,11.989,4.809,24.294,4.809,37.383S9.905,62.776,19.16,72.03C26.547,79.418,35.879,84.146,46,85.758V92H22v8h56v-8H54v-5.622   C67.017,86.328,79.247,81.241,88.456,72.03z"></path></g></svg>