<svg xmlns="http://www.w3.org/2000/svg" viewBox="0 0 40.24 59.59"><defs><style>.cls-1{fill:#142945;}</style></defs><title>Asset 2</title><g id="Layer_2" data-name="Layer 2"><g id="STYLE_TILES" data-name="STYLE TILES"><g id="UrJwAS"><path class="cls-1" d="M0,59.59V7.54c2.1,0,4.09,0,6.07,0a1.35,1.35,0,0,1,1,.69c.63,1.65,2,1.79,3.43,1.79,6.34,0,12.67,0,19,0,1.91,0,3.51-.26,3.87-2.42h6.87v52ZM25.85,16,22,15.75V12.09h-3.8l-.19,3.83H14.4v3.82l3.83.22v3.54H22l.17-3.57,3.64-.19ZM36,53.32H7.59v2.15H36.15Zm0-5.34H7.58v2.16H36.07ZM7.52,44.64H36.16L36,42.52H7.52Zm28.55-7.48H7.58v2.15h28.5Zm0-5.48H7.56v2.19H36Zm0-3.1V26.34H7.57v2.24ZM5.25,37l-2.37.12L3,39.35H5.25ZM5.2,34V31.72H3.07V34Zm0,8.55H3.06v2.2H5.23Zm0,7.68V47.85L2.89,48,3,50.2ZM3,28.56H5.21v-2.2H3ZM3,55.66l2.37-.13-.13-2.2H3Z"/><path class="cls-1" d="M20,9.06H10.61C9.42,9.06,8.18,9,8.15,7.41s1-1.86,2.29-1.94c.73,0,1.46-.2,2.19-.2,2.17,0,3.72-.47,3.75-3.18,0-.66,1.25-1.55,2.11-1.9A7.43,7.43,0,0,1,21.25.07c1.56,0,2.61.75,2.63,2.37,0,2.08,1.08,2.79,3,2.75a8.3,8.3,0,0,1,3.15.36c.79.31,1.35,1.18,2,1.81C31.37,7.92,30.7,8.93,30,9,26.66,9.14,23.33,9,20,9Zm.1-4.48c.58-.78,1.28-1.33,1.2-1.7C21.18,2.35,20.49,2,20,1.51c-.39.44-1.07.86-1.1,1.32S19.53,3.78,20.1,4.58Z"/></g></g></g></svg>