<svg xmlns="http://www.w3.org/2000/svg" viewBox="0 0 58.59 58.44"><defs><style>.cls-1{fill:#142945;}</style></defs><title>Asset 3</title><g id="Layer_2" data-name="Layer 2"><g id="STYLE_TILES" data-name="STYLE TILES"><g id="Fe9Gfe"><path class="cls-1" d="M38.25,9.58c-.7-.59-1.42-.95-1.74-1.53s-.07-1.22-.07-1.85a7.21,7.21,0,0,1,1.75.14c.37.12.63.58.94.89L51.55,19.64c.31.31.75.59.86,1s.17,1.22-.09,1.44a1.7,1.7,0,0,1-1.55.2,11.57,11.57,0,0,1-2-1.75c-.42.39-.86.77-1.26,1.17C40,29.17,32.4,36.55,25.1,44.23,22.66,46.8,20.17,47,17.3,46a2.52,2.52,0,0,0-2.94.72c-.92.82-1.39,2.71-3.33,1.83-.17-.08-.67.47-1,.77-2.87,2.85-5.71,5.73-8.61,8.56-.33.32-1,.34-1.44.5a4.28,4.28,0,0,1,.59-1.33c2.83-2.89,5.71-5.73,8.57-8.6.47-.47,1.2-.86.56-1.75-.11-.15.11-.61.28-.85a5,5,0,0,1,.91-.94c1.48-1.2,2.28-2.37,1.43-4.52-1-2.54-.31-4.77,1.87-6.86,7.64-7.36,15.05-14.94,22.55-22.44C37.18,10.73,37.58,10.29,38.25,9.58ZM31,32l-4.33-4.55-.9,1,4.31,4.63Zm5.4-14.37,4.44,4.5.85-.92-4.28-4.56Zm.1,8.88L32.1,22l-.93,1,4.4,4.46ZM25.65,37.34l-4.13-4.55-1.3,1,4.5,4.64Z"/><path class="cls-1" d="M54.9,8.87l-6.06,6.28L43.72,9.85l6.17-6A10.8,10.8,0,0,1,48.1,1.93,5.26,5.26,0,0,1,47.89.06c.63,0,1.5-.22,1.84.11q4.44,4.23,8.68,8.67c.31.33.13,1.13.17,1.72a4.63,4.63,0,0,1-1.86,0A8.86,8.86,0,0,1,54.9,8.87Z"/></g></g></g></svg>