<svg xmlns="http://www.w3.org/2000/svg" viewBox="0 0 59.83 60.39"><defs><style>.cls-1{fill:#142945;}</style></defs><title>Asset 4</title><g id="Layer_2" data-name="Layer 2"><g id="STYLE_TILES" data-name="STYLE TILES"><g id="jkZ6pN"><path class="cls-1" d="M21.39,41.82c-.5,9.18,4,14.35,10.95,15.11C40,57.77,46,53,47,45.34a14.54,14.54,0,0,0-1.48-8.43,67.58,67.58,0,0,1-3-6.18,15,15,0,0,1-1.09-5.5c.14-3.71,2.51-6,6.81-7.22.92-.25,1.49-.54,1.72-1.63a4.75,4.75,0,0,1,5-3.76,5,5,0,1,1-4.33,7.87c-.23-.31-.42-.65-.61-.95-5.61.75-7.92,4.57-5.75,9.7,1.08,2.56,2.59,4.94,3.75,7.47a16.6,16.6,0,0,1-2,17.84C42,60.11,36.07,61.26,29.62,59.83s-10.06-6-11.4-12.39c-.38-1.79-.48-3.63-.73-5.63-1.51,0-3,.1-4.5,0a2.77,2.77,0,0,1-1.87-1c-2.6-4-5.1-8.13-7.6-12.22-.28-.46-.62-1.15-.46-1.55.64-1.59-.3-2.77-.84-4.06C1,20.06-.13,17.17,0,13.93s1.21-6.25,3.74-8.3C6.67,3.27,9.51.57,13.57.17A5.87,5.87,0,0,1,16,.13a2.46,2.46,0,0,1,1.39,1.68c0,.46-.83,1.36-1.4,1.46-2.27.39-4.58.54-6.87.81a3.53,3.53,0,0,0-1.08.43C2.89,7.09.57,12,2.11,17.61A68.1,68.1,0,0,0,4.52,24c.1.25.25.65.43.68C7,25.08,7.39,27,8.28,28.39c1.19,1.88,2,4.43,3.66,5.47s4.11.3,6.22.32c2.62,0,5.25.07,7.87,0a2.58,2.58,0,0,0,1.82-1c1.57-2.5,2.94-5.13,4.49-7.64a9.33,9.33,0,0,1,1.84-1.76c.2-.18.56-.26.65-.47C36.45,19.67,38,16.07,37.11,12a10.15,10.15,0,0,0-6.66-7.61c-2.11-.77-4.52-.79-6.8-1-1.2-.12-2.17-.38-2.12-1.77s1-1.68,2.14-1.55c2.49.29,5.16.1,7,2.42.28.36.88.45,1.32.69,5.85,3.16,8.28,8.88,6.45,15.28-.38,1.34-1,2.6-1.37,3.94a28.3,28.3,0,0,0-.43,3.13,4.42,4.42,0,0,1-.37,1.59C33.47,31.74,30.67,36.37,27.8,41a2.32,2.32,0,0,1-1.62.83C24.58,41.89,23,41.82,21.39,41.82Zm36-24.19a2.58,2.58,0,1,0-2.68,2.55A2.53,2.53,0,0,0,57.41,17.63ZM13.15,35.94c.33,1.13.85,1.65,2,1.62q4.34-.11,8.69,0c1.18,0,1.69-.51,2-1.62Z"/></g></g></g></svg>
