<svg xmlns="http://www.w3.org/2000/svg" xmlns:xlink="http://www.w3.org/1999/xlink" version="1.1" x="0px" y="0px" viewBox="0 0 100 100" style="enable-background:new 0 0 100 100;" xml:space="preserve"><g><path d="M42.9,71h14.1c1.1,0,2.1-0.6,2.1-1.3v-0.3H40.9v0.3C40.9,70.4,41.8,71,42.9,71z"></path><rect x="21" y="30.4" width="57.9" height="29.4"></rect><path d="M82.3,29c0-1.2-1-2.3-2.3-2.3H20c-1.2,0-2.3,1-2.3,2.3v36.1h64.5V29z M79.7,60.2c0,0.2-0.2,0.4-0.4,0.4H20.7   c-0.2,0-0.4-0.2-0.4-0.4V30c0-0.2,0.2-0.4,0.4-0.4h58.7c0.2,0,0.4,0.2,0.4,0.4V60.2z"></path><path d="M85.9,70.8v-1.3h-26v0.3c0,1.1-1.3,2-2.8,2H42.9c-1.5,0-2.8-0.9-2.8-2v-0.3h-26v1.3c0,1.4,1.1,2.6,2.6,2.6h66.7   C84.7,73.3,85.9,72.2,85.9,70.8z"></path><polygon points="17.5,65.8 14.6,68.7 40.5,68.7 59.5,68.7 85.4,68.7 82.5,65.8  "></polygon></g></svg>