<svg xmlns="http://www.w3.org/2000/svg" xmlns:xlink="http://www.w3.org/1999/xlink" version="1.1" x="0px" y="0px" viewBox="0 0 100 100" enable-background="new 0 0 100 100" xml:space="preserve"><g><rect x="22" y="43.5" width="6" height="35"></rect><rect x="34.5" y="43.5" width="6" height="35"></rect><rect x="47" y="43.5" width="6" height="35"></rect><rect x="59.5" y="43.5" width="6" height="35"></rect><rect x="72" y="43.5" width="6" height="35"></rect><polygon points="85,85.5 80,85.5 80,80.5 20,80.5 20,85.5 15,85.5 15,90.5 10,90.5 10,96.5 90,96.5 90,90.5 85,90.5  "></polygon><path d="M81.5,38.5c0-0.829-0.672-1.5-1.5-1.5H20c-0.829,0-1.5,0.671-1.5,1.5S19.171,40,20,40h60C80.828,40,81.5,39.329,81.5,38.5z   "></path><path d="M88.675,30.903l-35.76-22.35c-1.598-1-4.232-1-5.83,0l-35.76,22.35c-1.595,0.997-1.567,2.07-1.409,2.622   C10.073,34.076,10.62,35,12.5,35h75c1.881,0,2.427-0.924,2.585-1.476S90.27,31.9,88.675,30.903z"></path></g></svg>