<svg xmlns="http://www.w3.org/2000/svg" xmlns:xlink="http://www.w3.org/1999/xlink" version="1.1" x="0px" y="0px" viewBox="0 0 100 100" style="enable-background:new 0 0 100 100;" xml:space="preserve"><g><path d="M79.2,35H67.8V19.4h-12V35H44.3V19.4h-12V35H20.8V19.4H8.6v73.2h82.8V19.4H79.2V35z M35.8,78.2H23.1v-5.8h12.7V78.2z    M35.8,64.7H23.1v-5.8h12.7V64.7z M56.4,78.2H43.6v-5.8h12.7V78.2z M56.4,64.7H43.6v-5.8h12.7V64.7z M56.4,51.2H43.6v-5.8h12.7   V51.2z M76.9,78.2H64.2v-5.8h12.7V78.2z M76.9,64.7H64.2v-5.8h12.7V64.7z M76.9,51.2H64.2v-5.8h12.7V51.2z"></path><rect x="23.6" y="9.1" width="5.8" height="23.1"></rect><rect x="70.6" y="9.1" width="5.8" height="23.1"></rect><rect x="47.1" y="9.1" width="5.8" height="23.1"></rect></g></svg>