<svg xmlns="http://www.w3.org/2000/svg" xmlns:xlink="http://www.w3.org/1999/xlink" version="1.2" baseProfile="tiny" x="0px" y="0px" viewBox="0 0 100 100" xml:space="preserve"><g><path d="M76.75,36l-9.667-7.25H45.518l-8.691,8.691c3.665,2.798,8.94,2.524,12.29-0.825c0.234-0.234,0.552-0.366,0.884-0.366h12.5   c0.327,0,0.64,0.128,0.874,0.356l18.75,18.321c1.159,1.158,1.829,2.659,1.919,4.269c0.229-0.272,0.573-0.446,0.957-0.446h6.25   v-22.5H77.5C77.229,36.25,76.966,36.162,76.75,36z"></path><path d="M61.991,38.75H50.501c-2.19,2.007-5.012,3.106-8.001,3.106c-3.167,0-6.145-1.233-8.384-3.473   c-0.488-0.488-0.488-1.279,0-1.768l7.866-7.866h-9.066L23.25,36c-0.216,0.162-0.479,0.25-0.75,0.25H8.75v22.5h6.496   c-0.03,0.271-0.049,0.545-0.049,0.821c0,0.573,0.073,1.134,0.201,1.679c0.307,1.308,0.964,2.511,1.939,3.486   c0.989,0.989,2.195,1.626,3.466,1.928c-0.394,0.906-0.605,1.89-0.605,2.908c0,1.951,0.76,3.785,2.14,5.165   c1.424,1.423,3.294,2.135,5.164,2.135c0.99,0,1.978-0.205,2.901-0.604c0.309,1.302,0.964,2.499,1.935,3.469   c1.424,1.423,3.294,2.135,5.164,2.135s3.74-0.711,5.164-2.135l0.366-0.366l1.768-1.768l2.55,2.55c1.462,1.462,3.842,1.462,5.304,0   c0.823-0.823,1.276-1.917,1.276-3.081c0-1.145-0.439-2.223-1.237-3.041l-2.178-2.178c0.576-0.662,1.019-1.409,1.321-2.214   l2.586,2.586c0.016,0.016,0.032,0.032,0.048,0.049l2.666,2.666c1.58,1.579,4.151,1.58,5.732,0c0.766-0.766,1.188-1.784,1.188-2.866   c0-1.083-0.422-2.101-1.188-2.866l-8.75-8.75c-0.244-0.244-0.366-0.564-0.366-0.884s0.122-0.64,0.366-0.884   c0.488-0.488,1.279-0.488,1.768,0l11.25,11.25c1.58,1.579,4.151,1.58,5.732,0c0.766-0.766,1.188-1.784,1.188-2.866   c0-1.083-0.422-2.101-1.188-2.866l-11.25-11.25c-0.244-0.244-0.366-0.564-0.366-0.884s0.122-0.64,0.366-0.884   c0.488-0.488,1.279-0.488,1.768,0l11.25,11.25c1.58,1.579,4.151,1.58,5.732,0c0.766-0.766,1.188-1.784,1.188-2.866   c0-1.083-0.422-2.101-1.188-2.866L61.991,38.75z M20.164,61.907c-0.624-0.624-0.968-1.454-0.968-2.336s0.344-1.712,0.968-2.336   l2.5-2.5c0.624-0.624,1.454-0.968,2.336-0.968s1.712,0.344,2.336,0.968c0.624,0.624,0.968,1.453,0.968,2.335   c0,0.882-0.343,1.711-0.967,2.335l-1.668,1.668l-0.833,0.833C23.548,63.195,21.453,63.194,20.164,61.907z M29.836,71.907   c-1.288,1.288-3.383,1.288-4.672,0c-0.624-0.624-0.968-1.454-0.968-2.336s0.344-1.712,0.968-2.336l2.5-2.5l2.5-2.5l5-5   c0.644-0.644,1.49-0.966,2.336-0.966c0.846,0,1.692,0.322,2.336,0.966c0.624,0.624,0.968,1.453,0.968,2.335   s-0.344,1.712-0.968,2.336L29.836,71.907z M47.336,69.407l-7.5,7.5c-1.288,1.288-3.383,1.288-4.672,0   c-0.624-0.624-0.968-1.454-0.968-2.336s0.344-1.712,0.968-2.336l7.5-7.5c0.644-0.644,1.49-0.966,2.336-0.966   c0.846,0,1.692,0.322,2.336,0.966c0.624,0.624,0.968,1.453,0.968,2.335S47.96,68.783,47.336,69.407z"></path></g></svg>