<svg xmlns:dc="http://purl.org/dc/elements/1.1/" xmlns:cc="http://creativecommons.org/ns#" xmlns:rdf="http://www.w3.org/1999/02/22-rdf-syntax-ns#" xmlns:svg="http://www.w3.org/2000/svg" xmlns="http://www.w3.org/2000/svg" xmlns:sodipodi="http://sodipodi.sourceforge.net/DTD/sodipodi-0.dtd" xmlns:inkscape="http://www.inkscape.org/namespaces/inkscape" version="1.1" x="0px" y="0px" viewBox="0 0 100 100"><g transform="translate(0,-952.36218)"><path style="color:#000000;enable-background:accumulate;" d="m 49.843801,958.35678 a 2.0001995,2.0001995 0 0 0 -1.8438,2.0312 l 0,4 4,0 0,-4 a 2.0001995,2.0001995 0 0 0 -2.1562,-2.0312 z m -41.8437995,8.0312 0,6 83.9999975,0 0,-6 -83.9999975,0 z m 5.0000005,8 0,49.00002 c 0,0.554 0.446,1 1,1 l 71.999999,0 c 0.554,0 1,-0.446 1,-1 l 0,-49.00002 -74,0 z m 31.999999,8 10,0 c 1.0472,10e-5 1.9999,0.9528 2,2 l 0,8 8,0 c 1.0472,10e-5 1.9999,0.9528 2,2 l 0,10.00002 c -1e-4,1.0472 -0.9528,1.9999 -2,2 l -8,0 0,8 c -10e-5,1.0472 -0.9528,1.9999 -2,2 l -10,0 c -1.0472,-1e-4 -1.9999,-0.9528 -2,-2 l 0,-8 -8,0 c -1.0472,-1e-4 -1.9999,-0.9528 -2,-2 l 0,-10.00002 c 1e-4,-1.0472 0.9528,-1.9999 2,-2 l 8,0 0,-8 c 1e-4,-1.0472 0.9528,-1.9999 2,-2 z m 2,4 0,10 -10,0 0,6.00002 10,0 0,10 6,0 0,-10 10,0 0,-6.00002 -10,0 0,-10 -6,0 z m 1,40.00002 0,3.1875 -12.4688,13.4375 a 2.001335,2.001335 0 1 0 2.9376,2.7188 l 9.5312,-10.25 0,6.9062 a 2.0002,2.0002 0 1 0 4,0 l 0,-6.9062 9.531201,10.25 a 2.001335,2.001335 0 1 0 2.9376,-2.7188 l -12.4688,-13.4375 0,-3.1875 -4,0 z" fill="#000000" stroke="none" marker="none" visibility="visible" display="inline" overflow="visible"></path></g></svg>