<svg xmlns="http://www.w3.org/2000/svg" xmlns:xlink="http://www.w3.org/1999/xlink" version="1.1" x="0px" y="0px" viewBox="0 0 100 100" enable-background="new 0 0 100 100" xml:space="preserve"><g><g><polygon points="84.6,51 17.8,51 14.5,51 14.5,64.6 17.8,64.6 84.6,64.6 87.5,64.6 87.5,51   "></polygon></g><g><rect x="14.6" y="67.6" width="7.5" height="27.4"></rect></g><g><rect x="79.9" y="67.6" width="7.5" height="27.4"></rect></g><g><path d="M24.7,95h52.7V67.6H24.7V95z M63.7,71.7h8.9v19.2h-8.9C63.7,90.9,63.7,71.7,63.7,71.7z M52.8,71.7h8.9v19.2h-8.9    C52.8,90.9,52.8,71.7,52.8,71.7z M40.3,71.7h8.9v19.2h-8.9C40.3,90.9,40.3,71.7,40.3,71.7z M29.5,71.7h8.9v19.2h-8.9    C29.5,90.9,29.5,71.7,29.5,71.7z"></path></g></g><path d="M63.6,21.3V5H38.4v16.3H14.5v4.4v1.7V48h72.6V27.4v-6.1H63.6z M25,43.6h-6.6V30H25V43.6z M36.8,43.6h-6.6V30h6.6V43.6z   M48.5,43.6h-6.6V30h6.6V43.6z M53,21.8h-4v-4.4h-4.4v-4H49V9h4v4.4h4.4v4H53V21.8z M60.2,43.6h-6.6V30h6.6V43.6z M72,43.6h-6.6V30  H72V43.6z M83.7,43.6h-6.6V30h6.6V43.6z"></path></svg>