<svg xmlns="http://www.w3.org/2000/svg" xmlns:xlink="http://www.w3.org/1999/xlink" version="1.1" x="0px" y="0px" viewBox="0 0 100 100" enable-background="new 0 0 100 100" xml:space="preserve"><path d="M6.917,73.781c0.489,0,0.979-0.187,1.354-0.561c1.433-1.434,2.972-2.518,4.589-3.354l17.281,17.281  c-0.835,1.616-1.93,3.15-3.362,4.583c-0.749,0.748-0.747,1.96,0,2.707C27.152,94.813,27.644,95,28.133,95  c0.49,0.001,0.979-0.188,1.354-0.562c6.822-6.822,7.278-15.314,6.73-23.869c-0.809-0.068-1.612-0.136-2.409-0.203  c-0.489-0.043-0.969-0.083-1.448-0.124c0.162,2.347,0.247,4.644,0.152,6.866l-9.622-9.622c3.554-0.15,7.296,0.164,11.124,0.493  c9.887,0.854,20.104,1.729,27.878-5.954c0.016-0.016,0.034-0.025,0.049-0.041c0.009-0.008,0.018-0.02,0.026-0.028  c0.007-0.007,0.013-0.011,0.019-0.017c0.009-0.009,0.017-0.021,0.024-0.029c8.048-8.119,7.151-18.584,6.277-28.705  c-0.297-3.446-0.584-6.82-0.52-10.035l9.062,9.061c-2.024,0.041-4.111-0.055-6.24-0.209c0.026,0.325,0.055,0.648,0.084,0.977  c0.082,0.949,0.161,1.912,0.236,2.882c8.481,0.571,16.906,0.229,23.529-6.393c0.747-0.748,0.747-1.961,0-2.708  c-0.749-0.748-1.96-0.748-2.709,0c-1.433,1.432-2.982,2.509-4.628,3.313L69.916,12.907c0.806-1.648,1.871-3.206,3.305-4.64  c0.749-0.748,0.749-1.96,0-2.707c-0.747-0.747-1.958-0.747-2.707,0.001c-7.784,7.781-6.898,18.045-6.041,27.973  c0.308,3.563,0.604,7.052,0.522,10.384l-8.91-8.912c1.991-0.048,4.038,0.037,6.125,0.182c-0.039-0.481-0.08-0.961-0.123-1.448  c-0.068-0.795-0.136-1.601-0.202-2.41c-8.525-0.545-16.986-0.093-23.796,6.663c-0.009,0.009-0.02,0.015-0.028,0.023  c-0.008,0.008-0.014,0.016-0.021,0.022c-0.008,0.008-0.016,0.015-0.023,0.022c-0.01,0.01-0.016,0.021-0.025,0.03  c-6.553,6.611-6.893,15.002-6.323,23.451c0.964,0.075,1.922,0.156,2.872,0.238c0.333,0.028,0.657,0.054,0.987,0.083  c-0.15-2.082-0.247-4.123-0.213-6.105l8.928,8.928c-3.175,0.054-6.502-0.228-9.899-0.521C24.19,63.29,13.69,62.385,5.563,70.513  c-0.748,0.748-0.748,1.96,0,2.708C5.937,73.595,6.428,73.781,6.917,73.781z M69.11,14.807l16.077,16.079  c-1.836,0.65-3.771,1.029-5.785,1.211L67.909,20.604C68.091,18.586,68.459,16.645,69.11,14.807z M53.524,35.152l11.316,11.32  c-0.189,2.005-0.556,3.944-1.201,5.79L47.74,36.363C49.585,35.719,51.52,35.342,53.524,35.152z M45.824,37.155l17.017,17.016  c-0.703,1.474-1.619,2.88-2.79,4.208L41.614,39.942C42.942,38.771,44.35,37.859,45.824,37.155z M40.248,41.285l18.463,18.463  c-1.303,1.195-2.695,2.124-4.164,2.832L37.411,45.445C38.118,43.977,39.053,42.587,40.248,41.285z M35.439,53.176  c0.174-2.023,0.544-3.966,1.185-5.81L52.638,63.38c-1.846,0.643-3.795,1-5.819,1.175L35.439,53.176z M20.378,67.681l11.937,11.938  c-0.229,1.962-0.65,3.853-1.342,5.654L14.729,69.029C16.53,68.337,18.418,67.91,20.378,67.681z"></path></svg>