<?xml version="1.0" encoding="utf-8"?>
<!-- Generator: Adobe Illustrator 19.2.1, SVG Export Plug-In . SVG Version: 6.00 Build 0)  -->
<svg version="1.1"
	 id="Layer_1" xmlns:cc="http://creativecommons.org/ns#" xmlns:dc="http://purl.org/dc/elements/1.1/" xmlns:inkscape="http://www.inkscape.org/namespaces/inkscape" xmlns:rdf="http://www.w3.org/1999/02/22-rdf-syntax-ns#" xmlns:sodipodi="http://sodipodi.sourceforge.net/DTD/sodipodi-0.dtd" xmlns:svg="http://www.w3.org/2000/svg"
	 xmlns="http://www.w3.org/2000/svg" xmlns:xlink="http://www.w3.org/1999/xlink" x="0px" y="0px" viewBox="0 0 213 213"
	 style="enable-background:new 0 0 213 213;" xml:space="preserve">
<g>
	<path d="M124,200.4h-0.4c-0.6,0-1-0.1-1.3-0.3l0,0.1l-0.2,0c-0.2,0-0.2-0.1-0.2-0.4c-0.3-0.1-0.6-0.3-0.9-0.3l-1,0
		c-0.6,0-1.1-0.3-1.5-0.5c-0.1,0-0.1-0.1-0.2-0.1c-0.2,0-0.3,0-0.5,0c-0.4,0-0.7,0.1-1.2-0.1l-0.1-0.1c-0.1-0.1-0.2-0.1-0.4-0.2
		c-0.2,0-0.4-0.1-0.6-0.2l-0.1-0.1v-0.2c0-0.2,0-0.2-0.1-0.2c0,0-0.1,0-0.2,0.1l-0.2,0.1l-0.1-0.2c-0.1-0.1-0.2-0.3-0.2-0.3
		c0-0.1-0.1-0.2-0.1-0.2c-0.1,0-0.3,0.1-0.6,0.2l-0.2,0.1l-0.1-0.2c-0.3-0.5-0.5-0.5-1.1-0.5c-0.2,0-0.3,0-0.5,0h-0.2v-0.2
		c0-0.2,0-0.4,0.1-0.6c0,0-0.1,0-0.1-0.1c-0.5-0.3-0.9-0.5-0.9-0.9c0-0.2,0.1-0.3,0.2-0.4c-0.1,0-0.1,0-0.1,0
		c-0.4,0.2-0.6,0.1-1.1-0.5c-0.4-0.5-0.6-0.7-0.5-0.9c0.1-0.2,0.4-0.1,0.7,0c0.2,0.1,0.5,0.2,0.8,0.2c0-0.1-0.1-0.2-0.1-0.2
		c-0.1-0.2-0.2-0.3-0.4-0.4c-0.2-0.1-0.3,0-0.4,0c-0.1,0.1-0.3,0.1-0.6,0c-0.7-0.5-1.4-1.7-1.1-2.3c0.1-0.2,0.2-0.4,0.6-0.4
		c0,0,0-0.1,0-0.1c0-0.1-0.1-0.2-0.1-0.2h-0.7l-0.1-0.1c-0.2-0.4-0.1-0.7-0.1-1c0-0.1,0-0.3,0-0.4l-0.1-0.3
		c-0.2-0.9-0.3-1.7-0.3-2.8c0-0.8,0.3-1.5,0.4-1.8l0.5-0.7l0.1,0c0.3-0.1,0.5,0,0.6,0c0.2,0.1,0.2,0.1,0.3-0.1
		c0.1-0.2,0.2-0.3,0.1-0.5c-0.1-0.2-0.4-0.4-0.8-0.6c-0.1,0-0.2-0.1-0.3-0.1c-0.3,0.5-0.7,0.6-0.9,0.5c-0.3-0.1-0.6-0.5-0.5-1.1
		l0-0.1l1-1v-0.4l0.1-0.1c0.2-0.2,0.3-0.3,0.4-0.3c0.1-0.2,0.2-0.3,0.3-0.4c0.1-0.1,0.2-0.2,0.3-0.4l0-0.1c0.1-0.1,0.3-0.4,0.2-0.8
		c-0.1-0.2-0.2-0.2-0.3-0.3c-0.1,0-0.3-0.1-0.4-0.2c-0.1-0.2,0-0.3,0-0.5c0-0.2,0.3-0.4,0.8-0.7c0.2-0.1,0.3-0.2,0.4-0.3
		c0,0,0-0.1-0.1-0.1c-0.1-0.1-0.2-0.3-0.1-0.4c0.1-0.2,0.3-0.3,0.5-0.3c0.5-0.1,0.7,0.1,0.8,0.2c0.3,0.4,0.1,1,0,1.4
		c0.1,0,0.2,0,0.2,0c0.1-0.1,0.2-0.5,0.2-0.8c0-0.4,0.1-0.7,0.3-1c0.4-1,0.8-2.7,0.6-3.5c-0.1,0.1-0.3,0.2-0.5,0.2
		c0.1,0.5,0.3,1.2-0.2,1.6c0.1,0.2,0.1,0.5,0.1,0.8c0,0.5-0.2,0.8-0.5,1l-0.1,0c0,0-1.7-0.1-1.7-0.7c0-0.2,0.1-0.3,0.2-0.6
		c0.1-0.1,0.2-0.4,0.2-0.4l0-0.1c0.1-0.3,0.1-0.5,0.1-0.7c0-0.2,0-0.5,0.1-0.8h0c0.1-0.2,0.3-0.8,0.6-1.1c0,0-0.1-0.1-0.1-0.1
		c-0.1-0.2-0.3-0.5-0.3-0.8c0-0.2,0.1-0.5,0.1-0.7c0-0.2,0.1-0.4,0.1-0.6c0.1-0.7,0.4-1.1,0.6-1.4c0.2-0.3,0.4-0.6,0.4-0.9
		c0.1-0.3-0.1-1-0.2-1.6c-0.1-0.4-0.2-0.8-0.2-1.1c0-0.1-0.1-0.3-0.1-0.5c-0.2-0.7-0.4-1.4,0-2l0.1-0.2l0.2,0.1
		c0.3,0.1,0.4,0.1,0.4,0s0.1-0.1,0.1-0.4v-0.5l0.1-0.1c0.3-0.3,0.3-0.4,0.4-0.7c0-0.1,0.1-0.2,0.1-0.3c0.2-0.4,0.3-0.9,0.5-1.4
		c0.5-1.3,1-2.6,1.3-3.8c0.1-0.4,0.1-0.8,0.2-1.1c0.2-1,0.4-1.9,0.2-2.9c0-0.4-0.1-0.8-0.1-1.2c-0.1-0.6-0.2-1.3-0.1-2
		c0.1-0.3,0.3-0.5,0.4-0.6c0.2-0.2,0.3-0.3,0.2-1c0-0.4,0-0.6-0.1-0.8c0-0.3-0.1-0.5,0.1-1.2l0-0.1c0.4-0.6,0.6-1.4,0.8-2.2
		c0.5-2.2,0.8-4,0.8-5.4c0-0.4,0-0.8,0-1.2c0-1.2-0.1-2.2,0.2-3.2c0.5-1.7,0.7-4,0.4-6.8c-0.1-0.3-0.1-0.7-0.1-1.1
		c0-0.6,0-1.1-0.3-1.5c-0.3-0.4-0.9-1-1.4-1.4c-0.2-0.2-0.4-0.3-0.5-0.5c-1-1-2.3-1.7-3.6-2.5c-1.6-0.9-3.2-1.8-4.5-3.4
		c-0.1-0.3-0.3-0.5-0.4-0.8c-0.2-0.3-0.3-0.5-0.4-0.7l0-0.1c-0.1-0.6-0.1-0.7,0-0.8l0,0c0,0,0,0,0-0.1c0-0.8-0.3-1.4-0.6-2l-0.2-0.4
		c-0.6-1-1.3-2.3-1.7-3.4c-0.3-0.7-0.6-1.5-0.8-2.3c-0.4-1.2-0.8-2.3-1.4-3.3c-0.3-0.4-0.6-0.9-0.8-1.4c-0.3-0.5-0.5-0.9-0.8-1.3
		c-0.2-0.2-0.6-0.5-1-0.7c-0.5-0.3-1-0.6-1.3-1c-0.3-0.5-0.2-0.7-0.1-1c0-0.1,0.1-0.1,0.1-0.2c0,0,0-0.1-0.1-0.2
		c-0.1-0.2-0.2-0.4-0.2-0.7c0-0.3-0.1-0.6-0.2-0.9c-0.1-0.3-0.2-0.5-0.2-0.8c0.1-1.1,0.9-1.7,1.6-2.2c0.2-0.1,0.3-0.3,0.5-0.4v-0.5
		c0-0.7-0.7-1.3-1.4-1.7l-0.4-0.3l0.4-0.2c0.4-0.2,0.4-0.5,0.2-1.1c-0.1-0.4-0.2-0.8-0.1-1.2l0-0.1l0,0c0.1-0.1,0.3-0.2,0.4-0.2
		c0,0,0.1,0,0.1-0.1c0-0.3,0-0.7,0.3-1c0.4-0.4,0.5-0.6,0.6-0.7l0-0.1c0.1-0.2,0.1-0.4,0.1-0.7c0-0.3,0-0.7,0.1-0.9
		c0.2-0.5,0.8-0.7,1.5-1c0.2-0.1,0.5-0.2,0.6-0.3c-0.2-0.3-0.3-0.7-0.1-0.9c0.1-0.2,0.3-0.3,0.7-0.3c-0.1-0.9,0.3-1.1,0.8-1.3
		c0.2-0.1,0.4-0.2,0.6-0.3c0.4-0.2,1.3-1.3,1.4-1.8c-0.1-0.2-0.2-0.3-0.3-0.4c-0.1-0.2-0.2-0.3-0.3-0.5l0-0.1c0-0.2,0.1-0.3,0.2-0.4
		c0-0.2,0.1-0.5,0.1-0.7c0-0.2,0.1-0.4,0.1-0.6c-0.1-0.1-0.2-0.3-0.2-0.4c-0.1-0.1-0.3-0.2-0.3-0.5c0-0.3,0.3-0.5,0.5-0.5
		c0.1-0.1,0.2-0.1,0.2-0.2s-0.1-0.1-0.2-0.2l-0.1,0c-0.2-0.2-0.3-0.3-0.3-0.6c0-0.3,0-0.4,0.1-0.5c0-0.1,0-0.1-0.1-0.4
		c-0.1-0.2-0.2-0.4-0.4-0.6c-0.2-0.2-0.3-0.4-0.4-0.7c-0.4-0.5-0.5-1-0.7-1.5c-0.1-0.3-0.2-0.6-0.4-1c-0.3-0.5-0.5-0.8-0.8-0.8
		c-0.4-0.1-0.8,0.3-1.2,0.7c-0.3,0.3-0.6,0.5-0.9,0.7c0.1,0.1,0.2,0.3,0.3,0.4c0.2,0.3,0.4,0.6,0.4,0.9c0,0.2-0.2,0.5-0.7,0.7
		c-0.2,0.2-0.7,0.5-1,0.5L98,67c-0.4-0.1-0.5-0.3-0.4-0.6l0,0c-0.6-0.4-1.1-0.9-1.5-1.3c-0.4-0.3-0.7-0.3-1.2-0.4
		c-0.1,0-0.2,0-0.3-0.1c0,0,0,0.1-0.1,0.1c0,0.1-0.1,0.2-0.1,0.2v0.6l-0.4-0.4c-0.1-0.1-0.4-0.2-0.6-0.4c-0.3-0.2-0.5-0.3-0.7-0.5
		l0-0.1c-0.1-0.3-0.1-0.5-0.1-0.6c0-0.1,0-0.3-0.1-0.4c-0.1-0.3-0.5-0.5-0.8-0.7c-0.4-0.3-0.8-0.5-1-1c-0.2,0.1-0.6,0.2-0.9,0.1
		c-0.6-0.2-1.3-0.7-1.3-1.4c0-0.3,0.2-0.6,0.3-0.7c0,0,0.1-0.1,0.1-0.1v-0.1l0.1-0.1c0,0-0.1-0.1-0.4-0.2l-0.3-0.2l0.2-0.2
		c0,0,0.1-0.1,0.1-0.2c-0.6-0.8-1.6-1.8-2.2-2.4l-0.1-0.1c-0.1-0.2-0.3-0.4-0.6-0.5c-0.3-0.2-0.6-0.5-0.7-0.7
		c-0.1-0.2-0.1-0.4,0-0.5c-0.8,0.2-2.2-0.2-4.3-1.3c-0.5-0.2-0.9-0.2-1.3-0.3c-0.5-0.1-0.9-0.1-1.4-0.3c-0.6-0.2-1.2-0.8-1.6-1.3
		c-0.2-0.2-0.3-0.4-0.5-0.6c-1.2-1.4-2.6-3-4.5-2.2c-0.3,0.1-0.6,0.2-0.8,0.4c-0.5,0.3-1.1,0.6-1.8,0.5c-0.5,0-1-0.2-1.6-0.4
		c-0.2-0.1-0.4-0.1-0.5-0.2c-0.4-0.2-0.7-0.4-1-0.6c-0.4-0.3-0.9-0.6-1.3-0.7c-0.3-0.1-0.7-0.2-1.1-0.3c-0.4-0.1-0.7-0.2-1.1-0.3
		c-0.8-0.3-1.4-0.7-2.1-1.1c-0.7-0.5-1.4-0.9-2.3-1.2c-0.9-0.2-1.6-0.7-2.4-1.3c-0.5-0.5-1-0.8-1.5-1.1c-0.2-0.1-0.4-0.2-0.6-0.4
		c-0.5-0.3-1.7-1.7-1.5-2.6c0-0.2,0.1-0.5,0.4-0.6c-0.2-0.4-0.1-0.7,0-1c0.1-0.2,0.2-0.4,0.1-0.7c-0.1-0.1-0.2-0.3-0.3-0.4
		c-0.1-0.1-0.2-0.3-0.3-0.4l0-0.1c-0.1-0.3-0.1-0.5-0.1-0.7c0-0.2,0-0.4-0.1-0.5c-0.5-1.1-1.5-2-2.6-2.9c-0.7-0.7-1.5-1.3-2-2
		c-0.2-0.2-0.5-0.4-0.8-0.6c-0.5-0.3-1-0.6-1.3-1.1c-0.3-0.4-0.2-0.8-0.1-1.1c0.1-0.2,0.1-0.4,0.1-0.6c0,0,0,0-0.2,0
		c-0.2,0-0.4,0.1-0.6-0.1c-0.1-0.1-0.2-0.3-0.3-0.5c0-0.1-0.1-0.3-0.1-0.3c-0.1-0.1-0.3-0.3-0.4-0.4c-0.3-0.3-0.6-0.5-0.7-1.1
		c-0.7,0.1-1.1-0.4-1.4-0.7c-0.1-0.1-0.2-0.2-0.2-0.3c-0.2-0.2-0.5-0.5-0.8-0.7c-0.1-0.1-0.2-0.2-0.3-0.2c-0.3,0.1-0.5,0.1-0.8-0.1
		l0-0.1c-0.2-0.4-0.1-0.6-0.1-0.8c0,0,0-0.1,0-0.1c-0.1-0.3-0.2-0.6-0.2-0.8c-0.1-0.3-0.1-0.5-0.2-0.8c-0.4-0.8-0.6-1.5-0.8-2.1
		c-0.1-0.2-0.1-0.3-0.1-0.3c0,0,0-0.1,0-0.1c0,0-0.1-0.1-0.2-0.1L37.3,16c-0.2-0.2-0.5-0.3-0.8-0.4c-0.3-0.1-0.7-0.2-1-0.5
		c-0.2,1,0.5,3.5,1.2,4c0.1,0.1,0.3,0.2,0.5-0.2l0.2-0.3l0.2,0.3c0.4,0.5,0.6,1,0.7,1.5c0.1,0.3,0.2,0.6,0.3,0.9l0.8,1.7
		c0.2,0.3,2.3,3.1,2.8,3.4h0.2l-0.1,0.3c-0.1,0.7,0,0.9,0.3,1.4c0.1,0.1,0.2,0.3,0.3,0.4c0.1,0,0.2,0.2,0.3,0.3
		c0.1,0.1,0.2,0.3,0.1,0.4c0,0,0,0,0,0c0,0,0,0,0,0h0.1l0.1,0.1c0.1,0.1,0.1,0.2,0.2,0.2c0.1,0.1,0.3,0.3,0.3,0.3h0
		c0,0,0.1,0,0.1-0.1l0.2-0.2l0.2,0.3c0,0.1,0.1,0.2,0.2,0.3c0.4,0.8,1.1,2.1,0.7,2.8c-0.2,0.3-0.5,0.5-0.9,0.5c0,0,0,0,0,0
		c-0.6,0-0.8-0.1-0.9-0.5c0-0.1-0.1-0.3-0.2-0.4c-0.4-0.6-1-1.2-1.6-1.6c-0.2-0.2-0.6-0.4-0.9-0.5c-0.4-0.2-0.8-0.3-1-0.6
		c-0.4-0.5-0.3-1-0.2-1.5c0-0.2,0.1-0.4,0.1-0.6c0-1.2-1.1-1.7-2.2-2.1c-0.3-0.1-0.5-0.2-0.8-0.3l-0.1,0c-0.1-0.1-0.4-0.3-0.6-0.5
		c-0.6-0.5-1.3-1-1.5-1.5c-0.1-0.2-0.2-0.5,0-0.7c0.1-0.2,0.4-0.2,0.6-0.3c0.3,0,0.5-0.1,0.7-0.3c0.4-0.8-0.6-1.5-1.7-2.3
		c-0.3-0.2-0.6-0.4-0.8-0.6c-0.8-0.8-1.4-2.3-1.8-3.4l-0.1-0.2c-0.1-0.3-0.2-0.6-0.3-0.8c-0.1-0.3-0.2-0.5-0.3-0.9
		c-0.1-0.3-0.2-0.4-0.3-0.6c-0.1-0.2-0.3-0.4-0.2-0.6c0.1-0.2,0.3-0.4,0.7-0.5c0.4-0.2,1.3-0.2,2.1-0.2c0.5-0.2,0.9-0.2,1.3-0.2
		c1.3,0,1.3,0,1.3,0.2c0,0.1,0,0.2-0.1,0.2l5.5,1.8c1.3,0.5,2.5,0.5,3.7,0.4c0.3,0,0.7,0,1,0c0.5,0,0.9,0,1.2-0.1
		c0-0.2,0.1-0.5,0.3-0.6l0.1,0c0.3-0.2,1-0.1,1.7-0.1c0.2,0,0.4,0,0.5,0c1.1,0,1.9,0.8,2.8,1.5c0.2,0.2,0.5,0.4,0.7,0.6
		c0.5,0.4,0.8,0.9,1.1,1.4c0.3,0.6,0.6,1.1,1.2,1.5c0.1,0,0.2,0.1,0.3,0.2c0.4,0.2,0.8,0.5,1.1,0.4c0.1,0,0.2-0.3,0.3-0.6
		c0.1-0.4,0.2-0.7,0.5-0.9c0.5-0.3,1.1-0.5,1.7-0.3c1.5,0.3,2.8,2.4,3.7,3.8c0.2,0.4,0.4,0.7,0.6,1c0.2,0.3,0.3,0.7,0.5,1
		c0.2,0.5,0.4,1.1,0.8,1.4c0.6,0.6,2.4,1.2,3.1,1l0.2,0l0.1,0.2c0.3,0.7-0.1,1.7-0.5,2.6c-0.1,0.3-0.3,0.7-0.3,0.9
		c-0.2,1-0.2,2.1-0.2,3.1c0,1,0,1.4,0.4,2.3c0.1,0.1,0.2,0.2,0.3,0.3c0,0.1,0.1,0.1,0.1,0.2l0.1,0.1v0.9c0.1,0.1,0.1,0.3,0.1,0.4
		c0.1,0.3,0.2,0.5,0.4,0.7l0,0.1c0.2,0.4,0.4,0.7,0.6,1c0.2,0.3,0.4,0.6,0.6,1.1c0.1,0.1,0.2,0.3,0.3,0.5c0.3,0.4,0.6,0.9,0.8,1.1
		c0.4,0,0.8,0,1.3,0.2c0.3,0,0.5,0.3,0.7,0.5c0.5,0.4,0.6,0.3,1.1,0.1c0.2-0.1,0.4-0.1,0.7-0.2c0.4-0.1,0.8-0.2,1.2-0.2
		c1.4-0.3,2.9-0.5,3.7-1.7c0.4-0.5,0.4-1.2,0.5-1.8c0.1-0.8,0.2-1.5,0.8-2.1c1.3-0.9,4.1-1.1,5.4-0.9c1.1,0,1.3,0,1.4,1
		c0,0.1,0,0.3,0.1,0.5c0.2,0.7,0.2,1.2-0.5,1.9l-0.4,0.4v-0.5c-0.1,0.4-0.2,1-0.3,1.5c-0.3,1.9-0.5,3.1-1.1,3.4
		c-0.1,0-0.1,0.1-0.2,0.1c0,0.2,0,0.3,0,0.5c0,0.6,0.1,1.2-0.1,1.8c-0.1,0.5-0.4,0.8-0.6,1.1c0,0-0.1,0.1-0.1,0.1
		c0.2,0,0.3,0.1,0.4,0.2c0.1,0.1,0.2,0.1,0.3,0.1c0,0,0.1-0.1,0.2-0.2l0.1-0.1h0.2c0.4,0,0.7,0.1,0.9,0.1c0.2,0,0.4,0.1,0.5,0.1
		c0.6,0,0.9-0.1,1.4-0.2c0.2-0.1,0.4-0.1,0.6-0.2c0.4,0,0.6,0.1,0.8,0.1c0.1,0,0.3,0.1,0.5,0.1c2,0,3.1,0.7,4.6,2.2l0.2,0.2
		l-0.3,0.2c-0.2,0.1-0.2,0.2-0.1,0.5c0.1,0.2,0.1,0.6,0,1c0,0.3-0.1,0.7-0.3,0.9C95,51.9,95,52,95,52.1c0,1.2,0,2.3-0.2,3.6
		c-0.4,1.4,0,1.9,0.8,3.2c0.3,0.5,0.7,0.9,1,1.3c0.3,0.3,0.6,0.6,0.8,1c0.1-0.1,0.2-0.2,0.3-0.2c0.2,0,0.4,0.1,0.5,0.3
		c0.2,0.2,0.4,0.4,0.7,0.4c0.5,0,1.1-0.4,1.6-0.8c0.3-0.2,0.7-0.5,1-0.6c1-0.5,2.6,0.1,3.1,0.4c0.4,0.3,0.7,0.7,1,1
		c0.3,0.4,0.7,0.9,1.1,1.1c0.1-0.6,0.6-1.1,1.1-1.6c0.1-0.1,0.2-0.2,0.3-0.3c0.1-0.1,0.4-0.2,0.6-0.3c0.1,0,0.2,0,0.2-0.1l0,0
		c0.1-0.2,0.1-0.5,0.1-0.8c0-0.4,0-0.8,0.1-1.1c0.1-0.4,0.6-1.5,1.4-1.8c0.3-0.2,0.6-0.1,0.8,0c0,0,0.1,0,0.1,0h0.1l0,0
		c0,0,0-0.1,0-0.2v-0.1l0.1-0.1c0,0,0.3-0.3,0.6-0.3c0.1,0,0.3,0,0.6,0.1c0.2,0,0.4,0.1,0.5,0.1c0.2,0,0.3-0.1,0.5-0.3
		c0.1-0.1,0.3-0.2,0.5-0.3c0.5-0.2,0.7-0.5,1-0.7c0.2-0.2,0.4-0.3,0.6-0.5c0.3-0.1,0.6-0.3,1-0.3c0.5-0.1,0.9,0.2,1.1,0.6
		c0.1,0.3,0.1,0.5,0,0.8c-0.2,0.5-0.9,0.8-1.4,1l0.4,0.7c0.5-0.3,1-0.5,1.6-0.7c0.3-0.1,0.5-0.2,0.7-0.3c-0.2-0.6-0.2-1.3,0.2-1.6
		c0.2-0.1,0.5-0.2,1,0.3c0.2,0.2,0.2,0.5,0.2,0.7c0,0.1,0,0.3,0,0.3l0.1,0.1c0.1,0,0.4,0.1,1,0.1c0.5,0,1,0.3,1.3,0.7
		c0.1,0.2,0.1,0.4,0.1,0.7c0,0.1,0,0.3,0,0.3c0.3,0.3,0.8,0.2,1.4,0c0.5-0.1,1.1-0.2,1.6-0.1c0.5,0.1,0.9,0.3,1.3,0.5
		c0.7,0.4,1.2,0.7,2.3-0.1c0.1-0.1,0.2-0.1,0.2-0.1c0.1-0.1,0.2-0.2,0.7-0.3c0.3,0,1.5-0.2,1.7-0.2c0.1,0,0.3,0,0.5,0
		c0.5,0,1.1-0.1,1.6,0.1l0,0c0.5-0.5,1-0.5,1.6-0.5h0.2v0.2c0,0.2,0,0.3,0,0.5c0,0.8,0,1.5-0.9,1.8c0.1,0.1,0.2,0.2,0.4,0.2
		c0.3,0.2,0.6,0.4,0.7,0.8c0.1,0.2,0.1,0.5,0,0.7c0,0.3,0,0.5,0.1,0.6c0,0,0,0,0.2,0c0.1,0,0.2-0.1,0.3-0.1c0.2,0,0.6,0.2,1.2,0.4
		l0.3,0.2c0.6,0.4,1.5,1,1.9,1.6c0.2,0.2,0.2,0.5,0.1,0.7c0,0.1-0.1,0.1-0.1,0.2l0.4,0.4c0.3,0.2,0.6,0.5,0.9,0.7
		c0.3,0.3,0.6,0.5,0.9,0.7c0.9,0.4,1.7,0.3,2.6,0.2c0.4,0,0.8-0.1,1.2-0.1c1.5,0.2,3.3,0.9,4.5,1.7c0.3,0.3,0.6,0.6,1,0.9
		c0.8,0.7,1.7,1.4,2,2.2c0.1,0.3,0.2,0.7,0.2,1.1c0,0.3,0.1,0.7,0.2,1c0.1,0.5,0.3,0.8,0.6,1.1c0.1,0.2,0.3,0.3,0.4,0.5
		c0.6,0.6,1.1,1.1,1.1,1.8c0.1,0.5,0,1.1-0.1,1.6c0,0.2-0.1,0.3-0.1,0.5c0.4,0.1,0.8,0.4,1.1,0.7c0.2,0.2,0.3,0.3,0.4,0.4
		c0.2,0.2,0.5,0.2,0.7,0.2c0.3,0,0.7,0.1,0.9,0.5c0.1,0.2,0.1,0.3,0.1,0.5c0.2-0.1,0.4-0.2,0.6-0.2c1.8-0.4,4.3,1.1,5.1,1.6
		c0.2-0.2,0.3-0.2,0.5-0.2c0.5,0.1,0.8,0.8,1,1.6c0.1,0.3,0.3,0.8,0.4,0.8c0.3,0.3,0.6,0.2,1,0.1c0.2-0.1,0.5-0.2,0.7-0.2l0.1,0
		c0.2,0.1,0.4,0.2,0.5,0.3c0.1,0.1,0.3,0.2,0.5,0.3c0.6,0.2,0.7,0.2,1.4,0.2c0.9,0.2,1.2,0.2,2.1,0.2c0.8,0,1.3,0,2.2,0.4
		c0.8,0.4,1.5,1.1,2.3,1.8c1,1,2.1,2,3.3,2.3c0.4,0.1,0.7,0,1,0c0.8,0,1.4,0,1.9,1.2c0.8,1.5,0.9,3.5,0.9,4.3
		c0.2,2.5-1.3,4.8-3.6,7.3c-0.2,0.3-0.5,0.5-0.8,0.7c-0.3,0.3-0.7,0.5-0.9,0.9c-0.3,0.5-0.5,0.9-0.7,1.4c-0.2,0.6-0.5,1.1-0.8,1.5
		c-0.2,0.7-0.5,0.9-0.9,1.3c-0.1,0.1-0.3,0.2-0.5,0.3c-0.1,0-0.3,0.1-0.3,0.1c-0.3,0.5-0.3,2.2-0.3,3c0,0.5,0,1,0,1.5
		c0,1.5,0.1,3-0.2,4.6c0,0.5-0.2,0.8-0.4,1.1c-0.2,0.2-0.3,0.4-0.4,0.8c-0.1,0.4-0.1,0.8-0.1,1.2c0,0.4,0,0.9-0.1,1.3
		c-0.2,0.7-0.8,1.7-1.3,2.4c-0.6,0.7-0.6,1-0.8,1.5c-0.1,0.2-0.1,0.5-0.3,0.9c-0.3,0.6-0.7,0.8-1,0.9c-0.2,0.1-0.5,0.2-0.7,0.4
		c-0.3,0.3-0.3,0.5-0.4,0.7c-0.1,0.4-0.2,0.5-1,0.7c-0.3,0-0.6,0.1-1,0.1c-1.2,0.1-2.9,0.2-3.6,0.9c-0.2,0.2-0.3,0.5-0.2,0.8l0,0.4
		l-0.3-0.1c-1.4-0.3-2,0.1-3.2,0.9l-0.4,0.3c-0.6,0.4-0.8,0.6-1.4,1.4c-0.6,1-0.6,1-0.8,2c0,0.2,0,0.4,0,0.6c0,0.3-0.1,0.6,0,1
		c0,0.2,0.1,0.3,0.1,0.5c0.2,0.5,0.2,0.7-0.1,1.6c-0.3,0.9-0.7,1.3-1.2,1.8c-0.2,0.2-0.5,0.5-0.7,0.8c-0.4,0.4-0.6,1-0.8,1.6
		c-0.1,0.3-0.2,0.6-0.4,0.9c-0.5,1.2-0.9,2-1.7,2.6c-0.2,0.2-0.5,0.4-0.8,0.6c-0.5,0.3-1,0.7-1.2,1.1c-0.2,0.3-0.4,0.7-0.6,1
		c-0.8,1.4-1.6,2.7-2.8,3.7c-0.9,0.7-1.4,0.7-2.5,0.7h-1c0,0-0.1,0-0.2,0.1c-0.2,0.1-0.4,0.2-0.7,0.2l-0.1,0c-0.3-0.1-0.7-0.3-1-0.6
		c-0.3-0.2-0.6-0.4-0.9-0.5c-0.3,0-0.5-0.1-0.6-0.1c-0.4,0-0.6-0.1-1-0.4c0,0.3,0.4,0.5,1,0.9c0.5,0.2,1,0.5,1.2,0.9
		c0.3,0.4,0.2,0.7,0,1c-0.1,0.1-0.1,0.2-0.2,0.4c0.1,0.2,0.2,0.2,0.4,0.3c0.2,0.1,0.5,0.2,0.6,0.4c0.7,1,0.1,1.8-0.5,2.6
		c-0.2,0.3-0.4,0.6-0.6,0.9c-0.9,1.3-1.6,1.6-3.1,2l-2.5,0.6c-0.6,0.2-1.7,0-2.3,0.2c-0.3,0.1-1.3,1.5-1.3,2.3c-0.1,0.4,0,0.6,0,0.8
		c0.1,0.6,0,0.9-1,1.3c-1.1,0.5-1.9,0.2-2.6-0.1c-0.3-0.1-0.7-0.2-1-0.3c-0.2,0-0.3-0.1-0.4-0.1c0,0.1,0,0.2,0,0.2
		c0,0.1,0,0.3,0,0.4c0,1.1,0.1,1.3,0.1,1.3c0.2,0.3,0.5,0.2,1,0.1c0.5-0.1,1.1-0.2,1.5,0.3c0.3,0.3,0.3,0.6,0.2,1
		c-0.2,0.5-0.8,1-1.8,1.3c-1.1,0.6-1.1,0.6-1.3,1.9c-0.2,0.9-0.7,1.6-1.4,2.1c-0.1,0.1-0.4,0.2-0.8,0.3c-0.2,0-0.5,0.1-0.7,0.2
		c-0.1,0.1-0.2,0.1-0.3,0.1c-0.2,0.1-0.4,0.2-0.7,0.4c-0.5,0.5-0.7,0.9-0.6,1.2c0.1,0.4,0.8,0.7,1.5,1c0.9,0.4,1.8,0.7,1.9,1.5
		c0.2,1.2-0.9,1.8-1.8,2.3c-0.4,0.2-0.7,0.4-1,0.6c-0.5,0.3-0.6,0.8-0.8,1.3c-0.1,0.5-0.3,1-0.7,1.4c-0.4,0.4-0.8,0.5-1.2,0.6
		c-0.7,0.2-1,0.4-1,1.1c0,1.1,0.7,2.1,1.3,2.9l0.3,0.4l-0.4,0.1c-0.2,0-0.4,0.1-0.6,0.1c0.5,0.3,0.7,0.8,0.8,1.2
		c0.1,0.2,0.2,0.4,0.3,0.6c1.1,1.3,3.3,2.2,5.2,2.2h0.3l-0.1,0.3c-0.2,0.9-0.5,0.9-1.1,1c-0.2,0-0.4,0-0.6,0.1
		c-0.2,0-0.4,0.1-0.6,0.2c-0.1,0.1-0.2,0.1-0.4,0.2c0,0,0,0,0,0.1c-0.2,0.2-0.4,0.4-0.8,0.1l0,0c-0.2,0.2-0.4,0.2-0.7,0.2
		c0.1,0.1,0.1,0.3,0.1,0.4c0,0.1,0,0.2,0.1,0.3L124,200.4z M122.6,199.7c0.2,0.1,0.4,0.1,0.6,0.1c0,0,0,0,0-0.1c0-0.2,0-0.3-0.3-0.3
		C122.8,199.6,122.7,199.7,122.6,199.7z M122.2,199.2c0,0.1,0,0.2,0,0.3c0.1-0.1,0.2-0.2,0.3-0.2
		C122.4,199.2,122.3,199.2,122.2,199.2z M118.1,198.4l0.1,0c0.1,0,0.2,0.1,0.3,0.1c0.4,0.2,0.9,0.5,1.3,0.5h1
		c0.3,0.1,0.6,0.2,0.8,0.3c0-0.1,0-0.2,0-0.4l0-0.3h0.3c0.3,0,0.6,0.1,0.9,0.1c0.8,0.1,1.1,0.2,1.4-0.4l0.1-0.2h0.2
		c0.2,0,0.3,0.1,0.4,0.2c0,0,0,0.1,0,0.1c0,0,0,0,0,0l0.1-0.1h0.1c0,0,0.1-0.1,0.2-0.1c0.2-0.1,0.5-0.3,0.8-0.3
		c0.2-0.1,0.4-0.1,0.6-0.1c0.3,0,0.4,0,0.5-0.3c-2-0.1-4.2-1-5.3-2.4c-0.2-0.3-0.3-0.5-0.4-0.7c-0.2-0.5-0.3-0.8-0.8-1.1
		c-0.1,0-0.3,0-0.4,0c-0.3,0.1-0.6,0.1-1-0.5l-0.2-0.4h0.4c0.2,0,0.4,0,0.6,0c0.3,0,0.6,0.1,1,0c-0.6-0.8-1.3-1.8-1.3-3
		c0-1.1,0.7-1.3,1.4-1.5c0.4-0.1,0.7-0.2,1-0.5c0.3-0.3,0.4-0.8,0.6-1.2c0.1-0.6,0.3-1.2,1-1.6c0.3-0.2,0.7-0.4,1-0.7
		c1-0.6,1.7-1,1.6-1.8c-0.1-0.5-0.8-0.8-1.6-1.1c-0.8-0.3-1.7-0.7-1.8-1.4c-0.1-0.5,0.1-1,0.7-1.7c0.3-0.3,0.6-0.4,0.8-0.6
		c0.1,0,0.2-0.1,0.3-0.1c0.2-0.1,0.5-0.2,0.8-0.2c0.2,0,0.5-0.1,0.6-0.2c0.6-0.4,1-1,1.2-1.8c0.2-1.5,0.3-1.6,1.6-2.3
		c1.2-0.4,1.5-0.8,1.5-1c0-0.2,0-0.3-0.2-0.5c-0.2-0.3-0.5-0.2-1-0.1c-0.5,0.1-1.1,0.2-1.5-0.3c-0.1-0.1-0.3-0.3-0.3-1.6
		c0-0.2,0-0.3,0-0.4c0-0.3,0-0.5,0.1-0.7c0.2-0.2,0.5-0.1,0.8,0c0.4,0.1,0.8,0.2,1.1,0.3c0.7,0.3,1.4,0.5,2.3,0.1
		c0.8-0.3,0.8-0.4,0.7-0.8c0-0.2-0.1-0.5,0-0.9c0-0.9,1.1-2.4,1.6-2.7c0.7-0.2,1.8,0,2.3-0.2l2.5-0.6c1.5-0.4,2-0.6,2.8-1.8
		c0.2-0.3,0.4-0.7,0.6-1c0.6-0.8,0.9-1.4,0.4-2.1c-0.1-0.1-0.2-0.2-0.3-0.2c-0.2-0.1-0.6-0.2-0.7-0.7l0-0.1c0-0.3,0.1-0.5,0.3-0.7
		c0.1-0.2,0.1-0.2,0-0.4c-0.1-0.3-0.6-0.5-1-0.7c-0.7-0.4-1.6-0.9-1.2-1.8l0.1-0.3l0.2,0.2c0.5,0.4,0.7,0.4,1.1,0.5
		c0.2,0,0.4,0,0.7,0.1c0.4,0.1,0.7,0.3,1,0.6c0.3,0.2,0.6,0.4,0.8,0.5c0.2,0,0.3-0.1,0.4-0.1c0.1,0,0.2-0.1,0.4-0.1h1
		c1,0,1.4,0,2.2-0.6c1.1-1,1.9-2.2,2.7-3.6c0.2-0.3,0.4-0.6,0.6-1c0.3-0.6,0.8-0.9,1.3-1.3c0.3-0.2,0.6-0.4,0.8-0.6
		c0.8-0.6,1.2-1.3,1.6-2.4c0.1-0.3,0.3-0.6,0.4-0.9c0.2-0.6,0.5-1.3,0.9-1.7c0.3-0.3,0.5-0.6,0.8-0.8c0.5-0.5,0.8-0.8,1.1-1.6
		c0.3-0.7,0.3-0.9,0.1-1.3c0-0.1-0.1-0.3-0.1-0.5c-0.1-0.4-0.1-0.8-0.1-1.2c0-0.2,0-0.4,0-0.6c0.2-1.1,0.2-1.1,0.9-2.2
		c0.7-0.9,0.9-1.1,1.5-1.5l0.4-0.3c1.1-0.8,1.8-1.3,3.3-1.1c0-0.3,0.1-0.6,0.3-0.8c0.8-0.9,2.6-1,3.9-1.1c0.4,0,0.7,0,1-0.1
		c0.6-0.1,0.6-0.1,0.6-0.3c0-0.2,0.1-0.5,0.5-0.9c0.3-0.3,0.6-0.4,0.9-0.5c0.3-0.1,0.6-0.2,0.8-0.6c0.1-0.3,0.2-0.6,0.2-0.9
		c0.1-0.6,0.2-0.9,0.8-1.7c0.5-0.7,1-1.7,1.2-2.2c0.1-0.4,0.1-0.8,0.1-1.2c0-0.4,0-0.9,0.1-1.3c0.1-0.4,0.3-0.7,0.5-0.9
		c0.2-0.3,0.4-0.5,0.4-0.9c0.3-1.6,0.3-3,0.2-4.5c0-0.5,0-1,0-1.6c0-0.9,0-2.6,0.5-3.3c0.2-0.2,0.4-0.2,0.5-0.3
		c0.1,0,0.3-0.1,0.3-0.1c0.4-0.4,0.6-0.6,0.8-1.2l0-0.1c0.3-0.4,0.5-0.9,0.8-1.5c0.2-0.5,0.4-0.9,0.7-1.4c0.3-0.5,0.7-0.8,1-1.1
		c0.3-0.2,0.5-0.4,0.7-0.6c2.7-3,3.7-4.9,3.5-6.9l0,0c0-1.5-0.3-3.1-0.8-4.1c-0.4-0.9-0.7-0.9-1.4-0.9c-0.3,0-0.7,0-1.1,0
		c-1.4-0.4-2.5-1.4-3.6-2.5c-0.7-0.7-1.4-1.3-2.1-1.8c-0.8-0.4-1.1-0.4-2-0.4c-0.9,0-1.3,0-2.2-0.2c-0.6,0-0.8,0-1.5-0.2
		c-0.3-0.1-0.4-0.2-0.6-0.3c-0.1-0.1-0.3-0.2-0.4-0.3c-0.2,0-0.3,0.1-0.5,0.1c-0.4,0.1-1,0.3-1.5-0.2c-0.2-0.2-0.3-0.5-0.5-1
		c-0.1-0.4-0.4-1.3-0.6-1.3c0,0-0.1,0-0.2,0.2l-0.1,0.2l-0.2-0.1c-0.3-0.2-3.1-2-4.9-1.6c-0.5,0.1-0.8,0.3-1,0.7l-0.5,0.8v-0.9
		c0-0.2,0.1-0.4,0.2-0.7c0-0.1,0.1-0.4,0.1-0.4l0-0.1c-0.1-0.2-0.1-0.2-0.5-0.2c-0.3,0-0.6,0-0.9-0.3c-0.1-0.1-0.3-0.2-0.5-0.4
		c-0.3-0.3-0.7-0.7-0.9-0.6l-0.3,0.1v-0.3c0-0.3,0.1-0.5,0.1-0.8c0.1-0.5,0.2-0.9,0.1-1.4c0-0.6-0.4-0.9-1-1.6
		c-0.2-0.2-0.3-0.4-0.4-0.5c-0.3-0.3-0.5-0.6-0.7-1.3c-0.1-0.3-0.2-0.7-0.2-1.1c0-0.3-0.1-0.7-0.2-1c-0.3-0.6-1.1-1.3-1.9-2
		c-0.4-0.3-0.7-0.6-1-0.9c-1.2-0.8-2.8-1.4-4.2-1.6c-0.4,0-0.8,0-1.2,0.1c-0.9,0.1-1.8,0.2-2.9-0.3c-0.4-0.2-0.7-0.5-1-0.8
		c-0.3-0.3-0.6-0.5-0.9-0.7l-1.1-1.1h0.6c0,0,0.1,0,0.1,0c0,0,0-0.1-0.1-0.2c-0.4-0.5-1.2-1.1-1.8-1.5l-0.3-0.2
		c-0.3-0.2-0.8-0.4-0.9-0.4c0,0-0.1,0-0.1,0c-0.1,0.1-0.4,0.1-0.7-0.1c-0.3-0.3-0.3-0.7-0.2-1.1c0-0.2,0-0.4,0-0.5
		c-0.1-0.3-0.3-0.4-0.5-0.5c-0.3-0.2-0.6-0.4-0.7-0.8l-0.1-0.3l0.3,0c0.9-0.1,0.9-0.4,0.8-1.4c0-0.1,0-0.1,0-0.2
		c-0.4,0-0.6,0-0.9,0.2c0,0.1,0.1,0.1,0.1,0.2l0.1,0l0,0c0,0.1,0.1,0.2,0,0.3c0,0.3-0.4,0.6-0.7,0.8l-0.1,0.1
		c-0.8,0.4-1.1,0.2-1.4-0.3c-0.1-0.1-0.2-0.2-0.3-0.4l-0.4-0.4h0.6c0.3,0,0.7-0.1,1-0.2c-0.3,0-0.7,0-1,0c-0.2,0-0.4,0-0.5,0
		c-0.1,0-1.1,0.1-1.6,0.2c-0.3,0.1-0.4,0.1-0.4,0.1c-0.1,0.1-0.1,0.2-0.3,0.3c-1.3,0.9-2.1,0.5-2.8,0.1c-0.3-0.2-0.7-0.4-1.1-0.5
		c-0.4-0.1-0.9,0-1.4,0.1c-0.7,0.1-1.4,0.3-1.9-0.2c-0.2-0.2-0.2-0.5-0.2-0.7c0-0.1,0-0.3,0-0.3l0-0.1c-0.2-0.3-0.5-0.5-0.8-0.5
		c-1,0-1.4-0.1-1.5-0.4c-0.1-0.2-0.1-0.4-0.1-0.6c0-0.1,0-0.3,0-0.3c-0.2-0.2-0.3-0.2-0.3-0.2c-0.1,0.1-0.2,0.6,0.1,1.2l0.1,0.2
		l-0.2,0.1c-0.3,0.2-0.7,0.3-1,0.4c-0.6,0.2-1.2,0.4-1.7,0.8l-0.2,0.2l-0.9-1.8l0.3-0.1c0.4-0.1,1.2-0.4,1.3-0.8
		c0-0.1,0.1-0.2,0-0.3c-0.1-0.3-0.3-0.4-0.6-0.4c-0.3,0-0.6,0.2-0.7,0.3c-0.2,0.1-0.4,0.3-0.6,0.5c-0.3,0.3-0.6,0.5-1.1,0.8
		c-0.1,0.1-0.3,0.2-0.4,0.3c-0.2,0.2-0.4,0.4-0.8,0.4c-0.1,0-0.3,0-0.6-0.1c-0.2,0-0.4-0.1-0.5-0.1c0,0-0.1,0-0.2,0.1
		c0,0.3-0.2,0.5-0.3,0.6c-0.1,0.1-0.3,0-0.4-0.1c-0.1,0-0.1,0-0.2,0c-0.1,0-0.3-0.1-0.5,0c-0.4,0.2-0.9,0.7-1.1,1.5
		c-0.1,0.2-0.1,0.5-0.1,0.9c0,0.4,0,0.7-0.1,1c0,0.2-0.3,0.3-0.6,0.4c-0.1,0-0.3,0.1-0.3,0.1c-0.1,0.1-0.2,0.2-0.3,0.3
		c-0.5,0.5-1.2,1.1-0.9,1.5l0.3,0.5l-0.6-0.1c-0.7-0.1-1.3-0.8-1.8-1.4c-0.3-0.4-0.6-0.7-0.9-0.9c-0.4-0.2-1.8-0.8-2.7-0.4
		c-0.3,0.1-0.6,0.4-0.9,0.6c-0.6,0.4-1.3,0.9-1.9,0.9c-0.6,0-0.9-0.4-1.1-0.6c0,0,0,0,0,0c0,0.1-0.1,0.1-0.1,0.3l-0.2,0.5l-0.3-0.5
		c-0.3-0.5-0.6-0.9-1-1.3c-0.4-0.4-0.7-0.9-1.1-1.4c-0.8-1.3-1.3-2-0.9-3.5c0.2-1.2,0.2-2.2,0.2-3.5c0-0.2,0.1-0.5,0.2-0.7
		c0.1-0.2,0.2-0.5,0.2-0.8c0.1-0.4,0-0.6,0-0.8c-0.1-0.3-0.1-0.6,0.1-0.9c-1.3-1.2-2.2-1.8-4-1.8c-0.4,0-0.5-0.1-0.7-0.1
		C90.1,47,90,47,89.7,47c-0.2,0-0.4,0.1-0.5,0.2c-0.5,0.1-0.9,0.3-1.6,0.3c-0.2,0-0.4,0-0.6-0.1c-0.2,0-0.4-0.1-0.7-0.1
		c-0.1,0.1-0.2,0.3-0.4,0.3c-0.2,0-0.4,0-0.7-0.2l-0.1,0c-0.1-0.1-0.4-0.1-0.5,0l-0.7,0.8l0.3-1c0.1-0.3,0.3-0.6,0.5-0.8
		c0.2-0.2,0.4-0.5,0.5-0.9c0.1-0.5,0.1-1,0-1.6c0-0.3,0-0.6,0-0.9v-0.4l0.4,0.2c0.1,0,0.1,0,0.1,0c0.4-0.2,0.7-1.9,0.8-3
		c0.2-1.3,0.3-2.1,0.6-2.4l0.4-0.4v0.6c0,0,0,0.1,0,0.1c0.3-0.4,0.2-0.7,0.1-1.1c0-0.2-0.1-0.4-0.1-0.5c-0.1-0.6-0.1-0.6-0.9-0.6
		c-1.3-0.2-3.9,0-5.1,0.8c-0.5,0.4-0.5,1-0.6,1.7c-0.1,0.6-0.2,1.4-0.6,2c-0.9,1.4-2.5,1.7-4,2c-0.4,0.1-0.8,0.1-1.2,0.2
		c-0.3,0.1-0.5,0.1-0.7,0.2c-0.5,0.2-0.9,0.3-1.6-0.2c-0.2-0.2-0.4-0.4-0.5-0.4l-0.1,0c-0.4-0.2-0.7-0.2-1.1-0.2l-0.1,0
		c-0.4-0.2-0.7-0.7-1-1.3c-0.1-0.2-0.2-0.3-0.3-0.5c-0.2-0.4-0.4-0.7-0.6-1c-0.2-0.3-0.4-0.6-0.6-1c-0.3-0.3-0.4-0.6-0.5-0.9
		c0-0.1-0.1-0.3-0.1-0.4l0-0.1v-0.7c-0.1-0.1-0.1-0.1-0.1-0.2c0,0,0-0.1-0.1-0.1h-0.2l0-0.1c-0.4-1.1-0.4-1.5-0.4-2.6
		c0-1,0-2.1,0.2-3.2c0.1-0.3,0.2-0.6,0.4-1c0.3-0.7,0.6-1.5,0.5-2c-1,0.1-2.7-0.5-3.4-1.1c-0.4-0.4-0.7-1-0.9-1.6
		c-0.1-0.4-0.3-0.7-0.4-0.9c-0.2-0.2-0.4-0.6-0.6-1c-0.8-1.3-2-3.3-3.4-3.6c-0.4-0.1-0.9,0-1.3,0.3c-0.1,0.1-0.2,0.4-0.3,0.6
		c-0.1,0.4-0.2,0.7-0.5,0.9c-0.6,0.2-1.2-0.2-1.6-0.4c-0.1-0.1-0.2-0.2-0.3-0.2c-0.8-0.5-1.1-1.1-1.4-1.7c-0.3-0.5-0.5-0.9-0.9-1.3
		c-0.2-0.2-0.5-0.4-0.7-0.6c-0.8-0.7-1.6-1.4-2.5-1.4c-0.1,0-0.3,0-0.5,0c-0.4,0-1.1-0.1-1.4,0c-0.1,0.1-0.1,0.3-0.1,0.4l0,0.2
		l-0.1,0.1C47.3,15,46.9,15,46.2,15c-0.3,0-0.7,0-1,0c-1.3,0-2.5,0.1-3.9-0.5l-5.6-1.9c-0.1-0.1-0.4-0.2-0.5-0.4c-0.1,0-0.3,0-0.5,0
		c-0.4,0-0.8,0-1.1,0.2l-0.1,0c-0.6,0-1.6,0-2,0.2c-0.3,0.1-0.4,0.2-0.4,0.2c0,0,0.1,0.1,0.1,0.2c0.1,0.2,0.3,0.4,0.4,0.8
		c0.1,0.3,0.2,0.5,0.3,0.8c0.1,0.3,0.2,0.5,0.3,0.8l0.1,0.2c0.4,1,1,2.5,1.7,3.2c0.1,0.1,0.4,0.3,0.7,0.5c1,0.6,2.4,1.6,1.9,2.9
		c-0.3,0.5-0.8,0.6-1.1,0.6c-0.1,0-0.2,0-0.2,0c0,0,0,0.1,0.1,0.2c0.1,0.4,0.8,0.9,1.3,1.2c0.3,0.2,0.5,0.4,0.7,0.5
		c0.2,0.1,0.5,0.2,0.7,0.3c1.2,0.5,2.5,1.1,2.5,2.6c0,0.2-0.1,0.5-0.1,0.7c-0.1,0.4-0.2,0.7,0.1,1.1c0.1,0.1,0.5,0.3,0.8,0.4
		c0.4,0.2,0.8,0.3,1,0.6c0.6,0.4,1.3,1.1,1.7,1.7c0.2,0.3,0.2,0.5,0.3,0.6c0,0,0,0.1,0,0.1c0,0,0.1,0,0.3,0c0.4,0,0.4-0.2,0.5-0.3
		c0.3-0.5-0.4-1.7-0.7-2.4c0,0,0-0.1,0-0.1c-0.1,0-0.2,0-0.2,0.1c-0.3,0-0.5-0.2-0.7-0.5c0,0,0,0,0-0.1c0,0.1,0,0.2,0,0.4l0.4,0.8
		l-0.8-0.5c-0.4-0.3-0.5-0.4-0.5-0.7c0-0.1,0-0.1,0-0.2l-0.1-0.2l0.2-0.1c0.2-0.1,0.2-0.1,0.2-0.1c0,0,0,0-0.1-0.1L42.8,29v-0.1
		h-0.2l0-0.1c-0.1-0.2-0.2-0.4-0.3-0.5c-0.3-0.5-0.5-0.8-0.4-1.6c-0.8-0.7-2.9-3.5-2.9-3.5l-0.8-1.7c-0.2-0.3-0.3-0.6-0.4-0.9
		c-0.1-0.4-0.2-0.7-0.5-1.1c-0.4,0.3-0.8,0.2-1,0c-1-0.7-1.9-4-1.3-5l0.1-0.2l0.2,0.2c0.4,0.3,0.8,0.5,1.2,0.6
		c0.3,0.1,0.6,0.2,0.9,0.4l0.2,0.1c0.3,0.2,0.4,0.2,0.4,0.5c0,0.1,0,0.2,0.1,0.3c0.2,0.6,0.4,1.2,0.8,2.1c0.1,0.4,0.2,0.6,0.2,0.9
		c0.1,0.3,0.1,0.5,0.2,0.8l0,0.1c0,0.1,0,0.2-0.1,0.3c0,0.1-0.1,0.2,0,0.4c0.1,0.1,0.1,0.1,0.2,0l0.2-0.2l0.2,0.2
		c0.1,0.1,0.2,0.2,0.4,0.3c0.3,0.2,0.6,0.5,0.8,0.7c0.1,0.1,0.2,0.2,0.3,0.3c0.4,0.5,0.7,0.7,1.1,0.5l0.4-0.2v0.4
		c0,0.7,0.2,0.8,0.5,1.1c0.1,0.1,0.3,0.2,0.4,0.4c0.1,0.1,0.2,0.3,0.3,0.5c0,0.1,0.1,0.3,0.1,0.3c0,0,0.1,0,0.1,0
		c0.2,0,0.6-0.1,0.8,0.3c0.1,0.4,0,0.7,0,0.9c-0.1,0.3-0.1,0.5,0,0.7c0.2,0.4,0.7,0.7,1.1,0.9c0.4,0.2,0.8,0.4,1,0.8
		c0.5,0.7,1.2,1.3,1.9,1.9c1.1,1,2.2,1.9,2.7,3.1c0.1,0.3,0.1,0.5,0.1,0.7c0,0.2,0,0.3,0.1,0.5c0.1,0.1,0.2,0.3,0.3,0.4
		c0.1,0.1,0.2,0.3,0.3,0.4l0,0l0,0.1c0.1,0.4,0,0.8-0.1,1.1c-0.1,0.3-0.2,0.5,0.1,0.7l0.3,0.3l-0.4,0.1c-0.3,0.1-0.4,0.3-0.4,0.4
		c-0.1,0.6,0.9,1.8,1.3,2.1c0.2,0.1,0.4,0.2,0.5,0.3c0.5,0.3,1.1,0.7,1.6,1.2c0.8,0.6,1.4,1,2.2,1.2c1,0.2,1.7,0.7,2.5,1.2
		c0.6,0.4,1.2,0.8,2,1.1c0.3,0.1,0.7,0.2,1,0.3c0.4,0.1,0.7,0.2,1.1,0.3c0.5,0.1,1,0.4,1.5,0.7c0.3,0.2,0.6,0.4,0.9,0.5
		c0.1,0,0.3,0.1,0.5,0.2c0.5,0.2,1,0.4,1.4,0.4c0.6,0.1,1.1-0.1,1.5-0.4c0.3-0.2,0.6-0.3,0.9-0.4c2.3-0.9,3.8,0.9,5.1,2.4
		c0.2,0.2,0.3,0.4,0.5,0.6c0.4,0.5,0.9,1.1,1.4,1.2c0.4,0.2,0.8,0.3,1.3,0.3c0.4,0.1,0.9,0.1,1.5,0.3c2.8,1.4,3.7,1.4,4.1,1.2
		c0.1,0,0.2-0.1,0.2-0.2l0.1-0.4l0.3,0.3c0.1,0.1,0.3,0.3,0.3,0.5c0,0.2-0.2,0.3-0.3,0.4c-0.2,0.1-0.2,0.1-0.1,0.2
		c0.1,0.1,0.3,0.3,0.5,0.5c0.3,0.2,0.5,0.4,0.7,0.7c0.6,0.6,1.7,1.7,2.3,2.5l0,0.1v0.1c0,0.1,0,0.2-0.1,0.3c0.2,0.1,0.4,0.3,0.4,0.5
		c0,0.1,0,0.2-0.1,0.3c0,0.1-0.1,0.2-0.2,0.3c-0.1,0.1-0.2,0.2-0.2,0.4c0,0.5,0.5,0.8,0.9,0.9c0.1,0,0.6,0.1,0.7-0.2l0.5-0.9v1.1
		c0,0.5,0.4,0.7,0.9,1c0.4,0.3,0.8,0.5,1,0.9c0.1,0.3,0.1,0.5,0.1,0.6c0,0.1,0,0.2,0.1,0.4c0.1,0.1,0.4,0.2,0.6,0.4
		c0.1,0.1,0.3,0.2,0.4,0.2c0,0,0,0,0,0c0-0.1,0.1-0.2,0.1-0.2V64l0.3,0.1c0.2,0,0.4,0.1,0.5,0.1c0.5,0.1,0.9,0.2,1.4,0.5
		c0.5,0.5,0.9,0.9,1.5,1.3c0.3,0.2,0.3,0.4,0.2,0.6c0,0,0,0,0.1,0c0.1,0,0.5-0.2,0.6-0.3c0.4-0.3,0.5-0.4,0.5-0.4
		c0-0.1-0.1-0.3-0.3-0.5c-0.1-0.2-0.3-0.4-0.4-0.6l-0.2-0.3l0.3-0.1c0.3-0.1,0.7-0.4,1-0.7c0.5-0.5,1-0.9,1.7-0.8
		c0.4,0.1,0.8,0.4,1.2,1.1c0.2,0.4,0.3,0.7,0.4,1.1c0.1,0.5,0.3,1,0.6,1.4c0.1,0.2,0.3,0.4,0.4,0.6c0.2,0.2,0.3,0.4,0.4,0.7
		c0.1,0.4,0.1,0.6,0.1,0.8c0,0.1-0.1,0.2-0.1,0.4c0,0,0,0.1,0,0.1c0,0,0.1,0.1,0.1,0.1c0.3,0.1,0.4,0.4,0.4,0.6
		c0,0.3-0.2,0.5-0.5,0.6c-0.1,0-0.1,0.1-0.1,0.1c0,0,0.1,0.1,0.1,0.1l0.1,0.1v0.2c0,0,0,0.1,0,0.2h0.2l0,0.2c0,0.4-0.1,0.7-0.1,0.9
		c0,0.2-0.1,0.4-0.1,0.5c0,0.2-0.1,0.3-0.2,0.4l0,0c0.1,0.2,0.2,0.3,0.3,0.4c0.1,0.2,0.2,0.3,0.3,0.5l0,0.1c0,0.7-1.1,2.1-1.6,2.3
		c-0.2,0.2-0.5,0.3-0.7,0.4c-0.4,0.2-0.5,0.2-0.4,1l0.1,0.3l-0.3-0.1c-0.3-0.1-0.4,0-0.4,0c0,0.1,0,0.4,0.3,0.6l0.2,0.2l-0.3,0.2
		c-0.3,0.2-0.6,0.3-1,0.4c-0.5,0.2-1.1,0.4-1.2,0.7c-0.1,0.2-0.1,0.5-0.1,0.8c0,0.3,0,0.6-0.1,0.9c0,0.2-0.3,0.5-0.7,0.9
		c-0.1,0.1-0.1,0.5-0.1,0.7c0,0.3-0.3,0.4-0.4,0.5c-0.1,0-0.1,0.1-0.2,0.1c0,0.2,0.1,0.6,0.1,0.9c0.1,0.5,0.3,1.1-0.1,1.5
		c0.5,0.4,1,0.9,1.2,1.4c0,0,0,0,0,0c0.1,0,0.2-0.1,0.2-0.2l0.5-0.5l-0.1,0.7c-0.1,0.8-0.7,1.2-1.3,1.7c-0.7,0.5-1.3,1-1.4,1.9
		c0,0.1,0.1,0.3,0.2,0.6c0.1,0.3,0.3,0.7,0.3,1.1c0,0.2,0.1,0.3,0.1,0.5c0,0.1,0.1,0.2,0.1,0.4c0,0.2-0.1,0.4-0.1,0.5
		c-0.1,0.1-0.1,0.2,0.1,0.5c0.2,0.3,0.7,0.6,1.1,0.8c0.4,0.2,0.8,0.5,1.2,0.8c0.3,0.5,0.6,0.9,0.9,1.4c0.3,0.5,0.5,0.9,0.8,1.3
		c0.7,1.1,1.1,2.3,1.5,3.5c0.3,0.7,0.5,1.5,0.8,2.2c0.4,1,1,2.3,1.7,3.3l0.2,0.4c0.4,0.7,0.7,1.3,0.7,2.3c0,0.2,0,0.3-0.1,0.4
		c0,0.1,0,0.2,0.1,0.4c0.1,0.2,0.2,0.4,0.4,0.7c0.2,0.3,0.3,0.5,0.4,0.7c1.2,1.4,2.8,2.3,4.4,3.2c1.3,0.7,2.7,1.5,3.7,2.6
		c0.1,0.1,0.3,0.3,0.5,0.4c0.5,0.4,1.1,1,1.4,1.5c0.3,0.4,0.3,1.1,0.3,1.7c0,0.4,0,0.8,0.1,1.1c0.3,2.9,0.1,5.2-0.4,7
		c-0.3,0.9-0.3,1.9-0.2,3.1c0,0.4,0,0.8,0,1.3c0,1.4-0.3,3.3-0.8,5.5c-0.2,0.8-0.4,1.7-0.8,2.3c-0.1,0.5-0.1,0.7,0,0.9
		c0,0.2,0.1,0.4,0.1,0.8c0.1,0.8-0.1,1.1-0.4,1.4c-0.1,0.1-0.2,0.2-0.3,0.3c-0.1,0.6,0,1.1,0.1,1.8c0.1,0.4,0.1,0.9,0.1,1.3
		c0.2,1.1,0,2-0.2,3.1c-0.1,0.4-0.1,0.8-0.2,1.1c-0.3,1.3-0.8,2.6-1.3,3.9c-0.2,0.5-0.4,0.9-0.5,1.4c-0.1,0.1-0.1,0.2-0.1,0.3
		c-0.1,0.2-0.2,0.5-0.5,0.8v0.3c0,0.3,0,0.6-0.3,0.8c-0.2,0.1-0.4,0.1-0.7,0.1c-0.1,0.4,0,0.9,0.2,1.4c0.1,0.2,0.1,0.4,0.2,0.5
		c0,0.3,0.1,0.6,0.2,1c0.2,0.7,0.4,1.4,0.2,1.8c-0.1,0.4-0.3,0.7-0.5,1c-0.2,0.3-0.4,0.7-0.5,1.2c0,0.2-0.1,0.4-0.1,0.6
		c0,0.2-0.1,0.4-0.1,0.6c0,0.2,0.1,0.4,0.2,0.6c0,0.1,0.1,0.1,0.1,0.2h0.1l0,0.2c0,0,0,0,0,0h-0.2l0.1,0.2c-0.1,0.1-0.5,0.7-0.5,0.9
		l0,0.1c-0.1,0.3-0.1,0.5-0.1,0.7c0,0.2,0,0.4-0.1,0.8c0,0.1-0.1,0.3-0.2,0.6c0,0.1-0.1,0.2-0.2,0.3c0.2,0.1,0.9,0.2,1.1,0.2
		c0.2-0.2,0.2-1,0.1-1.3l-0.1-0.3l0.3-0.1c0.2-0.1,0.4-0.3,0.1-1.4l-0.1-0.3h0.3c0.2,0,0.6-0.1,0.6-0.4v-0.6l0.4,0.4
		c0.8,0.8-0.1,3.8-0.4,4.5c-0.1,0.3-0.2,0.6-0.2,0.9c-0.1,0.5-0.1,1-0.5,1.2c-0.2,0.1-0.5,0.1-0.9-0.1l-0.2-0.1l0.1-0.2
		c0.2-0.4,0.3-0.9,0.2-1.1c-0.1-0.1-0.2-0.1-0.3,0c-0.1,0-0.1,0-0.1,0c0.1,0.1,0.2,0.4,0.1,0.7l0,0.1c-0.1,0.1-0.3,0.2-0.6,0.4
		c-0.2,0.1-0.5,0.3-0.6,0.4l0,0c0,0,0,0.1,0,0.1c0,0,0,0,0,0c0.2,0.1,0.5,0.2,0.6,0.6c0.2,0.4,0,1-0.2,1.3c-0.1,0.2-0.2,0.3-0.3,0.4
		c-0.1,0.1-0.2,0.2-0.3,0.4l-0.1,0.1h-0.2c0,0-0.1,0-0.1,0c0,0,0,0-0.1,0.1v0.4l-1.1,1.1c0,0.3,0,0.4,0.1,0.4c0.1,0,0.3-0.1,0.4-0.5
		l0.1-0.3l0.3,0.2c0.1,0.1,0.3,0.2,0.5,0.2c0.4,0.2,0.9,0.4,1,0.9c0.1,0.3,0,0.6-0.2,0.9c-0.3,0.5-0.6,0.4-0.9,0.3
		c-0.1,0-0.1,0-0.2,0l-0.4,0.6c-0.2,0.5-0.4,1-0.4,1.5c0,1.1,0.2,1.8,0.3,2.7l0.1,0.4c0,0.2,0,0.4,0,0.5c0,0.2-0.1,0.4,0,0.5h0.6
		l0.1,0.1c0.1,0.1,0.2,0.3,0.3,0.5c0,0.1,0.1,0.3,0.1,0.3l0.5,0.5l-0.7-0.1c-0.3,0-0.4,0-0.5,0.1c-0.2,0.4,0.3,1.3,0.9,1.7
		c0.1,0,0.1,0,0.2,0c0.1-0.1,0.4-0.2,0.8,0c0.4,0.1,0.6,0.4,0.7,0.6c0.1,0.2,0.2,0.3,0.4,0.4l0.6,0.2l-0.6,0.3
		c-0.5,0.2-1,0.1-1.4-0.1c0,0,0.1,0.1,0.1,0.1c0.3,0.3,0.4,0.4,0.4,0.4c0,0,0,0,0.1,0c0.3-0.1,0.6-0.2,1,0.3l0.3,0.3l-0.4,0.1
		c-0.3,0.1-0.3,0.2-0.3,0.2c0,0.1,0.4,0.3,0.6,0.4c0.1,0.1,0.2,0.1,0.3,0.2l0.3,0.2l-0.2,0.2c-0.1,0.1-0.1,0.1-0.1,0.2
		c0.1,0,0.2,0,0.2,0c0.6,0,1.1,0,1.5,0.6c0.7-0.3,0.9-0.2,1.2,0.3c0,0,0,0.1,0.1,0.1c0.2-0.1,0.4,0,0.5,0.1c0.1,0.1,0.2,0.2,0.3,0.5
		c0.1,0,0.2,0.1,0.4,0.1c0.2,0.1,0.4,0.1,0.6,0.2c0.3,0.1,0.6,0.1,0.9,0C117.7,198.5,117.9,198.4,118.1,198.4z M110,175.2L110,175.2
		L110,175.2z M106,110.8L106,110.8L106,110.8z M106.2,110.7L106.2,110.7C106.2,110.7,106.2,110.7,106.2,110.7z M133.3,58.8
		C133.3,58.8,133.3,58.9,133.3,58.8c0.3,0.4,0.4,0.4,0.8,0.2l0.1-0.1c0.2-0.2,0.5-0.3,0.5-0.4c0,0,0,0,0-0.1
		C134.2,58.6,133.8,58.8,133.3,58.8z"/>
	<path d="M105.4,39.2c-0.3,0-0.6,0-0.8-0.2l-0.1-0.1v-0.1c0-0.4,0.4-0.7,0.7-1c0.1-0.1,0.3-0.2,0.3-0.3c0-0.2-0.1-0.3-0.6-0.3
		c-0.2,0-0.5,0-0.7-0.1c-0.6-0.3-0.8-0.6-1-0.9c-0.1-0.1-0.2-0.3-0.3-0.4c-0.2-0.2-0.3-0.3-0.3-0.4c-0.1,0-0.2-0.1-0.4-0.2
		c-1-0.4-2.3-0.8-3.1-1c0,0,0,0,0,0c-0.1,0-2.8-0.2-2.9-0.9c0-0.1,0-0.2,0.1-0.3c-0.6,0-1,0.3-1.6,0.6c-0.1,0.1-0.3,0.2-0.5,0.3
		c-0.7,0.2-1.3,0.4-1.9,0.8l-0.1,0.1l-0.2-0.1c-0.1,0-0.2,0-0.3,0s-0.3,0.1-0.5,0c-0.2-0.1-0.2-0.3-0.2-0.5v-0.2l0.2-0.1
		c0.6-0.2,0.9-0.6,1.2-1c0.2-0.3,0.5-0.6,0.8-0.9c0.8-0.4,1.6-0.6,2.4-0.8l0.4-0.1c1.6-0.2,4.2,0,5.6,0.9c0.2,0.1,0.3,0.2,0.4,0.3
		c0.1,0.1,0.1,0.2,0.4,0.3c0.1,0.1,0.2,0,0.4-0.1c0.2-0.1,0.5-0.3,0.8-0.1c0.5,0.1,1.1,0.7,1.6,1.2c0.3,0.3,0.5,0.5,0.7,0.7
		c0.3,0.2,0.7,0.4,1.2,0.5c0.8,0.3,1.8,0.6,1.8,1.3c0.6,0,1.8,0.3,2.2,0.9c0.3,0.4,0.5,0.6,0.4,0.9c-0.1,0.2-0.3,0.2-0.5,0.3
		c-0.1,0-0.3,0-0.4,0.1c-0.8,0.3-1.5,0.3-2.3,0.2c-0.3,0-0.6,0-0.9,0c-0.2,0-0.5,0.1-0.8,0.1C106.4,39.1,105.8,39.2,105.4,39.2z
		 M105.1,38.6c0.4,0.1,1.1-0.1,1.7-0.2c0.4-0.1,0.7-0.1,0.9-0.1c0.3,0,0.6,0,0.9,0c0.8,0,1.4,0.1,2.1-0.2c0.2-0.1,0.4-0.1,0.5-0.1
		c0,0,0,0,0.1,0c-0.1-0.1-0.2-0.2-0.2-0.3c-0.3-0.5-1.4-0.7-2.1-0.7h-0.3l0.1-0.3c0.1-0.4-0.6-0.7-1.5-1c-0.5-0.2-1-0.4-1.3-0.6
		c-0.2-0.2-0.5-0.4-0.8-0.7c-0.4-0.5-0.9-1-1.4-1.1c-0.1-0.1-0.2,0-0.5,0.1c-0.2,0.1-0.5,0.3-0.8,0.1c-0.4-0.1-0.5-0.3-0.6-0.4
		c-0.1-0.1-0.1-0.1-0.2-0.2c-1.4-0.8-3.8-1-5.3-0.8L95.8,32c-0.7,0.2-1.6,0.4-2.2,0.7c-0.3,0.2-0.5,0.5-0.7,0.8
		c-0.2,0.2-0.4,0.5-0.7,0.7c0,0,0.1,0,0.1,0c0.6-0.3,1.1-0.5,1.7-0.7c0.1-0.1,0.3-0.2,0.4-0.3c0.8-0.5,1.5-1,2.7-0.6l0.8,0.2
		l-0.8,0.2c-0.2,0.1-0.3,0.1-0.4,0.1c0.5,0.2,2,0.4,2.4,0.4c0.9,0.2,2.2,0.6,3.2,1.1c0.3,0.1,0.4,0.2,0.4,0.2c0.1,0,0.1,0.1,0.2,0.2
		c0,0,0.1,0.1,0.3,0.3c0.2,0.2,0.3,0.3,0.4,0.5c0.2,0.3,0.3,0.5,0.8,0.8c0.1,0,0.3,0,0.5,0c0.4,0,1.1,0,1.1,0.8
		c0,0.2-0.2,0.4-0.5,0.6C105.5,38.2,105.2,38.5,105.1,38.6z"/>
	<path d="M116.5,43.8l-0.5-0.6c-0.6-0.8-0.7-0.9-1.9-0.9c-0.3,0-0.6,0-0.9,0c-0.7,0-1.4,0.1-1.9-0.1c-0.5-0.2-0.8-0.5-0.8-0.9
		c0-0.2,0-0.6,0.6-0.8c0.4-0.1,0.9,0.1,1.5,0.2c0.1,0,0.3,0.1,0.4,0.1c-0.2-0.1-0.3-0.3-0.4-0.4l-0.1-0.2l0.1-0.1
		c0.2-0.2,0.5-0.3,0.8-0.2c0-0.5-0.1-0.5-0.6-0.7c-0.1,0-0.3-0.1-0.5-0.1l-0.2-0.1l0.1-0.2c0.2-0.5,0.5-0.6,0.7-0.7
		c0.1-0.1,0.3-0.1,0.4-0.2c0.2-0.2,0.6-0.1,1,0c0.3,0.1,0.8,0.2,0.9,0.1l0.1,0c1.1,0,1.7,0,2.8,0.2l0.1,0c0.2,0.1,0.3,0.1,0.5,0.2
		c0.1,0,0.3,0.1,0.4,0.2l0,0c0,0,0.7,0.2,1,0.5c0.1,0,0.2,0.1,0.3,0.1c0.1,0,0.2,0.1,0.2,0.1h0.6l-0.4,0.4c0.3,0,0.4,0,0.6,0.3
		c0.4,0.4,1.1,1.1,0.9,1.7c-0.1,0.3-0.3,0.5-0.6,0.6c-0.4,0.2-0.7-0.1-0.9-0.3c-0.1-0.1-0.3-0.3-0.5-0.3h-1c-0.4,0-1,0.2-1.4,0.4
		c-0.7,0.2-0.7,0.3-1.1,1c-0.1,0.1-0.1,0.3-0.2,0.4L116.5,43.8z M114.2,41.9c1.4,0,1.6,0.2,2.3,1.1l0,0c0,0,0-0.1,0.1-0.1
		c0.4-0.7,0.6-1,1.4-1.2c0.4-0.2,1.1-0.4,1.5-0.4l1.1,0c0.3,0.1,0.5,0.3,0.7,0.5c0.2,0.2,0.3,0.2,0.3,0.2c0.2-0.1,0.3-0.2,0.3-0.3
		c0.1-0.4-0.6-1-0.8-1.2c-0.1-0.1-0.1-0.1-0.1-0.1c0,0-0.1,0-0.1,0c-0.4,0-0.5-0.2-0.6-0.3c0-0.1,0-0.1,0-0.2c0,0,0,0,0,0
		c-0.1,0-0.2-0.1-0.2-0.1v-0.2l-0.2,0.2c-0.1-0.1-0.6-0.3-0.8-0.4l0,0c-0.2-0.1-0.3-0.1-0.5-0.2c-0.2-0.1-0.3-0.1-0.5-0.2
		c-1-0.2-1.6-0.2-2.6-0.2c-0.3,0.1-0.8,0-1.2-0.1c-0.2-0.1-0.5-0.1-0.6-0.1c-0.2,0.2-0.4,0.3-0.5,0.3c-0.1,0-0.2,0.1-0.3,0.2
		c0.1,0,0.1,0,0.2,0.1c0.9,0.3,1,0.4,1,1.6v0.3c0.1,0,0.2-0.1,0.2-0.1l0.5-0.3l-0.1,0.6c0,0.3-0.2,0.5-0.4,0.6
		c-0.4,0.3-1.1,0.1-1.8-0.2c-0.4-0.1-0.9-0.3-1.2-0.2c-0.1,0-0.3,0.2-0.3,0.3c0,0.2,0.2,0.4,0.5,0.4c0.4,0.1,1.1,0.1,1.7,0
		C113.6,41.9,113.9,41.9,114.2,41.9z M113.3,40.5c0.1,0.1,0.2,0.2,0.4,0.2c0,0,0,0,0.1,0l-0.2-0.2C113.5,40.6,113.4,40.5,113.3,40.5
		z"/>
	<path d="M138.9,192c-0.2,0-0.3,0-0.5-0.2c-0.1-0.1-0.2-0.3-0.2-0.5c-0.1,0.1-0.2,0.1-0.4,0.2c-0.5,0.3-1.1,0.6-1.8,0.1
		c-0.7-0.5-0.5-0.9-0.4-1c0.1-0.2,0.4-0.3,0.8-0.2c0-0.1,0.1-0.2,0.2-0.3c-0.2-0.1-0.2-0.2-0.3-0.4c0-0.1,0-0.3,0.1-0.4l0.1-0.1
		l0.1,0c0.3,0.1,0.7,0,1.2-0.1c0.3-0.1,0.6-0.1,0.9-0.1c0.8,0,2.1,0,3,0.2c0.2,0,0.7,0.2,0.8,0.6c0.1,0.5-0.7,1-1.7,1.5
		c-0.2,0.1-0.4,0.2-0.4,0.2l-0.1,0.1c-0.1,0-0.2,0.1-0.2,0.1C139.6,191.8,139.2,192,138.9,192z M138.7,190.6l-0.1,0.4
		c0,0.2,0,0.4,0,0.4c0.2,0.1,0.7-0.1,1-0.2c0.1,0,0.2-0.1,0.2-0.1c0.1-0.1,0.2-0.1,0.5-0.3c1-0.5,1.5-0.8,1.5-1h0
		c0,0-0.1-0.1-0.4-0.2l0,0c-0.8-0.2-2-0.2-2.9-0.2c-0.2,0-0.5,0.1-0.7,0.1c-0.3,0.1-0.7,0.1-1,0.1c0,0,0.1,0.1,0.2,0.1l0.4,0.2
		l-0.4,0.2c-0.1,0.1-0.2,0.1-0.3,0.2c0,0,0,0.1,0,0.3v0.5l-0.4-0.3c-0.2-0.1-0.4-0.1-0.4-0.1c0,0,0.1,0.1,0.3,0.3
		c0.4,0.3,0.7,0.2,1.3-0.1c0.3-0.1,0.5-0.3,0.8-0.3L138.7,190.6z"/>
	<path d="M105.9,43.4c-0.5,0-0.9-0.1-1.4-0.3c-0.7-0.4-1.3-1-1.1-1.5c0.1-0.4,0.6-0.6,1.4-0.6c1.2,0,2.7,0.5,3.2,1.8l0.1,0.3
		l-0.3,0.1C107.1,43.3,106.5,43.4,105.9,43.4z M104.8,41.5c-0.7,0-0.9,0.2-1,0.2c0,0.2,0.2,0.6,0.9,1c0.8,0.3,1.7,0.2,2.7,0
		C106.9,41.9,105.7,41.5,104.8,41.5z"/>
	<path d="M105.7,26.7l-0.3-0.3c-0.4-0.4-0.3-0.9-0.3-1.2c0-0.5,0-0.7-0.2-0.8c-0.2-0.1-0.8,0.2-1.2,0.4c-0.2,0.1-0.5,0.2-0.7,0.3
		l-0.1,0c-0.3,0-0.5-0.2-1-0.7l-0.4-0.4l0.6,0c0.3,0,0.7-0.1,1.1-0.2c0.7-0.2,1.5-0.4,2.2,0.1c1,0.6,0.8,1.3,0.6,2
		c0,0.2-0.1,0.3-0.1,0.5L105.7,26.7z M102.6,24.3c0.1,0.1,0.2,0.2,0.3,0.2c0.2-0.1,0.4-0.1,0.6-0.2c0.3-0.1,0.5-0.2,0.8-0.3
		c-0.3,0-0.6,0.1-0.9,0.2C103.1,24.2,102.8,24.3,102.6,24.3z"/>
	<path d="M105.4,30.9h-0.2c-0.6,0-0.8-0.1-1-0.7c-0.1,0-0.2-0.1-0.2-0.2c0,0-0.1-0.2-0.1-0.4c-0.1-0.1-0.2-0.1-0.2-0.2
		c-0.7-0.5-0.7-0.7-0.2-1.6c0.1-0.1,0.1-0.1,0.1-0.2c0-0.2,0.1-0.5,0.5-0.5c1,0,1.3,3.6,1.3,3.6V30.9z M104.6,29.5
		c0.1,0.6,0.2,0.8,0.3,0.8c-0.1-0.9-0.5-2.7-0.8-2.8c0,0,0,0.1,0,0.1c0,0.1,0,0.3-0.2,0.4c-0.3,0.6-0.3,0.6,0.1,0.9
		c0.1,0.1,0.3,0.2,0.4,0.3c0,0,0.1,0,0.1,0.1L104.6,29.5L104.6,29.5z"/>
	<path d="M125.4,43c-0.3,0-0.5,0-0.8,0c-0.2,0-0.3,0-0.4,0h-0.2v-0.2c0-1.4,0.3-1.7,1.7-1.7c1,0,1.4,0.3,1.9,0.5
		c0.2,0.1,0.3,0.2,0.5,0.3l0.3,0.1l-0.2,0.2C127.7,42.9,126.4,43,125.4,43z M124.6,42.5C124.6,42.5,124.6,42.5,124.6,42.5
		c0.9,0,2.3,0.1,3-0.3c-0.1-0.1-0.2-0.1-0.3-0.2c-0.4-0.3-0.8-0.5-1.6-0.5C124.7,41.5,124.5,41.6,124.6,42.5
		C124.5,42.4,124.5,42.5,124.6,42.5z"/>
	<path d="M112.1,36.7h-0.3l0.1-0.3c0.2-0.8,0.6-0.9,1-1c0.2-0.1,0.4-0.1,0.5-0.3l0.3-0.7l0.1,0.7c0.1,0.2,0.1,0.5,0,0.6
		c0,0.3-0.1,0.4-0.2,0.6C113.3,36.7,112.8,36.7,112.1,36.7z M113.3,35.7c-0.1,0.1-0.2,0.1-0.3,0.1c-0.2,0.1-0.4,0.1-0.5,0.3
		c0.4,0,0.7,0,0.8-0.2C113.3,36,113.3,35.9,113.3,35.7C113.3,35.8,113.3,35.8,113.3,35.7z"/>
	<path d="M94.8,35.7c-0.1,0-0.2,0-0.3-0.1c-0.3-0.1-0.4-0.3-0.4-0.6c0-0.6,0.5-1.1,0.9-1.1c0.4-0.1,0.7,0.2,0.8,0.6
		c0.1,0.3,0.1,0.6-0.1,0.8C95.5,35.6,95.1,35.7,94.8,35.7z M95.1,34.4C95,34.4,95,34.4,95.1,34.4c-0.2,0-0.5,0.3-0.5,0.6
		c0,0.1,0,0.1,0.1,0.2c0.2,0.1,0.5,0,0.6-0.2c0.1-0.1,0.1-0.2,0-0.3C95.3,34.5,95.2,34.4,95.1,34.4z"/>
	<path d="M110.6,34.1v-0.4c0-0.4,0.2-0.5,0.4-0.7c0.1,0,0.1-0.1,0.1-0.1c0,0,0,0-0.1,0h-0.2v-0.2c0,0,0-0.1,0-0.1c0,0-0.1,0-0.3-0.1
		l-0.6-0.3l0.7-0.2c1.1-0.3,1.3,0.2,1.4,0.4c0.2,0.5-0.3,1.3-1,1.5L110.6,34.1z M111.3,32.5c0.1,0,0.2,0.1,0.2,0.1c0,0,0,0,0,0
		C111.5,32.5,111.4,32.5,111.3,32.5C111.3,32.5,111.3,32.5,111.3,32.5z"/>
	<path d="M134.6,47.3c-0.1,0-0.1,0-0.2-0.1c-0.2-0.1-0.2-0.4-0.2-0.5c-0.2-0.7,0-0.9,0.5-1.1c0.1,0,0.3-0.1,0.5-0.2l0.2-0.1l0.1,0.1
		c0.1,0.1,0.2,0.3,0.3,0.5c0.1,0.1,0.2,0.3,0.3,0.4l0.4,0.4h-0.6c-0.2,0-0.4,0.2-0.7,0.3C135,47.2,134.8,47.3,134.6,47.3z M135.2,46
		c-0.1,0.1-0.2,0.1-0.3,0.1c-0.1,0-0.2,0.1-0.3,0.1c0,0,0,0.1,0.1,0.4l0,0.1c0,0,0,0,0,0.1c0.1,0,0.2-0.1,0.3-0.2
		c0.1-0.1,0.3-0.2,0.5-0.2c0,0-0.1-0.1-0.1-0.1C135.3,46.1,135.3,46.1,135.2,46z"/>
	<path d="M107.9,28.6h-0.2c-0.2,0-0.3-0.1-0.4-0.1c-0.1,0-0.2-0.1-0.2-0.1h-0.8l0.7-0.5c0.3-0.2,0.4-0.3,0.4-0.3c0,0,0-0.1-0.3-0.3
		c-0.8,0-0.8-0.8-0.8-1.1v-0.4l0.7,0.4c0.9,0.5,1.5,0.9,1.1,2.2L107.9,28.6z M106.8,26.7c0,0,0.1,0.1,0.1,0.1
		C106.9,26.8,106.8,26.8,106.8,26.7z"/>
	<path d="M129.5,197.4c-0.2,0-0.4,0-0.6-0.1l-0.3-0.2l0.2-0.2c0.5-0.5,1.4-0.5,2.1-0.5h0.2v0.2c0,0.2-0.1,0.3-0.2,0.4v0.2l-0.3,0
		c-0.2,0-0.4,0-0.6,0C129.9,197.3,129.7,197.4,129.5,197.4z"/>
	<path d="M136.6,50.5h-0.2c-0.4,0-1-0.3-1.1-0.8c-0.1-0.2-0.1-0.5,0.1-0.7c0.2-0.3,0.4-0.3,0.5-0.2c0.5,0.2,0.7,1.3,0.7,1.4V50.5z
		 M135.7,49.3C135.7,49.3,135.7,49.4,135.7,49.3L135.7,49.3c-0.1,0.1-0.1,0.1-0.1,0.2c0,0.1,0.2,0.3,0.3,0.3
		C135.9,49.7,135.8,49.4,135.7,49.3z"/>
	<path d="M110.4,33.1l-0.4-0.4c-0.4-0.4-1-1-1.1-1.8c-0.1-0.1-0.1-0.2,0-0.6l0.5-2v1.9c0.5,0.5,1,1.2,1,2.2V33.1z M109.5,31.2
		c0.1,0.2,0.2,0.3,0.3,0.5C109.7,31.5,109.6,31.3,109.5,31.2z"/>
	<path d="M130.2,57.9c-0.2,0-0.4,0-0.6,0c-0.1,0-0.1,0-0.1,0h-0.2v-0.2v0c0-0.3,0.1-0.4,0.2-0.4c0.1-0.1,0.2-0.1,0.3-0.2
		c0.3-0.1,0.9-0.2,1.2,0c0.1,0.1,0.4,0.3,0.3,0.6C131,57.8,130.7,57.9,130.2,57.9z M130.1,57.4c0.2,0,0.3,0,0.4,0
		C130.4,57.3,130.3,57.3,130.1,57.4z"/>
	<path d="M109.1,29.9c-0.6,0-0.8-0.5-1-0.9c-0.1-0.2-0.1-0.3-0.2-0.5l-0.2-0.4h0.4c0.8,0,1.3,0.9,1.5,1.4c0,0,0,0,0,0l0.2,0.4h-0.4
		C109.3,29.8,109.2,29.9,109.1,29.9z M108.6,28.8c0.1,0.3,0.2,0.4,0.3,0.5l0,0C108.8,29.1,108.7,29,108.6,28.8z"/>
	<path d="M134.9,48.9l-0.1-0.2c-0.4-0.9-0.5-1,0-1.5l0.2-0.2l0.2,0.2c0.4,0.4,0.6,0.8,0.5,1.1c-0.1,0.3-0.3,0.4-0.6,0.6L134.9,48.9z
		 M135.1,47.7c-0.1,0.1,0,0.2,0.1,0.6c0.1,0,0.1-0.1,0.1-0.1S135.3,48,135.1,47.7z"/>
	<path d="M136,52.1c-0.2,0-0.4-0.1-0.4-0.2c-0.2-0.2-0.2-0.6-0.1-0.9c0.2-0.3,0.5-0.4,0.8-0.3l0.2,0v1l0.1,0.2l-0.1,0V52h-0.2
		C136.3,52,136.1,52.1,136,52.1z M136.1,51.1C136,51.2,136,51.2,136.1,51.1c-0.1,0.1-0.1,0.2-0.1,0.2c0,0,0.1,0,0.1-0.1c0,0,0,0,0,0
		V51.1z"/>
	<path d="M121.2,55.4c-0.1,0-0.2,0-0.2,0c-0.3-0.1-0.6-0.4-0.6-0.7c0-0.1,0-0.2,0-0.3c0-0.1,0.1-0.2,0.3-0.4l0.4-0.3v0.5
		c0,0.1,0,0.1,0.2,0.2c0.2,0.1,0.4,0.3,0.4,0.6v0.1l-0.1,0.1C121.5,55.4,121.4,55.4,121.2,55.4z M121,54.9
		C121,54.9,121.1,54.9,121,54.9C121.1,54.9,121,54.9,121,54.9C121,54.9,121,54.9,121,54.9z"/>
	<path d="M116.3,35H116c-0.5,0-0.8-0.1-1.1-0.8l-0.1-0.3h0.3c0.4,0,1.1,0,1.1,0.9V35z M115.6,34.4c0,0,0.1,0.1,0.1,0.1
		C115.7,34.5,115.7,34.5,115.6,34.4z"/>
	<path d="M97.2,65.5C97.2,65.5,97.1,65.5,97.2,65.5c-0.3,0-0.4-0.2-0.6-0.5l0-0.1c0-0.2,0.1-0.3,0.1-0.4c0-0.1,0.1-0.2,0.1-0.2v-0.6
		l0.4,0.4c0.1,0.1,0.2,0.3,0.3,0.5c0,0.1,0.1,0.3,0.1,0.3l0.2,0.2l-0.2,0.2C97.5,65.4,97.3,65.5,97.2,65.5z"/>
	<path d="M51.1,35.6c-0.3,0-0.5-0.2-0.7-0.4l-0.1-0.1V35c0-0.2,0-0.7,0.7-0.7h0.2v0.2c0,0.1,0.2,0.3,0.3,0.5l0.2,0.2l-0.3,0.2
		C51.4,35.5,51.3,35.6,51.1,35.6z M50.9,34.9C50.9,34.9,50.9,34.9,50.9,34.9C50.9,34.9,50.9,34.9,50.9,34.9
		C50.9,34.9,50.9,34.9,50.9,34.9z"/>
	<path d="M138.7,53.5c-0.1,0-0.1,0-0.2-0.1l-0.1,0c-0.3-0.3-0.4-0.5-0.3-0.8c0-0.1,0-0.2,0-0.4h0.5c0,0,0.1,0.2,0.1,0.3
		c0.2,0.4,0.3,0.7,0.1,0.9C138.9,53.4,138.8,53.5,138.7,53.5z"/>
	<path d="M34.8,22.1l-0.3-0.3c-0.5-0.5-0.5-0.6-0.3-1.3l0.1-0.3l0.3,0.1c0.6,0.3,0.5,0.7,0.3,1.3L34.8,22.1z"/>
	<path d="M122.3,55.6l-0.1-0.1c-0.1-0.1-0.2-0.3-0.3-0.4c0-0.1-0.1-0.2-0.2-0.2l-0.2-0.2l0.2-0.2c0.2-0.1,0.4-0.2,0.6-0.1
		c0.3,0.1,0.4,0.4,0.4,0.7c0,0.2-0.2,0.4-0.4,0.5L122.3,55.6z"/>
	<path d="M87.8,46.9v-0.4c0-0.3,0-0.6,0.3-0.8c0.2-0.2,0.5-0.2,1.1-0.1l0.7,0.2l-0.6,0.3c-0.2,0.1-0.3,0.2-0.5,0.3
		c-0.2,0.1-0.3,0.2-0.5,0.3L87.8,46.9z"/>
	<path d="M136.1,57.4h-0.4l0.2-0.4c0.2-0.5,0.3-0.5,1-0.8l0.5-0.2l-0.2,0.5C136.9,57.3,136.9,57.4,136.1,57.4z"/>
	<path d="M135.5,53.3l-0.2-0.2c-0.5-0.5-0.5-0.7,0-1.2l0.2-0.2l0.2,0.2c0.6,0.6,0.2,1,0,1.2L135.5,53.3z M135.4,52.6
		C135.4,52.6,135.4,52.6,135.4,52.6C135.5,52.6,135.5,52.6,135.4,52.6C135.4,52.6,135.4,52.6,135.4,52.6
		C135.4,52.6,135.4,52.6,135.4,52.6z"/>
	<path d="M114.1,33.8H114c-0.1,0-0.3,0-0.4-0.1c-0.1-0.1-0.3-0.1-0.5-0.1h-0.4l0.2-0.4c0.2-0.5,0.6-0.4,0.8-0.4c0,0,0.1,0,0.1,0
		c0.2,0,0.4,0.1,0.5,0.3C114.3,33.4,114.3,33.6,114.1,33.8L114.1,33.8z"/>
	<path d="M128.8,43.6c-0.1,0-0.2,0-0.3-0.1c-0.1-0.1-0.2-0.2-0.2-0.3c0-0.3,0.5-0.7,0.8-0.7c0.1,0,0.3,0.1,0.4,0.2
		c0.1,0.1,0.1,0.2,0.1,0.4v0.1l-0.1,0.1C129.3,43.6,129,43.6,128.8,43.6z"/>
	<path d="M128.8,42.2h-0.5l0.3-0.4c0.4-0.7,0.8-0.8,1.4-0.5l0.2,0.1l-0.1,0.2C129.8,42.2,129.2,42.2,128.8,42.2z"/>
	<path d="M106.1,28.1h-1.8l0.3-0.4c0.3-0.4,0.4-0.6,0.6-0.6s0.4,0.2,0.6,0.6L106.1,28.1z"/>
	<path d="M102.6,63.5c-0.1,0-0.1,0-0.2-0.1c-0.2-0.1-0.4-0.3-0.3-0.6c0-0.1,0.1-0.4,0.6-0.5l0.1,0l0.1,0.1c0.3,0.3,0.3,0.7,0,1
		C102.8,63.5,102.7,63.5,102.6,63.5z M102.6,62.9C102.5,62.9,102.5,62.9,102.6,62.9c-0.1,0.1-0.1,0.1,0,0.1
		C102.6,63,102.6,62.9,102.6,62.9z"/>
	<path d="M134.9,45.2l-0.3-0.1c-0.4-0.1-0.8-0.4-0.8-0.7c0-0.1,0.1-0.3,0.4-0.4l0.1,0c0.7,0,0.7,0.5,0.7,0.9V45.2z"/>
	<path d="M134.4,55.8l-0.2-0.2c-0.2-0.2-0.2-0.4-0.2-0.6c0-0.2,0.2-0.5,0.4-0.6l0.1-0.1l0,0l0.1,0l0.1,0.1c0.2,0.1,0.3,0.2,0.4,0.4
		c0.1,0.3-0.2,0.6-0.4,0.8c0,0-0.1,0.1-0.1,0.1L134.4,55.8z"/>
	<path d="M134.8,44.2l-0.3-0.1c-0.7-0.3-0.7-0.7-0.7-0.8c0.1-0.2,0.3-0.4,0.6-0.3c0.1,0,0.5,0.2,0.4,0.9L134.8,44.2L134.8,44.2
		L134.8,44.2z"/>
	<path d="M85.7,44.6l-0.2-0.2c-0.2-0.2-0.4-0.4-0.4-0.6c0-0.2,0.2-0.4,0.6-0.6L86,43l0.1,0.3c0.3,0.6,0,0.9-0.3,1.1L85.7,44.6z
		 M85.7,43.8C85.7,43.8,85.7,43.8,85.7,43.8C85.7,43.8,85.7,43.8,85.7,43.8C85.7,43.8,85.7,43.8,85.7,43.8z"/>
	<path d="M98.1,40.4c-0.2,0-0.3-0.1-0.5-0.1h-0.3l0-0.1l0,0l0.1-0.2c0.1-0.4,0.4-0.5,0.5-0.6c0.2-0.1,0.5,0,0.7,0.3l0.1,0.1
		l-0.1,0.2c-0.1,0.2-0.2,0.4-0.5,0.5C98.2,40.4,98.1,40.4,98.1,40.4z M98.1,39.9C98.1,39.9,98.1,39.9,98.1,39.9
		C98.1,39.9,98.1,39.9,98.1,39.9C98.1,39.9,98.1,39.9,98.1,39.9L98.1,39.9z"/>
	<path d="M110.7,30.3c0,0-0.1,0-0.1,0c-0.2-0.1-0.3-0.2-0.3-0.5c0-0.3,0.1-0.5,0.4-0.7l0.2-0.1l0.1,0.1c0.3,0.3,0.3,0.7,0,1
		C110.9,30.2,110.8,30.3,110.7,30.3z"/>
	<path d="M111.2,173.4h-1.6l0.2-0.4c0.1-0.3,0.2-0.4,0.4-0.4c0.2,0,0.3,0.1,0.6,0.4L111.2,173.4z"/>
	<path d="M127.9,58.1c-0.1,0-0.2,0-0.3-0.1c-0.2-0.1-0.3-0.3-0.3-0.5v-0.1l0.4-0.4h0.1c0.2,0,0.7,0,0.7,0.7v0.2l-0.1,0.1
		C128.1,58.1,128,58.1,127.9,58.1z"/>
	<path d="M119.6,54.7h-0.2c-0.6,0-0.7-0.2-0.7-0.9v-0.6l0.4,0.4c0,0,0.1,0.1,0.1,0.1c0.2,0.1,0.4,0.3,0.4,0.7V54.7z"/>
	<path d="M109.1,31.3h-0.6c0,0,0,0,0,0c-0.4,0-0.7-0.1-0.8-0.4c-0.1-0.1-0.1-0.3,0-0.6l0.2-0.3L109.1,31.3z"/>
	<path d="M132.7,44.5c0,0-0.1,0-0.1,0c-0.2-0.1-0.3-0.2-0.4-0.4c0-0.1-0.1-0.1-0.1-0.2l-0.1-0.2l0.2-0.1c0.2-0.1,0.4-0.2,0.6-0.1
		c0.2,0.1,0.3,0.3,0.4,0.7l0.1,0.2l-0.2,0.1C133,44.5,132.9,44.5,132.7,44.5z"/>
	<path d="M42.6,41.4c-0.3,0-0.5-0.1-0.6-0.3c-0.1-0.1-0.1-0.2,0-0.4c0-0.1,0.1-0.2,0.3-0.3l0.1,0c0.7,0,0.7,0.5,0.7,0.7v0.2L43,41.3
		C42.9,41.4,42.8,41.4,42.6,41.4z"/>
	<path d="M132.2,42.5c-0.1,0-0.3-0.1-0.6-0.1l-1.5-0.5h1.5c0.1,0,0.3-0.2,0.4-0.3l0.4-0.4l0,0.6c0,0.4,0,0.6-0.2,0.7
		C132.4,42.5,132.3,42.5,132.2,42.5z M132.4,41.7l0.2,0.2L132.4,41.7z"/>
	<path d="M135.5,47.6l-0.2-0.1c-0.3-0.1-0.4-0.3-0.5-0.5c0-0.1,0-0.2,0-0.2l-0.7-0.3h1.2v0.1l0,0l0.2,0.1c0.2,0.1,0.4,0.2,0.4,0.4
		c0,0.2-0.1,0.4-0.3,0.6L135.5,47.6z"/>
	<path d="M133.6,45.7c-0.1,0-0.2-0.1-0.3-0.2c-0.1-0.2,0-0.4,0-0.6v-0.2l0.3,0c0.3,0,0.4,0.4,0.4,0.6c0,0.1,0,0.2-0.1,0.3
		C133.9,45.6,133.8,45.7,133.6,45.7z M133.6,45.2v0.2V45.2C133.6,45.2,133.7,45.2,133.6,45.2C133.7,45.2,133.6,45.2,133.6,45.2
		L133.6,45.2C133.6,45.2,133.6,45.2,133.6,45.2L133.6,45.2C133.6,45.2,133.6,45.2,133.6,45.2C133.6,45.2,133.6,45.2,133.6,45.2z"/>
	<path d="M110,176.7l-0.4-0.4c-0.1-0.1-0.2-0.2-0.2-0.2c-0.2-0.2-0.2-0.3-0.1-0.6l0.2-0.5l0.5,0.5V176.7z"/>
	<path d="M97.4,54.7h-0.2c-0.3,0-0.5-0.2-0.5-0.5c0-0.2,0.1-0.3,0.2-0.4c0.2-0.1,0.3,0,0.4,0.1c0.1,0.1,0.2,0.3,0,0.6L97.4,54.7z
		 M97.3,54.2L97.3,54.2C97.3,54.3,97.3,54.3,97.3,54.2L97.3,54.2z"/>
</g>
</svg>
